<svg width="20" height="20" viewBox="0 0 20 20" fill="none" xmlns="http://www.w3.org/2000/svg">
<path d="M16.9979 16.31V18C16.9979 18.5304 16.7872 19.0391 16.4122 19.4142C16.0371 19.7893 15.5285 20 14.9981 20H4.99938C4.46901 20 3.96036 19.7893 3.58534 19.4142C3.21031 19.0391 2.99963 18.5304 2.99963 18V14.3C2.53968 14.12 1.94976 14 0.999875 14C0.734692 14 0.48037 13.8946 0.292857 13.7071C0.105344 13.5196 0 13.2652 0 13C0 12.7348 0.105344 12.4804 0.292857 12.2929C0.48037 12.1054 0.734692 12 0.999875 12C1.81977 12 2.46969 12.08 2.99963 12.21V10.3C2.53968 10.12 1.94976 10 0.999875 10C0.734692 10 0.48037 9.89464 0.292857 9.70711C0.105344 9.51957 0 9.26522 0 9C0 8.73478 0.105344 8.48043 0.292857 8.29289C0.48037 8.10536 0.734692 8 0.999875 8C1.81977 8 2.46969 8.08 2.99963 8.21V6.3C2.53968 6.12 1.94976 6 0.999875 6C0.734692 6 0.48037 5.89464 0.292857 5.70711C0.105344 5.51957 0 5.26522 0 5C0 4.73478 0.105344 4.48043 0.292857 4.29289C0.48037 4.10536 0.734692 4 0.999875 4C1.81977 4 2.46969 4.08 2.99963 4.21V2C2.99963 1.46957 3.21031 0.960859 3.58534 0.585786C3.96036 0.210714 4.46901 0 4.99938 0H14.9981C15.5285 0 16.0371 0.210714 16.4122 0.585786C16.7872 0.960859 16.9979 1.46957 16.9979 2V4.16C18.7777 4.47 19.5376 5.13 19.7075 5.29C20.0975 5.68 20.0975 6.32 19.7075 6.71C19.3176 7.1 18.7977 7.09 18.2877 6.71C18.2877 6.71 17.2478 6 14.9981 6C13.7383 6 12.9084 6.41 11.9485 6.9C10.9086 7.41 9.73878 8 7.999 8C7.63905 8 7.30909 8 6.99913 7.96V5.95C7.29909 6 7.62905 6 7.999 6C9.25884 6 10.0887 5.59 11.0486 5.11C12.0885 4.59 13.2683 4 14.9981 4V2H4.99938V18H14.9981V16C16.4979 16 16.9679 16.29 16.9979 16.31ZM14.9981 8C13.2683 8 12.0885 8.59 11.0486 9.11C10.0887 9.59 9.25884 10 7.999 10C7.62905 10 7.29909 10 6.99913 9.95V11.96C7.30909 12 7.63905 12 7.999 12C9.73878 12 10.9086 11.41 11.9485 10.9C12.9084 10.42 13.7383 10 14.9981 10C17.2478 10 18.2877 10.71 18.2877 10.71C18.7977 11.1 19.3176 11.1 19.7075 10.71C20.0975 10.32 20.0975 9.69 19.7075 9.29C19.4976 9.08 18.2477 8 14.9981 8ZM14.9981 12C13.2683 12 12.0885 12.59 11.0486 13.11C10.0887 13.59 9.25884 14 7.999 14C7.62905 14 7.29909 14 6.99913 13.95V15.96C7.30909 16 7.63905 16 7.999 16C9.73878 16 10.9086 15.41 11.9485 14.9C12.9084 14.42 13.7383 14 14.9981 14C17.2478 14 18.2877 14.71 18.2877 14.71C18.7977 15.1 19.3176 15.1 19.7075 14.71C20.0975 14.32 20.0975 13.69 19.7075 13.29C19.4976 13.08 18.2477 12 14.9981 12Z" fill="black" fill-opacity="0.9"/>
</svg>
