<svg width="22" height="22" viewBox="0 0 22 22" fill="none" xmlns="http://www.w3.org/2000/svg">
<path d="M12.3438 5.06932H12.9847C13.3247 5.06932 13.6508 4.92781 13.8912 4.67594C14.1316 4.42406 14.2666 4.08244 14.2666 3.72623V3.50238H13.6257C13.2857 3.50238 12.9596 3.64389 12.7192 3.89576C12.4788 4.14764 12.3438 4.48926 12.3438 4.84547H11.7028C11.3628 4.84547 11.0368 4.70397 10.7964 4.45209C10.556 4.20021 10.4209 3.85859 10.4209 3.50238V3.05469H11.0619C11.4018 3.05469 11.7279 3.19619 11.9683 3.44807C12.2087 3.69995 12.3438 4.04156 12.3438 4.39777V5.74086M11.2755 5.74086H13.412V6.63625C13.412 6.75499 13.367 6.86886 13.2869 6.95282C13.2067 7.03678 13.098 7.08394 12.9847 7.08394H11.7028C11.5895 7.08394 11.4808 7.03678 11.4007 6.95282C11.3205 6.86886 11.2755 6.75499 11.2755 6.63625V5.74086Z" stroke="black" stroke-width="0.2" stroke-linecap="round" stroke-linejoin="round"/>
<path d="M1.54688 12.1082C1.54688 12.7748 1.79973 13.4142 2.24957 13.8856C2.69954 14.3569 3.30967 14.6217 3.94602 14.6217C4.58225 14.6217 5.1925 14.3569 5.64232 13.8856C6.09229 13.4142 6.34501 12.7747 6.34501 12.1082C6.34501 11.4416 6.09231 10.8022 5.64232 10.3309C5.1925 9.8595 4.58221 9.59473 3.94602 9.59473C3.30967 9.59473 2.69954 9.85949 2.24957 10.3309C1.79975 10.8022 1.54688 11.4416 1.54688 12.1082ZM3.94602 10.0559C4.46556 10.0559 4.96376 10.2721 5.33112 10.657C5.69851 11.0419 5.90486 11.5639 5.90486 12.1082C5.90486 12.6525 5.69852 13.1745 5.33112 13.5594C4.96373 13.9443 4.46556 14.1605 3.94602 14.1605C3.42648 14.1605 2.92828 13.9443 2.56092 13.5594C2.19356 13.1745 1.98718 12.6525 1.98718 12.1082C1.98764 11.564 2.19428 11.0424 2.56151 10.6576C2.92873 10.2728 3.42663 10.0565 3.94602 10.0559Z" fill="black"/>
<path d="M18.1413 14.6187C18.7771 14.6163 19.3861 14.3495 19.8342 13.8769C20.2824 13.4043 20.5332 12.7646 20.5314 12.0984C20.5297 11.4321 20.2756 10.7938 19.8248 10.3238C19.3742 9.85382 18.7638 9.59048 18.1281 9.5918C17.4921 9.59293 16.8826 9.85866 16.4338 10.3305C15.9847 10.8021 15.7328 11.4413 15.7334 12.1075C15.734 12.7754 15.9883 13.4156 16.4399 13.8867C16.8918 14.3578 17.5039 14.6212 18.1413 14.6187ZM18.1413 10.0554C18.6602 10.0578 19.157 10.2759 19.5227 10.6619C19.8883 11.0478 20.0928 11.5701 20.0912 12.1138C20.0897 12.6576 19.8823 13.1785 19.5144 13.5621C19.1466 13.9458 18.6485 14.1608 18.1295 14.16C17.6106 14.1592 17.113 13.9426 16.7464 13.5578C16.3796 13.173 16.1736 12.6515 16.1736 12.1077C16.1742 11.5619 16.3819 11.039 16.7511 10.6539C17.1202 10.2688 17.6204 10.0536 18.1413 10.0554Z" fill="black"/>
<path d="M4.54961 8.93781C4.58922 9.00086 4.65585 9.03963 4.72786 9.04156C4.7581 9.04236 4.7882 9.03609 4.81583 9.02322L7.41518 7.81942C7.96632 8.02065 8.54619 8.12199 9.12976 8.11925C9.32028 8.11748 9.5105 8.10509 9.6998 8.08225C10.5118 8.63704 11.4618 8.92896 12.4312 8.92175C13.0086 8.92384 13.5823 8.82411 14.1281 8.62659L15.847 9.73341C15.8813 9.75577 15.921 9.76767 15.9615 9.76799C16.0346 9.76976 16.1037 9.73341 16.146 9.67116C16.1884 9.60875 16.1984 9.52832 16.1727 9.45675L15.5322 7.80801V7.80785C16.3131 7.16478 16.7781 6.18935 16.8 5.14915C16.8 3.07385 14.8412 1.37427 12.4379 1.37427C12.2473 1.37603 12.0571 1.38826 11.8678 1.4111C11.0533 0.856802 10.101 0.566455 9.12984 0.57642C6.72641 0.57642 4.76765 2.26905 4.76765 4.34904V4.34888C4.78699 5.36577 5.23114 6.32238 5.98265 6.96624L4.563 8.64956C4.49468 8.73047 4.48915 8.8503 4.5498 8.93781L4.54961 8.93781ZM12.4313 1.83541C14.5927 1.83541 16.3535 3.3228 16.3535 5.14914C16.3326 6.10879 15.8776 7.00087 15.1276 7.55196C15.0487 7.61501 15.02 7.72552 15.0571 7.82171L15.4973 8.9747L14.2626 8.17222V8.17238C14.2275 8.14954 14.1871 8.13764 14.1459 8.13764C14.1194 8.13731 14.0931 8.14278 14.0689 8.15388C13.545 8.358 12.9904 8.46192 12.4314 8.46063C10.2679 8.46063 8.50924 6.97566 8.50924 5.14933C8.50924 3.32287 10.2679 1.83541 12.4313 1.83541ZM6.46443 7.0885C6.50527 7.04057 6.52523 6.97703 6.51955 6.91317C6.51356 6.84915 6.48255 6.79076 6.43357 6.75184C5.6836 6.20059 5.22856 5.3085 5.20769 4.34889C5.20769 2.52256 6.96848 1.03759 9.12981 1.03759C9.84248 1.03357 10.5462 1.20327 11.1855 1.53333C9.38728 1.99449 8.06895 3.44264 8.06895 5.14914C8.08707 6.11234 8.4913 7.02291 9.18263 7.65813H9.12982C8.56869 7.66022 8.0117 7.55631 7.48571 7.35138C7.43274 7.32886 7.37364 7.32886 7.32067 7.35138L5.55988 8.16304L6.46443 7.0885Z" fill="black"/>
<path d="M16.1734 21.4019H20.9121C20.9704 21.4019 21.0263 21.3776 21.0676 21.3343C21.1089 21.291 21.1321 21.2325 21.1321 21.1714V17.7307C21.1321 16.3863 19.9722 15.2933 18.5459 15.2933C17.8781 15.2821 17.2296 15.5283 16.7236 15.9852C16.2365 16.4217 15.9552 17.0592 15.9534 17.7308V19.2204H6.13047V17.7308C6.12648 17.0639 5.84721 16.4315 5.36454 15.9968C4.85789 15.5395 4.20849 15.2934 3.54004 15.305C2.11611 15.305 0.956208 16.3979 0.956208 17.7423L0.956055 21.1714C0.956055 21.2325 0.979237 21.291 1.02053 21.3343C1.06183 21.3776 1.11772 21.4019 1.17621 21.4019H16.1734ZM16.3935 17.7307C16.3991 17.1977 16.6246 16.6931 17.0119 16.3472C17.4387 15.9593 17.9876 15.7506 18.5526 15.7614C19.7367 15.7614 20.6985 16.6492 20.6985 17.7376V19.2273H16.3933L16.3935 17.7307ZM1.39176 17.7307C1.39176 16.6422 2.35361 15.7545 3.53544 15.7545C4.10026 15.7447 4.64864 15.9533 5.07606 16.3404C5.46341 16.6862 5.68894 17.1908 5.6946 17.7239V19.2135H1.39608L1.39176 17.7307ZM1.39176 20.9407V19.6817H20.6917V20.9407H1.39176Z" fill="black"/>
</svg>
