<svg width="21" height="20" viewBox="0 0 21 20" fill="none" xmlns="http://www.w3.org/2000/svg">
<path d="M11.5636 4.31565H12.214C12.559 4.31565 12.8899 4.17976 13.1339 3.93786C13.3778 3.69597 13.5149 3.36788 13.5149 3.02579V2.81081H12.8644C12.5194 2.81081 12.1886 2.94671 11.9446 3.18861C11.7006 3.4305 11.5636 3.75858 11.5636 4.10068H10.9132C10.5682 4.10068 10.2373 3.96478 9.99332 3.72288C9.74936 3.48099 9.6123 3.15291 9.6123 2.81081V2.38086H10.2627C10.6077 2.38086 10.9386 2.51676 11.1826 2.75865C11.4265 3.00055 11.5636 3.32863 11.5636 3.67072V4.96059M10.4795 4.96059H12.6476V5.82049C12.6476 5.93453 12.602 6.04389 12.5206 6.12452C12.4393 6.20515 12.329 6.25045 12.214 6.25045H10.9132C10.7982 6.25045 10.6879 6.20515 10.6065 6.12452C10.5252 6.04389 10.4795 5.93453 10.4795 5.82049V4.96059Z" stroke="black" stroke-width="0.2" stroke-linecap="round" stroke-linejoin="round"/>
<path d="M0.607422 11.075C0.607422 11.7152 0.864015 12.3292 1.3205 12.782C1.77712 13.2346 2.39627 13.4889 3.04202 13.4889C3.68765 13.4889 4.30692 13.2346 4.76339 12.782C5.22001 12.3292 5.47646 11.7151 5.47646 11.075C5.47646 10.4349 5.22003 9.82079 4.76339 9.36818C4.30692 8.91542 3.68762 8.66113 3.04202 8.66113C2.39627 8.66113 1.77712 8.9154 1.3205 9.36818C0.864031 9.82079 0.607422 10.4349 0.607422 11.075ZM3.04202 9.10401C3.56924 9.10401 4.0748 9.31163 4.44759 9.68131C4.82041 10.051 5.02981 10.5522 5.02981 11.075C5.02981 11.5978 4.82042 12.0991 4.44759 12.4687C4.07477 12.8384 3.56924 13.046 3.04202 13.046C2.5148 13.046 2.00924 12.8384 1.63645 12.4687C1.26366 12.099 1.05423 11.5978 1.05423 11.075C1.0547 10.5524 1.2644 10.0514 1.63705 9.6819C2.0097 9.31238 2.51496 9.10461 3.04202 9.10401Z" fill="black"/>
<path d="M17.4464 13.4859C18.0916 13.4836 18.7096 13.2274 19.1644 12.7735C19.6191 12.3196 19.8737 11.7053 19.8718 11.0654C19.8701 10.4256 19.6123 9.81261 19.1548 9.36122C18.6976 8.90984 18.0781 8.65694 17.433 8.65821C16.7877 8.65929 16.1692 8.91449 15.7137 9.36759C15.2579 9.82051 15.0023 10.4344 15.0029 11.0743C15.0036 11.7157 15.2616 12.3305 15.7199 12.7829C16.1784 13.2354 16.7996 13.4883 17.4464 13.4859ZM17.4464 9.10342C17.973 9.10574 18.4772 9.31521 18.8482 9.68594C19.2192 10.0565 19.4267 10.5581 19.4252 11.0803C19.4236 11.6026 19.2131 12.1027 18.8398 12.4712C18.4665 12.8396 17.9612 13.0462 17.4344 13.0454C16.9078 13.0446 16.4029 12.8365 16.0309 12.467C15.6587 12.0975 15.4496 11.5967 15.4496 11.0744C15.4502 10.5503 15.661 10.0481 16.0357 9.67823C16.4102 9.30841 16.9178 9.10172 17.4464 9.10342Z" fill="black"/>
<path d="M3.655 8.03029C3.69519 8.09085 3.76281 8.12808 3.83588 8.12993C3.86657 8.1307 3.89711 8.12468 3.92515 8.11232L6.56292 6.95622C7.1222 7.14947 7.71064 7.24679 8.30283 7.24416C8.49617 7.24247 8.6892 7.23057 8.8813 7.20864C9.70529 7.74144 10.6694 8.02179 11.653 8.01487C12.239 8.01687 12.8212 7.9211 13.375 7.7314L15.1193 8.79436C15.1542 8.81584 15.1944 8.82727 15.2355 8.82758C15.3097 8.82928 15.3798 8.79436 15.4228 8.73458C15.4658 8.67464 15.4759 8.5974 15.4499 8.52866L14.7999 6.94527V6.94511C15.5923 6.32752 16.0642 5.39074 16.0865 4.39176C16.0865 2.3987 14.0987 0.766468 11.6598 0.766468C11.4665 0.768167 11.2734 0.779907 11.0813 0.801843C10.2548 0.269509 9.28847 -0.00933189 8.30291 0.000238333C5.86396 0.000238333 3.87625 1.62579 3.87625 3.62336V3.6232C3.89589 4.5998 4.3466 5.5185 5.10921 6.13685L3.66858 7.75346C3.59925 7.83116 3.59365 7.94625 3.65518 8.03029L3.655 8.03029ZM11.6532 1.20934C13.8465 1.20934 15.6333 2.63779 15.6333 4.39175C15.6121 5.31338 15.1503 6.17011 14.3893 6.69936C14.3092 6.75991 14.2801 6.86604 14.3178 6.95842L14.7644 8.06572L13.5115 7.29504V7.29519C13.4759 7.27326 13.4349 7.26183 13.3931 7.26183C13.3662 7.26152 13.3395 7.26677 13.3149 7.27743C12.7834 7.47346 12.2205 7.57325 11.6532 7.57202C9.45776 7.57202 7.67314 6.1459 7.67314 4.39194C7.67314 2.63786 9.45775 1.20934 11.6532 1.20934ZM5.59812 6.25426C5.63956 6.20823 5.65981 6.14721 5.65405 6.08588C5.64797 6.0244 5.6165 5.96832 5.5668 5.93094C4.80575 5.40153 4.34398 4.5448 4.3228 3.62321C4.3228 1.86925 6.10961 0.443133 8.30288 0.443133C9.02609 0.439271 9.74024 0.602244 10.389 0.919232C8.56416 1.36211 7.22635 2.75288 7.22635 4.39176C7.24473 5.31679 7.65493 6.19128 8.35648 6.80132H8.30289C7.73347 6.80333 7.16825 6.70353 6.63449 6.50673C6.58074 6.4851 6.52076 6.4851 6.46701 6.50673L4.68019 7.28623L5.59812 6.25426Z" fill="black"/>
<path d="M15.45 19.9996H20.2588C20.318 19.9996 20.3747 19.9763 20.4166 19.9347C20.4585 19.8932 20.482 19.837 20.482 19.7783V16.474C20.482 15.1828 19.305 14.1332 17.8577 14.1332C17.18 14.1224 16.5219 14.3589 16.0084 14.7976C15.514 15.2169 15.2286 15.829 15.2267 16.474V17.9046H5.2587V16.474C5.25465 15.8335 4.97126 15.2263 4.48145 14.8087C3.96731 14.3696 3.30832 14.1332 2.62998 14.1443C1.18501 14.1443 0.00796829 15.194 0.00796829 16.4851L0.0078125 19.7783C0.0078125 19.837 0.0313374 19.8932 0.0732453 19.9347C0.115153 19.9763 0.171865 19.9996 0.231219 19.9996H15.45ZM15.6734 16.474C15.6791 15.9621 15.9079 15.4775 16.301 15.1453C16.7341 14.7727 17.291 14.5724 17.8644 14.5827C19.066 14.5827 20.0421 15.4353 20.0421 16.4806V17.9112H15.6732L15.6734 16.474ZM0.449956 16.474C0.449956 15.4286 1.42602 14.5761 2.62532 14.5761C3.19848 14.5666 3.75497 14.767 4.1887 15.1387C4.58177 15.4708 4.81065 15.9554 4.81639 16.4674V17.898H0.454343L0.449956 16.474ZM0.449956 19.5567V18.3476H20.0351V19.5567H0.449956Z" fill="black"/>
</svg>
