<svg width="26" height="22" viewBox="0 0 26 22" fill="none" xmlns="http://www.w3.org/2000/svg">
<path fill-rule="evenodd" clip-rule="evenodd" d="M12.2102 17.1855C12.0665 17.1855 11.9502 17.0637 11.9502 16.9131V12.1806C11.9502 12.0301 12.0665 11.9082 12.2102 11.9082C12.3539 11.9082 12.4702 12.0301 12.4702 12.1806V16.9131C12.4702 17.0637 12.3537 17.1855 12.2102 17.1855Z" fill="black"/>
<path fill-rule="evenodd" clip-rule="evenodd" d="M12.1881 15.4686C11.4815 15.4686 10.6586 15.0483 9.98697 14.3444C9.30516 13.63 8.90426 12.7579 8.91424 12.0109C8.91633 11.8636 9.02985 11.7446 9.17053 11.7424L9.19653 11.7422C9.90318 11.7422 10.7261 12.1625 11.3979 12.8664C12.0797 13.5807 12.4806 14.4531 12.4704 15.1998C12.4685 15.3472 12.3548 15.4661 12.2141 15.4683L12.1881 15.4686ZM9.457 12.3114C9.54358 12.8447 9.86997 13.4518 10.3546 13.9594C10.8377 14.4656 11.4183 14.8088 11.9279 14.8997C11.8413 14.3663 11.5149 13.7593 11.0302 13.2517C10.5471 12.7455 9.96635 12.4026 9.457 12.3114Z" fill="black"/>
<path fill-rule="evenodd" clip-rule="evenodd" d="M12.2327 15.4686L12.2067 15.4683C12.066 15.4661 11.9525 15.3472 11.9504 15.1998C11.9402 14.4531 12.3411 13.5807 13.0229 12.8664C13.6947 12.1625 14.5176 11.7422 15.2243 11.7422L15.2503 11.7424C15.3909 11.7446 15.5044 11.8636 15.5065 12.0109C15.5165 12.7579 15.1156 13.6303 14.4338 14.3444C13.762 15.0483 12.9393 15.4686 12.2327 15.4686ZM14.9638 12.3114C14.4545 12.4023 13.8736 12.7455 13.3906 13.2517C12.9061 13.7593 12.5795 14.3663 12.4929 14.8997C13.0024 14.8088 13.583 14.4656 14.0661 13.9594C14.5508 13.4518 14.8772 12.8448 14.9638 12.3114Z" fill="black"/>
<path fill-rule="evenodd" clip-rule="evenodd" d="M12.2087 12.4532C12.1527 12.4532 12.0968 12.4342 12.0499 12.3965C11.5245 11.9721 11.2109 11.224 11.2109 10.3956C11.2109 9.56717 11.5246 8.81932 12.0499 8.39462C12.1434 8.31898 12.2739 8.31898 12.3674 8.39462C12.8928 8.81903 13.2064 9.56717 13.2064 10.3956C13.2064 11.224 12.8928 11.9718 12.3674 12.3965C12.3206 12.4345 12.2646 12.4532 12.2087 12.4532ZM12.2087 8.9786C11.9101 9.31618 11.7309 9.83765 11.7309 10.3956C11.7309 10.9535 11.9101 11.4752 12.2087 11.8126C12.5072 11.475 12.6864 10.9535 12.6864 10.3956C12.6864 9.83765 12.5072 9.31594 12.2087 8.9786Z" fill="black"/>
<path fill-rule="evenodd" clip-rule="evenodd" d="M20.2672 11.2603C17.8701 11.2603 15.9199 9.21705 15.9199 6.70534C15.9199 4.19363 17.8701 2.15039 20.2672 2.15039C22.6645 2.15039 24.6147 4.19363 24.6147 6.70534C24.6147 9.2168 22.6645 11.2603 20.2672 11.2603ZM20.2672 2.69532C18.1565 2.69532 16.4397 4.49443 16.4397 6.70547C16.4397 8.91682 18.1566 10.7156 20.2672 10.7156C22.3777 10.7156 24.0947 8.91651 24.0947 6.70547C24.0947 4.49436 22.3775 2.69532 20.2672 2.69532Z" fill="black"/>
<path fill-rule="evenodd" clip-rule="evenodd" d="M20.267 12.6366C17.1454 12.6366 14.6056 9.97586 14.6056 6.70504C14.6056 3.43421 17.1451 0.773438 20.267 0.773438C23.3885 0.773438 25.9284 3.43421 25.9284 6.70504C25.9284 9.97586 23.3888 12.6366 20.267 12.6366ZM20.267 1.31837C17.4321 1.31837 15.1256 3.73494 15.1256 6.70516C15.1256 9.67538 17.4321 12.092 20.267 12.092C23.1019 12.092 25.4084 9.67538 25.4084 6.70516C25.4084 3.73494 23.1019 1.31837 20.267 1.31837Z" fill="black"/>
<path fill-rule="evenodd" clip-rule="evenodd" d="M20.776 9.58876H19.7541C19.6104 9.58876 19.4941 9.46691 19.4941 9.31636V6.10443C19.4941 5.95388 19.6104 5.83203 19.7541 5.83203H20.776C20.9197 5.83203 21.036 5.95388 21.036 6.10443V9.31636C21.036 9.46667 20.9197 9.58876 20.776 9.58876ZM20.0141 9.04396H20.516V6.37684H20.0141V9.04396Z" fill="black"/>
<path fill-rule="evenodd" clip-rule="evenodd" d="M20.776 5.32827H19.7541C19.6104 5.32827 19.4941 5.20642 19.4941 5.05587V4.09272C19.4941 3.94216 19.6104 3.82031 19.7541 3.82031H20.776C20.9197 3.82031 21.036 3.94216 21.036 4.09272V5.05587C21.036 5.20642 20.9197 5.32827 20.776 5.32827ZM20.0141 4.78347H20.516V4.36513H20.0141V4.78347Z" fill="black"/>
<path fill-rule="evenodd" clip-rule="evenodd" d="M21.9107 21.5984H2.50818C1.66086 21.5984 0.97168 20.8763 0.97168 19.9888V17.8935C0.97168 17.7429 1.08798 17.6211 1.23168 17.6211H23.1872C23.3309 17.6211 23.4472 17.7429 23.4472 17.8935V19.9888C23.4472 20.8763 22.758 21.5984 21.9107 21.5984ZM1.49137 18.1656V19.9885C1.49137 20.5757 1.9473 21.0536 2.50788 21.0536H21.9104C22.471 21.0536 22.9269 20.5759 22.9269 19.9885V18.1656H1.49137Z" fill="black"/>
<path fill-rule="evenodd" clip-rule="evenodd" d="M15.0606 19.8823H9.35901C9.23575 19.8823 9.12942 19.7918 9.10459 19.6653L8.76427 17.9489C8.74825 17.8687 8.76775 17.7853 8.8172 17.7215C8.86665 17.6581 8.9407 17.6211 9.01893 17.6211H15.4014C15.4797 17.6211 15.5537 17.6581 15.6032 17.7215C15.6526 17.785 15.6721 17.8687 15.6561 17.9489L15.3158 19.6653C15.2907 19.7915 15.1844 19.8823 15.0611 19.8823H15.0606ZM9.57045 19.3375H14.8491L15.0814 18.1659H9.33805L9.57045 19.3375Z" fill="black"/>
<path fill-rule="evenodd" clip-rule="evenodd" d="M22.289 18.1666C22.1453 18.1666 22.029 18.0447 22.029 17.8942V11.9545C22.029 11.804 22.1453 11.6821 22.289 11.6821C22.4327 11.6821 22.549 11.804 22.549 11.9545V17.8942C22.549 18.0447 22.4327 18.1666 22.289 18.1666ZM2.12816 18.1666C1.98446 18.1666 1.86816 18.0447 1.86816 17.8942V8.20596C1.86816 6.21085 3.29603 4.58789 5.05122 4.58789H15.1575C15.3012 4.58789 15.4175 4.70974 15.4175 4.86029C15.4175 5.01085 15.3012 5.1327 15.1575 5.1327H5.05122C3.58271 5.1327 2.38816 6.51152 2.38816 8.20621V17.895C2.38816 18.0456 2.27162 18.1674 2.12816 18.1674V18.1666Z" fill="black"/>
<path fill-rule="evenodd" clip-rule="evenodd" d="M20.9006 18.1652C20.7569 18.1652 20.6406 18.0434 20.6406 17.8928V12.3251C20.6406 12.1746 20.7569 12.0527 20.9006 12.0527C21.0443 12.0527 21.1606 12.1746 21.1606 12.3251V17.8928C21.1606 18.0434 21.0443 18.1652 20.9006 18.1652ZM3.51683 18.1652C3.37314 18.1652 3.25684 18.0434 3.25684 17.8928V8.14984C3.25684 7.00868 4.07189 6.08008 5.07354 6.08008H14.8743C15.018 6.08008 15.1343 6.20193 15.1343 6.35248C15.1343 6.50303 15.018 6.62488 14.8743 6.62488H5.07354C4.35856 6.62488 3.77683 7.30904 3.77683 8.14984V17.8928C3.77683 18.0434 3.66053 18.1652 3.51683 18.1652Z" fill="black"/>
<path fill-rule="evenodd" clip-rule="evenodd" d="M17.0062 20.4719C16.5519 20.4719 16.1826 20.0847 16.1826 19.609C16.1826 19.133 16.5522 18.7461 17.0062 18.7461C17.4605 18.7461 17.8298 19.1333 17.8298 19.609C17.8298 20.085 17.4603 20.4719 17.0062 20.4719ZM17.0062 19.2906C16.8386 19.2906 16.7024 19.4334 16.7024 19.609C16.7024 19.7846 16.8386 19.9273 17.0062 19.9273C17.1738 19.9273 17.3101 19.7846 17.3101 19.609C17.3101 19.4334 17.1738 19.2906 17.0062 19.2906Z" fill="black"/>
<path fill-rule="evenodd" clip-rule="evenodd" d="M7.41247 20.4719C6.95841 20.4719 6.58887 20.0847 6.58887 19.609C6.58887 19.133 6.95844 18.7461 7.41247 18.7461C7.86677 18.7461 8.23608 19.1333 8.23608 19.609C8.23608 20.085 7.86651 20.4719 7.41247 20.4719ZM7.41247 19.2906C7.24487 19.2906 7.1086 19.4334 7.1086 19.609C7.1086 19.7846 7.24487 19.9273 7.41247 19.9273C7.58008 19.9273 7.71635 19.7846 7.71635 19.609C7.71635 19.4334 7.58008 19.2906 7.41247 19.2906Z" fill="black"/>
<path fill-rule="evenodd" clip-rule="evenodd" d="M5.05525 20.4169H2.86546C2.72177 20.4169 2.60547 20.295 2.60547 20.1445C2.60547 19.9939 2.72177 19.8721 2.86546 19.8721H5.05525C5.19895 19.8721 5.31525 19.9939 5.31525 20.1445C5.31525 20.295 5.19895 20.4169 5.05525 20.4169Z" fill="black"/>
<path fill-rule="evenodd" clip-rule="evenodd" d="M5.05677 19.3475H2.42894C2.28525 19.3475 2.16895 19.2257 2.16895 19.0751C2.16895 18.9246 2.28525 18.8027 2.42894 18.8027H5.05677C5.20046 18.8027 5.31676 18.9246 5.31676 19.0751C5.31676 19.2257 5.20046 19.3475 5.05677 19.3475Z" fill="black"/>
<path fill-rule="evenodd" clip-rule="evenodd" d="M21.5513 20.4169H19.3616C19.2179 20.4169 19.1016 20.295 19.1016 20.1445C19.1016 19.9939 19.2179 19.8721 19.3616 19.8721H21.5513C21.695 19.8721 21.8113 19.9939 21.8113 20.1445C21.8113 20.295 21.695 20.4169 21.5513 20.4169Z" fill="black"/>
<path fill-rule="evenodd" clip-rule="evenodd" d="M21.9894 19.3475H19.3616C19.2179 19.3475 19.1016 19.2257 19.1016 19.0751C19.1016 18.9246 19.2179 18.8027 19.3616 18.8027H21.9894C22.1331 18.8027 22.2494 18.9246 22.2494 19.0751C22.2494 19.2257 22.1331 19.3475 21.9894 19.3475Z" fill="black"/>
</svg>
