<svg width="25" height="25" viewBox="0 0 25 25" fill="none" xmlns="http://www.w3.org/2000/svg">
<rect y="2.20264" width="22.095" height="22.095" rx="1.5" fill="#4C6A92"/>
<path d="M22.0716 22.9118H4.24631C3.0696 22.9118 2.1123 21.9495 2.1123 20.7666V2.84784C2.1123 1.66495 3.0696 0.702637 4.24631 0.702637H22.0716C23.2483 0.702637 24.2056 1.66495 24.2056 2.84784V20.7666C24.2056 21.9495 23.2483 22.9118 22.0716 22.9118ZM4.24631 1.96452C3.76177 1.96452 3.3676 2.36088 3.3676 2.84784V20.7666C3.3676 21.2536 3.76177 21.6499 4.24631 21.6499H22.0716C22.5561 21.6499 22.9503 21.2536 22.9503 20.7666V2.84784C22.9503 2.36088 22.5561 1.96452 22.0716 1.96452H4.24631Z" fill="black"/>
<path d="M8.41553 7.13215C8.93861 7.04445 9.62363 6.96924 10.4954 6.96924C11.5665 6.96924 12.3511 7.2196 12.8492 7.67047C13.2976 8.07099 13.5841 8.68439 13.5841 9.43559C13.5841 10.1994 13.3599 10.8002 12.9365 11.2384C12.3511 11.8519 11.4296 12.1649 10.3709 12.1649C10.047 12.1649 9.74815 12.1523 9.4991 12.0897V15.4699H8.41553V7.13215ZM9.4991 11.201C9.73573 11.2633 10.0346 11.2884 10.3958 11.2884C11.7034 11.2884 12.5005 10.6375 12.5005 9.49806C12.5005 8.37119 11.7034 7.833 10.5203 7.833C10.047 7.833 9.68589 7.87073 9.4991 7.9207V11.201Z" fill="black"/>
<path d="M14.5808 14.3554C14.9171 14.5558 15.49 14.781 16.038 14.781C16.8225 14.781 17.1962 14.3931 17.1962 13.8797C17.1962 13.354 16.8849 13.0784 16.0878 12.7781C14.9919 12.3773 14.4813 11.789 14.4813 11.0629C14.4813 10.0865 15.2784 9.28516 16.561 9.28516C17.1712 9.28516 17.7069 9.44781 18.0306 9.66057L17.7691 10.4619C17.5325 10.3118 17.0967 10.0988 16.5362 10.0988C15.8886 10.0988 15.5399 10.4745 15.5399 10.9252C15.5399 11.4261 15.8886 11.6513 16.6731 11.9643C17.7069 12.3524 18.2548 12.8781 18.2548 13.7797C18.2548 14.8563 17.4204 15.6075 16.0131 15.6075C15.3531 15.6075 14.7427 15.4322 14.3193 15.1818L14.5808 14.3554Z" fill="black"/>
</svg>
