<svg width="25" height="25" viewBox="0 0 25 25" fill="none" xmlns="http://www.w3.org/2000/svg">
<rect y="2.20264" width="22.095" height="22.095" rx="1.5" fill="#FFE2DA"/>
<path d="M21.9593 22.7959H4.13401C2.95729 22.7959 2 21.8386 2 20.6619V2.83665C2 1.65993 2.95729 0.702637 4.13401 0.702637H21.9593C23.136 0.702637 24.0933 1.65993 24.0933 2.83665V20.6619C24.0933 21.8386 23.136 22.7959 21.9593 22.7959ZM4.13401 1.95794C3.64959 1.95794 3.2553 2.35223 3.2553 2.83665V20.6619C3.2553 21.1463 3.64959 21.5406 4.13401 21.5406H21.9593C22.4437 21.5406 22.838 21.1463 22.838 20.6619V2.83665C22.838 2.35223 22.4437 1.95794 21.9593 1.95794H4.13401Z" fill="black"/>
<path d="M10.1493 12.7763L9.2776 15.4165H8.15674L11.0211 7.02246H12.3163L15.1808 15.4165H14.0225L13.1258 12.7763H10.1493ZM12.9141 11.9294L12.0798 9.51335C11.893 8.96529 11.7685 8.46718 11.6438 7.98151H11.6189C11.4943 8.46718 11.3698 8.99027 11.1954 9.50092L10.3735 11.9296L12.9141 11.9294Z" fill="black"/>
<path d="M17.5598 7.69478C17.5598 8.06849 17.2982 8.36725 16.8623 8.36725C16.4638 8.36725 16.2021 8.06836 16.2021 7.69478C16.2021 7.32121 16.4763 7.00977 16.8872 7.00977C17.2858 7.00977 17.5598 7.30865 17.5598 7.69478ZM16.3394 15.4163V9.38856H17.4352V15.4164H16.3394V15.4163Z" fill="black"/>
</svg>
