<svg width="24" height="25" viewBox="0 0 24 25" fill="none" xmlns="http://www.w3.org/2000/svg">
<path d="M3.9998 13.3008C3.33809 13.3008 2.7998 13.8399 2.7998 14.5027C2.7998 15.1654 3.33809 15.7046 3.9998 15.7046C4.66152 15.7046 5.1998 15.1654 5.1998 14.5027C5.1998 13.8399 4.66152 13.3008 3.9998 13.3008ZM3.9998 14.9033C3.7791 14.9033 3.5998 14.7237 3.5998 14.5027C3.5998 14.2816 3.7791 14.102 3.9998 14.102C4.22051 14.102 4.3998 14.2816 4.3998 14.5027C4.3998 14.7237 4.22051 14.9033 3.9998 14.9033Z" fill="black"/>
<path d="M20 17.708H19.152H18.8762C18.1465 17.708 17.507 17.2433 17.2848 16.5515C17.2797 16.5367 17.2742 16.5222 17.268 16.5081C17.2227 16.3504 17.2 16.1892 17.2 16.0292V15.7677C18.2139 16.1796 19.3367 16.3567 20.1426 16.3567C20.6293 16.3567 20.9996 16.2933 21.1594 16.181C21.3055 16.0781 21.3781 15.9162 21.3535 15.7479C21.3105 15.4537 21.0219 15.3567 20.927 15.325C20.6129 15.2197 20.1019 14.4917 19.5924 12.7804C19.9325 12.1349 20.1441 11.4208 20.1949 10.6982L20.2166 10.4052C21.0725 9.85038 21.6 8.9016 21.6 7.86855V7.49198C21.6 5.62205 20.8723 3.86108 19.5504 2.53282C18.2246 1.20964 16.4664 0.480957 14.6 0.480957C10.7402 0.480957 7.6 3.62614 7.6 7.49198V7.71636C7.6 8.93341 8.31453 10.0436 9.39526 10.5691L9.40898 10.7549C9.47266 11.6088 9.74453 12.447 10.1961 13.1798C10.459 13.6043 10.7777 13.9874 11.1434 14.3183C11.1539 14.3301 11.1648 14.3414 11.1766 14.3524C11.432 14.5824 11.7047 14.7831 12.0109 14.967C12.1389 15.0437 12.2693 15.1118 12.4 15.1754V16.0292C12.4 16.1892 12.3773 16.35 12.3324 16.5077C12.3258 16.5218 12.3203 16.5367 12.3152 16.5515C12.093 17.2433 11.4535 17.708 10.7238 17.708H10.448H9.6C8.74663 17.708 7.93806 17.9769 7.26511 18.4661L7.99297 14.5769C8.01484 14.4608 7.98438 14.3406 7.90977 14.2495L4.30977 9.84236C4.15742 9.65652 3.84258 9.65652 3.69023 9.84236L0.0902344 14.2495C0.015625 14.3406 -0.0148437 14.4608 0.00703125 14.5769L0.894263 19.3106H0.4C0.178906 19.3106 0 19.4898 0 19.7112V24.1181C0 24.3396 0.178906 24.5188 0.4 24.5188H7.6C7.82109 24.5188 8 24.3396 8 24.1181V19.7112C8 19.4898 7.82109 19.3106 7.6 19.3106H7.49067C8.07239 18.7944 8.81238 18.5093 9.6 18.5093H10.2305C10.2479 18.5308 10.2699 18.5507 10.2892 18.5716C10.3099 18.5941 10.3298 18.617 10.3526 18.6389C10.3841 18.669 10.4192 18.6977 10.4544 18.7264C10.4789 18.7465 10.5018 18.7671 10.5281 18.7864C10.5689 18.8166 10.614 18.8452 10.6589 18.8738C10.6842 18.8899 10.7073 18.9068 10.7338 18.9225C10.8006 18.9618 10.8716 18.9994 10.9457 19.0356C10.9648 19.045 10.9847 19.054 11.0043 19.0632C11.0753 19.0964 11.1482 19.1287 11.2249 19.1592C11.2591 19.1729 11.2958 19.1852 11.3311 19.1983C11.3892 19.2198 11.4469 19.2415 11.5076 19.2617C11.5487 19.2753 11.5916 19.2877 11.6338 19.3007C11.692 19.3186 11.7501 19.3365 11.8104 19.3532C11.856 19.3658 11.9029 19.3775 11.9495 19.3894C12.0092 19.4047 12.069 19.4198 12.1304 19.4339C12.1794 19.4452 12.2293 19.4558 12.2793 19.4664C12.3408 19.4794 12.4026 19.4921 12.4655 19.5041C12.5167 19.5138 12.5682 19.5231 12.6202 19.5321C12.6844 19.5433 12.749 19.5539 12.8143 19.564C12.8666 19.5721 12.9188 19.5799 12.9716 19.5873C13.0384 19.5966 13.1055 19.6052 13.1731 19.6135C13.2257 19.6199 13.2781 19.6263 13.3311 19.6321C13.4011 19.6397 13.4715 19.6464 13.5421 19.6529C13.5934 19.6577 13.6445 19.6626 13.696 19.6667C13.7704 19.6727 13.8449 19.6775 13.9196 19.6822C13.9678 19.6853 14.0158 19.6888 14.0641 19.6914C14.1467 19.6958 14.2291 19.6987 14.3117 19.7016C14.3522 19.703 14.3928 19.7051 14.4334 19.7062C14.5561 19.7094 14.6784 19.7112 14.8 19.7112C14.9216 19.7112 15.0439 19.7094 15.1666 19.7062C15.2072 19.7051 15.2478 19.703 15.2883 19.7016C15.3709 19.6987 15.4533 19.6958 15.5359 19.6914C15.5842 19.6888 15.6322 19.6853 15.6804 19.6822C15.7551 19.6775 15.8296 19.6727 15.904 19.6667C15.9555 19.6626 16.0066 19.6577 16.0579 19.6529C16.1285 19.6464 16.1989 19.6397 16.2689 19.6321C16.3219 19.6263 16.3743 19.6199 16.4269 19.6135C16.4945 19.6052 16.5616 19.5966 16.6284 19.5873C16.6812 19.5799 16.7334 19.5721 16.7857 19.564C16.851 19.5539 16.9156 19.5433 16.9798 19.5321C17.0318 19.5231 17.0833 19.5138 17.1345 19.5041C17.1974 19.4921 17.2592 19.4794 17.3207 19.4664C17.3707 19.4558 17.4206 19.4452 17.4696 19.4339C17.531 19.4198 17.5908 19.4047 17.6505 19.3894C17.6971 19.3775 17.744 19.3658 17.7896 19.3532C17.8499 19.3365 17.908 19.3186 17.9662 19.3007C18.0084 19.2877 18.0513 19.2753 18.0924 19.2617C18.1531 19.2415 18.2108 19.2198 18.2689 19.1983C18.3042 19.1852 18.3409 19.1729 18.3751 19.1592C18.4518 19.1287 18.5247 19.0964 18.5957 19.0632C18.6153 19.054 18.6352 19.045 18.6543 19.0356C18.7284 18.9994 18.7994 18.9618 18.8662 18.9225C18.8927 18.9068 18.9158 18.8899 18.9411 18.8738C18.986 18.8452 19.0311 18.8166 19.0719 18.7864C19.0982 18.7671 19.1211 18.7465 19.1456 18.7264C19.1808 18.6977 19.2159 18.669 19.2474 18.6389C19.2702 18.617 19.2901 18.5941 19.3108 18.5716C19.3301 18.5507 19.3521 18.5308 19.3695 18.5093H20C21.7645 18.5093 23.2 19.9471 23.2 21.7143C23.2 21.9358 23.3789 22.115 23.6 22.115C23.8211 22.115 24 21.9358 24 21.7143C24 19.5054 22.2055 17.708 20 17.708ZM0.827344 14.6126L4 10.7287L7.17266 14.6126L6.29336 19.3106H1.7082L0.827344 14.6126ZM7.2 23.7175H0.8V20.1118H1.37617H6.61367H6.61504H6.62383H7.2V23.7175ZM17.4348 15.0014L17.5098 14.9592C18.0996 14.6236 18.6117 14.1736 19.0306 13.6465C19.3678 14.6237 19.6929 15.2069 19.9715 15.5531C19.3181 15.5289 18.3527 15.3912 17.4348 15.0014ZM9.32266 9.59627C8.75352 9.1528 8.4 8.45932 8.4 7.71636V7.49198C8.4 4.06785 11.1813 1.28222 14.6 1.28222C16.2535 1.28222 17.8109 1.92796 18.9848 3.09953C20.1555 4.2756 20.8 5.83547 20.8 7.49198V7.86855C20.8 8.39095 20.6184 8.88575 20.3002 9.27677L20.3871 8.10251C20.3957 7.96577 20.4039 7.82473 20.4039 7.6923C20.4039 7.58177 20.3996 7.47125 20.391 7.36052C20.3781 7.19562 20.2652 7.05555 20.107 7.00802C18.4582 6.51295 16.9309 5.69296 15.5581 4.57653C15.8416 4.1492 15.9651 3.85068 15.9711 3.83545C16.0535 3.63064 15.9543 3.39844 15.7504 3.31549C15.5453 3.23157 15.3129 3.33095 15.2293 3.53537C15.2277 3.53889 15.0742 3.90959 14.6969 4.41018L14.6966 4.41077L14.6957 4.41155C14.0473 5.27971 12.516 6.79538 9.54727 7.19112C9.35195 7.21713 9.20508 7.38146 9.2 7.57844C9.19609 7.75157 9.2 7.9288 9.21328 8.10623L9.32266 9.59627ZM11.7441 13.7855C11.7336 13.7733 11.7219 13.7616 11.7098 13.7507C11.3871 13.4639 11.1066 13.1298 10.8762 12.7583C10.4926 12.135 10.2609 11.4216 10.2066 10.6947L10.0109 8.04735C10.0082 8.0092 10.0059 7.97086 10.0039 7.93271C12.7023 7.48357 14.2699 6.16353 15.0734 5.22044C16.4461 6.33235 17.9672 7.16177 19.6039 7.69034V7.6923C19.6039 7.8083 19.5965 7.93174 19.5891 8.04715L19.4332 10.1465C19.4331 10.1481 19.4336 10.1496 19.4335 10.1511L19.3973 10.6409C19.3504 11.305 19.1496 11.9635 18.8152 12.5484C18.4141 13.2651 17.8262 13.8579 17.116 14.262L17.0172 14.3176C16.8938 14.3864 16.7699 14.4525 16.6336 14.5112C16.5566 14.5464 16.4766 14.5816 16.3832 14.6145C15.4191 14.9889 14.3422 15.0194 13.3547 14.7002C13.2211 14.6556 13.0875 14.6075 12.9582 14.5515L12.9566 14.5511L12.9547 14.5503C12.7754 14.4748 12.5961 14.3837 12.4219 14.2796C12.1738 14.1305 11.952 13.9686 11.7441 13.7855ZM13.0586 16.8524C13.0676 16.834 13.0754 16.8145 13.0816 16.7945C13.1602 16.5441 13.2 16.2867 13.2 16.0292V15.4909C13.255 15.5076 13.311 15.5196 13.3664 15.5345C13.4284 15.5511 13.4901 15.5689 13.5525 15.5832C13.6265 15.6003 13.701 15.6134 13.7754 15.6272C13.8363 15.6385 13.8969 15.6512 13.9579 15.6603C14.0339 15.6717 14.1102 15.679 14.1865 15.6871C14.247 15.6935 14.3073 15.7016 14.3679 15.706C14.4427 15.7113 14.5175 15.7125 14.5924 15.7147C14.6461 15.7163 14.6998 15.7209 14.7535 15.7209C14.7617 15.7209 14.7698 15.7199 14.778 15.7198C14.9269 15.7191 15.0755 15.7126 15.2237 15.6995C15.2646 15.6958 15.305 15.6888 15.3458 15.6842C15.4531 15.6722 15.5601 15.6585 15.6665 15.6399C15.7269 15.6294 15.7864 15.6159 15.8463 15.6033C15.9337 15.585 16.0206 15.5652 16.107 15.5424C16.1685 15.5261 16.2294 15.5086 16.2902 15.4901C16.3267 15.4791 16.3638 15.4707 16.4 15.4588V16.0292C16.4 16.2867 16.4398 16.5441 16.5184 16.7945C16.5246 16.8141 16.5324 16.8332 16.5414 16.8512C16.801 17.6006 17.394 18.162 18.124 18.3932C18.1147 18.397 18.1062 18.4008 18.0967 18.4045C18.026 18.4325 17.9507 18.4602 17.8702 18.4872C17.8607 18.4904 17.8524 18.4937 17.8429 18.4969C17.7509 18.5272 17.6519 18.5564 17.548 18.5848C17.5232 18.5915 17.4965 18.5979 17.471 18.6045C17.3898 18.6257 17.3053 18.6462 17.2176 18.6658C17.183 18.6735 17.148 18.6811 17.1125 18.6886C17.0213 18.7077 16.9265 18.7257 16.829 18.7429C16.799 18.7482 16.7703 18.7539 16.7397 18.7589C16.6114 18.7802 16.4782 18.7998 16.3397 18.8172C16.314 18.8204 16.2866 18.8229 16.2605 18.826C16.1469 18.8394 16.0302 18.8514 15.9103 18.8619C15.8633 18.866 15.8153 18.8695 15.7673 18.8731C15.6588 18.8813 15.5477 18.8879 15.4344 18.8934C15.387 18.8957 15.3401 18.8983 15.2919 18.9001C15.1318 18.9059 14.9686 18.9099 14.8 18.9099C14.6314 18.9099 14.4682 18.9059 14.3081 18.9001C14.2599 18.8983 14.213 18.8957 14.1656 18.8934C14.0523 18.8879 13.9412 18.8813 13.8326 18.8731C13.7847 18.8695 13.7367 18.866 13.6898 18.8619C13.5698 18.8515 13.4531 18.8394 13.3394 18.826C13.3134 18.8229 13.286 18.8204 13.2603 18.8172C13.1218 18.7998 12.9886 18.7802 12.8603 18.7589C12.8297 18.7539 12.801 18.7482 12.771 18.7429C12.6735 18.7257 12.5787 18.7077 12.4875 18.6886C12.452 18.6811 12.417 18.6735 12.3825 18.6658C12.2945 18.6462 12.21 18.6257 12.1287 18.6045C12.1033 18.5979 12.0768 18.5915 12.0522 18.5848C11.9482 18.5565 11.8491 18.5272 11.7571 18.4969C11.7475 18.4937 11.7393 18.4904 11.7298 18.4872C11.6493 18.4602 11.574 18.4325 11.5033 18.4045C11.4938 18.4008 11.4853 18.397 11.476 18.3932C12.2056 18.1624 12.7983 17.601 13.0586 16.8524Z" fill="black"/>
</svg>
