<svg width="24" height="25" viewBox="0 0 24 25" fill="none" xmlns="http://www.w3.org/2000/svg">
<rect y="2.18555" width="22.095" height="22.095" rx="1.5" fill="#6FB0B7"/>
<path d="M16.5957 9.90819C17.3143 9.42375 17.7874 8.61143 17.7874 7.69277C17.7874 6.22174 16.5717 5.02246 15.0806 5.02246H10.5681C9.07696 5.02246 7.86426 6.22174 7.86426 7.69277C7.86426 8.61734 8.34036 9.43261 9.06498 9.91409C8.34036 10.3926 7.86426 11.2079 7.86426 12.1325C7.86426 13.057 8.34634 13.8782 9.07396 14.3567C8.34634 14.8382 7.86426 15.6564 7.86426 16.584C7.86426 18.055 9.07696 19.2543 10.5681 19.2543C12.0593 19.2543 13.275 18.055 13.275 16.584V14.1057C13.7571 14.534 14.3949 14.7939 15.0896 14.7939C16.5807 14.7939 17.7934 13.5976 17.7934 12.1236C17.7934 11.202 17.3173 10.3867 16.5957 9.90819ZM12.3767 16.584C12.3767 17.5676 11.5652 18.3681 10.5681 18.3681C9.57102 18.3681 8.76255 17.5676 8.76255 16.584C8.76255 15.6003 9.57102 14.7998 10.5681 14.7998H12.3767V16.584ZM12.3767 13.9137H10.5681C9.57102 13.9137 8.76255 13.1161 8.76255 12.1325C8.76255 11.2108 9.47221 10.4487 10.3825 10.3572H10.3915C10.4514 10.3513 10.5082 10.3483 10.5681 10.3483H12.3767V13.9137ZM12.3767 9.47692H10.5681C10.5082 9.47692 10.4514 9.47396 10.3915 9.46806H10.3825C9.47221 9.37649 8.76255 8.61438 8.76255 7.69277C8.76255 6.70913 9.57102 5.90863 10.5681 5.90863H12.3767V9.47692ZM13.275 5.90863H15.0806C16.0777 5.90863 16.8891 6.70913 16.8891 7.69277C16.8891 8.60552 16.1885 9.36172 15.2902 9.4651C15.2213 9.47396 15.1524 9.47692 15.0806 9.47692H13.275V5.90863ZM15.0896 13.9077C14.0924 13.9077 13.281 13.1072 13.281 12.1236C13.281 11.2286 13.9517 10.4871 14.8231 10.3631C14.9099 10.3483 14.9997 10.3424 15.0896 10.3424C15.1584 10.3424 15.2273 10.3454 15.2932 10.3542C16.1945 10.4517 16.8951 11.2079 16.8951 12.1236C16.8951 13.1072 16.0867 13.9077 15.0896 13.9077Z" fill="black"/>
<path d="M21.866 22.9289H4.04075C2.86403 22.9289 1.90674 21.9666 1.90674 20.7837V2.86493C1.90674 1.68204 2.86403 0.719727 4.04075 0.719727H21.866C23.0427 0.719727 24 1.68204 24 2.86493V20.7837C24 21.9666 23.0427 22.9289 21.866 22.9289ZM4.04075 1.98161C3.5562 1.98161 3.16204 2.37797 3.16204 2.86493V20.7837C3.16204 21.2707 3.5562 21.667 4.04075 21.667H21.866C22.3505 21.667 22.7447 21.2707 22.7447 20.7837V2.86493C22.7447 2.37797 22.3505 1.98161 21.866 1.98161H4.04075Z" fill="black"/>
</svg>
