<svg width="1148" height="96" viewBox="0 0 1148 96" fill="none" xmlns="http://www.w3.org/2000/svg">
<rect x="618" width="239" height="96" rx="6" fill="#B3C9A9"/>
<path d="M708.764 45.9929C708.711 45.5223 708.493 45.1577 708.108 44.8991C707.724 44.6373 707.24 44.5064 706.656 44.5064C706.239 44.5064 705.877 44.5727 705.573 44.7053C705.268 44.8345 705.031 45.0135 704.862 45.2422C704.696 45.4676 704.613 45.7244 704.613 46.0128C704.613 46.2547 704.669 46.4635 704.782 46.6392C704.898 46.8149 705.049 46.9624 705.234 47.0817C705.423 47.1977 705.626 47.2955 705.841 47.375C706.056 47.4512 706.264 47.5142 706.462 47.5639L707.457 47.8224C707.782 47.902 708.115 48.0097 708.456 48.1456C708.797 48.2815 709.114 48.4605 709.406 48.6825C709.697 48.9046 709.933 49.1797 710.112 49.5078C710.294 49.8359 710.385 50.2287 710.385 50.6861C710.385 51.2628 710.236 51.7749 709.938 52.2223C709.643 52.6697 709.213 53.0227 708.65 53.2812C708.09 53.5398 707.412 53.669 706.617 53.669C705.854 53.669 705.195 53.5481 704.638 53.3061C704.081 53.0642 703.645 52.7211 703.33 52.277C703.015 51.8295 702.841 51.2992 702.808 50.6861H704.35C704.379 51.054 704.499 51.3606 704.707 51.6058C704.92 51.8478 705.19 52.0284 705.518 52.1477C705.849 52.2637 706.212 52.3217 706.607 52.3217C707.041 52.3217 707.427 52.2538 707.765 52.1179C708.106 51.9787 708.375 51.7865 708.57 51.5412C708.766 51.2926 708.864 51.0026 708.864 50.6712C708.864 50.3696 708.778 50.1226 708.605 49.9304C708.436 49.7382 708.206 49.5791 707.914 49.4531C707.626 49.3272 707.299 49.2161 706.935 49.12L705.732 48.7919C704.916 48.5698 704.27 48.2434 703.793 47.8125C703.319 47.3816 703.082 46.8116 703.082 46.1023C703.082 45.5156 703.241 45.0036 703.559 44.5661C703.877 44.1286 704.308 43.7888 704.852 43.5469C705.395 43.3016 706.008 43.179 706.691 43.179C707.381 43.179 707.989 43.3 708.516 43.5419C709.046 43.7839 709.464 44.117 709.769 44.5412C710.073 44.9621 710.233 45.446 710.246 45.9929H708.764ZM713.434 48.9659V53.5H711.947V43.3182H713.414V47.1065H713.509C713.688 46.6955 713.961 46.3691 714.329 46.1271C714.697 45.8852 715.177 45.7642 715.771 45.7642C716.294 45.7642 716.752 45.8719 717.143 46.0874C717.537 46.3028 717.842 46.6243 718.058 47.0518C718.276 47.4761 718.386 48.0064 718.386 48.6428V53.5H716.899V48.8217C716.899 48.2616 716.755 47.8274 716.467 47.5192C716.178 47.2076 715.777 47.0518 715.264 47.0518C714.912 47.0518 714.597 47.1264 714.319 47.2756C714.044 47.4247 713.827 47.6435 713.668 47.9318C713.512 48.2169 713.434 48.5616 713.434 48.9659ZM723.432 53.6541C722.716 53.6541 722.091 53.4901 721.558 53.1619C721.024 52.8338 720.61 52.3748 720.315 51.7848C720.02 51.1948 719.872 50.5054 719.872 49.7166C719.872 48.9245 720.02 48.2318 720.315 47.6385C720.61 47.0452 721.024 46.5845 721.558 46.2564C722.091 45.9283 722.716 45.7642 723.432 45.7642C724.148 45.7642 724.773 45.9283 725.306 46.2564C725.84 46.5845 726.254 47.0452 726.549 47.6385C726.844 48.2318 726.992 48.9245 726.992 49.7166C726.992 50.5054 726.844 51.1948 726.549 51.7848C726.254 52.3748 725.84 52.8338 725.306 53.1619C724.773 53.4901 724.148 53.6541 723.432 53.6541ZM723.437 52.4062C723.901 52.4062 724.285 52.2836 724.59 52.0384C724.895 51.7931 725.121 51.4666 725.266 51.0589C725.416 50.6513 725.49 50.2022 725.49 49.7116C725.49 49.2244 725.416 48.777 725.266 48.3693C725.121 47.9583 724.895 47.6286 724.59 47.38C724.285 47.1314 723.901 47.0071 723.437 47.0071C722.97 47.0071 722.582 47.1314 722.274 47.38C721.969 47.6286 721.742 47.9583 721.592 48.3693C721.447 48.777 721.374 49.2244 721.374 49.7116C721.374 50.2022 721.447 50.6513 721.592 51.0589C721.742 51.4666 721.969 51.7931 722.274 52.0384C722.582 52.2836 722.97 52.4062 723.437 52.4062ZM728.497 56.3636V45.8636H729.949V47.1016H730.073C730.159 46.9425 730.283 46.7585 730.446 46.5497C730.608 46.3409 730.834 46.1586 731.122 46.0028C731.41 45.8437 731.791 45.7642 732.265 45.7642C732.882 45.7642 733.432 45.92 733.916 46.2315C734.4 46.5431 734.779 46.9922 735.054 47.5788C735.333 48.1655 735.472 48.8714 735.472 49.6967C735.472 50.522 735.334 51.2296 735.059 51.8196C734.784 52.4062 734.406 52.8587 733.926 53.1768C733.445 53.4917 732.897 53.6491 732.28 53.6491C731.816 53.6491 731.437 53.5713 731.142 53.4155C730.85 53.2597 730.621 53.0774 730.456 52.8686C730.29 52.6598 730.162 52.4742 730.073 52.3118H729.983V56.3636H728.497ZM729.954 49.6818C729.954 50.2187 730.031 50.6894 730.187 51.0937C730.343 51.4981 730.568 51.8146 730.863 52.0433C731.158 52.2687 731.52 52.3814 731.947 52.3814C732.391 52.3814 732.763 52.2637 733.061 52.0284C733.359 51.7898 733.584 51.4666 733.737 51.0589C733.893 50.6513 733.971 50.1922 733.971 49.6818C733.971 49.178 733.894 48.7256 733.742 48.3246C733.593 47.9235 733.367 47.607 733.066 47.375C732.767 47.143 732.395 47.027 731.947 47.027C731.516 47.027 731.152 47.138 730.853 47.3601C730.558 47.5821 730.335 47.892 730.182 48.2898C730.03 48.6875 729.954 49.1515 729.954 49.6818ZM740.654 53.5V43.3182H744.283C745.075 43.3182 745.732 43.4624 746.252 43.7507C746.772 44.0391 747.162 44.4335 747.42 44.9339C747.679 45.4311 747.808 45.9912 747.808 46.6143C747.808 47.2408 747.677 47.8042 747.415 48.3047C747.157 48.8018 746.766 49.1963 746.242 49.4879C745.722 49.7763 745.067 49.9205 744.278 49.9205H741.782V48.6179H744.139C744.639 48.6179 745.045 48.5317 745.357 48.3594C745.669 48.1837 745.897 47.9451 746.043 47.6435C746.189 47.3419 746.262 46.9988 746.262 46.6143C746.262 46.2299 746.189 45.8885 746.043 45.5902C745.897 45.2919 745.667 45.0582 745.352 44.8892C745.041 44.7202 744.63 44.6357 744.119 44.6357H742.19V53.5H740.654ZM750.822 43.3182V53.5L749.336 53.5V43.3182H750.822ZM754.89 53.669C754.406 53.669 753.969 53.5795 753.578 53.4006C753.187 53.2183 752.877 52.9548 752.648 52.6101C752.423 52.2654 752.31 51.8428 752.31 51.3423C752.31 50.9115 752.393 50.5568 752.559 50.2784C752.724 50 752.948 49.7796 753.23 49.6172C753.512 49.4548 753.826 49.3321 754.174 49.2493C754.522 49.1664 754.877 49.1035 755.238 49.0604C755.696 49.0073 756.067 48.9643 756.352 48.9311C756.637 48.8946 756.844 48.8366 756.973 48.7571C757.103 48.6776 757.167 48.5483 757.167 48.3693V48.3345C757.167 47.9003 757.045 47.5639 756.799 47.3253C756.557 47.0866 756.196 46.9673 755.716 46.9673C755.215 46.9673 754.821 47.0784 754.532 47.3004C754.247 47.5192 754.05 47.7628 753.941 48.0312L752.544 47.7131C752.709 47.2491 752.951 46.8745 753.27 46.5895C753.591 46.3011 753.961 46.0923 754.378 45.9631C754.796 45.8305 755.235 45.7642 755.696 45.7642C756.001 45.7642 756.324 45.8007 756.665 45.8736C757.01 45.9432 757.331 46.0724 757.63 46.2614C757.931 46.4503 758.178 46.7204 758.37 47.0717C758.563 47.4197 758.659 47.8722 758.659 48.429V53.5H757.207V52.456H757.147C757.051 52.6482 756.907 52.8371 756.715 53.0227C756.523 53.2083 756.276 53.3625 755.974 53.4851C755.673 53.6077 755.311 53.669 754.89 53.669ZM755.213 52.4759C755.624 52.4759 755.976 52.3946 756.267 52.2322C756.562 52.0698 756.786 51.8577 756.939 51.5959C757.094 51.3307 757.172 51.0473 757.172 50.7457V49.7614C757.119 49.8144 757.016 49.8641 756.864 49.9105C756.715 49.9536 756.544 49.9917 756.352 50.0249C756.16 50.0547 755.972 50.0829 755.79 50.1094C755.608 50.1326 755.455 50.1525 755.333 50.169C755.044 50.2055 754.781 50.2668 754.542 50.353C754.307 50.4392 754.118 50.5634 753.976 50.7259C753.836 50.8849 753.767 51.0971 753.767 51.3622C753.767 51.7301 753.903 52.0085 754.174 52.1974C754.446 52.383 754.793 52.4759 755.213 52.4759ZM761.971 48.9659V53.5H760.485V45.8636H761.912V47.1065H762.006C762.182 46.7022 762.457 46.3774 762.831 46.1321C763.209 45.8868 763.685 45.7642 764.258 45.7642C764.778 45.7642 765.234 45.8736 765.625 46.0923C766.016 46.3078 766.32 46.6293 766.535 47.0568C766.751 47.4844 766.858 48.013 766.858 48.6428V53.5H765.372V48.8217C765.372 48.2682 765.228 47.8357 764.939 47.5241C764.651 47.2093 764.255 47.0518 763.751 47.0518C763.406 47.0518 763.1 47.1264 762.831 47.2756C762.566 47.4247 762.356 47.6435 762.2 47.9318C762.047 48.2169 761.971 48.5616 761.971 48.9659ZM772.263 45.8636V47.0568H768.091V45.8636H772.263ZM769.21 44.0341H770.696V51.2578C770.696 51.5462 770.74 51.7633 770.826 51.9091C770.912 52.0516 771.023 52.1494 771.159 52.2024C771.298 52.2521 771.449 52.277 771.611 52.277C771.731 52.277 771.835 52.2687 771.924 52.2521C772.014 52.2356 772.084 52.2223 772.133 52.2124L772.402 53.4403C772.316 53.4735 772.193 53.5066 772.034 53.5398C771.875 53.5762 771.676 53.5961 771.437 53.5994C771.046 53.6061 770.682 53.5365 770.343 53.3906C770.005 53.2448 769.732 53.0194 769.523 52.7145C769.314 52.4096 769.21 52.0268 769.21 51.5661V44.0341Z" fill="black"/>
<rect width="211" height="96" rx="6" fill="#2F7604"/>
<path d="M25.8139 43.3182H27.355V50.0149C27.355 50.7275 27.1877 51.3589 26.8529 51.9091C26.5182 52.456 26.0475 52.8868 25.441 53.2017C24.8344 53.5133 24.1235 53.669 23.3082 53.669C22.4961 53.669 21.7869 53.5133 21.1803 53.2017C20.5738 52.8868 20.1032 52.456 19.7684 51.9091C19.4336 51.3589 19.2663 50.7275 19.2663 50.0149L19.2663 43.3182H20.8025V49.8906C20.8025 50.3513 20.9036 50.7607 21.1058 51.1186C21.3112 51.4766 21.6013 51.7583 21.9758 51.9638C22.3503 52.166 22.7944 52.267 23.3082 52.267C23.8252 52.267 24.271 52.166 24.6455 51.9638C25.0234 51.7583 25.3117 51.4766 25.5106 51.1186C25.7128 50.7607 25.8139 50.3513 25.8139 49.8906V43.3182ZM35.0375 47.728L33.6902 47.9666C33.6339 47.7943 33.5444 47.6302 33.4217 47.4744C33.3024 47.3187 33.14 47.1911 32.9345 47.0916C32.729 46.9922 32.4722 46.9425 32.1639 46.9425C31.743 46.9425 31.3917 47.0369 31.11 47.2259C30.8282 47.4115 30.6874 47.6518 30.6874 47.9467C30.6874 48.2019 30.7818 48.4074 30.9708 48.5632C31.1597 48.719 31.4646 48.8466 31.8855 48.946L33.0986 49.2244C33.8012 49.3868 34.3249 49.6371 34.6696 49.9751C35.0143 50.3132 35.1867 50.7524 35.1867 51.2926C35.1867 51.75 35.0541 52.1577 34.7889 52.5156C34.5271 52.8703 34.1609 53.1487 33.6902 53.3509C33.2229 53.553 32.681 53.6541 32.0645 53.6541C31.2094 53.6541 30.5117 53.4718 29.9715 53.1072C29.4312 52.7393 29.0998 52.2173 28.9771 51.5412L30.4139 51.3224C30.5034 51.697 30.6874 51.9804 30.9658 52.1726C31.2442 52.3615 31.6071 52.456 32.0546 52.456C32.5418 52.456 32.9312 52.3549 33.2229 52.1527C33.5146 51.9472 33.6604 51.697 33.6604 51.402C33.6604 51.1634 33.5709 50.9628 33.3919 50.8004C33.2163 50.638 32.9461 50.5154 32.5815 50.4325L31.2889 50.1491C30.5763 49.9867 30.0494 49.7282 29.708 49.3736C29.3699 49.0189 29.2009 48.5698 29.2009 48.0263C29.2009 47.5755 29.3268 47.1811 29.5787 46.843C29.8306 46.505 30.1786 46.2415 30.6227 46.0526C31.0669 45.8603 31.5756 45.7642 32.149 45.7642C32.9743 45.7642 33.6239 45.9432 34.0979 46.3011C34.5718 46.6558 34.8851 47.1314 35.0375 47.728ZM39.9583 53.6541C39.2059 53.6541 38.5579 53.4934 38.0144 53.1719C37.4741 52.8471 37.0565 52.3913 36.7615 51.8047C36.4699 51.2147 36.324 50.5237 36.324 49.7315C36.324 48.9493 36.4699 48.2599 36.7615 47.6634C37.0565 47.0668 37.4675 46.6011 37.9945 46.2663C38.5248 45.9316 39.1446 45.7642 39.8539 45.7642C40.2847 45.7642 40.7023 45.8355 41.1067 45.978C41.5111 46.1205 41.874 46.3442 42.1955 46.6491C42.517 46.9541 42.7705 47.3501 42.9561 47.8374C43.1417 48.3213 43.2345 48.9096 43.2345 49.6023V50.1293H37.1642V49.0156H41.7779C41.7779 48.6245 41.6983 48.2782 41.5392 47.9766C41.3801 47.6716 41.1564 47.4313 40.8681 47.2557C40.583 47.08 40.2483 46.9922 39.8638 46.9922C39.4462 46.9922 39.0816 47.0949 38.7701 47.3004C38.4618 47.5026 38.2232 47.7678 38.0541 48.0959C37.8884 48.4207 37.8056 48.7737 37.8056 49.1548V50.0249C37.8056 50.5353 37.8951 50.9695 38.074 51.3274C38.2563 51.6854 38.5099 51.9588 38.8347 52.1477C39.1595 52.3333 39.539 52.4261 39.9732 52.4261C40.2549 52.4261 40.5118 52.3864 40.7438 52.3068C40.9758 52.224 41.1763 52.1013 41.3453 51.9389C41.5144 51.7765 41.6436 51.576 41.7331 51.3374L43.1401 51.5909C43.0274 52.0052 42.8252 52.3681 42.5336 52.6797C42.2452 52.9879 41.8823 53.2282 41.4448 53.4006C41.0106 53.5696 40.5151 53.6541 39.9583 53.6541ZM44.7299 53.5V45.8636H46.1667V47.0767H46.2462C46.3854 46.6657 46.6307 46.3426 46.982 46.1072C47.3366 45.8686 47.7377 45.7493 48.1851 45.7493C48.2779 45.7493 48.3873 45.7526 48.5133 45.7592C48.6425 45.7659 48.7436 45.7741 48.8165 45.7841V47.206C48.7569 47.1894 48.6508 47.1712 48.4983 47.1513C48.3459 47.1281 48.1934 47.1165 48.041 47.1165C47.6896 47.1165 47.3764 47.1911 47.1013 47.3402C46.8295 47.486 46.6141 47.6899 46.455 47.9517C46.2959 48.2102 46.2164 48.5052 46.2164 48.8366V53.5H44.7299ZM53.6193 53.5V43.3182H60.0028V44.6406H55.1555V47.7429H59.6697V49.0604H55.1555V52.1776H60.0625V53.5H53.6193ZM63.268 48.9659V53.5H61.7815V45.8636H63.2084V47.1065H63.3029C63.4785 46.7022 63.7536 46.3774 64.1281 46.1321C64.506 45.8868 64.9816 45.7642 65.555 45.7642C66.0753 45.7642 66.5311 45.8736 66.9222 46.0923C67.3133 46.3078 67.6165 46.6293 67.832 47.0568C68.0474 47.4844 68.1551 48.013 68.1551 48.6428V53.5H66.6686V48.8217C66.6686 48.2682 66.5244 47.8357 66.2361 47.5241C65.9477 47.2093 65.5517 47.0518 65.0479 47.0518C64.7032 47.0518 64.3966 47.1264 64.1281 47.2756C63.863 47.4247 63.6525 47.6435 63.4967 47.9318C63.3443 48.2169 63.268 48.5616 63.268 48.9659ZM73.5594 45.8636V47.0568H69.3882V45.8636H73.5594ZM70.5068 44.0341H71.9933V51.2578C71.9933 51.5462 72.0364 51.7633 72.1226 51.9091C72.2087 52.0516 72.3198 52.1494 72.4557 52.2024C72.5949 52.2521 72.7457 52.277 72.9081 52.277C73.0274 52.277 73.1318 52.2687 73.2213 52.2521C73.3108 52.2356 73.3804 52.2223 73.4301 52.2124L73.6986 53.4403C73.6124 53.4735 73.4898 53.5066 73.3307 53.5398C73.1716 53.5762 72.9727 53.5961 72.7341 53.5994C72.343 53.6061 71.9784 53.5365 71.6403 53.3906C71.3023 53.2448 71.0288 53.0194 70.82 52.7145C70.6112 52.4096 70.5068 52.0268 70.5068 51.5661V44.0341ZM78.2589 53.6541C77.5065 53.6541 76.8585 53.4934 76.315 53.1719C75.7747 52.8471 75.3571 52.3913 75.0621 51.8047C74.7705 51.2147 74.6246 50.5237 74.6246 49.7315C74.6246 48.9493 74.7705 48.2599 75.0621 47.6634C75.3571 47.0668 75.7681 46.6011 76.2951 46.2663C76.8254 45.9316 77.4452 45.7642 78.1545 45.7642C78.5853 45.7642 79.003 45.8355 79.4073 45.978C79.8117 46.1205 80.1746 46.3442 80.4961 46.6491C80.8176 46.9541 81.0711 47.3501 81.2567 47.8374C81.4424 48.3213 81.5352 48.9096 81.5352 49.6023V50.1293L75.4648 50.1293V49.0156L80.0785 49.0156C80.0785 48.6245 79.9989 48.2782 79.8398 47.9766C79.6808 47.6716 79.457 47.4313 79.1687 47.2557C78.8836 47.08 78.5489 46.9922 78.1644 46.9922C77.7468 46.9922 77.3822 47.0949 77.0707 47.3004C76.7624 47.5026 76.5238 47.7678 76.3548 48.0959C76.189 48.4207 76.1062 48.7737 76.1062 49.1548V50.0249C76.1062 50.5353 76.1957 50.9695 76.3746 51.3274C76.5569 51.6854 76.8105 51.9588 77.1353 52.1477C77.4601 52.3333 77.8396 52.4261 78.2738 52.4261C78.5555 52.4261 78.8124 52.3864 79.0444 52.3068C79.2764 52.224 79.4769 52.1013 79.646 51.9389C79.815 51.7765 79.9442 51.576 80.0337 51.3374L81.4407 51.5909C81.328 52.0052 81.1258 52.3681 80.8342 52.6797C80.5458 52.9879 80.1829 53.2282 79.7454 53.4006C79.3112 53.5696 78.8157 53.6541 78.2589 53.6541ZM83.0305 53.5V45.8636H84.4673V47.0767H84.5468C84.686 46.6657 84.9313 46.3426 85.2826 46.1072C85.6372 45.8686 86.0383 45.7493 86.4857 45.7493C86.5785 45.7493 86.6879 45.7526 86.8139 45.7592C86.9431 45.7659 87.0442 45.7741 87.1171 45.7841V47.206C87.0575 47.1894 86.9514 47.1712 86.7989 47.1513C86.6465 47.1281 86.494 47.1165 86.3416 47.1165C85.9902 47.1165 85.677 47.1911 85.4019 47.3402C85.1301 47.486 84.9147 47.6899 84.7556 47.9517C84.5965 48.2102 84.517 48.5052 84.517 48.8366V53.5H83.0305ZM88.2495 53.5V45.8636H89.736V53.5H88.2495ZM89.0002 44.6854C88.7417 44.6854 88.5196 44.5992 88.334 44.4268C88.1518 44.2512 88.0606 44.0424 88.0606 43.8004C88.0606 43.5552 88.1518 43.3464 88.334 43.174C88.5196 42.9983 88.7417 42.9105 89.0002 42.9105C89.2588 42.9105 89.4792 42.9983 89.6615 43.174C89.8471 43.3464 89.9399 43.5552 89.9399 43.8004C89.9399 44.0424 89.8471 44.2512 89.6615 44.4268C89.4792 44.5992 89.2588 44.6854 89.0002 44.6854ZM93.0684 48.9659V53.5H91.5819V45.8636H93.0087V47.1065H93.1032C93.2788 46.7022 93.5539 46.3774 93.9284 46.1321C94.3063 45.8868 94.7819 45.7642 95.3553 45.7642C95.8757 45.7642 96.3314 45.8736 96.7225 46.0923C97.1136 46.3078 97.4168 46.6293 97.6323 47.0568C97.8477 47.4844 97.9554 48.013 97.9554 48.6428V53.5H96.4689V48.8217C96.4689 48.2682 96.3248 47.8357 96.0364 47.5241C95.748 47.2093 95.352 47.0518 94.8482 47.0518C94.5035 47.0518 94.1969 47.1264 93.9284 47.2756C93.6633 47.4247 93.4528 47.6435 93.2971 47.9318C93.1446 48.2169 93.0684 48.5616 93.0684 48.9659ZM102.997 56.5227C102.39 56.5227 101.868 56.4432 101.431 56.2841C100.997 56.125 100.642 55.9145 100.367 55.6527C100.092 55.3909 99.8862 55.1042 99.7503 54.7926L101.028 54.2656C101.117 54.4115 101.237 54.5656 101.386 54.728C101.538 54.8937 101.744 55.0346 102.002 55.1506C102.264 55.2666 102.601 55.3246 103.012 55.3246C103.575 55.3246 104.041 55.187 104.409 54.9119C104.777 54.6402 104.961 54.206 104.961 53.6094V52.108H104.866C104.777 52.2704 104.647 52.451 104.478 52.6499C104.313 52.8487 104.084 53.0211 103.792 53.1669C103.501 53.3127 103.121 53.3857 102.654 53.3857C102.05 53.3857 101.507 53.2448 101.023 52.9631C100.542 52.678 100.161 52.2588 99.8796 51.7053C99.6012 51.1484 99.4619 50.464 99.4619 49.652C99.4619 48.84 99.5995 48.1439 99.8746 47.5639C100.153 46.9839 100.534 46.5398 101.018 46.2315C101.502 45.92 102.05 45.7642 102.664 45.7642C103.138 45.7642 103.52 45.8437 103.812 46.0028C104.104 46.1586 104.331 46.3409 104.493 46.5497C104.659 46.7585 104.787 46.9425 104.876 47.1016H104.985V45.8636H106.442V53.669C106.442 54.3253 106.29 54.8639 105.985 55.2848C105.68 55.7057 105.267 56.0173 104.747 56.2195C104.23 56.4216 103.646 56.5227 102.997 56.5227ZM102.982 52.1527C103.409 52.1527 103.771 52.0533 104.066 51.8544C104.364 51.6522 104.589 51.3639 104.742 50.9893C104.898 50.6115 104.975 50.1591 104.975 49.6321C104.975 49.1184 104.899 48.666 104.747 48.2749C104.594 47.8838 104.371 47.5788 104.076 47.3601C103.781 47.138 103.416 47.027 102.982 47.027C102.534 47.027 102.162 47.143 101.863 47.375C101.565 47.6037 101.34 47.9152 101.187 48.3097C101.038 48.7041 100.963 49.1449 100.963 49.6321C100.963 50.1326 101.04 50.5717 101.192 50.9496C101.345 51.3274 101.57 51.6224 101.868 51.8345C102.17 52.0466 102.541 52.1527 102.982 52.1527ZM111.45 44.6406V43.3182H119.33V44.6406H116.153V53.5H114.622V44.6406H111.45ZM122.284 48.9659V53.5H120.798V43.3182H122.265V47.1065H122.359C122.538 46.6955 122.811 46.3691 123.179 46.1271C123.547 45.8852 124.028 45.7642 124.621 45.7642C125.145 45.7642 125.602 45.8719 125.993 46.0874C126.388 46.3028 126.693 46.6243 126.908 47.0518C127.127 47.4761 127.236 48.0064 127.236 48.6428V53.5H125.75V48.8217C125.75 48.2616 125.605 47.8274 125.317 47.5192C125.029 47.2076 124.628 47.0518 124.114 47.0518C123.763 47.0518 123.448 47.1264 123.169 47.2756C122.894 47.4247 122.677 47.6435 122.518 47.9318C122.362 48.2169 122.284 48.5616 122.284 48.9659ZM132.357 53.6541C131.605 53.6541 130.957 53.4934 130.413 53.1719C129.873 52.8471 129.455 52.3913 129.16 51.8047C128.869 51.2147 128.723 50.5237 128.723 49.7315C128.723 48.9493 128.869 48.2599 129.16 47.6634C129.455 47.0668 129.866 46.6011 130.393 46.2663C130.923 45.9316 131.543 45.7642 132.253 45.7642C132.683 45.7642 133.101 45.8355 133.505 45.978C133.91 46.1205 134.273 46.3442 134.594 46.6491C134.916 46.9541 135.169 47.3501 135.355 47.8374C135.54 48.3213 135.633 48.9096 135.633 49.6023V50.1293L129.563 50.1293V49.0156L134.177 49.0156C134.177 48.6245 134.097 48.2782 133.938 47.9766C133.779 47.6716 133.555 47.4313 133.267 47.2557C132.982 47.08 132.647 46.9922 132.262 46.9922C131.845 46.9922 131.48 47.0949 131.169 47.3004C130.861 47.5026 130.622 47.7678 130.453 48.0959C130.287 48.4207 130.204 48.7737 130.204 49.1548V50.0249C130.204 50.5353 130.294 50.9695 130.473 51.3274C130.655 51.6854 130.909 51.9588 131.233 52.1477C131.558 52.3333 131.938 52.4261 132.372 52.4261C132.654 52.4261 132.91 52.3864 133.142 52.3068C133.374 52.224 133.575 52.1013 133.744 51.9389C133.913 51.7765 134.042 51.576 134.132 51.3374L135.539 51.5909C135.426 52.0052 135.224 52.3681 134.932 52.6797C134.644 52.9879 134.281 53.2282 133.843 53.4006C133.409 53.5696 132.914 53.6541 132.357 53.6541ZM142.793 53.5L139.969 43.3182H141.584L143.568 51.2031H143.663L145.726 43.3182H147.327L149.39 51.2081H149.484L151.463 43.3182H153.084L150.255 53.5H148.709L146.566 45.8736H146.486L144.344 53.5H142.793ZM156.75 53.6541C155.998 53.6541 155.35 53.4934 154.807 53.1719C154.266 52.8471 153.849 52.3913 153.554 51.8047C153.262 51.2147 153.116 50.5237 153.116 49.7315C153.116 48.9493 153.262 48.2599 153.554 47.6634C153.849 47.0668 154.26 46.6011 154.787 46.2663C155.317 45.9316 155.937 45.7642 156.646 45.7642C157.077 45.7642 157.495 45.8355 157.899 45.978C158.303 46.1205 158.666 46.3442 158.988 46.6491C159.309 46.9541 159.563 47.3501 159.748 47.8374C159.934 48.3213 160.027 48.9096 160.027 49.6023V50.1293H153.956V49.0156H158.57C158.57 48.6245 158.49 48.2782 158.331 47.9766C158.172 47.6716 157.949 47.4313 157.66 47.2557C157.375 47.08 157.04 46.9922 156.656 46.9922C156.238 46.9922 155.874 47.0949 155.562 47.3004C155.254 47.5026 155.015 47.7678 154.846 48.0959C154.681 48.4207 154.598 48.7737 154.598 49.1548V50.0249C154.598 50.5353 154.687 50.9695 154.866 51.3274C155.048 51.6854 155.302 51.9588 155.627 52.1477C155.952 52.3333 156.331 52.4261 156.765 52.4261C157.047 52.4261 157.304 52.3864 157.536 52.3068C157.768 52.224 157.968 52.1013 158.138 51.9389C158.307 51.7765 158.436 51.576 158.525 51.3374L159.932 51.5909C159.82 52.0052 159.617 52.3681 159.326 52.6797C159.037 52.9879 158.674 53.2282 158.237 53.4006C157.803 53.5696 157.307 53.6541 156.75 53.6541ZM161.641 53.5V43.3182H163.128V47.1016H163.217C163.304 46.9425 163.428 46.7585 163.59 46.5497C163.753 46.3409 163.978 46.1586 164.266 46.0028C164.555 45.8437 164.936 45.7642 165.41 45.7642C166.026 45.7642 166.576 45.92 167.06 46.2315C167.544 46.5431 167.924 46.9922 168.199 47.5788C168.477 48.1655 168.616 48.8714 168.616 49.6967C168.616 50.522 168.479 51.2296 168.204 51.8196C167.929 52.4062 167.551 52.8587 167.07 53.1768C166.59 53.4917 166.041 53.6491 165.425 53.6491C164.961 53.6491 164.581 53.5713 164.286 53.4155C163.995 53.2597 163.766 53.0774 163.6 52.8686C163.434 52.6598 163.307 52.4742 163.217 52.3118H163.093V53.5H161.641ZM163.098 49.6818C163.098 50.2187 163.176 50.6894 163.332 51.0937C163.487 51.4981 163.713 51.8146 164.008 52.0433C164.303 52.2687 164.664 52.3814 165.092 52.3814C165.536 52.3814 165.907 52.2637 166.205 52.0284C166.504 51.7898 166.729 51.4666 166.881 51.0589C167.037 50.6513 167.115 50.1922 167.115 49.6818C167.115 49.178 167.039 48.7256 166.886 48.3246C166.737 47.9235 166.512 47.607 166.21 47.375C165.912 47.143 165.539 47.027 165.092 47.027C164.661 47.027 164.296 47.138 163.998 47.3601C163.703 47.5821 163.479 47.892 163.327 48.2898C163.174 48.6875 163.098 49.1515 163.098 49.6818ZM175.854 47.728L174.507 47.9666C174.45 47.7943 174.361 47.6302 174.238 47.4744C174.119 47.3187 173.957 47.1911 173.751 47.0916C173.546 46.9922 173.289 46.9425 172.98 46.9425C172.559 46.9425 172.208 47.0369 171.926 47.2259C171.645 47.4115 171.504 47.6518 171.504 47.9467C171.504 48.2019 171.598 48.4074 171.787 48.5632C171.976 48.719 172.281 48.8466 172.702 48.946L173.915 49.2244C174.618 49.3868 175.141 49.6371 175.486 49.9751C175.831 50.3132 176.003 50.7524 176.003 51.2926C176.003 51.75 175.871 52.1577 175.605 52.5156C175.344 52.8703 174.977 53.1487 174.507 53.3509C174.039 53.553 173.497 53.6541 172.881 53.6541C172.026 53.6541 171.328 53.4718 170.788 53.1072C170.248 52.7393 169.916 52.2173 169.794 51.5412L171.23 51.3224C171.32 51.697 171.504 51.9804 171.782 52.1726C172.061 52.3615 172.424 52.456 172.871 52.456C173.358 52.456 173.748 52.3549 174.039 52.1527C174.331 51.9472 174.477 51.697 174.477 51.402C174.477 51.1634 174.387 50.9628 174.208 50.8004C174.033 50.638 173.763 50.5154 173.398 50.4325L172.105 50.1491C171.393 49.9867 170.866 49.7282 170.524 49.3736C170.186 49.0189 170.017 48.5698 170.017 48.0263C170.017 47.5755 170.143 47.1811 170.395 46.843C170.647 46.505 170.995 46.2415 171.439 46.0526C171.883 45.8603 172.392 45.7642 172.966 45.7642C173.791 45.7642 174.44 45.9432 174.914 46.3011C175.388 46.6558 175.702 47.1314 175.854 47.728ZM177.484 53.5V45.8636H178.97V53.5H177.484ZM178.234 44.6854C177.976 44.6854 177.754 44.5992 177.568 44.4268C177.386 44.2512 177.295 44.0424 177.295 43.8004C177.295 43.5552 177.386 43.3464 177.568 43.174C177.754 42.9983 177.976 42.9105 178.234 42.9105C178.493 42.9105 178.713 42.9983 178.895 43.174C179.081 43.3464 179.174 43.5552 179.174 43.8004C179.174 44.0424 179.081 44.2512 178.895 44.4268C178.713 44.5992 178.493 44.6854 178.234 44.6854ZM184.381 45.8636V47.0568H180.209V45.8636H184.381ZM181.328 44.0341H182.814V51.2578C182.814 51.5462 182.858 51.7633 182.944 51.9091C183.03 52.0516 183.141 52.1494 183.277 52.2024C183.416 52.2521 183.567 52.277 183.729 52.277C183.849 52.277 183.953 52.2687 184.042 52.2521C184.132 52.2356 184.202 52.2223 184.251 52.2124L184.52 53.4403C184.434 53.4735 184.311 53.5066 184.152 53.5398C183.993 53.5762 183.794 53.5961 183.555 53.5994C183.164 53.6061 182.8 53.5365 182.461 53.3906C182.123 53.2448 181.85 53.0194 181.641 52.7145C181.432 52.4096 181.328 52.0268 181.328 51.5661V44.0341ZM189.08 53.6541C188.328 53.6541 187.68 53.4934 187.136 53.1719C186.596 52.8471 186.178 52.3913 185.883 51.8047C185.592 51.2147 185.446 50.5237 185.446 49.7315C185.446 48.9493 185.592 48.2599 185.883 47.6634C186.178 47.0668 186.589 46.6011 187.116 46.2663C187.647 45.9316 188.266 45.7642 188.976 45.7642C189.407 45.7642 189.824 45.8355 190.228 45.978C190.633 46.1205 190.996 46.3442 191.317 46.6491C191.639 46.9541 191.892 47.3501 192.078 47.8374C192.264 48.3213 192.356 48.9096 192.356 49.6023V50.1293H186.286V49.0156H190.9C190.9 48.6245 190.82 48.2782 190.661 47.9766C190.502 47.6716 190.278 47.4313 189.99 47.2557C189.705 47.08 189.37 46.9922 188.986 46.9922C188.568 46.9922 188.203 47.0949 187.892 47.3004C187.584 47.5026 187.345 47.7678 187.176 48.0959C187.01 48.4207 186.927 48.7737 186.927 49.1548V50.0249C186.927 50.5353 187.017 50.9695 187.196 51.3274C187.378 51.6854 187.632 51.9588 187.956 52.1477C188.281 52.3333 188.661 52.4261 189.095 52.4261C189.377 52.4261 189.634 52.3864 189.866 52.3068C190.098 52.224 190.298 52.1013 190.467 51.9389C190.636 51.7765 190.765 51.576 190.855 51.3374L192.262 51.5909C192.149 52.0052 191.947 52.3681 191.655 52.6797C191.367 52.9879 191.004 53.2282 190.567 53.4006C190.132 53.5696 189.637 53.6541 189.08 53.6541Z" fill="white"/>
<rect x="297" width="240" height="96" rx="6" fill="#B3C9A9"/>
<path d="M337.547 35.4929C337.494 35.0223 337.275 34.6577 336.891 34.3991C336.506 34.1373 336.022 34.0064 335.439 34.0064C335.021 34.0064 334.66 34.0727 334.355 34.2053C334.05 34.3345 333.813 34.5135 333.644 34.7422C333.478 34.9676 333.395 35.2244 333.395 35.5128C333.395 35.7547 333.452 35.9635 333.565 36.1392C333.681 36.3149 333.831 36.4624 334.017 36.5817C334.206 36.6977 334.408 36.7955 334.623 36.875C334.839 36.9512 335.046 37.0142 335.245 37.0639L336.239 37.3224C336.564 37.402 336.897 37.5097 337.239 37.6456C337.58 37.7815 337.896 37.9605 338.188 38.1825C338.48 38.4046 338.715 38.6797 338.894 39.0078C339.076 39.3359 339.168 39.7287 339.168 40.1861C339.168 40.7628 339.018 41.2749 338.72 41.7223C338.425 42.1697 337.996 42.5227 337.432 42.7812C336.872 43.0398 336.195 43.169 335.399 43.169C334.637 43.169 333.977 43.0481 333.42 42.8061C332.864 42.5642 332.428 42.2211 332.113 41.777C331.798 41.3295 331.624 40.7992 331.591 40.1861H333.132C333.162 40.554 333.281 40.8606 333.49 41.1058C333.702 41.3478 333.972 41.5284 334.3 41.6477C334.632 41.7637 334.995 41.8217 335.389 41.8217C335.823 41.8217 336.209 41.7538 336.547 41.6179C336.889 41.4787 337.157 41.2865 337.353 41.0412C337.548 40.7926 337.646 40.5026 337.646 40.1712C337.646 39.8696 337.56 39.6226 337.388 39.4304C337.219 39.2382 336.988 39.0791 336.697 38.9531C336.408 38.8272 336.082 38.7161 335.717 38.62L334.514 38.2919C333.699 38.0698 333.052 37.7434 332.575 37.3125C332.101 36.8816 331.864 36.3116 331.864 35.6023C331.864 35.0156 332.023 34.5036 332.342 34.0661C332.66 33.6286 333.091 33.2888 333.634 33.0469C334.178 32.8016 334.791 32.679 335.474 32.679C336.163 32.679 336.771 32.8 337.298 33.0419C337.828 33.2839 338.246 33.617 338.551 34.0412C338.856 34.4621 339.015 34.946 339.028 35.4929H337.547ZM344.021 43.1541C343.269 43.1541 342.621 42.9934 342.077 42.6719C341.537 42.3471 341.119 41.8913 340.824 41.3047C340.533 40.7147 340.387 40.0237 340.387 39.2315C340.387 38.4493 340.533 37.7599 340.824 37.1634C341.119 36.5668 341.53 36.1011 342.057 35.7663C342.588 35.4316 343.207 35.2642 343.917 35.2642C344.348 35.2642 344.765 35.3355 345.17 35.478C345.574 35.6205 345.937 35.8442 346.258 36.1491C346.58 36.4541 346.833 36.8501 347.019 37.3374C347.205 37.8213 347.297 38.4096 347.297 39.1023V39.6293H341.227V38.5156H345.841C345.841 38.1245 345.761 37.7782 345.602 37.4766C345.443 37.1716 345.219 36.9313 344.931 36.7557C344.646 36.58 344.311 36.4922 343.927 36.4922C343.509 36.4922 343.144 36.5949 342.833 36.8004C342.525 37.0026 342.286 37.2678 342.117 37.5959C341.951 37.9207 341.868 38.2737 341.868 38.6548V39.5249C341.868 40.0353 341.958 40.4695 342.137 40.8274C342.319 41.1854 342.573 41.4588 342.898 41.6477C343.222 41.8333 343.602 41.9261 344.036 41.9261C344.318 41.9261 344.575 41.8864 344.807 41.8068C345.039 41.724 345.239 41.6013 345.408 41.4389C345.577 41.2765 345.707 41.076 345.796 40.8374L347.203 41.0909C347.09 41.5052 346.888 41.8681 346.596 42.1797C346.308 42.4879 345.945 42.7282 345.508 42.9006C345.073 43.0696 344.578 43.1541 344.021 43.1541ZM350.279 32.8182V43H348.793V32.8182H350.279ZM355.416 43.1541C354.664 43.1541 354.016 42.9934 353.472 42.6719C352.932 42.3471 352.515 41.8913 352.22 41.3047C351.928 40.7147 351.782 40.0237 351.782 39.2315C351.782 38.4493 351.928 37.7599 352.22 37.1634C352.515 36.5668 352.926 36.1011 353.452 35.7663C353.983 35.4316 354.603 35.2642 355.312 35.2642C355.743 35.2642 356.16 35.3355 356.565 35.478C356.969 35.6205 357.332 35.8442 357.653 36.1491C357.975 36.4541 358.229 36.8501 358.414 37.3374C358.6 37.8213 358.693 38.4096 358.693 39.1023V39.6293H352.622V38.5156H357.236C357.236 38.1245 357.156 37.7782 356.997 37.4766C356.838 37.1716 356.614 36.9313 356.326 36.7557C356.041 36.58 355.706 36.4922 355.322 36.4922C354.904 36.4922 354.54 36.5949 354.228 36.8004C353.92 37.0026 353.681 37.2678 353.512 37.5959C353.346 37.9207 353.264 38.2737 353.264 38.6548V39.5249C353.264 40.0353 353.353 40.4695 353.532 40.8274C353.714 41.1854 353.968 41.4588 354.293 41.6477C354.618 41.8333 354.997 41.9261 355.431 41.9261C355.713 41.9261 355.97 41.8864 356.202 41.8068C356.434 41.724 356.634 41.6013 356.803 41.4389C356.972 41.2765 357.102 41.076 357.191 40.8374L358.598 41.0909C358.485 41.5052 358.283 41.8681 357.992 42.1797C357.703 42.4879 357.34 42.7282 356.903 42.9006C356.469 43.0696 355.973 43.1541 355.416 43.1541ZM363.405 43.1541C362.665 43.1541 362.029 42.9867 361.495 42.652C360.965 42.3139 360.557 41.8482 360.272 41.255C359.987 40.6617 359.845 39.9822 359.845 39.2166C359.845 38.4411 359.991 37.7566 360.282 37.1634C360.574 36.5668 360.985 36.1011 361.515 35.7663C362.046 35.4316 362.67 35.2642 363.39 35.2642C363.97 35.2642 364.487 35.3719 364.941 35.5874C365.395 35.7995 365.761 36.0978 366.039 36.4822C366.321 36.8667 366.489 37.3158 366.542 37.8295H365.095C365.015 37.4716 364.833 37.1634 364.548 36.9048C364.266 36.6463 363.888 36.517 363.414 36.517C363 36.517 362.637 36.6264 362.326 36.8452C362.017 37.0606 361.777 37.3688 361.605 37.7699C361.432 38.1676 361.346 38.6383 361.346 39.1818C361.346 39.7386 361.431 40.2192 361.6 40.6236C361.769 41.0279 362.007 41.3411 362.316 41.5632C362.627 41.7853 362.994 41.8963 363.414 41.8963C363.696 41.8963 363.951 41.8449 364.18 41.7422C364.412 41.6361 364.606 41.4853 364.762 41.2898C364.921 41.0942 365.032 40.8589 365.095 40.5838H366.542C366.489 41.0777 366.328 41.5185 366.059 41.9062C365.791 42.294 365.431 42.599 364.98 42.821C364.533 43.0431 364.008 43.1541 363.405 43.1541ZM371.542 35.3636V36.5568H367.371V35.3636H371.542ZM368.489 33.5341H369.976V40.7578C369.976 41.0462 370.019 41.2633 370.105 41.4091C370.191 41.5516 370.302 41.6494 370.438 41.7024C370.577 41.7521 370.728 41.777 370.891 41.777C371.01 41.777 371.114 41.7687 371.204 41.7521C371.293 41.7356 371.363 41.7223 371.413 41.7124L371.681 42.9403C371.595 42.9735 371.472 43.0066 371.313 43.0398C371.154 43.0762 370.955 43.0961 370.717 43.0994C370.325 43.1061 369.961 43.0365 369.623 42.8906C369.285 42.7448 369.011 42.5194 368.803 42.2145C368.594 41.9096 368.489 41.5268 368.489 41.0661V33.5341ZM378.806 43.169C378.322 43.169 377.884 43.0795 377.493 42.9006C377.102 42.7183 376.792 42.4548 376.563 42.1101C376.338 41.7654 376.225 41.3428 376.225 40.8423C376.225 40.4115 376.308 40.0568 376.474 39.7784C376.64 39.5 376.863 39.2796 377.145 39.1172C377.427 38.9548 377.742 38.8321 378.09 38.7493C378.438 38.6664 378.792 38.6035 379.154 38.5604C379.611 38.5073 379.982 38.4643 380.267 38.4311C380.552 38.3946 380.759 38.3366 380.889 38.2571C381.018 38.1776 381.083 38.0483 381.083 37.8693V37.8345C381.083 37.4003 380.96 37.0639 380.715 36.8253C380.473 36.5866 380.111 36.4673 379.631 36.4673C379.13 36.4673 378.736 36.5784 378.448 36.8004C378.163 37.0192 377.965 37.2628 377.856 37.5312L376.459 37.2131C376.625 36.7491 376.867 36.3745 377.185 36.0895C377.506 35.8011 377.876 35.5923 378.294 35.4631C378.711 35.3305 379.15 35.2642 379.611 35.2642C379.916 35.2642 380.239 35.3007 380.58 35.3736C380.925 35.4432 381.247 35.5724 381.545 35.7614C381.847 35.9503 382.093 36.2204 382.286 36.5717C382.478 36.9197 382.574 37.3722 382.574 37.929V43H381.122V41.956H381.063C380.967 42.1482 380.822 42.3371 380.63 42.5227C380.438 42.7083 380.191 42.8625 379.889 42.9851C379.588 43.1077 379.227 43.169 378.806 43.169ZM379.129 41.9759C379.54 41.9759 379.891 41.8946 380.183 41.7322C380.478 41.5698 380.701 41.3577 380.854 41.0959C381.01 40.8307 381.088 40.5473 381.088 40.2457V39.2614C381.035 39.3144 380.932 39.3641 380.779 39.4105C380.63 39.4536 380.459 39.4917 380.267 39.5249C380.075 39.5547 379.888 39.5829 379.705 39.6094C379.523 39.6326 379.371 39.6525 379.248 39.669C378.96 39.7055 378.696 39.7668 378.458 39.853C378.222 39.9392 378.033 40.0634 377.891 40.2259C377.752 40.3849 377.682 40.5971 377.682 40.8622C377.682 41.2301 377.818 41.5085 378.09 41.6974C378.361 41.883 378.708 41.9759 379.129 41.9759ZM388.07 43V32.8182H391.7C392.492 32.8182 393.148 32.9624 393.668 33.2507C394.189 33.5391 394.578 33.9335 394.837 34.4339C395.095 34.9311 395.225 35.4912 395.225 36.1143C395.225 36.7408 395.094 37.3042 394.832 37.8047C394.573 38.3018 394.182 38.6963 393.658 38.9879C393.138 39.2763 392.484 39.4205 391.695 39.4205H389.199V38.1179H391.555C392.056 38.1179 392.462 38.0317 392.774 37.8594C393.085 37.6837 393.314 37.4451 393.46 37.1435C393.605 36.8419 393.678 36.4988 393.678 36.1143C393.678 35.7299 393.605 35.3885 393.46 35.0902C393.314 34.7919 393.083 34.5582 392.769 34.3892C392.457 34.2202 392.046 34.1357 391.536 34.1357H389.607V43H388.07ZM398.239 32.8182V43H396.752V32.8182H398.239ZM402.307 43.169C401.823 43.169 401.385 43.0795 400.994 42.9006C400.603 42.7183 400.293 42.4548 400.065 42.1101C399.839 41.7654 399.727 41.3428 399.727 40.8423C399.727 40.4115 399.809 40.0568 399.975 39.7784C400.141 39.5 400.365 39.2796 400.646 39.1172C400.928 38.9548 401.243 38.8321 401.591 38.7493C401.939 38.6664 402.294 38.6035 402.655 38.5604C403.112 38.5073 403.483 38.4643 403.768 38.4311C404.053 38.3946 404.261 38.3366 404.39 38.2571C404.519 38.1776 404.584 38.0483 404.584 37.8693V37.8345C404.584 37.4003 404.461 37.0639 404.216 36.8253C403.974 36.5866 403.613 36.4673 403.132 36.4673C402.632 36.4673 402.237 36.5784 401.949 36.8004C401.664 37.0192 401.467 37.2628 401.357 37.5312L399.96 37.2131C400.126 36.7491 400.368 36.3745 400.686 36.0895C401.008 35.8011 401.377 35.5923 401.795 35.4631C402.212 35.3305 402.651 35.2642 403.112 35.2642C403.417 35.2642 403.74 35.3007 404.082 35.3736C404.426 35.4432 404.748 35.5724 405.046 35.7614C405.348 35.9503 405.595 36.2204 405.787 36.5717C405.979 36.9197 406.075 37.3722 406.075 37.929V43H404.624V41.956H404.564C404.468 42.1482 404.324 42.3371 404.131 42.5227C403.939 42.7083 403.692 42.8625 403.391 42.9851C403.089 43.1077 402.728 43.169 402.307 43.169ZM402.63 41.9759C403.041 41.9759 403.392 41.8946 403.684 41.7322C403.979 41.5698 404.203 41.3577 404.355 41.0959C404.511 40.8307 404.589 40.5473 404.589 40.2457V39.2614C404.536 39.3144 404.433 39.3641 404.281 39.4105C404.131 39.4536 403.961 39.4917 403.768 39.5249C403.576 39.5547 403.389 39.5829 403.207 39.6094C403.024 39.6326 402.872 39.6525 402.749 39.669C402.461 39.7055 402.197 39.7668 401.959 39.853C401.723 39.9392 401.535 40.0634 401.392 40.2259C401.253 40.3849 401.183 40.5971 401.183 40.8622C401.183 41.2301 401.319 41.5085 401.591 41.6974C401.863 41.883 402.209 41.9759 402.63 41.9759ZM409.388 38.4659V43H407.901V35.3636H409.328V36.6065H409.422C409.598 36.2022 409.873 35.8774 410.248 35.6321C410.626 35.3868 411.101 35.2642 411.675 35.2642C412.195 35.2642 412.651 35.3736 413.042 35.5923C413.433 35.8078 413.736 36.1293 413.952 36.5568C414.167 36.9844 414.275 37.513 414.275 38.1428V43H412.788V38.3217C412.788 37.7682 412.644 37.3357 412.356 37.0241C412.067 36.7093 411.671 36.5518 411.168 36.5518C410.823 36.5518 410.516 36.6264 410.248 36.7756C409.983 36.9247 409.772 37.1435 409.616 37.4318C409.464 37.7169 409.388 38.0616 409.388 38.4659ZM419.679 35.3636V36.5568H415.508V35.3636H419.679ZM416.626 33.5341H418.113V40.7578C418.113 41.0462 418.156 41.2633 418.242 41.4091C418.328 41.5516 418.439 41.6494 418.575 41.7024C418.715 41.7521 418.865 41.777 419.028 41.777C419.147 41.777 419.251 41.7687 419.341 41.7521C419.43 41.7356 419.5 41.7223 419.55 41.7124L419.818 42.9403C419.732 42.9735 419.609 43.0066 419.45 43.0398C419.291 43.0762 419.092 43.0961 418.854 43.0994C418.463 43.1061 418.098 43.0365 417.76 42.8906C417.422 42.7448 417.148 42.5194 416.94 42.2145C416.731 41.9096 416.626 41.5268 416.626 41.0661V33.5341ZM427.937 43.1541C427.221 43.1541 426.596 42.9901 426.063 42.6619C425.529 42.3338 425.115 41.8748 424.82 41.2848C424.525 40.6948 424.377 40.0054 424.377 39.2166C424.377 38.4245 424.525 37.7318 424.82 37.1385C425.115 36.5452 425.529 36.0845 426.063 35.7564C426.596 35.4283 427.221 35.2642 427.937 35.2642C428.653 35.2642 429.278 35.4283 429.811 35.7564C430.345 36.0845 430.759 36.5452 431.054 37.1385C431.349 37.7318 431.497 38.4245 431.497 39.2166C431.497 40.0054 431.349 40.6948 431.054 41.2848C430.759 41.8748 430.345 42.3338 429.811 42.6619C429.278 42.9901 428.653 43.1541 427.937 43.1541ZM427.942 41.9062C428.406 41.9062 428.791 41.7836 429.095 41.5384C429.4 41.2931 429.626 40.9666 429.772 40.5589C429.921 40.1513 429.995 39.7022 429.995 39.2116C429.995 38.7244 429.921 38.277 429.772 37.8693C429.626 37.4583 429.4 37.1286 429.095 36.88C428.791 36.6314 428.406 36.5071 427.942 36.5071C427.475 36.5071 427.087 36.6314 426.779 36.88C426.474 37.1286 426.247 37.4583 426.098 37.8693C425.952 38.277 425.879 38.7244 425.879 39.2116C425.879 39.7022 425.952 40.1513 426.098 40.5589C426.247 40.9666 426.474 41.2931 426.779 41.5384C427.087 41.7836 427.475 41.9062 427.942 41.9062ZM433.002 43V35.3636H434.439V36.5767H434.518C434.658 36.1657 434.903 35.8426 435.254 35.6072C435.609 35.3686 436.01 35.2493 436.457 35.2493C436.55 35.2493 436.659 35.2526 436.785 35.2592C436.915 35.2659 437.016 35.2741 437.089 35.2841V36.706C437.029 36.6894 436.923 36.6712 436.77 36.6513C436.618 36.6281 436.466 36.6165 436.313 36.6165C435.962 36.6165 435.649 36.6911 435.373 36.8402C435.102 36.986 434.886 37.1899 434.727 37.4517C434.568 37.7102 434.488 38.0052 434.488 38.3366V43H433.002ZM448.439 32.8182H449.98V39.5149C449.98 40.2275 449.813 40.8589 449.478 41.4091C449.143 41.956 448.673 42.3868 448.066 42.7017C447.46 43.0133 446.749 43.169 445.933 43.169C445.121 43.169 444.412 43.0133 443.805 42.7017C443.199 42.3868 442.728 41.956 442.394 41.4091C442.059 40.8589 441.891 40.2275 441.891 39.5149V32.8182H443.428V39.3906C443.428 39.8513 443.529 40.2607 443.731 40.6186C443.936 40.9766 444.226 41.2583 444.601 41.4638C444.975 41.666 445.42 41.767 445.933 41.767C446.45 41.767 446.896 41.666 447.271 41.4638C447.649 41.2583 447.937 40.9766 448.136 40.6186C448.338 40.2607 448.439 39.8513 448.439 39.3906V32.8182ZM457.663 37.228L456.315 37.4666C456.259 37.2943 456.17 37.1302 456.047 36.9744C455.928 36.8187 455.765 36.6911 455.56 36.5916C455.354 36.4922 455.097 36.4425 454.789 36.4425C454.368 36.4425 454.017 36.5369 453.735 36.7259C453.453 36.9115 453.313 37.1518 453.313 37.4467C453.313 37.7019 453.407 37.9074 453.596 38.0632C453.785 38.219 454.09 38.3466 454.511 38.446L455.724 38.7244C456.426 38.8868 456.95 39.1371 457.295 39.4751C457.639 39.8132 457.812 40.2524 457.812 40.7926C457.812 41.25 457.679 41.6577 457.414 42.0156C457.152 42.3703 456.786 42.6487 456.315 42.8509C455.848 43.053 455.306 43.1541 454.69 43.1541C453.835 43.1541 453.137 42.9718 452.597 42.6072C452.056 42.2393 451.725 41.7173 451.602 41.0412L453.039 40.8224C453.129 41.197 453.313 41.4804 453.591 41.6726C453.869 41.8615 454.232 41.956 454.68 41.956C455.167 41.956 455.556 41.8549 455.848 41.6527C456.14 41.4472 456.286 41.197 456.286 40.902C456.286 40.6634 456.196 40.4628 456.017 40.3004C455.841 40.138 455.571 40.0154 455.207 39.9325L453.914 39.6491C453.202 39.4867 452.675 39.2282 452.333 38.8736C451.995 38.5189 451.826 38.0698 451.826 37.5263C451.826 37.0755 451.952 36.6811 452.204 36.343C452.456 36.005 452.804 35.7415 453.248 35.5526C453.692 35.3603 454.201 35.2642 454.774 35.2642C455.599 35.2642 456.249 35.4432 456.723 35.8011C457.197 36.1558 457.51 36.6314 457.663 37.228ZM462.583 43.1541C461.831 43.1541 461.183 42.9934 460.64 42.6719C460.099 42.3471 459.682 41.8913 459.387 41.3047C459.095 40.7147 458.949 40.0237 458.949 39.2315C458.949 38.4493 459.095 37.7599 459.387 37.1634C459.682 36.5668 460.093 36.1011 460.62 35.7663C461.15 35.4316 461.77 35.2642 462.479 35.2642C462.91 35.2642 463.328 35.3355 463.732 35.478C464.136 35.6205 464.499 35.8442 464.821 36.1491C465.142 36.4541 465.396 36.8501 465.581 37.3374C465.767 37.8213 465.86 38.4096 465.86 39.1023V39.6293L459.789 39.6293V38.5156L464.403 38.5156C464.403 38.1245 464.323 37.7782 464.164 37.4766C464.005 37.1716 463.782 36.9313 463.493 36.7557C463.208 36.58 462.873 36.4922 462.489 36.4922C462.071 36.4922 461.707 36.5949 461.395 36.8004C461.087 37.0026 460.848 37.2678 460.679 37.5959C460.514 37.9207 460.431 38.2737 460.431 38.6548V39.5249C460.431 40.0353 460.52 40.4695 460.699 40.8274C460.881 41.1854 461.135 41.4588 461.46 41.6477C461.785 41.8333 462.164 41.9261 462.598 41.9261C462.88 41.9261 463.137 41.8864 463.369 41.8068C463.601 41.724 463.801 41.6013 463.97 41.4389C464.14 41.2765 464.269 41.076 464.358 40.8374L465.765 41.0909C465.653 41.5052 465.45 41.8681 465.159 42.1797C464.87 42.4879 464.507 42.7282 464.07 42.9006C463.636 43.0696 463.14 43.1541 462.583 43.1541ZM471.025 43V32.8182H474.655C475.447 32.8182 476.103 32.9624 476.623 33.2507C477.144 33.5391 477.533 33.9335 477.792 34.4339C478.05 34.9311 478.18 35.4912 478.18 36.1143C478.18 36.7408 478.049 37.3042 477.787 37.8047C477.528 38.3018 477.137 38.6963 476.614 38.9879C476.093 39.2763 475.439 39.4205 474.65 39.4205H472.154V38.1179H474.511C475.011 38.1179 475.417 38.0317 475.729 37.8594C476.04 37.6837 476.269 37.4451 476.415 37.1435C476.56 36.8419 476.633 36.4988 476.633 36.1143C476.633 35.7299 476.56 35.3885 476.415 35.0902C476.269 34.7919 476.038 34.5582 475.724 34.3892C475.412 34.2202 475.001 34.1357 474.491 34.1357H472.562V43H471.025ZM481.194 32.8182V43H479.707V32.8182H481.194ZM485.262 43.169C484.778 43.169 484.34 43.0795 483.949 42.9006C483.558 42.7183 483.248 42.4548 483.02 42.1101C482.794 41.7654 482.682 41.3428 482.682 40.8423C482.682 40.4115 482.764 40.0568 482.93 39.7784C483.096 39.5 483.32 39.2796 483.601 39.1172C483.883 38.9548 484.198 38.8321 484.546 38.7493C484.894 38.6664 485.249 38.6035 485.61 38.5604C486.067 38.5073 486.438 38.4643 486.723 38.4311C487.008 38.3946 487.216 38.3366 487.345 38.2571C487.474 38.1776 487.539 38.0483 487.539 37.8693V37.8345C487.539 37.4003 487.416 37.0639 487.171 36.8253C486.929 36.5866 486.568 36.4673 486.087 36.4673C485.587 36.4673 485.192 36.5784 484.904 36.8004C484.619 37.0192 484.422 37.2628 484.312 37.5312L482.915 37.2131C483.081 36.7491 483.323 36.3745 483.641 36.0895C483.963 35.8011 484.332 35.5923 484.75 35.4631C485.167 35.3305 485.607 35.2642 486.067 35.2642C486.372 35.2642 486.695 35.3007 487.037 35.3736C487.381 35.4432 487.703 35.5724 488.001 35.7614C488.303 35.9503 488.55 36.2204 488.742 36.5717C488.934 36.9197 489.03 37.3722 489.03 37.929V43H487.579V41.956H487.519C487.423 42.1482 487.279 42.3371 487.086 42.5227C486.894 42.7083 486.647 42.8625 486.346 42.9851C486.044 43.1077 485.683 43.169 485.262 43.169ZM485.585 41.9759C485.996 41.9759 486.347 41.8946 486.639 41.7322C486.934 41.5698 487.158 41.3577 487.31 41.0959C487.466 40.8307 487.544 40.5473 487.544 40.2457V39.2614C487.491 39.3144 487.388 39.3641 487.236 39.4105C487.086 39.4536 486.916 39.4917 486.723 39.5249C486.531 39.5547 486.344 39.5829 486.162 39.6094C485.979 39.6326 485.827 39.6525 485.704 39.669C485.416 39.7055 485.152 39.7668 484.914 39.853C484.678 39.9392 484.49 40.0634 484.347 40.2259C484.208 40.3849 484.138 40.5971 484.138 40.8622C484.138 41.2301 484.274 41.5085 484.546 41.6974C484.818 41.883 485.164 41.9759 485.585 41.9759ZM492.343 38.4659V43H490.856V35.3636H492.283V36.6065H492.378C492.553 36.2022 492.828 35.8774 493.203 35.6321C493.581 35.3868 494.056 35.2642 494.63 35.2642C495.15 35.2642 495.606 35.3736 495.997 35.5923C496.388 35.8078 496.691 36.1293 496.907 36.5568C497.122 36.9844 497.23 37.513 497.23 38.1428V43H495.743V38.3217C495.743 37.7682 495.599 37.3357 495.311 37.0241C495.022 36.7093 494.626 36.5518 494.123 36.5518C493.778 36.5518 493.471 36.6264 493.203 36.7756C492.938 36.9247 492.727 37.1435 492.571 37.4318C492.419 37.7169 492.343 38.0616 492.343 38.4659ZM502.634 35.3636V36.5568H498.463V35.3636H502.634ZM499.581 33.5341H501.068V40.7578C501.068 41.0462 501.111 41.2633 501.197 41.4091C501.283 41.5516 501.394 41.6494 501.53 41.7024C501.67 41.7521 501.82 41.777 501.983 41.777C502.102 41.777 502.206 41.7687 502.296 41.7521C502.385 41.7356 502.455 41.7223 502.505 41.7124L502.773 42.9403C502.687 42.9735 502.564 43.0066 502.405 43.0398C502.246 43.0762 502.047 43.0961 501.809 43.0994C501.418 43.1061 501.053 43.0365 500.715 42.8906C500.377 42.7448 500.104 42.5194 499.895 42.2145C499.686 41.9096 499.581 41.5268 499.581 41.0661V33.5341ZM318.081 64V53.8182H324.395V55.1406H319.617V58.2429H323.942V59.5604H319.617V64H318.081ZM326.011 64V56.3636H327.497V64H326.011ZM326.761 55.1854C326.503 55.1854 326.281 55.0992 326.095 54.9268C325.913 54.7512 325.822 54.5424 325.822 54.3004C325.822 54.0552 325.913 53.8464 326.095 53.674C326.281 53.4983 326.503 53.4105 326.761 53.4105C327.02 53.4105 327.24 53.4983 327.423 53.674C327.608 53.8464 327.701 54.0552 327.701 54.3004C327.701 54.5424 327.608 54.7512 327.423 54.9268C327.24 55.0992 327.02 55.1854 326.761 55.1854ZM330.83 59.4659V64H329.343V56.3636H330.77V57.6065H330.864C331.04 57.2022 331.315 56.8774 331.69 56.6321C332.068 56.3868 332.543 56.2642 333.117 56.2642C333.637 56.2642 334.093 56.3736 334.484 56.5923C334.875 56.8078 335.178 57.1293 335.394 57.5568C335.609 57.9844 335.717 58.513 335.717 59.1428V64L334.23 64V59.3217C334.23 58.7682 334.086 58.3357 333.798 58.0241C333.509 57.7093 333.113 57.5518 332.609 57.5518C332.265 57.5518 331.958 57.6264 331.69 57.7756C331.425 57.9247 331.214 58.1435 331.058 58.4318C330.906 58.7169 330.83 59.0616 330.83 59.4659ZM340.415 64.1491C339.798 64.1491 339.248 63.9917 338.764 63.6768C338.284 63.3587 337.906 62.9062 337.631 62.3196C337.359 61.7296 337.223 61.022 337.223 60.1967C337.223 59.3714 337.361 58.6655 337.636 58.0788C337.914 57.4922 338.295 57.0431 338.779 56.7315C339.263 56.42 339.812 56.2642 340.425 56.2642C340.899 56.2642 341.28 56.3438 341.568 56.5028C341.86 56.6586 342.085 56.8409 342.244 57.0497C342.407 57.2585 342.533 57.4425 342.622 57.6016H342.712V53.8182H344.198V64H342.747V62.8118H342.622C342.533 62.9742 342.404 63.1598 342.235 63.3686C342.069 63.5774 341.84 63.7597 341.548 63.9155C341.257 64.0713 340.879 64.1491 340.415 64.1491ZM340.743 62.8814C341.171 62.8814 341.532 62.7687 341.827 62.5433C342.125 62.3146 342.351 61.9981 342.503 61.5937C342.659 61.1894 342.737 60.7187 342.737 60.1818C342.737 59.6515 342.66 59.1875 342.508 58.7898C342.356 58.392 342.132 58.0821 341.837 57.8601C341.542 57.638 341.177 57.527 340.743 57.527C340.296 57.527 339.923 57.643 339.624 57.875C339.326 58.107 339.101 58.4235 338.948 58.8246C338.799 59.2256 338.725 59.678 338.725 60.1818C338.725 60.6922 338.801 61.1513 338.953 61.5589C339.106 61.9666 339.331 62.2898 339.629 62.5284C339.931 62.7637 340.302 62.8814 340.743 62.8814ZM349.457 64.1541C348.705 64.1541 348.057 63.9934 347.513 63.6719C346.973 63.3471 346.555 62.8913 346.26 62.3047C345.969 61.7147 345.823 61.0237 345.823 60.2315C345.823 59.4493 345.969 58.7599 346.26 58.1634C346.555 57.5668 346.966 57.1011 347.493 56.7663C348.024 56.4316 348.643 56.2642 349.353 56.2642C349.784 56.2642 350.201 56.3355 350.606 56.478C351.01 56.6205 351.373 56.8442 351.694 57.1491C352.016 57.4541 352.269 57.8501 352.455 58.3374C352.641 58.8213 352.733 59.4096 352.733 60.1023V60.6293H346.663V59.5156H351.277C351.277 59.1245 351.197 58.7782 351.038 58.4766C350.879 58.1716 350.655 57.9313 350.367 57.7557C350.082 57.58 349.747 57.4922 349.363 57.4922C348.945 57.4922 348.58 57.5949 348.269 57.8004C347.961 58.0026 347.722 58.2678 347.553 58.5959C347.387 58.9207 347.304 59.2737 347.304 59.6548V60.5249C347.304 61.0353 347.394 61.4695 347.573 61.8274C347.755 62.1854 348.009 62.4588 348.334 62.6477C348.658 62.8333 349.038 62.9261 349.472 62.9261C349.754 62.9261 350.011 62.8864 350.243 62.8068C350.475 62.724 350.675 62.6013 350.844 62.4389C351.013 62.2765 351.143 62.076 351.232 61.8374L352.639 62.0909C352.526 62.5052 352.324 62.8681 352.032 63.1797C351.744 63.4879 351.381 63.7282 350.944 63.9006C350.509 64.0696 350.014 64.1541 349.457 64.1541ZM354.229 64V56.3636H355.666V57.5767H355.745C355.884 57.1657 356.13 56.8426 356.481 56.6072C356.836 56.3686 357.237 56.2493 357.684 56.2493C357.777 56.2493 357.886 56.2526 358.012 56.2592C358.141 56.2659 358.242 56.2741 358.315 56.2841V57.706C358.256 57.6894 358.15 57.6712 357.997 57.6513C357.845 57.6281 357.692 57.6165 357.54 57.6165C357.188 57.6165 356.875 57.6911 356.6 57.8402C356.328 57.986 356.113 58.1899 355.954 58.4517C355.795 58.7102 355.715 59.0052 355.715 59.3366V64H354.229ZM362.616 55.1406V53.8182L370.496 53.8182V55.1406L367.319 55.1406V64H365.788V55.1406H362.616ZM374.073 64.1541C373.357 64.1541 372.733 63.9901 372.199 63.6619C371.665 63.3338 371.251 62.8748 370.956 62.2848C370.661 61.6948 370.514 61.0054 370.514 60.2166C370.514 59.4245 370.661 58.7318 370.956 58.1385C371.251 57.5452 371.665 57.0845 372.199 56.7564C372.733 56.4283 373.357 56.2642 374.073 56.2642C374.789 56.2642 375.414 56.4283 375.947 56.7564C376.481 57.0845 376.895 57.5452 377.19 58.1385C377.485 58.7318 377.633 59.4245 377.633 60.2166C377.633 61.0054 377.485 61.6948 377.19 62.2848C376.895 62.8748 376.481 63.3338 375.947 63.6619C375.414 63.9901 374.789 64.1541 374.073 64.1541ZM374.078 62.9062C374.542 62.9062 374.927 62.7836 375.232 62.5384C375.537 62.2931 375.762 61.9666 375.908 61.5589C376.057 61.1513 376.131 60.7022 376.131 60.2116C376.131 59.7244 376.057 59.277 375.908 58.8693C375.762 58.4583 375.537 58.1286 375.232 57.88C374.927 57.6314 374.542 57.5071 374.078 57.5071C373.611 57.5071 373.223 57.6314 372.915 57.88C372.61 58.1286 372.383 58.4583 372.234 58.8693C372.088 59.277 372.015 59.7244 372.015 60.2116C372.015 60.7022 372.088 61.1513 372.234 61.5589C372.383 61.9666 372.61 62.2931 372.915 62.5384C373.223 62.7836 373.611 62.9062 374.078 62.9062ZM382.809 64V53.8182H389.122V55.1406H384.345V58.2429H388.67V59.5604H384.345V64H382.809ZM390.738 64V56.3636H392.225V64H390.738ZM391.489 55.1854C391.231 55.1854 391.008 55.0992 390.823 54.9268C390.641 54.7512 390.549 54.5424 390.549 54.3004C390.549 54.0552 390.641 53.8464 390.823 53.674C391.008 53.4983 391.231 53.4105 391.489 53.4105C391.748 53.4105 391.968 53.4983 392.15 53.674C392.336 53.8464 392.429 54.0552 392.429 54.3004C392.429 54.5424 392.336 54.7512 392.15 54.9268C391.968 55.0992 391.748 55.1854 391.489 55.1854ZM395.557 59.4659V64H394.071V56.3636H395.498V57.6065H395.592C395.768 57.2022 396.043 56.8774 396.417 56.6321C396.795 56.3868 397.271 56.2642 397.844 56.2642C398.364 56.2642 398.82 56.3736 399.211 56.5923C399.602 56.8078 399.906 57.1293 400.121 57.5568C400.337 57.9844 400.444 58.513 400.444 59.1428V64H398.958V59.3217C398.958 58.7682 398.814 58.3357 398.525 58.0241C398.237 57.7093 397.841 57.5518 397.337 57.5518C396.992 57.5518 396.686 57.6264 396.417 57.7756C396.152 57.9247 395.942 58.1435 395.786 58.4318C395.633 58.7169 395.557 59.0616 395.557 59.4659ZM405.143 64.1491C404.526 64.1491 403.976 63.9917 403.492 63.6768C403.011 63.3587 402.634 62.9062 402.358 62.3196C402.087 61.7296 401.951 61.022 401.951 60.1967C401.951 59.3714 402.088 58.6655 402.363 58.0788C402.642 57.4922 403.023 57.0431 403.507 56.7315C403.991 56.42 404.539 56.2642 405.152 56.2642C405.626 56.2642 406.008 56.3437 406.296 56.5028C406.588 56.6586 406.813 56.8409 406.972 57.0497C407.134 57.2585 407.26 57.4425 407.35 57.6016H407.439V53.8182H408.926V64H407.474V62.8118H407.35C407.26 62.9742 407.131 63.1598 406.962 63.3686C406.796 63.5774 406.568 63.7597 406.276 63.9155C405.984 64.0713 405.607 64.1491 405.143 64.1491ZM405.471 62.8814C405.898 62.8814 406.259 62.7687 406.554 62.5433C406.853 62.3146 407.078 61.9981 407.231 61.5937C407.386 61.1894 407.464 60.7187 407.464 60.1818C407.464 59.6515 407.388 59.1875 407.236 58.7898C407.083 58.392 406.859 58.0821 406.564 57.8601C406.269 57.638 405.905 57.527 405.471 57.527C405.023 57.527 404.65 57.643 404.352 57.875C404.054 58.107 403.828 58.4235 403.676 58.8246C403.527 59.2256 403.452 59.678 403.452 60.1818C403.452 60.6922 403.528 61.1513 403.681 61.5589C403.833 61.9666 404.059 62.2898 404.357 62.5284C404.659 62.7637 405.03 62.8814 405.471 62.8814ZM414.062 55.1406V53.8182H421.942V55.1406H418.765V64H417.234V55.1406H414.062ZM424.896 59.4659V64L423.41 64V53.8182H424.876V57.6065H424.971C425.15 57.1955 425.423 56.8691 425.791 56.6271C426.159 56.3852 426.64 56.2642 427.233 56.2642C427.757 56.2642 428.214 56.3719 428.605 56.5874C428.999 56.8028 429.304 57.1243 429.52 57.5518C429.739 57.9761 429.848 58.5064 429.848 59.1428V64H428.361V59.3217C428.361 58.7616 428.217 58.3274 427.929 58.0192C427.641 57.7076 427.24 57.5518 426.726 57.5518C426.374 57.5518 426.06 57.6264 425.781 57.7756C425.506 57.9247 425.289 58.1435 425.13 58.4318C424.974 58.7169 424.896 59.0616 424.896 59.4659ZM434.969 64.1541C434.216 64.1541 433.568 63.9934 433.025 63.6719C432.485 63.3471 432.067 62.8913 431.772 62.3047C431.48 61.7147 431.335 61.0237 431.335 60.2315C431.335 59.4493 431.48 58.7599 431.772 58.1634C432.067 57.5668 432.478 57.1011 433.005 56.7663C433.535 56.4316 434.155 56.2642 434.864 56.2642C435.295 56.2642 435.713 56.3355 436.117 56.478C436.522 56.6205 436.885 56.8442 437.206 57.1491C437.528 57.4541 437.781 57.8501 437.967 58.3374C438.152 58.8213 438.245 59.4096 438.245 60.1023V60.6293H432.175V59.5156H436.788C436.788 59.1245 436.709 58.7782 436.55 58.4766C436.391 58.1716 436.167 57.9313 435.879 57.7557C435.594 57.58 435.259 57.4922 434.874 57.4922C434.457 57.4922 434.092 57.5949 433.781 57.8004C433.472 58.0026 433.234 58.2678 433.065 58.5959C432.899 58.9207 432.816 59.2737 432.816 59.6548V60.5249C432.816 61.0353 432.906 61.4695 433.085 61.8274C433.267 62.1854 433.52 62.4588 433.845 62.6477C434.17 62.8333 434.55 62.9261 434.984 62.9261C435.265 62.9261 435.522 62.8864 435.754 62.8068C435.986 62.724 436.187 62.6013 436.356 62.4389C436.525 62.2765 436.654 62.076 436.744 61.8374L438.151 62.0909C438.038 62.5052 437.836 62.8681 437.544 63.1797C437.256 63.4879 436.893 63.7282 436.455 63.9006C436.021 64.0696 435.526 64.1541 434.969 64.1541ZM443.411 64V53.8182H447.04C447.829 53.8182 448.483 53.9541 449.004 54.2259C449.528 54.4976 449.919 54.8738 450.177 55.3544C450.436 55.8317 450.565 56.3835 450.565 57.0099C450.565 57.633 450.434 58.1816 450.172 58.6555C449.914 59.1262 449.523 59.4924 448.999 59.7543C448.479 60.0161 447.824 60.147 447.035 60.147H444.286V58.8246H446.896C447.393 58.8246 447.797 58.7533 448.109 58.6108C448.424 58.4683 448.654 58.2611 448.8 57.9893C448.946 57.7176 449.019 57.3911 449.019 57.0099C449.019 56.6255 448.944 56.2924 448.795 56.0107C448.649 55.7289 448.419 55.5135 448.104 55.3643C447.792 55.2119 447.383 55.1357 446.876 55.1357H444.947V64H443.411ZM448.437 59.4062L450.953 64H449.203L446.737 59.4062H448.437ZM452.161 64V56.3636H453.647V64H452.161ZM452.912 55.1854C452.653 55.1854 452.431 55.0992 452.245 54.9268C452.063 54.7512 451.972 54.5424 451.972 54.3004C451.972 54.0552 452.063 53.8464 452.245 53.674C452.431 53.4983 452.653 53.4105 452.912 53.4105C453.17 53.4105 453.391 53.4983 453.573 53.674C453.758 53.8464 453.851 54.0552 453.851 54.3004C453.851 54.5424 453.758 54.7512 453.573 54.9268C453.391 55.0992 453.17 55.1854 452.912 55.1854ZM458.695 67.0227C458.088 67.0227 457.566 66.9432 457.129 66.7841C456.695 66.625 456.34 66.4145 456.065 66.1527C455.79 65.8909 455.584 65.6042 455.449 65.2926L456.726 64.7656C456.816 64.9115 456.935 65.0656 457.084 65.228C457.237 65.3937 457.442 65.5346 457.701 65.6506C457.962 65.7666 458.299 65.8246 458.71 65.8246C459.273 65.8246 459.739 65.687 460.107 65.4119C460.475 65.1402 460.659 64.706 460.659 64.1094V62.608H460.564C460.475 62.7704 460.346 62.951 460.177 63.1499C460.011 63.3487 459.782 63.5211 459.49 63.6669C459.199 63.8127 458.819 63.8857 458.352 63.8857C457.749 63.8857 457.205 63.7448 456.721 63.4631C456.241 63.178 455.86 62.7588 455.578 62.2053C455.299 61.6484 455.16 60.964 455.16 60.152C455.16 59.34 455.298 58.6439 455.573 58.0639C455.851 57.4839 456.232 57.0398 456.716 56.7315C457.2 56.42 457.749 56.2642 458.362 56.2642C458.836 56.2642 459.219 56.3437 459.51 56.5028C459.802 56.6586 460.029 56.8409 460.191 57.0497C460.357 57.2585 460.485 57.4425 460.574 57.6016H460.684V56.3636H462.14V64.169C462.14 64.8253 461.988 65.3639 461.683 65.7848C461.378 66.2057 460.965 66.5173 460.445 66.7195C459.928 66.9216 459.345 67.0227 458.695 67.0227ZM458.68 62.6527C459.108 62.6527 459.469 62.5533 459.764 62.3544C460.062 62.1522 460.288 61.8639 460.44 61.4893C460.596 61.1115 460.674 60.6591 460.674 60.1321C460.674 59.6184 460.597 59.166 460.445 58.7749C460.293 58.3838 460.069 58.0788 459.774 57.8601C459.479 57.638 459.114 57.527 458.68 57.527C458.233 57.527 457.86 57.643 457.561 57.875C457.263 58.1037 457.038 58.4152 456.885 58.8097C456.736 59.2041 456.662 59.6449 456.662 60.1321C456.662 60.6326 456.738 61.0717 456.89 61.4496C457.043 61.8274 457.268 62.1224 457.566 62.3345C457.868 62.5466 458.239 62.6527 458.68 62.6527ZM465.466 59.4659V64H463.98V53.8182H465.447V57.6065H465.541C465.72 57.1955 465.993 56.8691 466.361 56.6271C466.729 56.3852 467.21 56.2642 467.803 56.2642C468.327 56.2642 468.784 56.3719 469.175 56.5874C469.57 56.8028 469.875 57.1243 470.09 57.5518C470.309 57.9761 470.418 58.5064 470.418 59.1428V64H468.932V59.3217C468.932 58.7616 468.787 58.3274 468.499 58.0192C468.211 57.7076 467.81 57.5518 467.296 57.5518C466.945 57.5518 466.63 57.6264 466.351 57.7756C466.076 57.9247 465.859 58.1435 465.7 58.4318C465.544 58.7169 465.466 59.0616 465.466 59.4659ZM475.812 56.3636V57.5568H471.641V56.3636H475.812ZM472.76 54.5341H474.246V61.7578C474.246 62.0462 474.289 62.2633 474.376 62.4091C474.462 62.5516 474.573 62.6494 474.709 62.7024C474.848 62.7521 474.999 62.777 475.161 62.777C475.28 62.777 475.385 62.7687 475.474 62.7521C475.564 62.7356 475.633 62.7223 475.683 62.7124L475.952 63.9403C475.865 63.9735 475.743 64.0066 475.584 64.0398C475.425 64.0762 475.226 64.0961 474.987 64.0994C474.596 64.1061 474.231 64.0365 473.893 63.8906C473.555 63.7448 473.282 63.5194 473.073 63.2145C472.864 62.9096 472.76 62.5268 472.76 62.0661V54.5341ZM480.973 64V53.8182H484.602C485.395 53.8182 486.051 53.9624 486.571 54.2507C487.092 54.5391 487.481 54.9335 487.739 55.4339C487.998 55.9311 488.127 56.4912 488.127 57.1143C488.127 57.7408 487.996 58.3042 487.734 58.8047C487.476 59.3018 487.085 59.6963 486.561 59.9879C486.041 60.2763 485.386 60.4205 484.597 60.4205H482.102V59.1179H484.458C484.959 59.1179 485.365 59.0317 485.676 58.8594C485.988 58.6837 486.217 58.4451 486.362 58.1435C486.508 57.8419 486.581 57.4988 486.581 57.1143C486.581 56.7299 486.508 56.3885 486.362 56.0902C486.217 55.7919 485.986 55.5582 485.671 55.3892C485.36 55.2202 484.949 55.1357 484.438 55.1357H482.509V64H480.973ZM491.141 53.8182V64H489.655V53.8182H491.141ZM495.21 64.169C494.726 64.169 494.288 64.0795 493.897 63.9006C493.506 63.7183 493.196 63.4548 492.967 63.1101C492.742 62.7654 492.629 62.3428 492.629 61.8423C492.629 61.4115 492.712 61.0568 492.878 60.7784C493.044 60.5 493.267 60.2796 493.549 60.1172C493.831 59.9548 494.146 59.8321 494.494 59.7493C494.842 59.6664 495.196 59.6035 495.558 59.5604C496.015 59.5073 496.386 59.4643 496.671 59.4311C496.956 59.3946 497.163 59.3366 497.293 59.2571C497.422 59.1776 497.487 59.0483 497.487 58.8693V58.8345C497.487 58.4003 497.364 58.0639 497.119 57.8253C496.877 57.5866 496.515 57.4673 496.035 57.4673C495.534 57.4673 495.14 57.5784 494.852 57.8004C494.567 58.0192 494.369 58.2628 494.26 58.5312L492.863 58.2131C493.029 57.7491 493.271 57.3745 493.589 57.0895C493.91 56.8011 494.28 56.5923 494.697 56.4631C495.115 56.3305 495.554 56.2642 496.015 56.2642C496.32 56.2642 496.643 56.3007 496.984 56.3736C497.329 56.4432 497.651 56.5724 497.949 56.7614C498.25 56.9503 498.497 57.2204 498.69 57.5717C498.882 57.9197 498.978 58.3722 498.978 58.929V64H497.526V62.956H497.467C497.371 63.1482 497.226 63.3371 497.034 63.5227C496.842 63.7083 496.595 63.8625 496.293 63.9851C495.992 64.1077 495.63 64.169 495.21 64.169ZM495.533 62.9759C495.944 62.9759 496.295 62.8946 496.587 62.7322C496.882 62.5698 497.105 62.3577 497.258 62.0959C497.414 61.8307 497.491 61.5473 497.491 61.2457V60.2614C497.438 60.3144 497.336 60.3641 497.183 60.4105C497.034 60.4536 496.863 60.4917 496.671 60.5249C496.479 60.5547 496.292 60.5829 496.109 60.6094C495.927 60.6326 495.775 60.6525 495.652 60.669C495.364 60.7055 495.1 60.7668 494.862 60.853C494.626 60.9392 494.437 61.0634 494.295 61.2259C494.156 61.3849 494.086 61.5971 494.086 61.8622C494.086 62.2301 494.222 62.5085 494.494 62.6974C494.765 62.883 495.112 62.9759 495.533 62.9759ZM502.29 59.4659V64H500.804V56.3636H502.231V57.6065H502.325C502.501 57.2022 502.776 56.8774 503.151 56.6321C503.528 56.3868 504.004 56.2642 504.577 56.2642C505.098 56.2642 505.553 56.3736 505.945 56.5923C506.336 56.8078 506.639 57.1293 506.854 57.5568C507.07 57.9844 507.178 58.513 507.178 59.1428V64H505.691V59.3217C505.691 58.7682 505.547 58.3357 505.258 58.0241C504.97 57.7093 504.574 57.5518 504.07 57.5518C503.726 57.5518 503.419 57.6264 503.151 57.7756C502.885 57.9247 502.675 58.1435 502.519 58.4318C502.367 58.7169 502.29 59.0616 502.29 59.4659ZM512.582 56.3636V57.5568H508.411V56.3636H512.582ZM509.529 54.5341H511.016V61.7578C511.016 62.0462 511.059 62.2633 511.145 62.4091C511.231 62.5516 511.342 62.6494 511.478 62.7024C511.617 62.7521 511.768 62.777 511.93 62.777C512.05 62.777 512.154 62.7687 512.244 62.7521C512.333 62.7356 512.403 62.7223 512.452 62.7124L512.721 63.9403C512.635 63.9735 512.512 64.0066 512.353 64.0398C512.194 64.0762 511.995 64.0961 511.756 64.0994C511.365 64.1061 511.001 64.0365 510.663 63.8906C510.325 63.7448 510.051 63.5194 509.842 63.2145C509.634 62.9096 509.529 62.5268 509.529 62.0661V54.5341ZM515.052 64.0945C514.78 64.0945 514.546 63.9983 514.351 63.8061C514.155 63.6106 514.057 63.3752 514.057 63.1001C514.057 62.8284 514.155 62.5964 514.351 62.4041C514.546 62.2086 514.78 62.1108 515.052 62.1108C515.323 62.1108 515.557 62.2086 515.753 62.4041C515.948 62.5964 516.046 62.8284 516.046 63.1001C516.046 63.2824 515.999 63.4498 515.907 63.6023C515.817 63.7514 515.698 63.8707 515.549 63.9602C515.4 64.0497 515.234 64.0945 515.052 64.0945Z" fill="black"/>
<path d="M215 46.5C214.172 46.5 213.5 47.1716 213.5 48C213.5 48.8284 214.172 49.5 215 49.5L215 46.5ZM294.061 49.0607C294.646 48.4749 294.646 47.5251 294.061 46.9393L284.515 37.3934C283.929 36.8076 282.979 36.8076 282.393 37.3934C281.808 37.9792 281.808 38.9289 282.393 39.5147L290.879 48L282.393 56.4853C281.808 57.0711 281.808 58.0208 282.393 58.6066C282.979 59.1924 283.929 59.1924 284.515 58.6066L294.061 49.0607ZM215 49.5L293 49.5L293 46.5L215 46.5L215 49.5Z" fill="#1E1E1E"/>
<path d="M541 46.5C540.172 46.5 539.5 47.1716 539.5 48C539.5 48.8284 540.172 49.5 541 49.5L541 46.5ZM615.061 49.0607C615.646 48.4749 615.646 47.5251 615.061 46.9393L605.515 37.3934C604.929 36.8076 603.979 36.8076 603.393 37.3934C602.808 37.9792 602.808 38.9289 603.393 39.5147L611.879 48L603.393 56.4853C602.808 57.0711 602.808 58.0208 603.393 58.6066C603.979 59.1924 604.929 59.1924 605.515 58.6066L615.061 49.0607ZM541 49.5L614 49.5L614 46.5L541 46.5L541 49.5Z" fill="#1E1E1E"/>
<rect x="937" width="211" height="96" rx="6" fill="#2F7604"/>
<path d="M1003.07 53.5V43.3182H1009.45V44.6406H1004.6V47.7429H1009.12V49.0604H1004.6V52.1776H1009.51V53.5H1003.07ZM1012.4 45.8636L1014.09 48.8366L1015.79 45.8636H1017.41L1015.03 49.6818L1017.43 53.5H1015.81L1014.09 50.6463L1012.37 53.5H1010.74L1013.12 49.6818L1010.77 45.8636H1012.4ZM1018.79 53.5V45.8636H1020.27V53.5H1018.79ZM1019.54 44.6854C1019.28 44.6854 1019.06 44.5992 1018.87 44.4268C1018.69 44.2512 1018.6 44.0424 1018.6 43.8004C1018.6 43.5552 1018.69 43.3464 1018.87 43.174C1019.06 42.9983 1019.28 42.9105 1019.54 42.9105C1019.8 42.9105 1020.02 42.9983 1020.2 43.174C1020.38 43.3464 1020.48 43.5552 1020.48 43.8004C1020.48 44.0424 1020.38 44.2512 1020.2 44.4268C1020.02 44.5992 1019.8 44.6854 1019.54 44.6854ZM1025.68 45.8636V47.0568H1021.51V45.8636H1025.68ZM1022.63 44.0341H1024.12V51.2578C1024.12 51.5462 1024.16 51.7633 1024.25 51.9091C1024.33 52.0516 1024.44 52.1494 1024.58 52.2024C1024.72 52.2521 1024.87 52.277 1025.03 52.277C1025.15 52.277 1025.26 52.2687 1025.35 52.2521C1025.43 52.2356 1025.5 52.2223 1025.55 52.2124L1025.82 53.4403C1025.74 53.4735 1025.61 53.5066 1025.45 53.5398C1025.3 53.5762 1025.1 53.5961 1024.86 53.5994C1024.47 53.6061 1024.1 53.5365 1023.76 53.3906C1023.43 53.2448 1023.15 53.0194 1022.94 52.7145C1022.74 52.4096 1022.63 52.0268 1022.63 51.5661V44.0341ZM1032.84 53.5L1030.01 43.3182H1031.63L1033.61 51.2031H1033.71L1035.77 43.3182H1037.37L1039.43 51.2081H1039.53L1041.51 43.3182H1043.13L1040.3 53.5H1038.75L1036.61 45.8736H1036.53L1034.39 53.5H1032.84ZM1046.8 53.6541C1046.04 53.6541 1045.4 53.4934 1044.85 53.1719C1044.31 52.8471 1043.89 52.3913 1043.6 51.8047C1043.31 51.2147 1043.16 50.5237 1043.16 49.7315C1043.16 48.9493 1043.31 48.2599 1043.6 47.6634C1043.89 47.0668 1044.3 46.6011 1044.83 46.2663C1045.36 45.9316 1045.98 45.7642 1046.69 45.7642C1047.12 45.7642 1047.54 45.8355 1047.94 45.978C1048.35 46.1205 1048.71 46.3442 1049.03 46.6491C1049.35 46.9541 1049.61 47.3501 1049.79 47.8374C1049.98 48.3213 1050.07 48.9096 1050.07 49.6023V50.1293H1044V49.0156H1048.62C1048.62 48.6245 1048.54 48.2782 1048.38 47.9766C1048.22 47.6716 1047.99 47.4313 1047.71 47.2557C1047.42 47.08 1047.09 46.9922 1046.7 46.9922C1046.28 46.9922 1045.92 47.0949 1045.61 47.3004C1045.3 47.5026 1045.06 47.7678 1044.89 48.0959C1044.73 48.4207 1044.64 48.7737 1044.64 49.1548V50.0249C1044.64 50.5353 1044.73 50.9695 1044.91 51.3274C1045.09 51.6854 1045.35 51.9588 1045.67 52.1477C1046 52.3333 1046.38 52.4261 1046.81 52.4261C1047.09 52.4261 1047.35 52.3864 1047.58 52.3068C1047.81 52.224 1048.01 52.1013 1048.18 51.9389C1048.35 51.7765 1048.48 51.576 1048.57 51.3374L1049.98 51.5909C1049.86 52.0052 1049.66 52.3681 1049.37 52.6797C1049.08 52.9879 1048.72 53.2282 1048.28 53.4006C1047.85 53.5696 1047.35 53.6541 1046.8 53.6541ZM1051.69 53.5V43.3182H1053.17V47.1016H1053.26C1053.35 46.9425 1053.47 46.7585 1053.64 46.5497C1053.8 46.3409 1054.02 46.1586 1054.31 46.0028C1054.6 45.8437 1054.98 45.7642 1055.45 45.7642C1056.07 45.7642 1056.62 45.92 1057.11 46.2315C1057.59 46.5431 1057.97 46.9922 1058.24 47.5788C1058.52 48.1655 1058.66 48.8714 1058.66 49.6967C1058.66 50.522 1058.52 51.2296 1058.25 51.8196C1057.97 52.4062 1057.6 52.8587 1057.12 53.1768C1056.63 53.4917 1056.09 53.6491 1055.47 53.6491C1055.01 53.6491 1054.63 53.5713 1054.33 53.4155C1054.04 53.2597 1053.81 53.0774 1053.65 52.8686C1053.48 52.6598 1053.35 52.4742 1053.26 52.3118H1053.14V53.5H1051.69ZM1053.14 49.6818C1053.14 50.2187 1053.22 50.6894 1053.38 51.0937C1053.53 51.4981 1053.76 51.8146 1054.05 52.0433C1054.35 52.2687 1054.71 52.3814 1055.14 52.3814C1055.58 52.3814 1055.95 52.2637 1056.25 52.0284C1056.55 51.7898 1056.77 51.4666 1056.93 51.0589C1057.08 50.6513 1057.16 50.1922 1057.16 49.6818C1057.16 49.178 1057.08 48.7256 1056.93 48.3246C1056.78 47.9235 1056.56 47.607 1056.26 47.375C1055.96 47.143 1055.58 47.027 1055.14 47.027C1054.71 47.027 1054.34 47.138 1054.04 47.3601C1053.75 47.5821 1053.52 47.892 1053.37 48.2898C1053.22 48.6875 1053.14 49.1515 1053.14 49.6818ZM1065.9 47.728L1064.55 47.9666C1064.5 47.7943 1064.41 47.6302 1064.28 47.4744C1064.16 47.3187 1064 47.1911 1063.8 47.0916C1063.59 46.9922 1063.33 46.9425 1063.03 46.9425C1062.6 46.9425 1062.25 47.0369 1061.97 47.2259C1061.69 47.4115 1061.55 47.6518 1061.55 47.9467C1061.55 48.2019 1061.64 48.4074 1061.83 48.5632C1062.02 48.719 1062.33 48.8466 1062.75 48.946L1063.96 49.2244C1064.66 49.3868 1065.19 49.6371 1065.53 49.9751C1065.88 50.3132 1066.05 50.7524 1066.05 51.2926C1066.05 51.75 1065.92 52.1577 1065.65 52.5156C1065.39 52.8703 1065.02 53.1487 1064.55 53.3509C1064.08 53.553 1063.54 53.6541 1062.93 53.6541C1062.07 53.6541 1061.37 53.4718 1060.83 53.1072C1060.29 52.7393 1059.96 52.2173 1059.84 51.5412L1061.28 51.3224C1061.37 51.697 1061.55 51.9804 1061.83 52.1726C1062.11 52.3615 1062.47 52.456 1062.92 52.456C1063.4 52.456 1063.79 52.3549 1064.08 52.1527C1064.38 51.9472 1064.52 51.697 1064.52 51.402C1064.52 51.1634 1064.43 50.9628 1064.25 50.8004C1064.08 50.638 1063.81 50.5154 1063.44 50.4325L1062.15 50.1491C1061.44 49.9867 1060.91 49.7282 1060.57 49.3736C1060.23 49.0189 1060.06 48.5698 1060.06 48.0263C1060.06 47.5755 1060.19 47.1811 1060.44 46.843C1060.69 46.505 1061.04 46.2415 1061.48 46.0526C1061.93 45.8603 1062.44 45.7642 1063.01 45.7642C1063.84 45.7642 1064.49 45.9432 1064.96 46.3011C1065.43 46.6558 1065.75 47.1314 1065.9 47.728ZM1067.53 53.5V45.8636L1069.02 45.8636V53.5L1067.53 53.5ZM1068.28 44.6854C1068.02 44.6854 1067.8 44.5992 1067.61 44.4268C1067.43 44.2512 1067.34 44.0424 1067.34 43.8004C1067.34 43.5552 1067.43 43.3464 1067.61 43.174C1067.8 42.9983 1068.02 42.9105 1068.28 42.9105C1068.54 42.9105 1068.76 42.9983 1068.94 43.174C1069.13 43.3464 1069.22 43.5552 1069.22 43.8004C1069.22 44.0424 1069.13 44.2512 1068.94 44.4268C1068.76 44.5992 1068.54 44.6854 1068.28 44.6854ZM1074.43 45.8636V47.0568H1070.25V45.8636H1074.43ZM1071.37 44.0341H1072.86V51.2578C1072.86 51.5462 1072.9 51.7633 1072.99 51.9091C1073.07 52.0516 1073.19 52.1494 1073.32 52.2024C1073.46 52.2521 1073.61 52.277 1073.77 52.277C1073.89 52.277 1074 52.2687 1074.09 52.2521C1074.18 52.2356 1074.25 52.2223 1074.3 52.2124L1074.56 53.4403C1074.48 53.4735 1074.36 53.5066 1074.2 53.5398C1074.04 53.5762 1073.84 53.5961 1073.6 53.5994C1073.21 53.6061 1072.84 53.5365 1072.51 53.3906C1072.17 53.2448 1071.9 53.0194 1071.69 52.7145C1071.48 52.4096 1071.37 52.0268 1071.37 51.5661V44.0341ZM1079.13 53.6541C1078.37 53.6541 1077.72 53.4934 1077.18 53.1719C1076.64 52.8471 1076.22 52.3913 1075.93 51.8047C1075.64 51.2147 1075.49 50.5237 1075.49 49.7315C1075.49 48.9493 1075.64 48.2599 1075.93 47.6634C1076.22 47.0668 1076.63 46.6011 1077.16 46.2663C1077.69 45.9316 1078.31 45.7642 1079.02 45.7642C1079.45 45.7642 1079.87 45.8355 1080.27 45.978C1080.68 46.1205 1081.04 46.3442 1081.36 46.6491C1081.68 46.9541 1081.94 47.3501 1082.12 47.8374C1082.31 48.3213 1082.4 48.9096 1082.4 49.6023V50.1293H1076.33V49.0156H1080.94C1080.94 48.6245 1080.87 48.2782 1080.71 47.9766C1080.55 47.6716 1080.32 47.4313 1080.03 47.2557C1079.75 47.08 1079.42 46.9922 1079.03 46.9922C1078.61 46.9922 1078.25 47.0949 1077.94 47.3004C1077.63 47.5026 1077.39 47.7678 1077.22 48.0959C1077.06 48.4207 1076.97 48.7737 1076.97 49.1548V50.0249C1076.97 50.5353 1077.06 50.9695 1077.24 51.3274C1077.42 51.6854 1077.68 51.9588 1078 52.1477C1078.33 52.3333 1078.71 52.4261 1079.14 52.4261C1079.42 52.4261 1079.68 52.3864 1079.91 52.3068C1080.14 52.224 1080.34 52.1013 1080.51 51.9389C1080.68 51.7765 1080.81 51.576 1080.9 51.3374L1082.31 51.5909C1082.19 52.0052 1081.99 52.3681 1081.7 52.6797C1081.41 52.9879 1081.05 53.2282 1080.61 53.4006C1080.18 53.5696 1079.68 53.6541 1079.13 53.6541Z" fill="white"/>
<path d="M861 46.5C860.172 46.5 859.5 47.1716 859.5 48C859.5 48.8284 860.172 49.5 861 49.5L861 46.5ZM934.061 49.0607C934.646 48.4749 934.646 47.5251 934.061 46.9393L924.515 37.3934C923.929 36.8076 922.979 36.8076 922.393 37.3934C921.808 37.9792 921.808 38.9289 922.393 39.5147L930.879 48L922.393 56.4853C921.808 57.0711 921.808 58.0208 922.393 58.6066C922.979 59.1924 923.929 59.1924 924.515 58.6066L934.061 49.0607ZM861 49.5L933 49.5L933 46.5L861 46.5L861 49.5Z" fill="#1E1E1E"/>
</svg>
