<svg width="215" height="191" viewBox="0 0 215 191" fill="none" xmlns="http://www.w3.org/2000/svg">
<path d="M6.38672 11H5.55664V7.63574H1.80664V11H0.976562V3.86133H1.80664V6.90332H5.55664V3.86133H6.38672V11ZM10.1195 5.56055C10.7575 5.56055 11.2311 5.70378 11.5404 5.99023C11.8496 6.27669 12.0043 6.73405 12.0043 7.3623V11H11.4134L11.2572 10.209H11.2181C11.0684 10.4043 10.9121 10.5687 10.7494 10.7021C10.5866 10.8324 10.3978 10.9316 10.183 11C9.97138 11.0651 9.71096 11.0977 9.40172 11.0977C9.0762 11.0977 8.78648 11.0407 8.53258 10.9268C8.28193 10.8128 8.08336 10.6403 7.93687 10.4092C7.79365 10.1781 7.72203 9.88509 7.72203 9.53027C7.72203 8.99642 7.93362 8.58626 8.3568 8.2998C8.77997 8.01335 9.42451 7.8571 10.2904 7.83105L11.2132 7.79199V7.46484C11.2132 7.0026 11.114 6.67871 10.9154 6.49316C10.7168 6.30762 10.4369 6.21484 10.0755 6.21484C9.7956 6.21484 9.52867 6.25553 9.27477 6.33691C9.02086 6.41829 8.77997 6.51432 8.55211 6.625L8.30309 6.00977C8.54397 5.88607 8.82066 5.78027 9.13316 5.69238C9.44566 5.60449 9.77444 5.56055 10.1195 5.56055ZM11.2035 8.36328L10.388 8.39746C9.72073 8.4235 9.25035 8.53255 8.97691 8.72461C8.70348 8.91667 8.56676 9.18848 8.56676 9.54004C8.56676 9.84603 8.65953 10.0723 8.84508 10.2188C9.03062 10.3652 9.27639 10.4385 9.58238 10.4385C10.0576 10.4385 10.4466 10.3066 10.7494 10.043C11.0521 9.7793 11.2035 9.38379 11.2035 8.85645V8.36328ZM14.7409 11L12.7097 5.64844H13.5788L14.7556 8.88574C14.837 9.1071 14.92 9.35124 15.0046 9.61816C15.0892 9.88509 15.1478 10.0999 15.1804 10.2627H15.2146C15.2536 10.0999 15.3187 9.88509 15.4099 9.61816C15.501 9.34798 15.584 9.10384 15.6589 8.88574L16.8357 5.64844H17.7048L15.6687 11H14.7409ZM20.5147 5.55078C20.9705 5.55078 21.3611 5.65169 21.6866 5.85352C22.0121 6.05534 22.2611 6.33854 22.4337 6.70312C22.6062 7.06445 22.6925 7.48763 22.6925 7.97266V8.47559H18.9962C19.0059 9.10384 19.1622 9.58236 19.4649 9.91113C19.7677 10.2399 20.1941 10.4043 20.7442 10.4043C21.0828 10.4043 21.3822 10.3734 21.6427 10.3115C21.9031 10.2497 22.1733 10.1585 22.4532 10.0381V10.751C22.183 10.8714 21.9145 10.9593 21.6475 11.0146C21.3839 11.07 21.0714 11.0977 20.71 11.0977C20.1957 11.0977 19.7465 10.9935 19.3624 10.7852C18.9815 10.5736 18.6853 10.2643 18.4737 9.85742C18.2621 9.45052 18.1563 8.95247 18.1563 8.36328C18.1563 7.78711 18.2524 7.28906 18.4444 6.86914C18.6397 6.44596 18.9132 6.12044 19.2647 5.89258C19.6195 5.66471 20.0362 5.55078 20.5147 5.55078ZM20.505 6.21484C20.072 6.21484 19.727 6.35645 19.4698 6.63965C19.2126 6.92285 19.0596 7.31836 19.0108 7.82617H21.8429C21.8396 7.50716 21.7891 7.22721 21.6915 6.98633C21.5971 6.74219 21.4522 6.55339 21.2569 6.41992C21.0616 6.2832 20.811 6.21484 20.505 6.21484ZM25.6023 5.64844H26.4715L27.6531 8.75391C27.7215 8.9362 27.785 9.11198 27.8436 9.28125C27.9021 9.44727 27.9542 9.60677 27.9998 9.75977C28.0454 9.91276 28.0812 10.0609 28.1072 10.2041H28.1414C28.187 10.0413 28.2521 9.82812 28.3367 9.56445C28.4214 9.29753 28.5125 9.02572 28.6102 8.74902L29.7283 5.64844H30.6023L28.2732 11.7861C28.1495 12.1149 28.0047 12.4014 27.8387 12.6455C27.6759 12.8896 27.4773 13.0768 27.243 13.207C27.0086 13.3405 26.7254 13.4072 26.3934 13.4072C26.2404 13.4072 26.1053 13.3975 25.9881 13.3779C25.8709 13.3617 25.77 13.3421 25.6854 13.3193V12.6699C25.757 12.6862 25.8432 12.7008 25.9441 12.7139C26.0483 12.7269 26.1557 12.7334 26.2664 12.7334C26.4682 12.7334 26.6424 12.6943 26.7889 12.6162C26.9386 12.5413 27.0672 12.4307 27.1746 12.2842C27.282 12.1377 27.3748 11.9635 27.4529 11.7617L27.7459 11.0098L25.6023 5.64844ZM35.9611 8.31445C35.9611 8.75391 35.9041 9.14616 35.7902 9.49121C35.6763 9.83626 35.5119 10.1276 35.297 10.3652C35.0822 10.6029 34.8218 10.7852 34.5158 10.9121C34.213 11.0358 33.8696 11.0977 33.4855 11.0977C33.1274 11.0977 32.7987 11.0358 32.4992 10.9121C32.203 10.7852 31.9458 10.6029 31.7277 10.3652C31.5129 10.1276 31.3452 9.83626 31.2248 9.49121C31.1076 9.14616 31.049 8.75391 31.049 8.31445C31.049 7.72852 31.1483 7.23047 31.3468 6.82031C31.5454 6.4069 31.8286 6.09277 32.1964 5.87793C32.5675 5.65983 33.0086 5.55078 33.5197 5.55078C34.008 5.55078 34.4344 5.65983 34.799 5.87793C35.1668 6.09603 35.4517 6.41178 35.6535 6.8252C35.8586 7.23535 35.9611 7.73177 35.9611 8.31445ZM31.8888 8.31445C31.8888 8.74414 31.9458 9.11686 32.0597 9.43262C32.1737 9.74837 32.3494 9.99251 32.5871 10.165C32.8247 10.3376 33.1307 10.4238 33.505 10.4238C33.8761 10.4238 34.1805 10.3376 34.4181 10.165C34.659 9.99251 34.8364 9.74837 34.9504 9.43262C35.0643 9.11686 35.1213 8.74414 35.1213 8.31445C35.1213 7.88802 35.0643 7.52018 34.9504 7.21094C34.8364 6.89844 34.6606 6.65755 34.423 6.48828C34.1854 6.31901 33.8778 6.23438 33.5002 6.23438C32.9435 6.23438 32.535 6.41829 32.2746 6.78613C32.0174 7.15397 31.8888 7.66341 31.8888 8.31445ZM41.6714 5.64844V11H41.0073L40.8902 10.248H40.8462C40.7355 10.4336 40.5923 10.5898 40.4165 10.7168C40.2407 10.8438 40.0422 10.9382 39.8208 11C39.6027 11.0651 39.37 11.0977 39.1226 11.0977C38.6994 11.0977 38.3446 11.0293 38.0581 10.8926C37.7717 10.7559 37.5552 10.5443 37.4087 10.2578C37.2655 9.97135 37.1939 9.60352 37.1939 9.1543V5.64844H38.0142V9.0957C38.0142 9.54167 38.1151 9.87533 38.3169 10.0967C38.5187 10.3148 38.8264 10.4238 39.2398 10.4238C39.6369 10.4238 39.9527 10.349 40.187 10.1992C40.4247 10.0495 40.5956 9.82975 40.6997 9.54004C40.8039 9.24707 40.856 8.889 40.856 8.46582V5.64844H41.6714ZM47.8235 5.55078C48.2792 5.55078 48.6698 5.65169 48.9953 5.85352C49.3209 6.05534 49.5699 6.33854 49.7424 6.70312C49.9149 7.06445 50.0012 7.48763 50.0012 7.97266V8.47559H46.3049C46.3147 9.10384 46.4709 9.58236 46.7737 9.91113C47.0764 10.2399 47.5028 10.4043 48.053 10.4043C48.3915 10.4043 48.691 10.3734 48.9514 10.3115C49.2118 10.2497 49.482 10.1585 49.762 10.0381V10.751C49.4918 10.8714 49.2232 10.9593 48.9563 11.0146C48.6926 11.07 48.3801 11.0977 48.0188 11.0977C47.5045 11.0977 47.0552 10.9935 46.6711 10.7852C46.2903 10.5736 45.994 10.2643 45.7825 9.85742C45.5709 9.45052 45.4651 8.95247 45.4651 8.36328C45.4651 7.78711 45.5611 7.28906 45.7532 6.86914C45.9485 6.44596 46.2219 6.12044 46.5735 5.89258C46.9283 5.66471 47.345 5.55078 47.8235 5.55078ZM47.8137 6.21484C47.3808 6.21484 47.0357 6.35645 46.7786 6.63965C46.5214 6.92285 46.3684 7.31836 46.3196 7.82617H49.1516C49.1483 7.50716 49.0979 7.22721 49.0002 6.98633C48.9058 6.74219 48.761 6.55339 48.5657 6.41992C48.3703 6.2832 48.1197 6.21484 47.8137 6.21484ZM52.4449 11L50.4137 5.64844H51.2828L52.4596 8.88574C52.541 9.1071 52.624 9.35124 52.7086 9.61816C52.7932 9.88509 52.8518 10.0999 52.8844 10.2627H52.9186C52.9576 10.0999 53.0227 9.88509 53.1139 9.61816C53.205 9.34798 53.288 9.10384 53.3629 8.88574L54.5396 5.64844H55.4088L53.3727 11H52.4449ZM58.2187 5.55078C58.6744 5.55078 59.0651 5.65169 59.3906 5.85352C59.7161 6.05534 59.9651 6.33854 60.1377 6.70312C60.3102 7.06445 60.3964 7.48763 60.3964 7.97266V8.47559H56.7002C56.7099 9.10384 56.8662 9.58236 57.1689 9.91113C57.4716 10.2399 57.8981 10.4043 58.4482 10.4043C58.7867 10.4043 59.0862 10.3734 59.3466 10.3115C59.6071 10.2497 59.8772 10.1585 60.1572 10.0381V10.751C59.887 10.8714 59.6185 10.9593 59.3515 11.0146C59.0879 11.07 58.7754 11.0977 58.414 11.0977C57.8997 11.0977 57.4505 10.9935 57.0664 10.7852C56.6855 10.5736 56.3893 10.2643 56.1777 9.85742C55.9661 9.45052 55.8603 8.95247 55.8603 8.36328C55.8603 7.78711 55.9563 7.28906 56.1484 6.86914C56.3437 6.44596 56.6171 6.12044 56.9687 5.89258C57.3235 5.66471 57.7402 5.55078 58.2187 5.55078ZM58.2089 6.21484C57.776 6.21484 57.431 6.35645 57.1738 6.63965C56.9166 6.92285 56.7636 7.31836 56.7148 7.82617H59.5468C59.5436 7.50716 59.4931 7.22721 59.3955 6.98633C59.3011 6.74219 59.1562 6.55339 58.9609 6.41992C58.7656 6.2832 58.5149 6.21484 58.2089 6.21484ZM64.095 5.55078C64.2025 5.55078 64.3148 5.55729 64.432 5.57031C64.5491 5.58008 64.6533 5.59473 64.7445 5.61426L64.6419 6.36621C64.554 6.34342 64.4564 6.32552 64.3489 6.3125C64.2415 6.29948 64.1406 6.29297 64.0462 6.29297C63.8314 6.29297 63.6279 6.33691 63.4359 6.4248C63.2471 6.50944 63.081 6.63314 62.9378 6.7959C62.7946 6.9554 62.6823 7.14909 62.6009 7.37695C62.5195 7.60156 62.4788 7.85221 62.4788 8.12891V11H61.6634V5.64844H62.3372L62.4251 6.63477H62.4593C62.57 6.4362 62.7034 6.25553 62.8597 6.09277C63.0159 5.92676 63.1966 5.79492 63.4017 5.69727C63.61 5.59961 63.8411 5.55078 64.095 5.55078ZM68.9434 3.40234V5.30176C68.9434 5.51986 68.9369 5.73145 68.9239 5.93652C68.9141 6.1416 68.906 6.30111 68.8995 6.41504H68.9434C69.0899 6.17415 69.3015 5.9707 69.5782 5.80469C69.8549 5.63867 70.208 5.55566 70.6377 5.55566C71.3083 5.55566 71.8422 5.78841 72.2393 6.25391C72.6397 6.71615 72.8399 7.40462 72.8399 8.31934C72.8399 8.92155 72.7487 9.42936 72.5664 9.84277C72.3842 10.2562 72.127 10.5687 71.795 10.7803C71.4629 10.9919 71.0707 11.0977 70.6182 11.0977C70.195 11.0977 69.8467 11.0195 69.5733 10.8633C69.3031 10.7038 69.0948 10.5101 68.9483 10.2822H68.8848L68.7188 11H68.1329V3.40234H68.9434ZM70.5059 6.23438C70.1185 6.23438 69.8109 6.31087 69.583 6.46387C69.3552 6.61361 69.1908 6.84147 69.0899 7.14746C68.9922 7.4502 68.9434 7.83431 68.9434 8.2998V8.34375C68.9434 9.01758 69.0557 9.53353 69.2803 9.8916C69.5049 10.2464 69.9134 10.4238 70.5059 10.4238C71.0039 10.4238 71.3767 10.2415 71.6241 9.87695C71.8747 9.51237 72 8.99154 72 8.31445C72 7.62435 71.8763 7.10514 71.6289 6.75684C71.3848 6.40853 71.0105 6.23438 70.5059 6.23438ZM78.7602 8.31445C78.7602 8.75391 78.7032 9.14616 78.5893 9.49121C78.4753 9.83626 78.3109 10.1276 78.0961 10.3652C77.8812 10.6029 77.6208 10.7852 77.3148 10.9121C77.0121 11.0358 76.6687 11.0977 76.2846 11.0977C75.9265 11.0977 75.5977 11.0358 75.2982 10.9121C75.002 10.7852 74.7449 10.6029 74.5268 10.3652C74.3119 10.1276 74.1443 9.83626 74.0238 9.49121C73.9066 9.14616 73.848 8.75391 73.848 8.31445C73.848 7.72852 73.9473 7.23047 74.1459 6.82031C74.3445 6.4069 74.6277 6.09277 74.9955 5.87793C75.3666 5.65983 75.8077 5.55078 76.3187 5.55078C76.807 5.55078 77.2335 5.65983 77.598 5.87793C77.9659 6.09603 78.2507 6.41178 78.4525 6.8252C78.6576 7.23535 78.7602 7.73177 78.7602 8.31445ZM74.6879 8.31445C74.6879 8.74414 74.7449 9.11686 74.8588 9.43262C74.9727 9.74837 75.1485 9.99251 75.3861 10.165C75.6238 10.3376 75.9298 10.4238 76.3041 10.4238C76.6752 10.4238 76.9796 10.3376 77.2172 10.165C77.4581 9.99251 77.6355 9.74837 77.7494 9.43262C77.8633 9.11686 77.9203 8.74414 77.9203 8.31445C77.9203 7.88802 77.8633 7.52018 77.7494 7.21094C77.6355 6.89844 77.4597 6.65755 77.2221 6.48828C76.9844 6.31901 76.6768 6.23438 76.2992 6.23438C75.7426 6.23438 75.334 6.41829 75.0736 6.78613C74.8165 7.15397 74.6879 7.66341 74.6879 8.31445ZM84.4705 5.64844V11H83.8064L83.6892 10.248H83.6453C83.5346 10.4336 83.3914 10.5898 83.2156 10.7168C83.0398 10.8438 82.8412 10.9382 82.6199 11C82.4018 11.0651 82.169 11.0977 81.9216 11.0977C81.4985 11.0977 81.1436 11.0293 80.8572 10.8926C80.5707 10.7559 80.3543 10.5443 80.2078 10.2578C80.0645 9.97135 79.9929 9.60352 79.9929 9.1543V5.64844H80.8132V9.0957C80.8132 9.54167 80.9142 9.87533 81.116 10.0967C81.3178 10.3148 81.6254 10.4238 82.0388 10.4238C82.436 10.4238 82.7517 10.349 82.9861 10.1992C83.2237 10.0495 83.3946 9.82975 83.4988 9.54004C83.603 9.24707 83.655 8.889 83.655 8.46582V5.64844H84.4705ZM87.5685 13.4023C86.8653 13.4023 86.3234 13.2705 85.9425 13.0068C85.5616 12.7464 85.3712 12.3802 85.3712 11.9082C85.3712 11.5729 85.477 11.2865 85.6886 11.0488C85.9034 10.8112 86.1997 10.6533 86.5773 10.5752C86.4373 10.5101 86.3168 10.4124 86.2159 10.2822C86.1183 10.152 86.0695 10.0023 86.0695 9.83301C86.0695 9.6377 86.1232 9.4668 86.2306 9.32031C86.3413 9.17057 86.5089 9.02734 86.7335 8.89062C86.4536 8.77669 86.2257 8.58464 86.0499 8.31445C85.8774 8.04102 85.7911 7.72363 85.7911 7.3623C85.7911 6.97819 85.8709 6.65104 86.0304 6.38086C86.1899 6.10742 86.421 5.89909 86.7237 5.75586C87.0265 5.61263 87.3927 5.54102 87.8224 5.54102C87.9168 5.54102 88.0112 5.5459 88.1056 5.55566C88.2032 5.56217 88.296 5.57357 88.3839 5.58984C88.4718 5.60286 88.5483 5.61914 88.6134 5.63867H90.4493V6.16113L89.463 6.2832C89.5607 6.41016 89.642 6.56315 89.7071 6.74219C89.7722 6.92122 89.8048 7.11979 89.8048 7.33789C89.8048 7.87174 89.6241 8.29655 89.2628 8.6123C88.9015 8.9248 88.4051 9.08105 87.7736 9.08105C87.6238 9.08105 87.4708 9.06803 87.3146 9.04199C87.1551 9.12988 87.033 9.22754 86.9484 9.33496C86.867 9.44238 86.8263 9.56608 86.8263 9.70605C86.8263 9.81022 86.8572 9.89323 86.9191 9.95508C86.9842 10.0169 87.0769 10.0625 87.1974 10.0918C87.3178 10.1178 87.4627 10.1309 87.632 10.1309H88.5743C89.157 10.1309 89.603 10.2529 89.9122 10.4971C90.2247 10.7412 90.381 11.0977 90.381 11.5664C90.381 12.1589 90.1401 12.613 89.6583 12.9287C89.1765 13.2445 88.4799 13.4023 87.5685 13.4023ZM87.5929 12.7676C88.0356 12.7676 88.4018 12.722 88.6915 12.6309C88.9845 12.543 89.2026 12.4144 89.3458 12.2451C89.4923 12.0791 89.5655 11.8805 89.5655 11.6494C89.5655 11.4346 89.5167 11.2718 89.4191 11.1611C89.3214 11.0537 89.1782 10.9821 88.9894 10.9463C88.8006 10.9072 88.5695 10.8877 88.296 10.8877H87.3683C87.1274 10.8877 86.9174 10.9251 86.7384 11C86.5594 11.0749 86.421 11.1855 86.3234 11.332C86.229 11.4785 86.1818 11.6608 86.1818 11.8789C86.1818 12.1686 86.3038 12.3883 86.548 12.5381C86.7921 12.6911 87.1404 12.7676 87.5929 12.7676ZM87.8028 8.49023C88.1902 8.49023 88.4816 8.39258 88.6769 8.19727C88.8722 8.00195 88.9698 7.71712 88.9698 7.34277C88.9698 6.94238 88.8706 6.6429 88.672 6.44434C88.4734 6.24251 88.1805 6.1416 87.7931 6.1416C87.422 6.1416 87.1355 6.24577 86.9337 6.4541C86.7351 6.65918 86.6359 6.96029 86.6359 7.35742C86.6359 7.72201 86.7368 8.00195 86.9386 8.19727C87.1404 8.39258 87.4285 8.49023 87.8028 8.49023ZM92.2046 3.40234V5.67285C92.2046 5.80306 92.2013 5.9349 92.1948 6.06836C92.1883 6.19857 92.1769 6.31901 92.1606 6.42969H92.2143C92.325 6.24089 92.465 6.08301 92.6343 5.95605C92.8068 5.82585 93.0021 5.72819 93.2202 5.66309C93.4383 5.59473 93.6694 5.56055 93.9136 5.56055C94.3432 5.56055 94.7013 5.62891 94.9878 5.76562C95.2775 5.90234 95.494 6.11393 95.6372 6.40039C95.7837 6.68685 95.8569 7.05794 95.8569 7.51367V11H95.0561V7.56738C95.0561 7.12142 94.9536 6.78776 94.7485 6.56641C94.5467 6.34505 94.2358 6.23438 93.8159 6.23438C93.4188 6.23438 93.1014 6.31087 92.8637 6.46387C92.6294 6.61361 92.4601 6.83496 92.3559 7.12793C92.255 7.4209 92.2046 7.77897 92.2046 8.20215V11H91.394V3.40234H92.2046ZM99.1454 10.4336C99.2788 10.4336 99.4155 10.4222 99.5555 10.3994C99.6955 10.3766 99.8094 10.349 99.8973 10.3164V10.9463C99.8029 10.9886 99.6711 11.0244 99.5018 11.0537C99.3358 11.083 99.173 11.0977 99.0135 11.0977C98.7303 11.0977 98.4732 11.0488 98.242 10.9512C98.0109 10.8503 97.8254 10.681 97.6854 10.4434C97.5487 10.2057 97.4803 9.87695 97.4803 9.45703V6.2832H96.7186V5.8877L97.4852 5.57031L97.8075 4.4082H98.2957V5.64844H99.8631V6.2832H98.2957V9.43262C98.2957 9.7679 98.3722 10.0186 98.5252 10.1846C98.6815 10.3506 98.8882 10.4336 99.1454 10.4336ZM105.361 5.56055C105.999 5.56055 106.473 5.70378 106.782 5.99023C107.091 6.27669 107.246 6.73405 107.246 7.3623V11H106.655L106.499 10.209H106.46C106.31 10.4043 106.154 10.5687 105.991 10.7021C105.828 10.8324 105.639 10.9316 105.424 11C105.213 11.0651 104.952 11.0977 104.643 11.0977C104.318 11.0977 104.028 11.0407 103.774 10.9268C103.523 10.8128 103.325 10.6403 103.178 10.4092C103.035 10.1781 102.963 9.88509 102.963 9.53027C102.963 8.99642 103.175 8.58626 103.598 8.2998C104.021 8.01335 104.666 7.8571 105.532 7.83105L106.455 7.79199V7.46484C106.455 7.0026 106.355 6.67871 106.157 6.49316C105.958 6.30762 105.678 6.21484 105.317 6.21484C105.037 6.21484 104.77 6.25553 104.516 6.33691C104.262 6.41829 104.021 6.51432 103.794 6.625L103.544 6.00977C103.785 5.88607 104.062 5.78027 104.375 5.69238C104.687 5.60449 105.016 5.56055 105.361 5.56055ZM106.445 8.36328L105.629 8.39746C104.962 8.4235 104.492 8.53255 104.218 8.72461C103.945 8.91667 103.808 9.18848 103.808 9.54004C103.808 9.84603 103.901 10.0723 104.086 10.2188C104.272 10.3652 104.518 10.4385 104.824 10.4385C105.299 10.4385 105.688 10.3066 105.991 10.043C106.294 9.7793 106.445 9.38379 106.445 8.85645V8.36328ZM113.808 5.55078C114.475 5.55078 115.007 5.78027 115.405 6.23926C115.802 6.69824 116 7.38835 116 8.30957C116 8.91829 115.909 9.42936 115.727 9.84277C115.545 10.2562 115.287 10.5687 114.955 10.7803C114.627 10.9919 114.238 11.0977 113.788 11.0977C113.505 11.0977 113.256 11.0602 113.041 10.9854C112.826 10.9105 112.643 10.8096 112.49 10.6826C112.337 10.5557 112.21 10.4173 112.109 10.2676H112.05C112.06 10.3945 112.071 10.5475 112.084 10.7266C112.101 10.9056 112.109 11.0618 112.109 11.1953V13.3926H111.293V5.64844H111.962L112.07 6.43945H112.109C112.213 6.27669 112.34 6.12858 112.49 5.99512C112.639 5.8584 112.822 5.75098 113.036 5.67285C113.255 5.59147 113.512 5.55078 113.808 5.55078ZM113.666 6.23438C113.295 6.23438 112.996 6.30599 112.768 6.44922C112.543 6.59245 112.379 6.80729 112.275 7.09375C112.171 7.37695 112.115 7.7334 112.109 8.16309V8.31934C112.109 8.77181 112.158 9.1543 112.255 9.4668C112.356 9.7793 112.52 10.0169 112.748 10.1797C112.979 10.3424 113.289 10.4238 113.676 10.4238C114.008 10.4238 114.285 10.3343 114.506 10.1553C114.727 9.97624 114.892 9.72721 114.999 9.4082C115.11 9.08594 115.165 8.71647 115.165 8.2998C115.165 7.66829 115.042 7.16699 114.794 6.7959C114.55 6.42155 114.174 6.23438 113.666 6.23438ZM118.122 11H117.306V3.40234H118.122V11ZM121.728 5.56055C122.366 5.56055 122.839 5.70378 123.148 5.99023C123.458 6.27669 123.612 6.73405 123.612 7.3623V11H123.021L122.865 10.209H122.826C122.676 10.4043 122.52 10.5687 122.357 10.7021C122.195 10.8324 122.006 10.9316 121.791 11C121.579 11.0651 121.319 11.0977 121.01 11.0977C120.684 11.0977 120.395 11.0407 120.141 10.9268C119.89 10.8128 119.691 10.6403 119.545 10.4092C119.402 10.1781 119.33 9.88509 119.33 9.53027C119.33 8.99642 119.542 8.58626 119.965 8.2998C120.388 8.01335 121.033 7.8571 121.898 7.83105L122.821 7.79199V7.46484C122.821 7.0026 122.722 6.67871 122.523 6.49316C122.325 6.30762 122.045 6.21484 121.684 6.21484C121.404 6.21484 121.137 6.25553 120.883 6.33691C120.629 6.41829 120.388 6.51432 120.16 6.625L119.911 6.00977C120.152 5.88607 120.429 5.78027 120.741 5.69238C121.054 5.60449 121.382 5.56055 121.728 5.56055ZM122.812 8.36328L121.996 8.39746C121.329 8.4235 120.858 8.53255 120.585 8.72461C120.312 8.91667 120.175 9.18848 120.175 9.54004C120.175 9.84603 120.268 10.0723 120.453 10.2188C120.639 10.3652 120.884 10.4385 121.19 10.4385C121.666 10.4385 122.055 10.3066 122.357 10.043C122.66 9.7793 122.812 9.38379 122.812 8.85645V8.36328ZM127.706 5.55078C128.341 5.55078 128.821 5.70703 129.147 6.01953C129.472 6.32878 129.635 6.82682 129.635 7.51367V11H128.834V7.56738C128.834 7.12142 128.732 6.78776 128.527 6.56641C128.325 6.34505 128.014 6.23438 127.594 6.23438C127.002 6.23438 126.585 6.40202 126.344 6.7373C126.103 7.07259 125.983 7.55924 125.983 8.19727V11H125.172V5.64844H125.827L125.949 6.41992H125.993C126.106 6.23112 126.251 6.07324 126.427 5.94629C126.603 5.81608 126.8 5.71842 127.018 5.65332C127.236 5.58496 127.466 5.55078 127.706 5.55078ZM132.924 10.4336C133.057 10.4336 133.194 10.4222 133.334 10.3994C133.474 10.3766 133.588 10.349 133.676 10.3164V10.9463C133.581 10.9886 133.449 11.0244 133.28 11.0537C133.114 11.083 132.951 11.0977 132.792 11.0977C132.509 11.0977 132.251 11.0488 132.02 10.9512C131.789 10.8503 131.604 10.681 131.464 10.4434C131.327 10.2057 131.259 9.87695 131.259 9.45703V6.2832H130.497V5.8877L131.263 5.57031L131.586 4.4082H132.074V5.64844H133.641V6.2832H132.074V9.43262C132.074 9.7679 132.15 10.0186 132.303 10.1846C132.46 10.3506 132.666 10.4336 132.924 10.4336ZM141.751 8.31445C141.751 8.75391 141.694 9.14616 141.581 9.49121C141.467 9.83626 141.302 10.1276 141.087 10.3652C140.872 10.6029 140.612 10.7852 140.306 10.9121C140.003 11.0358 139.66 11.0977 139.276 11.0977C138.918 11.0977 138.589 11.0358 138.289 10.9121C137.993 10.7852 137.736 10.6029 137.518 10.3652C137.303 10.1276 137.136 9.83626 137.015 9.49121C136.898 9.14616 136.839 8.75391 136.839 8.31445C136.839 7.72852 136.939 7.23047 137.137 6.82031C137.336 6.4069 137.619 6.09277 137.987 5.87793C138.358 5.65983 138.799 5.55078 139.31 5.55078C139.798 5.55078 140.225 5.65983 140.589 5.87793C140.957 6.09603 141.242 6.41178 141.444 6.8252C141.649 7.23535 141.751 7.73177 141.751 8.31445ZM137.679 8.31445C137.679 8.74414 137.736 9.11686 137.85 9.43262C137.964 9.74837 138.14 9.99251 138.377 10.165C138.615 10.3376 138.921 10.4238 139.295 10.4238C139.666 10.4238 139.971 10.3376 140.208 10.165C140.449 9.99251 140.627 9.74837 140.741 9.43262C140.855 9.11686 140.912 8.74414 140.912 8.31445C140.912 7.88802 140.855 7.52018 140.741 7.21094C140.627 6.89844 140.451 6.65755 140.213 6.48828C139.976 6.31901 139.668 6.23438 139.29 6.23438C138.734 6.23438 138.325 6.41829 138.065 6.78613C137.808 7.15397 137.679 7.66341 137.679 8.31445ZM145.577 5.55078C146.212 5.55078 146.692 5.70703 147.017 6.01953C147.343 6.32878 147.506 6.82682 147.506 7.51367V11H146.705V7.56738C146.705 7.12142 146.602 6.78776 146.397 6.56641C146.195 6.34505 145.885 6.23438 145.465 6.23438C144.872 6.23438 144.456 6.40202 144.215 6.7373C143.974 7.07259 143.853 7.55924 143.853 8.19727V11H143.043V5.64844H143.697L143.819 6.41992H143.863C143.977 6.23112 144.122 6.07324 144.298 5.94629C144.473 5.81608 144.67 5.71842 144.888 5.65332C145.107 5.58496 145.336 5.55078 145.577 5.55078ZM149.881 11H149.066V3.40234H149.881V11ZM152.295 5.64844V11H151.485V5.64844H152.295ZM151.9 3.64648C152.033 3.64648 152.147 3.69043 152.242 3.77832C152.339 3.86296 152.388 3.99642 152.388 4.17871C152.388 4.35775 152.339 4.49121 152.242 4.5791C152.147 4.66699 152.033 4.71094 151.9 4.71094C151.76 4.71094 151.643 4.66699 151.548 4.5791C151.457 4.49121 151.412 4.35775 151.412 4.17871C151.412 3.99642 151.457 3.86296 151.548 3.77832C151.643 3.69043 151.76 3.64648 151.9 3.64648ZM156.438 5.55078C157.073 5.55078 157.553 5.70703 157.879 6.01953C158.204 6.32878 158.367 6.82682 158.367 7.51367V11H157.566V7.56738C157.566 7.12142 157.464 6.78776 157.259 6.56641C157.057 6.34505 156.746 6.23438 156.326 6.23438C155.734 6.23438 155.317 6.40202 155.076 6.7373C154.835 7.07259 154.715 7.55924 154.715 8.19727V11H153.904V5.64844H154.558L154.681 6.41992H154.724C154.838 6.23112 154.983 6.07324 155.159 5.94629C155.335 5.81608 155.532 5.71842 155.75 5.65332C155.968 5.58496 156.197 5.55078 156.438 5.55078ZM161.988 5.55078C162.443 5.55078 162.834 5.65169 163.159 5.85352C163.485 6.05534 163.734 6.33854 163.906 6.70312C164.079 7.06445 164.165 7.48763 164.165 7.97266V8.47559H160.469C160.479 9.10384 160.635 9.58236 160.938 9.91113C161.24 10.2399 161.667 10.4043 162.217 10.4043C162.556 10.4043 162.855 10.3734 163.115 10.3115C163.376 10.2497 163.646 10.1585 163.926 10.0381V10.751C163.656 10.8714 163.387 10.9593 163.12 11.0146C162.857 11.07 162.544 11.0977 162.183 11.0977C161.669 11.0977 161.219 10.9935 160.835 10.7852C160.454 10.5736 160.158 10.2643 159.947 9.85742C159.735 9.45052 159.629 8.95247 159.629 8.36328C159.629 7.78711 159.725 7.28906 159.917 6.86914C160.113 6.44596 160.386 6.12044 160.738 5.89258C161.092 5.66471 161.509 5.55078 161.988 5.55078ZM161.978 6.21484C161.545 6.21484 161.2 6.35645 160.943 6.63965C160.685 6.92285 160.532 7.31836 160.484 7.82617H163.316C163.312 7.50716 163.262 7.22721 163.164 6.98633C163.07 6.74219 162.925 6.55339 162.73 6.41992C162.534 6.2832 162.284 6.21484 161.978 6.21484ZM165.984 9.01758V8.76367C165.984 8.50326 166.008 8.28027 166.057 8.09473C166.106 7.90592 166.191 7.73014 166.311 7.56738C166.435 7.40462 166.606 7.2321 166.824 7.0498C167.078 6.83822 167.278 6.65918 167.424 6.5127C167.574 6.36296 167.682 6.21322 167.747 6.06348C167.812 5.91374 167.844 5.73307 167.844 5.52148C167.844 5.18294 167.735 4.92415 167.517 4.74512C167.299 4.56283 166.991 4.47168 166.594 4.47168C166.272 4.47168 165.986 4.51237 165.735 4.59375C165.484 4.67513 165.243 4.77279 165.012 4.88672L164.729 4.23242C164.996 4.09245 165.286 3.97852 165.598 3.89062C165.911 3.80273 166.259 3.75879 166.643 3.75879C167.271 3.75879 167.758 3.91504 168.103 4.22754C168.448 4.53678 168.621 4.96322 168.621 5.50684C168.621 5.80957 168.572 6.06836 168.474 6.2832C168.377 6.49479 168.238 6.6901 168.059 6.86914C167.88 7.04492 167.669 7.2321 167.424 7.43066C167.21 7.61296 167.045 7.77409 166.931 7.91406C166.817 8.05078 166.739 8.19238 166.697 8.33887C166.655 8.4821 166.633 8.65462 166.633 8.85645V9.01758H165.984ZM165.769 10.4922C165.769 10.2643 165.823 10.1032 165.93 10.0088C166.038 9.91113 166.176 9.8623 166.345 9.8623C166.505 9.8623 166.64 9.91113 166.751 10.0088C166.865 10.1032 166.921 10.2643 166.921 10.4922C166.921 10.7168 166.865 10.8812 166.751 10.9854C166.64 11.0863 166.505 11.1367 166.345 11.1367C166.176 11.1367 166.038 11.0863 165.93 10.9854C165.823 10.8812 165.769 10.7168 165.769 10.4922Z" fill="black" fill-opacity="0.8"/>
<path d="M157.645 111.822C157.645 95.4082 152.521 79.4037 142.987 66.0421C133.454 52.6805 119.987 42.6282 104.466 37.2881C88.9454 31.9481 72.1446 31.5865 56.4082 36.254C40.6719 40.9215 26.7852 50.3852 16.6861 63.3244C6.58688 76.2635 0.779024 92.0327 0.0729597 108.431C-0.633105 124.83 3.79785 141.04 12.7475 154.799C21.6971 168.559 34.719 179.181 49.9959 185.184C65.2728 191.187 82.0426 192.271 97.9651 188.284L78.8224 111.822H157.645Z" fill="#FBA03A"/>
<path d="M99.8141 188.172C116.304 183.894 130.917 174.283 141.377 160.836C151.836 147.389 157.556 130.861 157.644 113.825L80.4246 113.426L99.8141 188.172Z" fill="#2F7604"/>
<path d="M29.1303 80.5684L31.5488 75.2881H28.3363V74.6754H32.2663V75.1913L29.8639 80.5684H29.1303ZM34.9486 74.5908C35.2899 74.5908 35.5922 74.6445 35.8555 74.752C36.1189 74.8595 36.3244 75.018 36.4722 75.2276C36.6227 75.4345 36.698 75.6898 36.698 75.9935C36.698 76.2326 36.6456 76.4422 36.5408 76.6223C36.4387 76.7996 36.3003 76.9555 36.1256 77.0898C35.9509 77.2215 35.7575 77.3397 35.5452 77.4445C35.7978 77.5601 36.0248 77.6904 36.2264 77.8355C36.4306 77.9806 36.5918 78.1513 36.7101 78.3474C36.8283 78.5436 36.8874 78.776 36.8874 79.0447C36.8874 79.3753 36.8068 79.6614 36.6456 79.9033C36.487 80.1424 36.264 80.3265 35.9765 80.4555C35.6889 80.5845 35.3517 80.649 34.9647 80.649C34.5482 80.649 34.1935 80.5872 33.9006 80.4636C33.6104 80.3373 33.3887 80.1572 33.2355 79.9234C33.0851 79.687 33.0098 79.4035 33.0098 79.073C33.0098 78.8015 33.0676 78.5664 33.1831 78.3676C33.2987 78.166 33.4519 77.9927 33.6427 77.8476C33.8334 77.7025 34.0417 77.5802 34.2674 77.4808C34.0713 77.3733 33.8912 77.2511 33.7273 77.114C33.5661 76.977 33.4371 76.8171 33.3403 76.6343C33.2463 76.4489 33.1993 76.234 33.1993 75.9894C33.1993 75.6912 33.2745 75.4386 33.425 75.2316C33.5782 75.022 33.7864 74.8635 34.0498 74.756C34.3158 74.6458 34.6154 74.5908 34.9486 74.5908ZM33.6668 79.077C33.6668 79.3779 33.773 79.6265 33.9853 79.8227C34.1976 80.0161 34.5187 80.1129 34.9486 80.1129C35.3571 80.1129 35.6728 80.0161 35.8958 79.8227C36.1189 79.6265 36.2304 79.3699 36.2304 79.0528C36.2304 78.8566 36.1793 78.6847 36.0772 78.5369C35.9751 78.3864 35.83 78.252 35.6419 78.1338C35.4538 78.0156 35.2321 77.9081 34.9768 77.8113L34.8317 77.7589C34.5845 77.861 34.3736 77.9752 34.1989 78.1015C34.0269 78.2252 33.8952 78.3662 33.8039 78.5248C33.7125 78.6833 33.6668 78.8674 33.6668 79.077ZM34.9406 75.1389C34.6235 75.1389 34.3642 75.2155 34.1626 75.3687C33.9611 75.5192 33.8603 75.7368 33.8603 76.0217C33.8603 76.2259 33.9087 76.3992 34.0054 76.5416C34.1048 76.6814 34.2392 76.8023 34.4085 76.9044C34.5778 77.0038 34.7672 77.0965 34.9768 77.1825C35.1811 77.0965 35.3624 77.0025 35.521 76.9004C35.6795 76.7956 35.8045 76.672 35.8958 76.5295C35.9872 76.3871 36.0329 76.2165 36.0329 76.0176C36.0329 75.7328 35.9321 75.5151 35.7306 75.3647C35.5317 75.2142 35.2684 75.1389 34.9406 75.1389ZM37.8325 80.1492C37.8325 79.9611 37.8782 79.828 37.9696 79.7501C38.0609 79.6695 38.1724 79.6292 38.3041 79.6292C38.4411 79.6292 38.5567 79.6695 38.6507 79.7501C38.7448 79.828 38.7918 79.9611 38.7918 80.1492C38.7918 80.3346 38.7448 80.4703 38.6507 80.5563C38.5567 80.6396 38.4411 80.6812 38.3041 80.6812C38.1724 80.6812 38.0609 80.6396 37.9696 80.5563C37.8782 80.4703 37.8325 80.3346 37.8325 80.1492ZM43.5823 77.1866C43.5823 77.544 43.5567 77.8919 43.5057 78.2305C43.4573 78.5691 43.3727 78.8848 43.2517 79.1778C43.1335 79.4707 42.9723 79.7273 42.768 79.9476C42.5638 80.168 42.3072 80.3413 41.9982 80.4676C41.6918 80.5912 41.325 80.653 40.8978 80.653C40.7822 80.653 40.6506 80.6449 40.5028 80.6288C40.355 80.6154 40.234 80.5952 40.14 80.5684V79.9879C40.2394 80.0229 40.3563 80.0511 40.4907 80.0726C40.625 80.0914 40.7567 80.1008 40.8857 80.1008C41.3882 80.1008 41.7832 79.9933 42.0707 79.7783C42.3583 79.5607 42.5652 79.2664 42.6915 78.8956C42.8178 78.5221 42.889 78.1029 42.9051 77.638H42.8567C42.7761 77.767 42.67 77.8866 42.5383 77.9967C42.4093 78.1042 42.2521 78.1916 42.0667 78.2587C41.8813 78.3232 41.665 78.3555 41.4177 78.3555C41.0765 78.3555 40.7782 78.2856 40.5229 78.1459C40.2703 78.0061 40.0728 77.8033 39.9304 77.5372C39.7907 77.2712 39.7208 76.9501 39.7208 76.5739C39.7208 76.1681 39.7974 75.8174 39.9506 75.5219C40.1064 75.2236 40.3241 74.9938 40.6035 74.8326C40.883 74.6714 41.2122 74.5908 41.5911 74.5908C41.8813 74.5908 42.1473 74.6458 42.3892 74.756C42.631 74.8662 42.8406 75.0315 43.018 75.2518C43.198 75.4695 43.3364 75.7395 43.4331 76.062C43.5325 76.3844 43.5823 76.7593 43.5823 77.1866ZM41.5911 75.1591C41.2337 75.1591 40.9435 75.276 40.7204 75.5098C40.5001 75.7436 40.3899 76.0956 40.3899 76.5658C40.3899 76.9555 40.4853 77.2631 40.6761 77.4889C40.8669 77.7146 41.1611 77.8274 41.5588 77.8274C41.8329 77.8274 42.0694 77.7724 42.2682 77.6622C42.4698 77.552 42.6243 77.4123 42.7318 77.243C42.8419 77.0737 42.897 76.9004 42.897 76.723C42.897 76.5457 42.8702 76.3656 42.8164 76.1829C42.7654 76.0002 42.6861 75.8322 42.5786 75.6791C42.4711 75.5232 42.3354 75.3983 42.1715 75.3042C42.0076 75.2075 41.8141 75.1591 41.5911 75.1591ZM45.5471 74.5908C45.9502 74.5908 46.2552 74.752 46.4621 75.0744C46.6717 75.3942 46.7765 75.847 46.7765 76.4328C46.7765 77.0186 46.6757 77.4754 46.4742 77.8033C46.2727 78.1284 45.9636 78.291 45.5471 78.291C45.1602 78.291 44.8633 78.1284 44.6563 77.8033C44.4521 77.4754 44.35 77.0186 44.35 76.4328C44.35 75.847 44.4481 75.3942 44.6442 75.0744C44.8404 74.752 45.1414 74.5908 45.5471 74.5908ZM45.5471 75.0704C45.3295 75.0704 45.1696 75.1846 45.0675 75.413C44.9654 75.6388 44.9143 75.9787 44.9143 76.4328C44.9143 76.8869 44.9654 77.2296 45.0675 77.4607C45.1696 77.6917 45.3295 77.8073 45.5471 77.8073C45.7729 77.8073 45.9408 77.6917 46.051 77.4607C46.1612 77.2296 46.2162 76.8869 46.2162 76.4328C46.2162 75.9814 46.1612 75.6414 46.051 75.413C45.9435 75.1846 45.7755 75.0704 45.5471 75.0704ZM49.2796 74.6754L46.0107 80.5684H45.4222L48.6911 74.6754H49.2796ZM49.1224 76.9528C49.5228 76.9528 49.8278 77.114 50.0374 77.4365C50.247 77.7562 50.3518 78.209 50.3518 78.7948C50.3518 79.3779 50.251 79.8334 50.0495 80.1613C49.8479 80.4864 49.5389 80.649 49.1224 80.649C48.7328 80.649 48.4358 80.4864 48.2316 80.1613C48.0274 79.8334 47.9253 79.3779 47.9253 78.7948C47.9253 78.209 48.022 77.7562 48.2155 77.4365C48.4117 77.114 48.714 76.9528 49.1224 76.9528ZM49.1224 77.4365C48.9047 77.4365 48.7449 77.5493 48.6428 77.775C48.5406 78.0008 48.4896 78.3407 48.4896 78.7948C48.4896 79.249 48.5406 79.5916 48.6428 79.8227C48.7449 80.0511 48.9047 80.1653 49.1224 80.1653C49.3481 80.1653 49.5161 80.0524 49.6263 79.8267C49.7364 79.5983 49.7915 79.2543 49.7915 78.7948C49.7915 78.3434 49.7364 78.0048 49.6263 77.7791C49.5188 77.5507 49.3508 77.4365 49.1224 77.4365ZM33.3747 92.5684H32.5847L29.3722 87.6186H29.3399C29.348 87.7503 29.3574 87.9008 29.3682 88.07C29.3789 88.2366 29.387 88.4153 29.3923 88.6061C29.4004 88.7942 29.4044 88.9864 29.4044 89.1825V92.5684H28.7676V86.6754H29.5536L32.754 91.609H32.7822C32.7768 91.515 32.7701 91.382 32.762 91.21C32.754 91.0353 32.7459 90.8486 32.7379 90.6497C32.7325 90.4482 32.7298 90.2614 32.7298 90.0894V86.6754H33.3747V92.5684ZM40.0032 89.6138C40.0032 90.068 39.9454 90.4818 39.8299 90.8553C39.7143 91.2261 39.5423 91.5459 39.3139 91.8146C39.0882 92.0806 38.8074 92.2862 38.4715 92.4313C38.1356 92.5764 37.746 92.649 37.3026 92.649C36.8458 92.649 36.4467 92.5764 36.1054 92.4313C35.7669 92.2862 35.4847 92.0793 35.259 91.8106C35.036 91.5419 34.868 91.2207 34.7551 90.8472C34.645 90.4737 34.5899 90.0599 34.5899 89.6058C34.5899 89.0038 34.6893 88.4758 34.8882 88.0217C35.087 87.5675 35.388 87.2142 35.791 86.9616C36.1968 86.709 36.7047 86.5827 37.3147 86.5827C37.8978 86.5827 38.3882 86.7076 38.7859 86.9576C39.1863 87.2075 39.4886 87.5595 39.6928 88.0136C39.8997 88.4651 40.0032 88.9985 40.0032 89.6138ZM35.3114 89.6138C35.3114 90.1136 35.3826 90.5463 35.525 90.9117C35.6674 91.2772 35.8851 91.5593 36.178 91.7582C36.4736 91.957 36.8484 92.0565 37.3026 92.0565C37.7594 92.0565 38.1329 91.957 38.4231 91.7582C38.716 91.5593 38.9323 91.2772 39.0721 90.9117C39.2118 90.5463 39.2817 90.1136 39.2817 89.6138C39.2817 88.8534 39.1218 88.2595 38.802 87.8322C38.4849 87.4023 37.9891 87.1873 37.3147 87.1873C36.8578 87.1873 36.4816 87.2854 36.1861 87.4816C35.8905 87.6777 35.6701 87.9572 35.525 88.3199C35.3826 88.68 35.3114 89.1113 35.3114 89.6138Z" fill="black"/>
<path d="M114.186 148.542H110.324V147.982L111.9 146.382C112.193 146.086 112.439 145.823 112.638 145.591C112.839 145.36 112.992 145.133 113.097 144.91C113.202 144.685 113.254 144.437 113.254 144.169C113.254 143.835 113.155 143.581 112.956 143.407C112.76 143.229 112.501 143.141 112.178 143.141C111.896 143.141 111.646 143.189 111.429 143.286C111.211 143.383 110.988 143.52 110.759 143.697L110.401 143.246C110.557 143.114 110.726 142.997 110.909 142.895C111.094 142.793 111.291 142.712 111.501 142.653C111.713 142.594 111.939 142.564 112.178 142.564C112.541 142.564 112.854 142.628 113.117 142.754C113.381 142.88 113.584 143.06 113.726 143.294C113.871 143.528 113.944 143.806 113.944 144.128C113.944 144.44 113.882 144.73 113.758 144.999C113.635 145.265 113.461 145.53 113.238 145.793C113.015 146.054 112.755 146.33 112.456 146.623L111.175 147.901V147.929H114.186V148.542ZM117.448 148.542H116.795V144.366C116.795 144.208 116.795 144.072 116.795 143.959C116.798 143.843 116.801 143.739 116.803 143.645C116.809 143.548 116.816 143.45 116.824 143.35C116.74 143.436 116.662 143.51 116.59 143.572C116.517 143.631 116.427 143.705 116.32 143.794L115.647 144.334L115.296 143.878L116.892 142.649H117.448V148.542ZM119.788 148.123C119.788 147.935 119.834 147.802 119.925 147.724C120.016 147.643 120.128 147.603 120.26 147.603C120.397 147.603 120.512 147.643 120.606 147.724C120.7 147.802 120.747 147.935 120.747 148.123C120.747 148.308 120.7 148.444 120.606 148.53C120.512 148.613 120.397 148.655 120.26 148.655C120.128 148.655 120.016 148.613 119.925 148.53C119.834 148.444 119.788 148.308 119.788 148.123ZM124.159 148.542H123.506V144.366C123.506 144.208 123.506 144.072 123.506 143.959C123.509 143.843 123.512 143.739 123.514 143.645C123.52 143.548 123.526 143.45 123.535 143.35C123.451 143.436 123.373 143.51 123.301 143.572C123.228 143.631 123.138 143.705 123.031 143.794L122.358 144.334L122.007 143.878L123.603 142.649H124.159V148.542ZM127.503 142.564C127.906 142.564 128.211 142.726 128.418 143.048C128.627 143.368 128.732 143.821 128.732 144.406C128.732 144.992 128.631 145.449 128.43 145.777C128.228 146.102 127.919 146.265 127.503 146.265C127.116 146.265 126.819 146.102 126.612 145.777C126.408 145.449 126.306 144.992 126.306 144.406C126.306 143.821 126.404 143.368 126.6 143.048C126.796 142.726 127.097 142.564 127.503 142.564ZM127.503 143.044C127.285 143.044 127.125 143.158 127.023 143.387C126.921 143.612 126.87 143.952 126.87 144.406C126.87 144.861 126.921 145.203 127.023 145.434C127.125 145.665 127.285 145.781 127.503 145.781C127.728 145.781 127.896 145.665 128.007 145.434C128.117 145.203 128.172 144.861 128.172 144.406C128.172 143.955 128.117 143.615 128.007 143.387C127.899 143.158 127.731 143.044 127.503 143.044ZM131.235 142.649L127.966 148.542H127.378L130.647 142.649H131.235ZM131.078 144.926C131.478 144.926 131.783 145.088 131.993 145.41C132.203 145.73 132.307 146.183 132.307 146.768C132.307 147.352 132.207 147.807 132.005 148.135C131.804 148.46 131.494 148.623 131.078 148.623C130.688 148.623 130.391 148.46 130.187 148.135C129.983 147.807 129.881 147.352 129.881 146.768C129.881 146.183 129.978 145.73 130.171 145.41C130.367 145.088 130.67 144.926 131.078 144.926ZM131.078 145.41C130.86 145.41 130.7 145.523 130.598 145.749C130.496 145.974 130.445 146.314 130.445 146.768C130.445 147.223 130.496 147.565 130.598 147.796C130.7 148.025 130.86 148.139 131.078 148.139C131.304 148.139 131.472 148.026 131.582 147.8C131.692 147.572 131.747 147.228 131.747 146.768C131.747 146.317 131.692 145.978 131.582 145.753C131.474 145.524 131.306 145.41 131.078 145.41ZM112.227 157.604L113.795 154.649H114.532L112.569 158.257V160.542H111.884V158.289L109.917 154.649H110.667L112.227 157.604ZM118.533 160.542H115.252V154.649H118.533V155.254H115.937V157.16H118.383V157.757H115.937V159.937H118.533V160.542ZM123.073 158.974C123.073 159.323 122.986 159.622 122.811 159.869C122.639 160.113 122.397 160.3 122.086 160.429C121.774 160.558 121.407 160.623 120.985 160.623C120.762 160.623 120.551 160.612 120.352 160.59C120.154 160.569 119.971 160.538 119.804 160.498C119.638 160.457 119.491 160.408 119.365 160.349V159.692C119.566 159.775 119.812 159.853 120.102 159.925C120.393 159.995 120.696 160.03 121.013 160.03C121.309 160.03 121.559 159.991 121.763 159.913C121.967 159.833 122.122 159.718 122.227 159.571C122.334 159.42 122.388 159.24 122.388 159.03C122.388 158.829 122.344 158.661 122.255 158.527C122.166 158.39 122.018 158.266 121.812 158.156C121.607 158.043 121.328 157.923 120.973 157.797C120.723 157.708 120.503 157.612 120.312 157.507C120.121 157.399 119.961 157.278 119.832 157.144C119.703 157.01 119.605 156.854 119.538 156.677C119.474 156.499 119.441 156.296 119.441 156.068C119.441 155.753 119.521 155.485 119.679 155.262C119.84 155.036 120.062 154.864 120.344 154.746C120.629 154.625 120.956 154.564 121.324 154.564C121.638 154.564 121.928 154.594 122.194 154.653C122.463 154.712 122.709 154.791 122.932 154.891L122.718 155.479C122.506 155.391 122.28 155.317 122.041 155.258C121.805 155.199 121.56 155.169 121.308 155.169C121.055 155.169 120.841 155.207 120.667 155.282C120.495 155.354 120.363 155.458 120.272 155.592C120.18 155.727 120.135 155.886 120.135 156.072C120.135 156.279 120.178 156.451 120.264 156.588C120.352 156.725 120.492 156.847 120.683 156.955C120.876 157.059 121.132 157.17 121.449 157.285C121.795 157.411 122.09 157.546 122.331 157.688C122.573 157.828 122.757 158 122.884 158.204C123.01 158.406 123.073 158.662 123.073 158.974Z" fill="black"/>
</svg>
