<svg width="50" height="46" viewBox="0 0 50 46" fill="none" xmlns="http://www.w3.org/2000/svg">
<path d="M42.6023 38.5963H35.1939V28.1897C35.1939 25.7081 35.1445 22.5136 31.3408 22.5136C27.4822 22.5136 26.8918 25.2174 26.8918 28.009V38.5956H19.4836V17.1954H26.5955V20.12H26.6951C27.4069 19.0284 28.4353 18.1304 29.6711 17.5216C30.9068 16.9129 32.3034 16.6161 33.7123 16.663C41.2211 16.663 42.6055 21.0932 42.6055 26.8565L42.6023 38.5963ZM11.1242 14.2703C8.74981 14.2707 6.82461 12.5444 6.82422 10.4146C6.82383 8.28484 8.74824 6.55801 11.1227 6.55766C13.4971 6.55713 15.4223 8.28343 15.4227 10.4132C15.4229 11.4359 14.9701 12.4169 14.164 13.1402C13.3579 13.8636 12.2645 14.2701 11.1242 14.2703ZM14.8285 38.5965H7.4123V17.1954H14.8283V38.5963L14.8285 38.5965ZM46.2957 0.386321H3.68965C1.67598 0.365999 0.0246094 1.81287 0 3.61906V41.9945C0.0238281 43.8015 1.675 45.2498 3.68945 45.2309H46.2957C48.3145 45.2533 49.9721 43.805 50 41.9945V3.61608C49.9713 1.80639 48.3135 0.359692 46.2957 0.383343" fill="#003060"/>
</svg>
