<svg width="20" height="22" viewBox="0 0 20 22" fill="none" xmlns="http://www.w3.org/2000/svg">
<path d="M9.33652 15.5569L11.1828 15.0421L10.8913 13.9731L11.7692 13.7286L9.47157 12.4095L8.16738 14.7329L9.04531 14.4879L9.33652 15.5569ZM9.6071 12.9067L10.8339 13.6109L10.4477 13.7186L10.7392 14.7871L9.58859 15.1082L9.29707 14.0397L8.91084 14.1471L9.6071 12.9067ZM13.6448 14.3555L15.4906 13.8406L15.1992 12.7721L16.0769 12.5277L13.7794 11.2084L12.4755 13.5319L13.3534 13.287L13.6448 14.3555ZM13.9157 11.7057L15.142 12.4099L14.7562 12.5174L15.0473 13.5864L13.8967 13.9074L13.6053 12.8384L13.2194 12.9461L13.9157 11.7057ZM19.1542 15.2287L17.5606 14.3095L15.3921 6.35697L14.0375 6.73462L12.443 0.886239L5.43061 2.84158L7.02528 8.68957L5.96767 8.98483L3.72561 0.762436C3.63121 0.416388 3.32969 0.167187 2.97534 0.143066L0.893219 0.000963332C0.601693 -0.0153031 0.0577912 0.171453 0.0019639 0.788356C-0.0294497 1.25396 0.319744 1.65833 0.780321 1.68975L2.26967 1.79134L6.66437 17.9089C5.8622 17.848 5.06546 18.2758 4.69091 19.0503C4.19938 20.0647 4.61609 21.2945 5.6195 21.7912C6.62292 22.2884 7.8388 21.8669 8.33006 20.8522C8.70232 20.0836 8.55299 19.1915 8.02244 18.5883L17.1716 16.0372L18.3277 16.7007L18.3336 16.7043C18.4705 16.7854 19.0452 17 19.4378 16.4271C19.672 16.01 19.5465 15.4542 19.1542 15.2286L19.1542 15.2287ZM9.92733 2.02687L10.541 4.27674L8.78204 4.76701L8.16848 2.51688L9.92733 2.02687ZM5.87373 3.09618L7.80531 2.55785L8.52994 5.21589L10.9845 4.53193L10.2597 1.87311L12.191 1.33479L13.69 6.83118L7.37264 8.59288L5.87373 3.09618ZM11.4852 7.82454L12.0988 10.0747L10.34 10.565L9.72648 8.3151L11.4852 7.82454ZM9.3785 8.41182L10.0878 11.0136L12.542 10.3291L11.8326 7.72786L15.1395 6.80588L17.1697 14.2504L8.10178 16.7791L6.07171 9.33376L9.3785 8.41182ZM8.00601 20.6924C7.60217 21.5264 6.60256 21.8721 5.77778 21.4641C4.95299 21.0556 4.61061 20.0449 5.01457 19.2109C5.41853 18.3769 6.41802 18.0307 7.2428 18.4392C8.06732 18.8474 8.40966 19.8583 8.00601 20.6924ZM19.1322 16.2331C18.914 16.5518 18.5848 16.4255 18.5055 16.3839L17.2193 15.6458L7.70578 18.2982C7.70578 18.2982 7.40014 18.0653 7.05702 17.9795L2.5485 1.44551L0.803748 1.32643C0.541208 1.30848 0.342871 1.07875 0.360626 0.813405C0.377623 0.559123 0.590842 0.353336 0.867811 0.365318L2.94993 0.50742C3.15207 0.521231 3.32326 0.662565 3.37697 0.859914L7.84859 17.2591L17.1559 14.6639C17.2803 14.6269 17.4453 14.6683 17.5175 14.7094L18.9751 15.5466C19.2043 15.6775 19.2621 16.0017 19.1321 16.233L19.1322 16.2331ZM6.5099 19.0808C6.03519 19.0808 5.64883 19.4714 5.64883 19.9518C5.64883 20.4319 6.03521 20.8224 6.5099 20.8224C6.98492 20.8224 7.37097 20.4319 7.37097 19.9518C7.37127 19.4712 6.9849 19.0808 6.5099 19.0808ZM6.5099 20.4578C6.234 20.4578 6.00955 20.2305 6.00955 19.9515C6.00955 19.6725 6.234 19.4453 6.5099 19.4453C6.78595 19.4453 7.01056 19.6725 7.01056 19.9515C7.01056 20.2305 6.78596 20.4578 6.5099 20.4578Z" fill="black"/>
</svg>
