<svg width="26" height="20" viewBox="0 0 26 20" fill="none" xmlns="http://www.w3.org/2000/svg">
<path fill-rule="evenodd" clip-rule="evenodd" d="M11.4045 15.7616C11.2586 15.7616 11.1406 15.6445 11.1406 15.5V10.955C11.1406 10.8104 11.2586 10.6934 11.4045 10.6934C11.5503 10.6934 11.6683 10.8104 11.6683 10.955V15.5C11.6683 15.6445 11.55 15.7616 11.4045 15.7616Z" fill="black"/>
<path fill-rule="evenodd" clip-rule="evenodd" d="M11.382 14.1139C10.6649 14.1139 9.82985 13.7102 9.14834 13.0342C8.45645 12.3482 8.04962 11.5106 8.05976 10.7933C8.06188 10.6517 8.17707 10.5375 8.31982 10.5354L8.34621 10.5352C9.0633 10.5352 9.89836 10.9388 10.5801 11.6148C11.272 12.3008 11.6788 13.1386 11.6685 13.8558C11.6666 13.9973 11.5511 14.1115 11.4084 14.1136L11.382 14.1139ZM8.61053 11.0818C8.69839 11.594 9.0296 12.177 9.52145 12.6645C10.0117 13.1506 10.6008 13.4802 11.1179 13.5676C11.0301 13.0553 10.6988 12.4723 10.207 11.9848C9.71678 11.4987 9.12741 11.1694 8.61053 11.0818Z" fill="black"/>
<path fill-rule="evenodd" clip-rule="evenodd" d="M11.4273 14.1139L11.4009 14.1136C11.2581 14.1115 11.1429 13.9973 11.1408 13.8558C11.1305 13.1387 11.5373 12.3008 12.2292 11.6148C12.9109 10.9388 13.746 10.5352 14.4631 10.5352L14.4894 10.5354C14.6322 10.5375 14.7474 10.6517 14.7495 10.7933C14.7596 11.5106 14.3528 12.3484 13.6609 13.0342C12.9792 13.7102 12.1444 14.1139 11.4273 14.1139ZM14.1987 11.0818C13.6819 11.1691 13.0925 11.4987 12.6023 11.9848C12.1106 12.4723 11.7792 13.0553 11.6914 13.5676C12.2084 13.4802 12.7976 13.1506 13.2878 12.6645C13.7797 12.177 14.1109 11.5941 14.1987 11.0818Z" fill="black"/>
<path fill-rule="evenodd" clip-rule="evenodd" d="M11.4031 11.2169C11.3463 11.2169 11.2895 11.1987 11.242 11.1625C10.7089 10.7549 10.3906 10.0364 10.3906 9.2408C10.3906 8.44521 10.7089 7.727 11.242 7.31913C11.3369 7.24649 11.4693 7.24649 11.5642 7.31913C12.0973 7.72672 12.4156 8.44521 12.4156 9.2408C12.4156 10.0364 12.0973 10.7546 11.5642 11.1625C11.5166 11.1989 11.4599 11.2169 11.4031 11.2169ZM11.4031 7.87997C11.1002 8.20418 10.9183 8.70497 10.9183 9.24081C10.9183 9.77664 11.1001 10.2777 11.4031 10.6017C11.706 10.2774 11.8879 9.77664 11.8879 9.24081C11.8879 8.70497 11.706 8.20394 11.4031 7.87997Z" fill="black"/>
<path fill-rule="evenodd" clip-rule="evenodd" d="M19.5804 10.0712C17.1479 10.0712 15.1689 8.1089 15.1689 5.69672C15.1689 3.28454 17.1479 1.32227 19.5804 1.32227C22.0132 1.32227 23.9922 3.28454 23.9922 5.69672C23.9922 8.10866 22.0132 10.0712 19.5804 10.0712ZM19.5804 1.8456C17.4386 1.8456 15.6964 3.57341 15.6964 5.69684C15.6964 7.82056 17.4387 9.54807 19.5804 9.54807C21.7222 9.54807 23.4645 7.82026 23.4645 5.69684C23.4645 3.57335 21.722 1.8456 19.5804 1.8456Z" fill="black"/>
<path fill-rule="evenodd" clip-rule="evenodd" d="M19.5798 11.3931C16.4121 11.3931 13.8347 8.83776 13.8347 5.69655C13.8347 2.55533 16.4118 0 19.5798 0C22.7475 0 25.3249 2.55533 25.3249 5.69655C25.3249 8.83776 22.7478 11.3931 19.5798 11.3931ZM19.5798 0.523336C16.703 0.523336 14.3624 2.84415 14.3624 5.69667C14.3624 8.54918 16.703 10.87 19.5798 10.87C22.4566 10.87 24.7972 8.54918 24.7972 5.69667C24.7972 2.84415 22.4566 0.523336 19.5798 0.523336Z" fill="black"/>
<path fill-rule="evenodd" clip-rule="evenodd" d="M20.0967 8.46626H19.0597C18.9139 8.46626 18.7959 8.34924 18.7959 8.20465V5.12001C18.7959 4.97542 18.9139 4.8584 19.0597 4.8584H20.0967C20.2425 4.8584 20.3605 4.97542 20.3605 5.12001V8.20465C20.3605 8.34901 20.2425 8.46626 20.0967 8.46626ZM19.3236 7.94305H19.8329V5.38162H19.3236V7.94305Z" fill="black"/>
<path fill-rule="evenodd" clip-rule="evenodd" d="M20.0967 4.37496H19.0597C18.9139 4.37496 18.7959 4.25794 18.7959 4.11335V3.18837C18.7959 3.04378 18.9139 2.92676 19.0597 2.92676H20.0967C20.2425 2.92676 20.3605 3.04378 20.3605 3.18837V4.11335C20.3605 4.25794 20.2425 4.37496 20.0967 4.37496ZM19.3236 3.85175H19.8329V3.44999H19.3236V3.85175Z" fill="black"/>
<path fill-rule="evenodd" clip-rule="evenodd" d="M21.2485 19.9994H1.55921C0.699366 19.9994 0 19.3059 0 18.4536V16.4413C0 16.2967 0.118018 16.1797 0.263838 16.1797H22.5438C22.6896 16.1797 22.8077 16.2967 22.8077 16.4413V18.4536C22.8077 19.3059 22.1082 19.9994 21.2485 19.9994ZM0.527374 16.7027V18.4533C0.527374 19.0172 0.990034 19.4761 1.55891 19.4761H21.2482C21.8171 19.4761 22.2797 19.0174 22.2797 18.4533V16.7027H0.527374Z" fill="black"/>
<path fill-rule="evenodd" clip-rule="evenodd" d="M14.2972 18.3512H8.51144C8.38635 18.3512 8.27846 18.2644 8.25326 18.1429L7.90791 16.4946C7.89165 16.4175 7.91144 16.3374 7.96162 16.2762C8.01179 16.2152 8.08694 16.1797 8.16633 16.1797H14.6432C14.7226 16.1797 14.7977 16.2152 14.8479 16.2762C14.8981 16.3371 14.9178 16.4175 14.9016 16.4946L14.5562 18.1429C14.5308 18.2641 14.4229 18.3512 14.2978 18.3512H14.2972ZM8.726 17.828H14.0826L14.3184 16.7029H8.49016L8.726 17.828Z" fill="black"/>
<path fill-rule="evenodd" clip-rule="evenodd" d="M21.6327 16.7027C21.4869 16.7027 21.3689 16.5857 21.3689 16.4411V10.7368C21.3689 10.5923 21.4869 10.4752 21.6327 10.4752C21.7786 10.4752 21.8966 10.5923 21.8966 10.7368V16.4411C21.8966 16.5857 21.7786 16.7027 21.6327 16.7027ZM1.17399 16.7027C1.02817 16.7027 0.910156 16.5857 0.910156 16.4411V7.13681C0.910156 5.22076 2.35912 3.66211 4.14026 3.66211H14.3959C14.5417 3.66211 14.6597 3.77913 14.6597 3.92372C14.6597 4.06831 14.5417 4.18533 14.3959 4.18533H4.14026C2.65004 4.18533 1.43783 5.50951 1.43783 7.13705V16.4419C1.43783 16.5865 1.31958 16.7035 1.17399 16.7035V16.7027Z" fill="black"/>
<path fill-rule="evenodd" clip-rule="evenodd" d="M20.2238 16.702C20.078 16.702 19.96 16.5849 19.96 16.4404V11.0933C19.96 10.9487 20.078 10.8317 20.2238 10.8317C20.3697 10.8317 20.4877 10.9487 20.4877 11.0933V16.4404C20.4877 16.5849 20.3697 16.702 20.2238 16.702ZM2.58317 16.702C2.43735 16.702 2.31934 16.5849 2.31934 16.4404V7.08345C2.31934 5.9875 3.14643 5.0957 4.16289 5.0957H14.1085C14.2543 5.0957 14.3724 5.21272 14.3724 5.35731C14.3724 5.5019 14.2543 5.61892 14.1085 5.61892H4.16289C3.43735 5.61892 2.84701 6.27596 2.84701 7.08345V16.4404C2.84701 16.5849 2.72899 16.702 2.58317 16.702Z" fill="black"/>
<path fill-rule="evenodd" clip-rule="evenodd" d="M16.2713 18.9172C15.8103 18.9172 15.4355 18.5453 15.4355 18.0885C15.4355 17.6314 15.8106 17.2598 16.2713 17.2598C16.7323 17.2598 17.1071 17.6316 17.1071 18.0885C17.1071 18.5456 16.7321 18.9172 16.2713 18.9172ZM16.2713 17.7827C16.1012 17.7827 15.963 17.9198 15.963 18.0884C15.963 18.2571 16.1012 18.3942 16.2713 18.3942C16.4414 18.3942 16.5797 18.2571 16.5797 18.0884C16.5797 17.9198 16.4414 17.7827 16.2713 17.7827Z" fill="black"/>
<path fill-rule="evenodd" clip-rule="evenodd" d="M6.53597 18.9172C6.0752 18.9172 5.7002 18.5453 5.7002 18.0885C5.7002 17.6314 6.07523 17.2598 6.53597 17.2598C6.99698 17.2598 7.37175 17.6316 7.37175 18.0885C7.37175 18.5456 6.99672 18.9172 6.53597 18.9172ZM6.53597 17.7827C6.36589 17.7827 6.22761 17.9198 6.22761 18.0884C6.22761 18.2571 6.36589 18.3942 6.53597 18.3942C6.70605 18.3942 6.84434 18.2571 6.84434 18.0884C6.84434 17.9198 6.70605 17.7827 6.53597 17.7827Z" fill="black"/>
<path fill-rule="evenodd" clip-rule="evenodd" d="M4.14419 18.865H1.92204C1.77622 18.865 1.6582 18.748 1.6582 18.6034C1.6582 18.4588 1.77622 18.3418 1.92204 18.3418H4.14419C4.29001 18.3418 4.40803 18.4588 4.40803 18.6034C4.40803 18.748 4.29001 18.865 4.14419 18.865Z" fill="black"/>
<path fill-rule="evenodd" clip-rule="evenodd" d="M4.14534 17.8377H1.47868C1.33286 17.8377 1.21484 17.7206 1.21484 17.5761C1.21484 17.4315 1.33286 17.3145 1.47868 17.3145H4.14534C4.29116 17.3145 4.40918 17.4315 4.40918 17.5761C4.40918 17.7206 4.29116 17.8377 4.14534 17.8377Z" fill="black"/>
<path fill-rule="evenodd" clip-rule="evenodd" d="M20.8844 18.865H18.6623C18.5165 18.865 18.3984 18.748 18.3984 18.6034C18.3984 18.4588 18.5165 18.3418 18.6623 18.3418H20.8844C21.0302 18.3418 21.1483 18.4588 21.1483 18.6034C21.1483 18.748 21.0302 18.865 20.8844 18.865Z" fill="black"/>
<path fill-rule="evenodd" clip-rule="evenodd" d="M21.3289 17.8377H18.6623C18.5165 17.8377 18.3984 17.7206 18.3984 17.5761C18.3984 17.4315 18.5165 17.3145 18.6623 17.3145H21.3289C21.4748 17.3145 21.5928 17.4315 21.5928 17.5761C21.5928 17.7206 21.4748 17.8377 21.3289 17.8377Z" fill="black"/>
</svg>
