<svg width="16" height="16" viewBox="0 0 16 16" fill="none" xmlns="http://www.w3.org/2000/svg">
<path d="M14.5697 13.8146C14.2109 13.56 13.7783 13.4209 13.3333 13.4168C13.3149 13.4168 13.2965 13.4171 13.278 13.4177C13.276 13.4117 13.2737 13.4058 13.2715 13.3998L14.3055 11.4692C14.4622 11.1748 14.4498 10.8231 14.2727 10.5396C14.1179 10.2852 13.8361 10.1281 13.5306 10.1259H12.581V3.54406H13.1052C13.2124 3.54406 13.3088 3.481 13.3486 3.38494L13.8728 2.11921C13.8852 2.08926 13.8915 2.05739 13.8915 2.02518V0.759447C13.8913 0.558061 13.8083 0.365029 13.6609 0.222746C13.5136 0.0803503 13.3137 0.000225663 13.1052 0H10.4843C10.2758 0.00022601 10.0759 0.0803503 9.9286 0.222746C9.78117 0.365029 9.69821 0.558058 9.69798 0.759447V2.02518C9.69798 2.05739 9.7043 2.08926 9.7167 2.11921L10.2409 3.38494C10.2807 3.481 10.3771 3.54406 10.4843 3.54406H11.0085V10.1259H10.059C9.75333 10.1281 9.47147 10.2852 9.31667 10.5396C9.13964 10.823 9.12723 11.1748 9.2839 11.4692L9.46702 11.8111C9.21861 11.9255 9.00286 12.0968 8.83868 12.3101C8.82101 12.3096 8.80358 12.3093 8.78626 12.3093C8.40716 12.3094 8.03846 12.4298 7.73695 12.6517L8.18086 10.0784C8.50158 9.98011 8.75397 9.73907 8.85926 9.43043C8.96468 9.1218 8.91027 8.7831 8.71312 8.51977C8.51584 8.25645 8.1998 8.10062 7.8633 8.10073H4.71814V7.34129H5.30494C5.84423 7.34072 6.36129 7.13346 6.7426 6.76516C7.12392 6.39686 7.33854 5.89746 7.3391 5.37658V4.05038C7.3391 3.98325 7.31149 3.91883 7.26235 3.87137C7.2132 3.8239 7.14651 3.79723 7.07701 3.79723H6.22812C5.65211 3.79701 5.1032 4.03331 4.71814 4.44705V3.54408H5.30494C5.84423 3.54352 6.36129 3.33625 6.7426 2.96795C7.12392 2.59966 7.33854 2.10025 7.3391 1.57937V0.253172C7.3391 0.186043 7.31149 0.121625 7.26235 0.0741607C7.2132 0.0266963 7.14651 2.47214e-05 7.07701 2.47214e-05H6.22812C5.86738 0.000250731 5.51309 0.093261 5.20172 0.26922C4.89026 0.445292 4.63296 0.698094 4.45602 1.00187C4.27911 0.698094 4.02181 0.445295 3.71032 0.26922C3.39895 0.093261 3.04466 0.000250384 2.68392 2.47214e-05H1.83503C1.69029 2.47214e-05 1.57293 0.113377 1.57293 0.253172V1.57937C1.57352 2.10025 1.78811 2.59966 2.16943 2.96795C2.55075 3.33624 3.06781 3.54353 3.6071 3.54408H4.19389V4.44705C3.80884 4.03331 3.25993 3.797 2.68392 3.79723H1.83503C1.69029 3.79723 1.57293 3.91058 1.57293 4.05038V5.37658C1.57352 5.89746 1.78811 6.39686 2.16943 6.76516C2.55075 7.13345 3.06781 7.34074 3.6071 7.34129H4.19389V8.10073H1.04874C0.712241 8.10062 0.396199 8.25646 0.198923 8.51977C0.00176679 8.78309 -0.0526413 9.1218 0.0527812 9.43043C0.158087 9.73907 0.41046 9.98012 0.731175 10.0784L1.50353 14.5544C1.53361 14.7319 1.62827 14.8933 1.77031 15.0096C1.91247 15.1259 2.09279 15.1894 2.27904 15.1889H14.9399C15.0094 15.1889 15.0761 15.1622 15.1253 15.1148C15.1744 15.0673 15.202 15.0029 15.202 14.9358C15.202 14.5048 14.9775 14.1067 14.5697 13.8147L14.5697 13.8146ZM4.71815 1.96471C4.71862 1.57811 4.87786 1.2073 5.1609 0.933929C5.44393 0.660559 5.82785 0.506732 6.22812 0.506298H6.81492V1.57935C6.81445 1.96596 6.6552 2.33677 6.37217 2.61014C6.08914 2.88351 5.70522 3.03734 5.30494 3.03777H5.01571L5.96791 1.93411C6.01401 1.88269 6.03683 1.81555 6.03109 1.74775C6.02536 1.68006 5.99178 1.61733 5.9376 1.57382C5.88354 1.5302 5.81358 1.50952 5.7436 1.51641C5.67352 1.52319 5.60928 1.55698 5.56529 1.6101L5.56447 1.611L5.56423 1.61123L4.71816 2.59162L4.71815 1.96471ZM4.71815 5.76192C4.71862 5.37532 4.87786 5.00451 5.1609 4.73114C5.44393 4.45777 5.82785 4.30394 6.22812 4.3035H6.81492V5.37656C6.81445 5.76316 6.6552 6.13398 6.37217 6.40734C6.08914 6.68071 5.70522 6.83454 5.30494 6.83498H5.01571L5.96791 5.73131C6.01401 5.67989 6.03683 5.61276 6.03109 5.54496C6.02536 5.47726 5.99178 5.41454 5.9376 5.37103C5.88354 5.32741 5.81358 5.30673 5.7436 5.31362C5.67352 5.3204 5.60928 5.35419 5.56529 5.40731L5.56447 5.40821L5.56423 5.40844L4.71816 6.38882L4.71815 5.76192ZM10.6619 3.03777L10.2223 1.97646V0.759445C10.2224 0.61965 10.3396 0.506411 10.4844 0.506298H13.1053C13.2501 0.506411 13.3673 0.61965 13.3674 0.759445V1.97646L12.9278 3.03777H12.3191C12.1743 3.03777 12.057 3.15112 12.057 3.29092V5.56924H11.5328V3.29092C11.5328 3.22379 11.5051 3.15937 11.456 3.11191C11.4069 3.06444 11.3402 3.03777 11.2707 3.03777H10.6619ZM11.5328 6.58183V6.07553H12.057V6.58183H11.5328ZM12.057 7.08812V10.8998C12.057 10.9691 12.0275 11.0354 11.9755 11.0832C11.9234 11.1309 11.8535 11.156 11.7818 11.1526C11.639 11.1405 11.5302 11.0239 11.5328 10.8854V7.08823L12.057 7.08812ZM9.76456 10.8029C9.79685 10.7516 9.89034 10.6322 10.0591 10.6322H11.0086V10.8854C11.0063 11.0825 11.083 11.2729 11.2223 11.4169C11.3618 11.5608 11.5534 11.6473 11.7572 11.6583C11.77 11.6588 11.7828 11.6592 11.7955 11.6592C11.9975 11.6596 12.1918 11.5844 12.3375 11.4492C12.4928 11.3057 12.5807 11.1072 12.5811 10.8997V10.6322H13.5306C13.6995 10.6322 13.7927 10.7516 13.8252 10.8029C13.9076 10.9352 13.9134 11.0993 13.8401 11.2365L12.96 12.8798C12.6315 12.5174 12.157 12.3093 11.6582 12.3093C11.6409 12.3093 11.6233 12.3095 11.6058 12.3101C11.2794 11.8896 10.7664 11.6429 10.2222 11.6448C10.1403 11.645 10.0586 11.6508 9.97747 11.6621L9.74953 11.2366C9.67629 11.0993 9.6819 10.9352 9.76451 10.8029L9.76456 10.8029ZM2.94437 1.93405L3.8967 3.03771H3.60734C3.20706 3.03726 2.82315 2.88345 2.54011 2.61008C2.25708 2.33671 2.09781 1.9659 2.09736 1.57929V0.50624H2.68416C3.08443 0.506692 3.46835 0.660501 3.75138 0.933871C4.03442 1.20724 4.19368 1.57805 4.19413 1.96466V2.59154L3.34806 1.61092L3.34782 1.61069L3.347 1.60979H3.34712C3.30312 1.55667 3.23889 1.52299 3.1688 1.5161C3.09872 1.50932 3.02886 1.53 2.97469 1.57351C2.92063 1.61702 2.88693 1.67974 2.88131 1.74755C2.87558 1.81524 2.8984 1.88249 2.9445 1.93379L2.94437 1.93405ZM2.94437 5.73125L3.8967 6.83492H3.60734C3.20706 6.83447 2.82315 6.68066 2.54011 6.40729C2.25708 6.13392 2.09781 5.76311 2.09736 5.3765V4.30345H2.68416C3.08443 4.3039 3.46835 4.45771 3.75138 4.73108C4.03442 5.00445 4.19368 5.37526 4.19413 5.76186V6.38874L3.34806 5.40812L3.34782 5.4079L3.347 5.40699H3.34712C3.30312 5.35388 3.23889 5.3202 3.1688 5.3133C3.09872 5.30652 3.02886 5.32721 2.97469 5.37072C2.92063 5.41423 2.88693 5.47695 2.88131 5.54475C2.87558 5.61245 2.8984 5.67969 2.9445 5.731L2.94437 5.73125ZM0.524795 9.1133C0.524912 8.97904 0.580258 8.85043 0.678542 8.75551C0.776827 8.66058 0.909983 8.60712 1.04898 8.60701H7.86347C8.0508 8.60701 8.22385 8.70352 8.31745 8.86016C8.41106 9.01679 8.41106 9.20982 8.31745 9.36645C8.22385 9.52309 8.0508 9.6196 7.86347 9.6196H1.04898C0.909977 9.61949 0.776824 9.56603 0.678542 9.4711C0.580261 9.37617 0.524912 9.24755 0.524795 9.1133ZM5.26918 14.6825H2.27919C2.15095 14.6829 2.04143 14.5933 2.02072 14.471L1.27095 10.1258H7.64123L7.07327 13.4176C6.64116 13.4291 6.22309 13.5677 5.87464 13.8146C5.5482 14.0484 5.33957 14.3503 5.26912 14.6825L5.26918 14.6825ZM5.81302 14.6825C5.98069 14.2345 6.57298 13.9231 7.1111 13.9231C7.18177 13.9232 7.25233 13.9291 7.32183 13.9408C7.39098 13.9525 7.46212 13.9368 7.51922 13.8973C7.57632 13.8579 7.61458 13.798 7.62558 13.731C7.71088 13.2091 8.20992 12.8156 8.78629 12.8156C8.83766 12.8157 8.88891 12.8188 8.93992 12.8251C9.04347 12.8375 9.1448 12.7893 9.19769 12.7024C9.41731 12.3597 9.80485 12.151 10.2222 12.151C10.6395 12.151 11.0271 12.3597 11.2467 12.7024C11.2996 12.7893 11.4009 12.8375 11.5045 12.8251C11.5555 12.8188 11.6067 12.8157 11.6581 12.8156C12.2345 12.8156 12.7335 13.2091 12.8188 13.731C12.8298 13.798 12.8681 13.8579 12.9252 13.8973C12.9823 13.9368 13.0534 13.9525 13.1226 13.9408C13.1922 13.9291 13.2626 13.9232 13.3333 13.9231C13.8715 13.9231 14.4636 14.2345 14.6314 14.6825H5.81302Z" fill="black"/>
</svg>
