<svg width="20" height="23" viewBox="0 0 20 23" fill="none" xmlns="http://www.w3.org/2000/svg">
<path d="M9.54871 16.264L11.4369 15.7258L11.1388 14.6082L12.0367 14.3526L9.68683 12.9736L8.353 15.4025L9.25088 15.1465L9.54871 16.264ZM9.82545 13.4933L11.0801 14.2296L10.6851 14.3422L10.9833 15.4593L9.80651 15.7949L9.50836 14.6778L9.11336 14.7901L9.82545 13.4933ZM13.9549 15.008L15.8427 14.4698L15.5447 13.3527L16.4422 13.0971L14.0926 11.7179L12.759 14.147L13.6569 13.8909L13.9549 15.008ZM14.2319 12.2378L15.4861 12.974L15.0916 13.0863L15.3893 14.2039L14.2125 14.5395L13.9145 13.422L13.5198 13.5346L14.2319 12.2378ZM19.5895 15.9209L17.9597 14.9599L15.7419 6.64592L14.3566 7.04074L12.7258 0.926523L5.55403 2.97074L7.18495 9.08455L6.1033 9.39323L3.81028 0.797092C3.71374 0.435315 3.40536 0.174786 3.04296 0.149569L0.913519 0.00100712C0.615368 -0.0159987 0.0591046 0.179247 0.00200854 0.824191C-0.030119 1.31096 0.327011 1.73371 0.798056 1.76656L2.32125 1.87277L6.81583 18.7229C5.99543 18.6592 5.18059 19.1065 4.79752 19.9162C4.29482 20.9767 4.721 22.2624 5.74722 22.7817C6.77344 23.3015 8.01695 22.8608 8.51937 21.8001C8.90009 20.9965 8.74737 20.0639 8.20477 19.4332L17.5618 16.7661L18.7442 17.4599L18.7503 17.4636C18.8903 17.5484 19.478 17.7727 19.8796 17.1738C20.119 16.7378 19.9907 16.1567 19.5895 15.9208L19.5895 15.9209ZM10.153 2.119L10.7806 4.47113L8.98163 4.9837L8.35413 2.63128L10.153 2.119ZM6.00723 3.23691L7.9827 2.67412L8.7238 5.45297L11.2341 4.73793L10.4929 1.95825L12.468 1.39546L14.0012 7.14168L7.5402 8.98347L6.00723 3.23691ZM11.7462 8.1802L12.3737 10.5326L10.575 11.0452L9.94753 8.69306L11.7462 8.1802ZM9.59165 8.79417L10.3171 11.5142L12.8271 10.7986L12.1015 8.07913L15.4836 7.11523L17.5599 14.8982L8.2859 17.5418L6.20971 9.75802L9.59165 8.79417ZM8.18796 21.6329C7.77494 22.5049 6.75262 22.8663 5.90909 22.4398C5.06556 22.0127 4.71539 20.9561 5.12854 20.0841C5.54168 19.2122 6.56388 18.8503 7.40741 19.2773C8.25066 19.7041 8.60079 20.761 8.18796 21.6329ZM19.567 16.971C19.3439 17.3042 19.0072 17.1722 18.926 17.1287L17.6107 16.357L7.88091 19.1299C7.88091 19.1299 7.56832 18.8864 7.21741 18.7967L2.60642 1.51122L0.822015 1.38672C0.553508 1.36795 0.350664 1.12778 0.368822 0.850378C0.386205 0.584538 0.604271 0.369396 0.887534 0.381923L3.01697 0.530485C3.22371 0.544924 3.39878 0.692682 3.45372 0.899001L8.02697 18.0436L17.5458 15.3304C17.673 15.2917 17.8417 15.3351 17.9156 15.3781L19.4064 16.2532C19.6408 16.3901 19.6999 16.7291 19.5669 16.9709L19.567 16.971ZM6.65785 19.9481C6.17236 19.9481 5.77721 20.3564 5.77721 20.8587C5.77721 21.3606 6.17237 21.7689 6.65785 21.7689C7.14367 21.7689 7.53849 21.3606 7.53849 20.8587C7.5388 20.3563 7.14365 19.9481 6.65785 19.9481ZM6.65785 21.3877C6.37569 21.3877 6.14613 21.1501 6.14613 20.8584C6.14613 20.5667 6.37568 20.3291 6.65785 20.3291C6.94017 20.3291 7.16989 20.5667 7.16989 20.8584C7.16989 21.1501 6.94019 21.3877 6.65785 21.3877Z" fill="black"/>
</svg>
