<svg width="15" height="15" viewBox="0 0 15 15" fill="none" xmlns="http://www.w3.org/2000/svg">
<path fill-rule="evenodd" clip-rule="evenodd" d="M7.44325 11.0733C7.35749 11.0733 7.28809 11.0039 7.28809 10.9181V6.51454C7.28809 6.42878 7.35749 6.35938 7.44325 6.35938C7.52901 6.35938 7.59842 6.42878 7.59842 6.51454V10.9181C7.59842 11.0037 7.52901 11.0733 7.44325 11.0733Z" fill="black"/>
<path fill-rule="evenodd" clip-rule="evenodd" d="M7.42603 8.93112C6.8835 8.93112 6.24981 8.62133 5.73096 8.10236C5.20435 7.57575 4.89458 6.93472 4.90249 6.38746C4.9036 6.30351 4.97149 6.23576 5.05544 6.23451L5.07512 6.23438C5.61765 6.23438 6.25134 6.54416 6.77019 7.06299C7.2968 7.5896 7.60657 8.23063 7.59866 8.77788C7.59755 8.86184 7.52966 8.92959 7.44571 8.93084L7.42603 8.93097V8.93112ZM5.22169 6.55402C5.27337 6.9799 5.54186 7.47449 5.95043 7.88307C6.35773 8.29037 6.8536 8.55956 7.27948 8.61166C7.22767 8.18578 6.95931 7.69119 6.55074 7.28261C6.14344 6.87531 5.64758 6.60612 5.22169 6.55402Z" fill="black"/>
<path fill-rule="evenodd" clip-rule="evenodd" d="M7.46085 8.93097L7.44118 8.93084C7.35722 8.92959 7.28948 8.86184 7.28823 8.77788C7.28047 8.23063 7.59011 7.5896 8.1167 7.06299C8.63555 6.54414 9.26923 6.23438 9.81177 6.23438L9.83144 6.23451C9.9154 6.23576 9.98315 6.30351 9.98439 6.38746C9.99215 6.93458 9.68237 7.57575 9.15578 8.10236C8.63694 8.62121 8.00325 8.93097 7.46071 8.93097H7.46085ZM9.66519 6.55388C9.23916 6.60583 8.74348 6.87516 8.33614 7.28247C7.92756 7.69105 7.65922 8.18564 7.60754 8.61152C8.03343 8.55943 8.52926 8.29024 8.9366 7.88293C9.34517 7.47435 9.61352 6.97976 9.66519 6.55388Z" fill="black"/>
<path fill-rule="evenodd" clip-rule="evenodd" d="M7.44382 6.67006C7.41043 6.67006 7.37704 6.65925 7.34906 6.63777C6.9542 6.33326 6.70898 5.77299 6.70898 5.17586C6.70898 4.5786 6.95421 4.01847 7.34906 3.71395C7.40489 3.67087 7.48275 3.67087 7.53858 3.71395C7.93344 4.01847 8.17866 4.57874 8.17866 5.17586C8.17866 5.77299 7.93343 6.33326 7.53858 6.63777C7.5106 6.65925 7.47721 6.67006 7.44382 6.67006ZM7.44382 4.04245C7.17948 4.30277 7.01917 4.72438 7.01917 5.17587C7.01917 5.62736 7.17947 6.04896 7.44382 6.30929C7.70816 6.04897 7.86846 5.62736 7.86846 5.17587C7.86846 4.72438 7.70831 4.30278 7.44382 4.04245Z" fill="black"/>
<path fill-rule="evenodd" clip-rule="evenodd" d="M7.44343 12.208C7.35767 12.208 7.28826 12.1386 7.28826 12.0528C7.28826 11.967 7.35767 11.8976 7.44343 11.8976C9.93622 11.8976 11.964 9.86964 11.964 7.37702C11.964 7.29126 12.0334 7.22186 12.1192 7.22186C12.205 7.22186 12.2744 7.29126 12.2744 7.37702C12.2744 10.0409 10.1072 12.208 7.44343 12.208ZM2.76747 7.53201C2.68171 7.53201 2.6123 7.4626 2.6123 7.37685C2.6123 4.71296 4.77951 2.5459 7.44325 2.5459C7.52901 2.5459 7.59842 2.61531 7.59842 2.70107C7.59842 2.78683 7.52887 2.85623 7.44325 2.85623C4.95046 2.85623 2.92264 4.88423 2.92264 7.37685C2.92264 7.4626 2.85323 7.53201 2.76747 7.53201Z" fill="black"/>
<path fill-rule="evenodd" clip-rule="evenodd" d="M7.44328 12.8221C4.44079 12.8221 1.99805 10.3793 1.99805 7.37687C1.99805 4.37442 4.44083 1.93164 7.44328 1.93164C10.4457 1.93164 12.8885 4.37442 12.8885 7.37687C12.8885 10.3795 10.4457 12.8221 7.44328 12.8221ZM7.44328 2.24162C4.61175 2.24162 2.30803 4.54516 2.30803 7.37687C2.30803 10.2086 4.61157 12.5121 7.44328 12.5121C10.2748 12.5121 12.5785 10.2086 12.5785 7.37687C12.5785 4.54548 10.275 2.24162 7.44328 2.24162Z" fill="black"/>
<path fill-rule="evenodd" clip-rule="evenodd" d="M3.07477 3.16363C3.03501 3.16363 2.99538 3.14853 2.96504 3.11819L1.12158 1.27462C1.06104 1.21408 1.06104 1.11585 1.12158 1.05517C1.18212 0.99463 1.28035 0.99463 1.34103 1.05517L3.18449 2.89874C3.24503 2.95928 3.24503 3.05751 3.18449 3.11819C3.15415 3.14853 3.11453 3.16363 3.07477 3.16363Z" fill="black"/>
<path fill-rule="evenodd" clip-rule="evenodd" d="M11.8124 3.16363C11.7727 3.16363 11.733 3.14853 11.7026 3.11819C11.6421 3.05751 11.6421 2.95942 11.7026 2.89874L13.5462 1.05517C13.6067 0.99463 13.7051 0.99463 13.7655 1.05517C13.8262 1.11571 13.8262 1.21394 13.7655 1.27462L11.9221 3.11819C11.8917 3.14853 11.8521 3.16363 11.8124 3.16363Z" fill="black"/>
<path fill-rule="evenodd" clip-rule="evenodd" d="M13.6559 13.7437C13.6163 13.7437 13.5765 13.7286 13.5462 13.6983L11.7026 11.8547C11.6421 11.7942 11.6421 11.6959 11.7026 11.6353C11.7632 11.5747 11.8615 11.5747 11.9221 11.6353L13.7655 13.4788C13.8262 13.5394 13.8262 13.6376 13.7655 13.6983C13.7353 13.7286 13.6956 13.7437 13.6558 13.7437H13.6559Z" fill="black"/>
<path fill-rule="evenodd" clip-rule="evenodd" d="M1.23228 13.7437C1.19252 13.7437 1.1529 13.7286 1.12255 13.6983C1.06201 13.6377 1.06201 13.5395 1.12255 13.4788L2.96602 11.6353C3.0267 11.5747 3.12479 11.5747 3.18547 11.6353C3.24601 11.6958 3.24601 11.794 3.18547 11.8547L1.34201 13.6983C1.31167 13.7286 1.27204 13.7437 1.23228 13.7437Z" fill="black"/>
<path fill-rule="evenodd" clip-rule="evenodd" d="M0.766972 1.53394C0.343994 1.53394 0 1.18994 0 0.766972C0 0.343994 0.344001 0 0.766972 0C1.18995 0 1.53394 0.344001 1.53394 0.766972C1.53394 1.18995 1.1898 1.53394 0.766972 1.53394ZM0.766972 0.310193C0.5151 0.310193 0.310335 0.515096 0.310335 0.76683C0.310335 1.0187 0.515238 1.22361 0.766972 1.22361C1.01884 1.22361 1.22375 1.01871 1.22375 0.766972C1.22375 0.5151 1.01885 0.310193 0.766972 0.310193Z" fill="black"/>
<path fill-rule="evenodd" clip-rule="evenodd" d="M14.1263 1.54078C13.7034 1.54078 13.3594 1.19678 13.3594 0.773808C13.3594 0.350829 13.7035 0.00683594 14.1263 0.00683594C14.5492 0.00683594 14.8933 0.350837 14.8933 0.773808C14.8933 1.19679 14.5492 1.54078 14.1263 1.54078ZM14.1263 0.317029C13.8745 0.317029 13.6696 0.521932 13.6696 0.773666C13.6696 1.02554 13.8745 1.2303 14.1263 1.2303C14.3782 1.2303 14.5831 1.0254 14.5831 0.773666C14.5831 0.521794 14.3782 0.316887 14.1263 0.316887V0.317029Z" fill="black"/>
<path fill-rule="evenodd" clip-rule="evenodd" d="M13.9926 14.867C13.5696 14.867 13.2256 14.5228 13.2256 14.1C13.2256 13.6771 13.5696 13.333 13.9926 13.333C14.4154 13.333 14.7595 13.677 14.7595 14.1C14.7595 14.5228 14.4155 14.867 13.9926 14.867ZM13.9926 13.6432C13.7408 13.6432 13.5359 13.8481 13.5359 14.0998C13.5359 14.3517 13.7408 14.5566 13.9926 14.5566C14.2444 14.5566 14.4493 14.3517 14.4493 14.0998C14.4493 13.8481 14.2444 13.6432 13.9926 13.6432Z" fill="black"/>
<path fill-rule="evenodd" clip-rule="evenodd" d="M0.773808 14.7605C0.350829 14.7605 0.00683594 14.4164 0.00683594 13.9935C0.00683594 13.5707 0.350837 13.2266 0.773808 13.2266C1.19679 13.2266 1.54078 13.5706 1.54078 13.9935C1.54078 14.4164 1.19678 14.7605 0.773808 14.7605ZM0.773808 13.5368C0.521936 13.5368 0.31703 13.7417 0.31703 13.9934C0.31703 14.2453 0.521932 14.4502 0.773808 14.4502C1.02568 14.4502 1.23044 14.2453 1.23044 13.9934C1.23044 13.7415 1.02554 13.5368 0.773808 13.5368Z" fill="black"/>
<path fill-rule="evenodd" clip-rule="evenodd" d="M7.44332 14.1346C6.24216 14.1346 5.0626 13.8155 4.03211 13.2118C3.95813 13.1684 3.93333 13.0733 3.97669 12.9994C4.01992 12.9254 4.11509 12.9006 4.18894 12.9439C5.1719 13.5199 6.29727 13.8242 7.44331 13.8242C8.58921 13.8242 9.71458 13.5199 10.6975 12.9439C10.7715 12.9006 10.8666 12.9254 10.9099 12.9994C10.9532 13.0733 10.9284 13.1684 10.8545 13.2118C9.82402 13.8155 8.6445 14.1346 7.44345 14.1346H7.44332ZM13.1439 10.8649C13.1173 10.8649 13.0903 10.8579 13.0656 10.8435C12.9918 10.8002 12.967 10.7051 13.0102 10.6312C13.5861 9.64804 13.8905 8.52268 13.8905 7.37678C13.8905 6.23077 13.5861 5.10537 13.0102 4.12255C12.967 4.04857 12.9917 3.95353 13.0656 3.9103C13.1396 3.86693 13.2347 3.89173 13.278 3.96572C13.8818 4.99621 14.2009 6.17573 14.2009 7.37692C14.2009 8.57794 13.8818 9.7575 13.278 10.7881C13.2492 10.8373 13.1973 10.8649 13.1441 10.8649L13.1439 10.8649ZM1.74237 10.8649C1.68916 10.8649 1.63721 10.8374 1.6084 10.7881C1.00464 9.75748 0.685547 8.57796 0.685547 7.37691C0.685547 6.17586 1.00461 4.99634 1.6084 3.96585C1.65176 3.89187 1.7468 3.86706 1.82064 3.91043C1.89462 3.95379 1.91943 4.04883 1.87606 4.12268C1.30015 5.10578 0.995772 6.23101 0.995772 7.37691C0.995772 8.52281 1.30015 9.64803 1.87606 10.6311C1.91943 10.7051 1.89463 10.8002 1.82064 10.8435C1.79598 10.8579 1.76897 10.8649 1.74237 10.8649ZM10.7758 1.8311C10.7492 1.8311 10.7222 1.82417 10.6975 1.80976C9.71454 1.23385 8.58918 0.929473 7.44328 0.929473C6.29738 0.929473 5.17201 1.23385 4.18905 1.80976C4.11507 1.85299 4.02003 1.82833 3.9768 1.75434C3.93344 1.68036 3.95824 1.58532 4.03222 1.5421C5.06285 0.938343 6.24223 0.619141 7.44328 0.619141C8.6443 0.619141 9.82386 0.938205 10.8543 1.5421C10.9282 1.58546 10.953 1.68036 10.9098 1.75434C10.8809 1.80366 10.829 1.8311 10.7758 1.8311Z" fill="black"/>
</svg>
