<svg width="20" height="20" viewBox="0 0 20 20" fill="none" xmlns="http://www.w3.org/2000/svg">
<path d="M0 18.5714H5.71429V20H0V18.5714ZM10.7143 19.2857C10.6073 19.2856 10.5017 19.2615 10.4052 19.2152C10.3088 19.1688 10.224 19.1014 10.1571 19.0179L7.51429 15.7143H0V14.2857H7.85714C7.96414 14.2858 8.06976 14.3099 8.16619 14.3562C8.26263 14.4026 8.34741 14.47 8.41429 14.5536L10.6621 17.3621L14.4057 11.7464C14.4691 11.6514 14.5544 11.573 14.6543 11.5177C14.7543 11.4624 14.8661 11.4319 14.9803 11.4288C15.0944 11.4256 15.2077 11.4499 15.3106 11.4996C15.4135 11.5493 15.5029 11.6229 15.5714 11.7143L17.5 14.2857H20V15.7143H17.1429C17.032 15.7143 16.9226 15.6885 16.8234 15.6389C16.7242 15.5893 16.638 15.5173 16.5714 15.4286L15.0343 13.3786L11.3086 18.9679C11.2462 19.0614 11.1627 19.1388 11.0648 19.1939C10.9668 19.249 10.8573 19.2802 10.745 19.285L10.7143 19.2857ZM6.42857 10V6.42857H7.14286C7.90033 6.42763 8.6265 6.1263 9.16212 5.59069C9.69773 5.05508 9.99905 4.3289 10 3.57143V1.42857H7.85714C7.1257 1.42977 6.4229 1.71299 5.895 2.21929C5.52512 1.54769 4.98193 0.98756 4.322 0.597235C3.66208 0.20691 2.90957 0.000670701 2.14286 0H0V2.14286C0.00132329 3.27909 0.453277 4.36841 1.25672 5.17185C2.06016 5.97529 3.14948 6.42725 4.28571 6.42857H5V10H0V11.4286H10V10H6.42857ZM7.85714 2.85714H8.57143V3.57143C8.57105 3.95019 8.42042 4.31334 8.15259 4.58116C7.88476 4.84899 7.52162 4.99962 7.14286 5H6.42857V4.28571C6.42895 3.90695 6.57958 3.54381 6.84741 3.27598C7.11524 3.00815 7.47838 2.85752 7.85714 2.85714ZM4.28571 5C3.52824 4.99905 2.80207 4.69773 2.26645 4.16212C1.73084 3.6265 1.42952 2.90033 1.42857 2.14286V1.42857H2.14286C2.90033 1.42952 3.6265 1.73084 4.16212 2.26645C4.69773 2.80207 4.99905 3.52824 5 4.28571V5H4.28571Z" fill="black"/>
</svg>
