<svg width="21" height="22" viewBox="0 0 21 22" fill="none" xmlns="http://www.w3.org/2000/svg">
<path d="M8.05882 21H12.7647M10.4118 2.17647V1M16.2941 4.52941L17.4706 3.35294M4.52941 4.52941L3.35294 3.35294M16.2941 15.1176L17.4706 16.2941M4.52941 15.1176L3.35294 16.2941M2.17647 9.23529H1M19.8235 9.23529H18.6471M10.4118 5.11765C11.6062 5.11692 12.7659 5.52015 13.7022 6.26182C14.6385 7.00349 15.2965 8.04001 15.5693 9.20294C15.842 10.3659 15.7135 11.5869 15.2045 12.6675C14.6956 13.7481 13.8361 14.6249 12.7659 15.1553L12.7647 16.2941C12.7647 16.9182 12.5168 17.5166 12.0755 17.9579C11.6343 18.3992 11.0358 18.6471 10.4118 18.6471C9.78773 18.6471 9.18925 18.3992 8.74798 17.9579C8.30672 17.5166 8.05882 16.9182 8.05882 16.2941V15.1553C6.98866 14.6249 6.12928 13.7483 5.62031 12.6678C5.11135 11.5872 4.98271 10.3664 5.2553 9.20351C5.52789 8.04065 6.18568 7.00414 7.12181 6.26237C8.05794 5.5206 9.21738 5.11718 10.4118 5.11765Z" stroke="black" stroke-width="0.5" stroke-linecap="round" stroke-linejoin="round"/>
</svg>
