<svg width="60" height="60" viewBox="0 0 60 60" fill="none" xmlns="http://www.w3.org/2000/svg">
<path d="M30 3.75C28.5082 3.75 27.0774 4.34263 26.0225 5.39752C24.9676 6.45242 24.375 7.88316 24.375 9.375C24.375 10.8668 24.9676 12.2976 26.0225 13.3525C27.0774 14.4074 28.5082 15 30 15C31.4918 15 32.9226 14.4074 33.9775 13.3525C35.0324 12.2976 35.625 10.8668 35.625 9.375C35.625 7.88316 35.0324 6.45242 33.9775 5.39752C32.9226 4.34263 31.4918 3.75 30 3.75ZM20.625 9.375C20.625 6.8886 21.6127 4.50403 23.3709 2.74587C25.129 0.98772 27.5136 0 30 0C32.4864 0 34.871 0.98772 36.6291 2.74587C38.3873 4.50403 39.375 6.8886 39.375 9.375C39.375 11.8614 38.3873 14.246 36.6291 16.0041C34.871 17.7623 32.4864 18.75 30 18.75C27.5136 18.75 25.129 17.7623 23.3709 16.0041C21.6127 14.246 20.625 11.8614 20.625 9.375ZM50.625 7.5C49.6304 7.5 48.6766 7.89509 47.9734 8.59835C47.2701 9.30161 46.875 10.2554 46.875 11.25C46.875 12.2446 47.2701 13.1984 47.9734 13.9016C48.6766 14.6049 49.6304 15 50.625 15C51.6196 15 52.5734 14.6049 53.2767 13.9016C53.9799 13.1984 54.375 12.2446 54.375 11.25C54.375 10.2554 53.9799 9.30161 53.2767 8.59835C52.5734 7.89509 51.6196 7.5 50.625 7.5ZM43.125 11.25C43.125 9.26088 43.9152 7.35322 45.3217 5.9467C46.7282 4.54018 48.6359 3.75 50.625 3.75C52.6141 3.75 54.5218 4.54018 55.9283 5.9467C57.3348 7.35322 58.125 9.26088 58.125 11.25C58.125 13.2391 57.3348 15.1468 55.9283 16.5533C54.5218 17.9598 52.6141 18.75 50.625 18.75C48.6359 18.75 46.7282 17.9598 45.3217 16.5533C43.9152 15.1468 43.125 13.2391 43.125 11.25ZM5.625 11.25C5.625 10.2554 6.02009 9.30161 6.72335 8.59835C7.42661 7.89509 8.38044 7.5 9.375 7.5C10.3696 7.5 11.3234 7.89509 12.0266 8.59835C12.7299 9.30161 13.125 10.2554 13.125 11.25C13.125 12.2446 12.7299 13.1984 12.0266 13.9016C11.3234 14.6049 10.3696 15 9.375 15C8.38044 15 7.42661 14.6049 6.72335 13.9016C6.02009 13.1984 5.625 12.2446 5.625 11.25ZM9.375 3.75C7.38588 3.75 5.47822 4.54018 4.0717 5.9467C2.66518 7.35322 1.875 9.26088 1.875 11.25C1.875 13.2391 2.66518 15.1468 4.0717 16.5533C5.47822 17.9598 7.38588 18.75 9.375 18.75C11.3641 18.75 13.2718 17.9598 14.6783 16.5533C16.0848 15.1468 16.875 13.2391 16.875 11.25C16.875 9.26088 16.0848 7.35322 14.6783 5.9467C13.2718 4.54018 11.3641 3.75 9.375 3.75ZM11.625 48.7425C10.6096 48.7933 9.59451 48.6372 8.64134 48.2836C7.68817 47.93 6.81684 47.3863 6.0803 46.6855C5.34376 45.9847 4.75737 45.1415 4.35678 44.2071C3.95619 43.2727 3.74975 42.2666 3.75 41.25V27.1875C3.75 26.9389 3.84877 26.7004 4.02459 26.5246C4.2004 26.3488 4.43886 26.25 4.6875 26.25H11.3025C11.4525 24.8738 11.94 23.595 12.6713 22.5H4.6875C2.1 22.5 6.68927e-08 24.6 6.68927e-08 27.1875V41.25C-0.000174997 42.8554 0.34327 44.4423 1.00726 45.904C1.67124 47.3657 2.64039 48.6684 3.84958 49.7245C5.05877 50.7806 6.47999 51.5656 8.01775 52.0269C9.55551 52.4882 11.1742 52.6149 12.765 52.3988C12.2603 51.2224 11.8783 49.9972 11.625 48.7425ZM47.235 52.3988C48.8258 52.6149 50.4445 52.4882 51.9823 52.0269C53.52 51.5656 54.9412 50.7806 56.1504 49.7245C57.3596 48.6684 58.3288 47.3657 58.9927 45.904C59.6567 44.4423 60.0002 42.8554 60 41.25V27.1875C60 24.6 57.9 22.5 55.3125 22.5H47.3288C48.0638 23.595 48.5475 24.8738 48.6975 26.25H55.3125C55.5611 26.25 55.7996 26.3488 55.9754 26.5246C56.1512 26.7004 56.25 26.9389 56.25 27.1875V41.25C56.2503 42.2666 56.0438 43.2727 55.6432 44.2071C55.2426 45.1415 54.6562 45.9847 53.9197 46.6855C53.1832 47.3863 52.3118 47.93 51.3587 48.2836C50.4055 48.6372 49.3904 48.7933 48.375 48.7425C48.1217 49.9972 47.7396 51.2224 47.235 52.3988ZM19.6875 22.5C17.1 22.5 15 24.6 15 27.1875V45C15 48.9782 16.5804 52.7936 19.3934 55.6066C22.2064 58.4196 26.0218 60 30 60C33.9782 60 37.7936 58.4196 40.6066 55.6066C43.4196 52.7936 45 48.9782 45 45V27.1875C45 24.6 42.9 22.5 40.3125 22.5H19.6875ZM18.75 27.1875C18.75 26.9389 18.8488 26.7004 19.0246 26.5246C19.2004 26.3488 19.4389 26.25 19.6875 26.25H40.3125C40.5611 26.25 40.7996 26.3488 40.9754 26.5246C41.1512 26.7004 41.25 26.9389 41.25 27.1875V45C41.25 47.9837 40.0647 50.8452 37.955 52.955C35.8452 55.0647 32.9837 56.25 30 56.25C27.0163 56.25 24.1548 55.0647 22.045 52.955C19.9353 50.8452 18.75 47.9837 18.75 45V27.1875Z" fill="#123637"/>
</svg>
