<svg width="547" height="404" viewBox="0 0 547 404" fill="none" xmlns="http://www.w3.org/2000/svg">
<path d="M5.61133 12.0957C5.61133 12.54 5.49919 12.9146 5.2749 13.2192C5.05485 13.5197 4.73747 13.7461 4.32275 13.8984C3.91227 14.0508 3.42139 14.127 2.8501 14.127C2.36344 14.127 1.94238 14.0889 1.58691 14.0127C1.23145 13.9365 0.92041 13.8286 0.653809 13.689V12.7178C0.937337 12.8574 1.27588 12.9844 1.66943 13.0986C2.06299 13.2129 2.46501 13.27 2.87549 13.27C3.4764 13.27 3.91227 13.1727 4.18311 12.978C4.45394 12.7834 4.58936 12.5189 4.58936 12.1846C4.58936 11.9941 4.53434 11.827 4.42432 11.6831C4.31852 11.535 4.13867 11.3932 3.88477 11.2578C3.63086 11.1182 3.27962 10.9658 2.83105 10.8008C2.38672 10.6315 2.00163 10.4644 1.67578 10.2993C1.35417 10.13 1.10449 9.9248 0.926758 9.68359C0.753255 9.44238 0.666504 9.12923 0.666504 8.74414C0.666504 8.15592 0.903483 7.70524 1.37744 7.39209C1.85563 7.07471 2.48193 6.91602 3.25635 6.91602C3.67529 6.91602 4.06673 6.95833 4.43066 7.04297C4.79883 7.12337 5.1416 7.2334 5.45898 7.37305L5.10352 8.21729C4.81576 8.09456 4.50895 7.99089 4.18311 7.90625C3.85726 7.82161 3.52507 7.7793 3.18652 7.7793C2.69987 7.7793 2.32536 7.8597 2.06299 8.02051C1.80485 8.18132 1.67578 8.40137 1.67578 8.68066C1.67578 8.89648 1.73503 9.07422 1.85352 9.21387C1.97624 9.35352 2.1709 9.4847 2.4375 9.60742C2.7041 9.73014 3.05534 9.87402 3.49121 10.0391C3.92708 10.1999 4.30371 10.367 4.62109 10.5405C4.93848 10.7098 5.1818 10.9172 5.35107 11.1626C5.52458 11.4038 5.61133 11.7148 5.61133 12.0957ZM8.35986 4.12305V7.07471C8.35986 7.24398 8.35563 7.41536 8.34717 7.58887C8.3387 7.75814 8.32389 7.91471 8.30273 8.05859H8.37256C8.51644 7.81315 8.6984 7.60791 8.91846 7.44287C9.14274 7.2736 9.39665 7.14665 9.68018 7.06201C9.9637 6.97314 10.2642 6.92871 10.5815 6.92871C11.1401 6.92871 11.6056 7.01758 11.978 7.19531C12.3547 7.37305 12.6361 7.64811 12.8223 8.02051C13.0127 8.3929 13.1079 8.87533 13.1079 9.46777V14H12.0669V9.5376C12.0669 8.95785 11.9336 8.52409 11.667 8.23633C11.4046 7.94857 11.0005 7.80469 10.4546 7.80469C9.93831 7.80469 9.52572 7.90413 9.2168 8.10303C8.91211 8.29769 8.69206 8.58545 8.55664 8.96631C8.42546 9.34717 8.35986 9.81266 8.35986 10.3628V14H7.30615V4.12305H8.35986ZM21.2773 10.5088C21.2773 11.0801 21.2033 11.59 21.0552 12.0386C20.9071 12.4871 20.6934 12.8659 20.4141 13.1748C20.1348 13.4837 19.7962 13.7207 19.3984 13.8857C19.0049 14.0465 18.5584 14.127 18.0591 14.127C17.5936 14.127 17.1662 14.0465 16.7769 13.8857C16.3918 13.7207 16.0575 13.4837 15.7739 13.1748C15.4946 12.8659 15.2767 12.4871 15.1201 12.0386C14.9678 11.59 14.8916 11.0801 14.8916 10.5088C14.8916 9.74707 15.0207 9.09961 15.2788 8.56641C15.5369 8.02897 15.9051 7.62061 16.3833 7.34131C16.8657 7.05778 17.4391 6.91602 18.1035 6.91602C18.7383 6.91602 19.2926 7.05778 19.7666 7.34131C20.2448 7.62484 20.6151 8.03532 20.8774 8.57275C21.144 9.10596 21.2773 9.7513 21.2773 10.5088ZM15.9834 10.5088C15.9834 11.0674 16.0575 11.5519 16.2056 11.9624C16.3537 12.3729 16.5822 12.6903 16.8911 12.9146C17.2 13.1388 17.5978 13.251 18.0845 13.251C18.5669 13.251 18.9626 13.1388 19.2715 12.9146C19.5846 12.6903 19.8153 12.3729 19.9634 11.9624C20.1115 11.5519 20.1855 11.0674 20.1855 10.5088C20.1855 9.95443 20.1115 9.47624 19.9634 9.07422C19.8153 8.66797 19.5868 8.35482 19.2778 8.13477C18.9689 7.91471 18.569 7.80469 18.0781 7.80469C17.3545 7.80469 16.8234 8.04378 16.4849 8.52197C16.1506 9.00016 15.9834 9.66243 15.9834 10.5088ZM26.2603 6.91602C26.3999 6.91602 26.5459 6.92448 26.6982 6.94141C26.8506 6.9541 26.986 6.97314 27.1045 6.99854L26.9712 7.97607C26.8569 7.94645 26.73 7.92318 26.5903 7.90625C26.4507 7.88932 26.3195 7.88086 26.1968 7.88086C25.9175 7.88086 25.653 7.93799 25.4033 8.05225C25.1579 8.16227 24.9421 8.32308 24.7559 8.53467C24.5697 8.74202 24.4237 8.99382 24.3179 9.29004C24.2121 9.58203 24.1592 9.90788 24.1592 10.2676V14H23.0991V7.04297H23.9751L24.0894 8.3252H24.1338C24.2777 8.06706 24.4512 7.83219 24.6543 7.62061C24.8574 7.40479 25.0923 7.2334 25.3589 7.10645C25.6297 6.97949 25.9302 6.91602 26.2603 6.91602ZM30.6655 13.2637C30.839 13.2637 31.0168 13.2489 31.1987 13.2192C31.3807 13.1896 31.5288 13.1536 31.6431 13.1113V13.9302C31.5203 13.9852 31.349 14.0317 31.1289 14.0698C30.9131 14.1079 30.7015 14.127 30.4941 14.127C30.126 14.127 29.7917 14.0635 29.4912 13.9365C29.1908 13.8053 28.9495 13.5853 28.7676 13.2764C28.5898 12.9674 28.501 12.54 28.501 11.9941V7.86816H27.5107V7.354L28.5073 6.94141L28.9263 5.43066H29.561V7.04297H31.5986V7.86816H29.561V11.9624C29.561 12.3983 29.6605 12.7241 29.8594 12.9399C30.0625 13.1558 30.3312 13.2637 30.6655 13.2637ZM37.4829 7.04297V14H36.4292V7.04297H37.4829ZM36.9688 4.44043C37.1423 4.44043 37.2904 4.49756 37.4131 4.61182C37.54 4.72184 37.6035 4.89535 37.6035 5.13232C37.6035 5.36507 37.54 5.53857 37.4131 5.65283C37.2904 5.76709 37.1423 5.82422 36.9688 5.82422C36.7868 5.82422 36.6344 5.76709 36.5117 5.65283C36.3932 5.53857 36.334 5.36507 36.334 5.13232C36.334 4.89535 36.3932 4.72184 36.5117 4.61182C36.6344 4.49756 36.7868 4.44043 36.9688 4.44043ZM43.0117 6.91602C43.8369 6.91602 44.4611 7.11914 44.8843 7.52539C45.3075 7.92741 45.519 8.57487 45.519 9.46777V14H44.478V9.5376C44.478 8.95785 44.3447 8.52409 44.0781 8.23633C43.8158 7.94857 43.4116 7.80469 42.8657 7.80469C42.0955 7.80469 41.5539 8.02262 41.2407 8.4585C40.9276 8.89437 40.771 9.52702 40.771 10.3564V14H39.7173V7.04297H40.5679L40.7266 8.0459H40.7837C40.9318 7.80046 41.1201 7.59521 41.3486 7.43018C41.5771 7.2609 41.8332 7.13395 42.1167 7.04932C42.4002 6.96045 42.6986 6.91602 43.0117 6.91602ZM50.7876 7.86816H49.0547V14H48.001V7.86816H46.7695V7.36035L48.001 7.01123V6.54785C48.001 5.96387 48.0877 5.48991 48.2612 5.12598C48.4347 4.75781 48.6865 4.48698 49.0166 4.31348C49.3467 4.13997 49.7487 4.05322 50.2227 4.05322C50.4893 4.05322 50.7326 4.0765 50.9526 4.12305C51.1769 4.1696 51.3737 4.22249 51.543 4.28174L51.27 5.11328C51.1261 5.06673 50.9632 5.02441 50.7812 4.98633C50.6035 4.94401 50.4215 4.92285 50.2354 4.92285C49.8333 4.92285 49.535 5.05404 49.3403 5.31641C49.1499 5.57454 49.0547 5.98079 49.0547 6.53516V7.04297H50.7876V7.86816ZM58.0684 10.5088C58.0684 11.0801 57.9943 11.59 57.8462 12.0386C57.6981 12.4871 57.4844 12.8659 57.2051 13.1748C56.9258 13.4837 56.5872 13.7207 56.1895 13.8857C55.7959 14.0465 55.3494 14.127 54.8501 14.127C54.3846 14.127 53.9572 14.0465 53.5679 13.8857C53.1828 13.7207 52.8485 13.4837 52.5649 13.1748C52.2856 12.8659 52.0677 12.4871 51.9111 12.0386C51.7588 11.59 51.6826 11.0801 51.6826 10.5088C51.6826 9.74707 51.8117 9.09961 52.0698 8.56641C52.328 8.02897 52.6961 7.62061 53.1743 7.34131C53.6567 7.05778 54.2301 6.91602 54.8945 6.91602C55.5293 6.91602 56.0837 7.05778 56.5576 7.34131C57.0358 7.62484 57.4061 8.03532 57.6685 8.57275C57.9351 9.10596 58.0684 9.7513 58.0684 10.5088ZM52.7744 10.5088C52.7744 11.0674 52.8485 11.5519 52.9966 11.9624C53.1447 12.3729 53.3732 12.6903 53.6821 12.9146C53.991 13.1388 54.3888 13.251 54.8755 13.251C55.3579 13.251 55.7536 13.1388 56.0625 12.9146C56.3757 12.6903 56.6063 12.3729 56.7544 11.9624C56.9025 11.5519 56.9766 11.0674 56.9766 10.5088C56.9766 9.95443 56.9025 9.47624 56.7544 9.07422C56.6063 8.66797 56.3778 8.35482 56.0688 8.13477C55.7599 7.91471 55.36 7.80469 54.8691 7.80469C54.1455 7.80469 53.6144 8.04378 53.2759 8.52197C52.9416 9.00016 52.7744 9.66243 52.7744 10.5088ZM63.0513 6.91602C63.1909 6.91602 63.3369 6.92448 63.4893 6.94141C63.6416 6.9541 63.777 6.97314 63.8955 6.99854L63.7622 7.97607C63.6479 7.94645 63.521 7.92318 63.3813 7.90625C63.2417 7.88932 63.1105 7.88086 62.9878 7.88086C62.7085 7.88086 62.444 7.93799 62.1943 8.05225C61.9489 8.16227 61.7331 8.32308 61.5469 8.53467C61.3607 8.74202 61.2147 8.99382 61.1089 9.29004C61.0031 9.58203 60.9502 9.90788 60.9502 10.2676V14H59.8901V7.04297H60.7661L60.8804 8.3252H60.9248C61.0687 8.06706 61.2422 7.83219 61.4453 7.62061C61.6484 7.40479 61.8833 7.2334 62.1499 7.10645C62.4207 6.97949 62.7212 6.91602 63.0513 6.91602ZM72.7632 6.91602C73.5291 6.91602 74.1068 7.11702 74.4961 7.51904C74.8854 7.91683 75.0801 8.55794 75.0801 9.44238V14H74.0391V9.49316C74.0391 8.93034 73.9163 8.50928 73.6709 8.22998C73.4297 7.94645 73.07 7.80469 72.5918 7.80469C71.9189 7.80469 71.4302 7.99935 71.1255 8.38867C70.8208 8.77799 70.6685 9.3514 70.6685 10.1089V14H69.6211V9.49316C69.6211 9.11654 69.5661 8.80339 69.4561 8.55371C69.3503 8.30404 69.1895 8.11784 68.9736 7.99512C68.762 7.86816 68.4933 7.80469 68.1675 7.80469C67.7062 7.80469 67.3359 7.8999 67.0566 8.09033C66.7773 8.28076 66.5742 8.56429 66.4473 8.94092C66.3245 9.31331 66.2632 9.77246 66.2632 10.3184V14H65.2095V7.04297H66.0601L66.2188 8.02686H66.2759C66.4155 7.78564 66.5911 7.58252 66.8027 7.41748C67.0143 7.25244 67.2513 7.1276 67.5137 7.04297C67.776 6.95833 68.0553 6.91602 68.3516 6.91602C68.8805 6.91602 69.3228 7.01546 69.6782 7.21436C70.0379 7.40902 70.2982 7.70736 70.459 8.10938H70.5161C70.7446 7.70736 71.0578 7.40902 71.4556 7.21436C71.8534 7.01546 72.2892 6.91602 72.7632 6.91602ZM79.8472 6.92871C80.6766 6.92871 81.2923 7.11491 81.6943 7.4873C82.0964 7.8597 82.2974 8.45426 82.2974 9.271V14H81.5293L81.3262 12.9717H81.2754C81.0807 13.2256 80.8776 13.4393 80.666 13.6128C80.4544 13.7821 80.209 13.9111 79.9297 14C79.6546 14.0846 79.3161 14.127 78.9141 14.127C78.4909 14.127 78.1143 14.0529 77.7842 13.9048C77.4583 13.7567 77.2002 13.5324 77.0098 13.2319C76.8236 12.9315 76.7305 12.5506 76.7305 12.0894C76.7305 11.3953 77.0055 10.8621 77.5557 10.4897C78.1058 10.1174 78.9437 9.91423 80.0693 9.88037L81.269 9.82959V9.4043C81.269 8.80339 81.14 8.38232 80.8818 8.14111C80.6237 7.8999 80.2598 7.7793 79.79 7.7793C79.4261 7.7793 79.0791 7.83219 78.749 7.93799C78.4189 8.04378 78.1058 8.16862 77.8096 8.3125L77.4858 7.5127C77.799 7.35189 78.1587 7.21436 78.5649 7.1001C78.9712 6.98584 79.3986 6.92871 79.8472 6.92871ZM81.2563 10.5723L80.1963 10.6167C79.3288 10.6506 78.7173 10.7923 78.3618 11.042C78.0063 11.2917 77.8286 11.645 77.8286 12.1021C77.8286 12.4998 77.9492 12.7939 78.1904 12.9844C78.4316 13.1748 78.7511 13.27 79.1489 13.27C79.7668 13.27 80.2725 13.0986 80.666 12.7559C81.0596 12.4131 81.2563 11.8989 81.2563 11.2134V10.5723ZM86.7153 13.2637C86.8888 13.2637 87.0666 13.2489 87.2485 13.2192C87.4305 13.1896 87.5786 13.1536 87.6929 13.1113V13.9302C87.5701 13.9852 87.3988 14.0317 87.1787 14.0698C86.9629 14.1079 86.7513 14.127 86.5439 14.127C86.1758 14.127 85.8415 14.0635 85.541 13.9365C85.2406 13.8053 84.9993 13.5853 84.8174 13.2764C84.6396 12.9674 84.5508 12.54 84.5508 11.9941V7.86816H83.5605V7.354L84.5571 6.94141L84.9761 5.43066H85.6108V7.04297H87.6484V7.86816H85.6108V11.9624C85.6108 12.3983 85.7103 12.7241 85.9092 12.9399C86.1123 13.1558 86.381 13.2637 86.7153 13.2637ZM90.1558 7.04297V14H89.1021V7.04297H90.1558ZM89.6416 4.44043C89.8151 4.44043 89.9632 4.49756 90.0859 4.61182C90.2129 4.72184 90.2764 4.89535 90.2764 5.13232C90.2764 5.36507 90.2129 5.53857 90.0859 5.65283C89.9632 5.76709 89.8151 5.82422 89.6416 5.82422C89.4596 5.82422 89.3073 5.76709 89.1846 5.65283C89.0661 5.53857 89.0068 5.36507 89.0068 5.13232C89.0068 4.89535 89.0661 4.72184 89.1846 4.61182C89.3073 4.49756 89.4596 4.44043 89.6416 4.44043ZM93.9199 14L91.2793 7.04297H92.4092L93.939 11.2515C94.0448 11.5392 94.1527 11.8566 94.2627 12.2036C94.3727 12.5506 94.4489 12.8299 94.4912 13.0415H94.5356C94.5864 12.8299 94.6711 12.5506 94.7896 12.2036C94.908 11.8524 95.016 11.535 95.1133 11.2515L96.6431 7.04297H97.7729L95.126 14H93.9199ZM101.569 6.91602C102.161 6.91602 102.669 7.0472 103.092 7.30957C103.515 7.57194 103.839 7.9401 104.063 8.41406C104.288 8.88379 104.4 9.43392 104.4 10.0645V10.7183H99.5947C99.6074 11.535 99.8105 12.1571 100.204 12.5845C100.598 13.0119 101.152 13.2256 101.867 13.2256C102.307 13.2256 102.697 13.1854 103.035 13.105C103.374 13.0246 103.725 12.9061 104.089 12.7495V13.6763C103.738 13.8328 103.389 13.9471 103.042 14.019C102.699 14.091 102.292 14.127 101.823 14.127C101.154 14.127 100.57 13.9915 100.071 13.7207C99.5757 13.4456 99.1906 13.0436 98.9155 12.5146C98.6405 11.9857 98.5029 11.3382 98.5029 10.5723C98.5029 9.82324 98.6278 9.17578 98.8774 8.62988C99.1313 8.07975 99.4868 7.65658 99.9438 7.36035C100.405 7.06413 100.947 6.91602 101.569 6.91602ZM101.556 7.7793C100.993 7.7793 100.545 7.96338 100.21 8.33154C99.8761 8.69971 99.6772 9.21387 99.6138 9.87402H103.295C103.291 9.45931 103.226 9.09538 103.099 8.78223C102.976 8.46484 102.788 8.2194 102.534 8.0459C102.28 7.86816 101.954 7.7793 101.556 7.7793ZM111.097 14L108.456 7.04297H109.586L111.116 11.2515C111.222 11.5392 111.329 11.8566 111.439 12.2036C111.549 12.5506 111.626 12.8299 111.668 13.0415H111.712C111.763 12.8299 111.848 12.5506 111.966 12.2036C112.085 11.8524 112.193 11.535 112.29 11.2515L113.82 7.04297H114.95L112.303 14H111.097ZM117.121 7.04297V14H116.067V7.04297H117.121ZM116.606 4.44043C116.78 4.44043 116.928 4.49756 117.051 4.61182C117.178 4.72184 117.241 4.89535 117.241 5.13232C117.241 5.36507 117.178 5.53857 117.051 5.65283C116.928 5.76709 116.78 5.82422 116.606 5.82422C116.424 5.82422 116.272 5.76709 116.149 5.65283C116.031 5.53857 115.972 5.36507 115.972 5.13232C115.972 4.89535 116.031 4.72184 116.149 4.61182C116.272 4.49756 116.424 4.44043 116.606 4.44043ZM121.831 14.127C120.95 14.127 120.252 13.8265 119.736 13.2256C119.224 12.6247 118.968 11.7318 118.968 10.5469C118.968 9.34928 119.23 8.4458 119.755 7.83643C120.28 7.22282 120.978 6.91602 121.85 6.91602C122.218 6.91602 122.539 6.96468 122.814 7.06201C123.09 7.15934 123.326 7.29053 123.525 7.45557C123.724 7.61637 123.891 7.80046 124.027 8.00781H124.103C124.086 7.87663 124.069 7.69678 124.052 7.46826C124.035 7.23975 124.027 7.05355 124.027 6.90967V4.12305H125.081V14H124.23L124.071 13.0098H124.027C123.896 13.2171 123.729 13.4054 123.525 13.5747C123.326 13.744 123.087 13.8794 122.808 13.981C122.533 14.0783 122.207 14.127 121.831 14.127ZM121.996 13.251C122.74 13.251 123.267 13.0394 123.576 12.6162C123.885 12.193 124.04 11.5646 124.04 10.731V10.5405C124.04 9.65609 123.891 8.97689 123.595 8.50293C123.303 8.02897 122.77 7.79199 121.996 7.79199C121.348 7.79199 120.864 8.04167 120.542 8.54102C120.22 9.03613 120.06 9.71322 120.06 10.5723C120.06 11.4271 120.218 12.0872 120.536 12.5527C120.857 13.0182 121.344 13.251 121.996 13.251ZM129.994 6.91602C130.586 6.91602 131.094 7.0472 131.517 7.30957C131.94 7.57194 132.264 7.9401 132.488 8.41406C132.713 8.88379 132.825 9.43392 132.825 10.0645V10.7183H128.02C128.032 11.535 128.235 12.1571 128.629 12.5845C129.022 13.0119 129.577 13.2256 130.292 13.2256C130.732 13.2256 131.121 13.1854 131.46 13.105C131.799 13.0246 132.15 12.9061 132.514 12.7495V13.6763C132.162 13.8328 131.813 13.9471 131.466 14.019C131.124 14.091 130.717 14.127 130.248 14.127C129.579 14.127 128.995 13.9915 128.496 13.7207C128 13.4456 127.615 13.0436 127.34 12.5146C127.065 11.9857 126.928 11.3382 126.928 10.5723C126.928 9.82324 127.053 9.17578 127.302 8.62988C127.556 8.07975 127.912 7.65658 128.369 7.36035C128.83 7.06413 129.372 6.91602 129.994 6.91602ZM129.981 7.7793C129.418 7.7793 128.97 7.96338 128.635 8.33154C128.301 8.69971 128.102 9.21387 128.039 9.87402H131.72C131.716 9.45931 131.65 9.09538 131.523 8.78223C131.401 8.46484 131.212 8.2194 130.958 8.0459C130.705 7.86816 130.379 7.7793 129.981 7.7793ZM140.613 10.5088C140.613 11.0801 140.539 11.59 140.391 12.0386C140.243 12.4871 140.029 12.8659 139.75 13.1748C139.471 13.4837 139.132 13.7207 138.734 13.8857C138.341 14.0465 137.894 14.127 137.395 14.127C136.93 14.127 136.502 14.0465 136.113 13.8857C135.728 13.7207 135.393 13.4837 135.11 13.1748C134.831 12.8659 134.613 12.4871 134.456 12.0386C134.304 11.59 134.228 11.0801 134.228 10.5088C134.228 9.74707 134.357 9.09961 134.615 8.56641C134.873 8.02897 135.241 7.62061 135.719 7.34131C136.202 7.05778 136.775 6.91602 137.439 6.91602C138.074 6.91602 138.629 7.05778 139.103 7.34131C139.581 7.62484 139.951 8.03532 140.213 8.57275C140.48 9.10596 140.613 9.7513 140.613 10.5088ZM135.319 10.5088C135.319 11.0674 135.393 11.5519 135.542 11.9624C135.69 12.3729 135.918 12.6903 136.227 12.9146C136.536 13.1388 136.934 13.251 137.42 13.251C137.903 13.251 138.299 13.1388 138.607 12.9146C138.921 12.6903 139.151 12.3729 139.299 11.9624C139.447 11.5519 139.521 11.0674 139.521 10.5088C139.521 9.95443 139.447 9.47624 139.299 9.07422C139.151 8.66797 138.923 8.35482 138.614 8.13477C138.305 7.91471 137.905 7.80469 137.414 7.80469C136.69 7.80469 136.159 8.04378 135.821 8.52197C135.486 9.00016 135.319 9.66243 135.319 10.5088ZM146.936 12.0957C146.936 12.54 146.823 12.9146 146.599 13.2192C146.379 13.5197 146.062 13.7461 145.647 13.8984C145.236 14.0508 144.746 14.127 144.174 14.127C143.688 14.127 143.267 14.0889 142.911 14.0127C142.556 13.9365 142.245 13.8286 141.978 13.689V12.7178C142.262 12.8574 142.6 12.9844 142.994 13.0986C143.387 13.2129 143.789 13.27 144.2 13.27C144.801 13.27 145.236 13.1727 145.507 12.978C145.778 12.7834 145.914 12.5189 145.914 12.1846C145.914 11.9941 145.859 11.827 145.749 11.6831C145.643 11.535 145.463 11.3932 145.209 11.2578C144.955 11.1182 144.604 10.9658 144.155 10.8008C143.711 10.6315 143.326 10.4644 143 10.2993C142.678 10.13 142.429 9.9248 142.251 9.68359C142.077 9.44238 141.991 9.12923 141.991 8.74414C141.991 8.15592 142.228 7.70524 142.702 7.39209C143.18 7.07471 143.806 6.91602 144.581 6.91602C145 6.91602 145.391 6.95833 145.755 7.04297C146.123 7.12337 146.466 7.2334 146.783 7.37305L146.428 8.21729C146.14 8.09456 145.833 7.99089 145.507 7.90625C145.181 7.82161 144.849 7.7793 144.511 7.7793C144.024 7.7793 143.65 7.8597 143.387 8.02051C143.129 8.18132 143 8.40137 143 8.68066C143 8.89648 143.059 9.07422 143.178 9.21387C143.3 9.35352 143.495 9.4847 143.762 9.60742C144.028 9.73014 144.38 9.87402 144.815 10.0391C145.251 10.1999 145.628 10.367 145.945 10.5405C146.263 10.7098 146.506 10.9172 146.675 11.1626C146.849 11.4038 146.936 11.7148 146.936 12.0957Z" fill="black"/>
<path d="M467.777 188.72C468.539 188.72 469.167 188.815 469.662 189.005C470.161 189.192 470.534 189.477 470.779 189.862C471.025 190.247 471.147 190.738 471.147 191.335C471.147 191.826 471.059 192.236 470.881 192.566C470.703 192.892 470.47 193.157 470.183 193.36C469.895 193.563 469.588 193.72 469.262 193.83L471.808 198H470.551L468.278 194.128H466.349V198H465.27V188.72H467.777ZM467.713 189.653H466.349V193.214H467.821C468.579 193.214 469.135 193.059 469.491 192.75C469.85 192.442 470.03 191.987 470.03 191.386C470.03 190.755 469.84 190.309 469.459 190.046C469.082 189.784 468.5 189.653 467.713 189.653ZM475.813 190.916C476.405 190.916 476.913 191.047 477.336 191.31C477.76 191.572 478.083 191.94 478.308 192.414C478.532 192.884 478.644 193.434 478.644 194.064V194.718H473.839C473.852 195.535 474.055 196.157 474.448 196.584C474.842 197.012 475.396 197.226 476.111 197.226C476.551 197.226 476.941 197.185 477.279 197.105C477.618 197.025 477.969 196.906 478.333 196.75V197.676C477.982 197.833 477.633 197.947 477.286 198.019C476.943 198.091 476.537 198.127 476.067 198.127C475.398 198.127 474.814 197.992 474.315 197.721C473.82 197.446 473.435 197.044 473.16 196.515C472.885 195.986 472.747 195.338 472.747 194.572C472.747 193.823 472.872 193.176 473.122 192.63C473.375 192.08 473.731 191.657 474.188 191.36C474.649 191.064 475.191 190.916 475.813 190.916ZM475.8 191.779C475.237 191.779 474.789 191.963 474.455 192.332C474.12 192.7 473.921 193.214 473.858 193.874H477.54C477.535 193.459 477.47 193.095 477.343 192.782C477.22 192.465 477.032 192.219 476.778 192.046C476.524 191.868 476.198 191.779 475.8 191.779ZM483.037 190.929C483.866 190.929 484.482 191.115 484.884 191.487C485.286 191.86 485.487 192.454 485.487 193.271V198H484.719L484.516 196.972H484.465C484.27 197.226 484.067 197.439 483.855 197.613C483.644 197.782 483.398 197.911 483.119 198C482.844 198.085 482.506 198.127 482.104 198.127C481.68 198.127 481.304 198.053 480.974 197.905C480.648 197.757 480.39 197.532 480.199 197.232C480.013 196.931 479.92 196.551 479.92 196.089C479.92 195.395 480.195 194.862 480.745 194.49C481.295 194.117 482.133 193.914 483.259 193.88L484.458 193.83V193.404C484.458 192.803 484.329 192.382 484.071 192.141C483.813 191.9 483.449 191.779 482.979 191.779C482.616 191.779 482.269 191.832 481.938 191.938C481.608 192.044 481.295 192.169 480.999 192.312L480.675 191.513C480.988 191.352 481.348 191.214 481.754 191.1C482.161 190.986 482.588 190.929 483.037 190.929ZM484.446 194.572L483.386 194.617C482.518 194.651 481.907 194.792 481.551 195.042C481.196 195.292 481.018 195.645 481.018 196.102C481.018 196.5 481.139 196.794 481.38 196.984C481.621 197.175 481.941 197.27 482.338 197.27C482.956 197.27 483.462 197.099 483.855 196.756C484.249 196.413 484.446 195.899 484.446 195.213V194.572ZM490.133 198.127C489.253 198.127 488.555 197.826 488.039 197.226C487.527 196.625 487.271 195.732 487.271 194.547C487.271 193.349 487.533 192.446 488.058 191.836C488.582 191.223 489.281 190.916 490.152 190.916C490.521 190.916 490.842 190.965 491.117 191.062C491.392 191.159 491.629 191.291 491.828 191.456C492.027 191.616 492.194 191.8 492.33 192.008H492.406C492.389 191.877 492.372 191.697 492.355 191.468C492.338 191.24 492.33 191.054 492.33 190.91V188.123H493.383V198H492.533L492.374 197.01H492.33C492.198 197.217 492.031 197.405 491.828 197.575C491.629 197.744 491.39 197.879 491.111 197.981C490.836 198.078 490.51 198.127 490.133 198.127ZM490.298 197.251C491.043 197.251 491.57 197.039 491.879 196.616C492.188 196.193 492.342 195.565 492.342 194.731V194.541C492.342 193.656 492.194 192.977 491.898 192.503C491.606 192.029 491.073 191.792 490.298 191.792C489.651 191.792 489.166 192.042 488.845 192.541C488.523 193.036 488.362 193.713 488.362 194.572C488.362 195.427 488.521 196.087 488.838 196.553C489.16 197.018 489.647 197.251 490.298 197.251ZM496.671 191.043V198H495.618V191.043H496.671ZM496.157 188.44C496.331 188.44 496.479 188.498 496.602 188.612C496.729 188.722 496.792 188.895 496.792 189.132C496.792 189.365 496.729 189.539 496.602 189.653C496.479 189.767 496.331 189.824 496.157 189.824C495.975 189.824 495.823 189.767 495.7 189.653C495.582 189.539 495.522 189.365 495.522 189.132C495.522 188.895 495.582 188.722 495.7 188.612C495.823 188.498 495.975 188.44 496.157 188.44ZM502.2 190.916C503.025 190.916 503.65 191.119 504.073 191.525C504.496 191.927 504.708 192.575 504.708 193.468V198H503.667V193.538C503.667 192.958 503.533 192.524 503.267 192.236C503.004 191.949 502.6 191.805 502.054 191.805C501.284 191.805 500.742 192.023 500.429 192.458C500.116 192.894 499.959 193.527 499.959 194.356V198H498.906V191.043H499.756L499.915 192.046H499.972C500.12 191.8 500.309 191.595 500.537 191.43C500.766 191.261 501.022 191.134 501.305 191.049C501.589 190.96 501.887 190.916 502.2 190.916ZM508.821 201.123C507.907 201.123 507.202 200.952 506.707 200.609C506.212 200.27 505.964 199.794 505.964 199.181C505.964 198.745 506.102 198.372 506.377 198.063C506.656 197.755 507.041 197.549 507.532 197.448C507.35 197.363 507.194 197.236 507.062 197.067C506.936 196.898 506.872 196.703 506.872 196.483C506.872 196.229 506.942 196.007 507.082 195.816C507.225 195.622 507.443 195.436 507.735 195.258C507.371 195.11 507.075 194.86 506.847 194.509C506.622 194.153 506.51 193.741 506.51 193.271C506.51 192.772 506.614 192.346 506.821 191.995C507.029 191.64 507.329 191.369 507.723 191.183C508.116 190.996 508.592 190.903 509.151 190.903C509.274 190.903 509.396 190.91 509.519 190.922C509.646 190.931 509.767 190.946 509.881 190.967C509.995 190.984 510.095 191.005 510.179 191.03H512.566V191.709L511.284 191.868C511.411 192.033 511.516 192.232 511.601 192.465C511.686 192.698 511.728 192.956 511.728 193.239C511.728 193.933 511.493 194.486 511.023 194.896C510.554 195.302 509.908 195.505 509.087 195.505C508.893 195.505 508.694 195.488 508.491 195.455C508.283 195.569 508.125 195.696 508.015 195.835C507.909 195.975 507.856 196.136 507.856 196.318C507.856 196.453 507.896 196.561 507.977 196.642C508.061 196.722 508.182 196.781 508.338 196.819C508.495 196.853 508.683 196.87 508.903 196.87H510.128C510.886 196.87 511.466 197.029 511.868 197.346C512.274 197.664 512.477 198.127 512.477 198.736C512.477 199.507 512.164 200.097 511.538 200.507C510.911 200.918 510.006 201.123 508.821 201.123ZM508.853 200.298C509.428 200.298 509.904 200.239 510.281 200.12C510.662 200.006 510.945 199.839 511.131 199.619C511.322 199.403 511.417 199.145 511.417 198.844C511.417 198.565 511.354 198.353 511.227 198.209C511.1 198.07 510.913 197.977 510.668 197.93C510.423 197.879 510.122 197.854 509.767 197.854H508.561C508.247 197.854 507.974 197.903 507.742 198C507.509 198.097 507.329 198.241 507.202 198.432C507.079 198.622 507.018 198.859 507.018 199.143C507.018 199.519 507.177 199.805 507.494 200C507.812 200.198 508.264 200.298 508.853 200.298ZM509.125 194.737C509.629 194.737 510.008 194.61 510.262 194.356C510.516 194.103 510.643 193.732 510.643 193.246C510.643 192.725 510.514 192.336 510.255 192.078C509.997 191.815 509.616 191.684 509.113 191.684C508.63 191.684 508.258 191.819 507.996 192.09C507.737 192.357 507.608 192.748 507.608 193.265C507.608 193.739 507.74 194.103 508.002 194.356C508.264 194.61 508.639 194.737 509.125 194.737ZM517.473 188.72H520.101C521.26 188.72 522.132 188.893 522.716 189.24C523.3 189.587 523.592 190.178 523.592 191.011C523.592 191.371 523.522 191.695 523.382 191.982C523.247 192.266 523.048 192.501 522.786 192.687C522.523 192.873 522.2 193.002 521.814 193.074V193.138C522.221 193.201 522.58 193.318 522.894 193.487C523.207 193.656 523.452 193.893 523.63 194.198C523.808 194.502 523.896 194.89 523.896 195.359C523.896 195.931 523.763 196.413 523.497 196.807C523.234 197.2 522.862 197.499 522.379 197.702C521.897 197.901 521.326 198 520.666 198H517.473V188.72ZM518.552 192.7H520.329C521.137 192.7 521.696 192.566 522.005 192.3C522.318 192.033 522.475 191.644 522.475 191.132C522.475 190.603 522.288 190.222 521.916 189.989C521.548 189.757 520.96 189.64 520.151 189.64H518.552V192.7ZM518.552 193.607V197.08H520.481C521.307 197.08 521.891 196.919 522.233 196.597C522.576 196.271 522.748 195.833 522.748 195.283C522.748 194.932 522.669 194.632 522.513 194.382C522.36 194.132 522.111 193.942 521.764 193.811C521.421 193.675 520.962 193.607 520.386 193.607H518.552ZM526.778 198H525.718V188.123H526.778V198ZM535.005 194.509C535.005 195.08 534.931 195.59 534.783 196.039C534.635 196.487 534.421 196.866 534.142 197.175C533.862 197.484 533.524 197.721 533.126 197.886C532.732 198.047 532.286 198.127 531.787 198.127C531.321 198.127 530.894 198.047 530.504 197.886C530.119 197.721 529.785 197.484 529.501 197.175C529.222 196.866 529.004 196.487 528.848 196.039C528.695 195.59 528.619 195.08 528.619 194.509C528.619 193.747 528.748 193.1 529.006 192.566C529.264 192.029 529.633 191.621 530.111 191.341C530.593 191.058 531.167 190.916 531.831 190.916C532.466 190.916 533.02 191.058 533.494 191.341C533.972 191.625 534.343 192.035 534.605 192.573C534.872 193.106 535.005 193.751 535.005 194.509ZM529.711 194.509C529.711 195.067 529.785 195.552 529.933 195.962C530.081 196.373 530.31 196.69 530.619 196.915C530.928 197.139 531.325 197.251 531.812 197.251C532.294 197.251 532.69 197.139 532.999 196.915C533.312 196.69 533.543 196.373 533.691 195.962C533.839 195.552 533.913 195.067 533.913 194.509C533.913 193.954 533.839 193.476 533.691 193.074C533.543 192.668 533.314 192.355 533.005 192.135C532.696 191.915 532.297 191.805 531.806 191.805C531.082 191.805 530.551 192.044 530.212 192.522C529.878 193 529.711 193.662 529.711 194.509ZM538.769 201.123C537.855 201.123 537.15 200.952 536.655 200.609C536.16 200.27 535.913 199.794 535.913 199.181C535.913 198.745 536.05 198.372 536.325 198.063C536.604 197.755 536.99 197.549 537.48 197.448C537.299 197.363 537.142 197.236 537.011 197.067C536.884 196.898 536.82 196.703 536.82 196.483C536.82 196.229 536.89 196.007 537.03 195.816C537.174 195.622 537.392 195.436 537.684 195.258C537.32 195.11 537.023 194.86 536.795 194.509C536.571 194.153 536.458 193.741 536.458 193.271C536.458 192.772 536.562 192.346 536.77 191.995C536.977 191.64 537.277 191.369 537.671 191.183C538.064 190.996 538.541 190.903 539.099 190.903C539.222 190.903 539.345 190.91 539.467 190.922C539.594 190.931 539.715 190.946 539.829 190.967C539.943 190.984 540.043 191.005 540.127 191.03H542.514V191.709L541.232 191.868C541.359 192.033 541.465 192.232 541.549 192.465C541.634 192.698 541.676 192.956 541.676 193.239C541.676 193.933 541.441 194.486 540.972 194.896C540.502 195.302 539.857 195.505 539.036 195.505C538.841 195.505 538.642 195.488 538.439 195.455C538.232 195.569 538.073 195.696 537.963 195.835C537.857 195.975 537.804 196.136 537.804 196.318C537.804 196.453 537.844 196.561 537.925 196.642C538.009 196.722 538.13 196.781 538.287 196.819C538.443 196.853 538.632 196.87 538.852 196.87H540.077C540.834 196.87 541.414 197.029 541.816 197.346C542.222 197.664 542.425 198.127 542.425 198.736C542.425 199.507 542.112 200.097 541.486 200.507C540.86 200.918 539.954 201.123 538.769 201.123ZM538.801 200.298C539.376 200.298 539.852 200.239 540.229 200.12C540.61 200.006 540.893 199.839 541.08 199.619C541.27 199.403 541.365 199.145 541.365 198.844C541.365 198.565 541.302 198.353 541.175 198.209C541.048 198.07 540.862 197.977 540.616 197.93C540.371 197.879 540.07 197.854 539.715 197.854H538.509C538.196 197.854 537.923 197.903 537.69 198C537.457 198.097 537.277 198.241 537.15 198.432C537.028 198.622 536.966 198.859 536.966 199.143C536.966 199.519 537.125 199.805 537.442 200C537.76 200.198 538.213 200.298 538.801 200.298ZM539.074 194.737C539.577 194.737 539.956 194.61 540.21 194.356C540.464 194.103 540.591 193.732 540.591 193.246C540.591 192.725 540.462 192.336 540.204 192.078C539.945 191.815 539.565 191.684 539.061 191.684C538.579 191.684 538.206 191.819 537.944 192.09C537.686 192.357 537.557 192.748 537.557 193.265C537.557 193.739 537.688 194.103 537.95 194.356C538.213 194.61 538.587 194.737 539.074 194.737Z" fill="black"/>
<path d="M379.349 14H378.27V4.71973H383.437V5.67188H379.349V9.07422H383.189V10.02H379.349V14ZM387.988 6.91602C388.127 6.91602 388.273 6.92448 388.426 6.94141C388.578 6.9541 388.714 6.97314 388.832 6.99854L388.699 7.97607C388.584 7.94645 388.458 7.92318 388.318 7.90625C388.178 7.88932 388.047 7.88086 387.924 7.88086C387.645 7.88086 387.381 7.93799 387.131 8.05225C386.885 8.16227 386.67 8.32308 386.483 8.53467C386.297 8.74202 386.151 8.99382 386.045 9.29004C385.94 9.58203 385.887 9.90788 385.887 10.2676V14H384.827V7.04297H385.703L385.817 8.3252H385.861C386.005 8.06706 386.179 7.83219 386.382 7.62061C386.585 7.40479 386.82 7.2334 387.086 7.10645C387.357 6.97949 387.658 6.91602 387.988 6.91602ZM392.825 6.91602C393.417 6.91602 393.925 7.0472 394.348 7.30957C394.771 7.57194 395.095 7.9401 395.319 8.41406C395.544 8.88379 395.656 9.43392 395.656 10.0645V10.7183H390.851C390.863 11.535 391.066 12.1571 391.46 12.5845C391.854 13.0119 392.408 13.2256 393.123 13.2256C393.563 13.2256 393.952 13.1854 394.291 13.105C394.63 13.0246 394.981 12.9061 395.345 12.7495V13.6763C394.993 13.8328 394.644 13.9471 394.297 14.019C393.955 14.091 393.548 14.127 393.079 14.127C392.41 14.127 391.826 13.9915 391.327 13.7207C390.832 13.4456 390.446 13.0436 390.171 12.5146C389.896 11.9857 389.759 11.3382 389.759 10.5723C389.759 9.82324 389.884 9.17578 390.133 8.62988C390.387 8.07975 390.743 7.65658 391.2 7.36035C391.661 7.06413 392.203 6.91602 392.825 6.91602ZM392.812 7.7793C392.249 7.7793 391.801 7.96338 391.466 8.33154C391.132 8.69971 390.933 9.21387 390.87 9.87402H394.551C394.547 9.45931 394.481 9.09538 394.354 8.78223C394.232 8.46484 394.043 8.2194 393.79 8.0459C393.536 7.86816 393.21 7.7793 392.812 7.7793ZM402.111 17.1104V14.127C402.111 13.9619 402.116 13.7715 402.124 13.5557C402.132 13.3398 402.147 13.1536 402.168 12.9971H402.099C401.904 13.3187 401.627 13.5874 401.267 13.8032C400.907 14.019 400.444 14.127 399.877 14.127C399.026 14.127 398.343 13.8265 397.827 13.2256C397.31 12.6247 397.052 11.7275 397.052 10.5342C397.052 9.7513 397.171 9.09115 397.408 8.55371C397.645 8.01628 397.979 7.61003 398.411 7.33496C398.847 7.05566 399.354 6.91602 399.934 6.91602C400.488 6.91602 400.941 7.02604 401.292 7.24609C401.644 7.46191 401.919 7.7264 402.118 8.03955H402.168L402.327 7.04297H403.165V17.1104H402.111ZM400.074 13.251C400.565 13.251 400.958 13.16 401.254 12.978C401.551 12.7918 401.766 12.5125 401.902 12.1401C402.042 11.7677 402.116 11.3044 402.124 10.75V10.5278C402.124 9.6307 401.972 8.9515 401.667 8.49023C401.362 8.02474 400.831 7.79199 400.074 7.79199C399.422 7.79199 398.938 8.04167 398.62 8.54102C398.303 9.03613 398.144 9.70898 398.144 10.5596C398.144 11.4102 398.303 12.0724 398.62 12.5464C398.938 13.0161 399.422 13.251 400.074 13.251ZM411.15 7.04297V14H410.287L410.135 13.0225H410.078C409.934 13.2637 409.748 13.4668 409.519 13.6318C409.291 13.7969 409.032 13.9196 408.745 14C408.461 14.0846 408.159 14.127 407.837 14.127C407.287 14.127 406.826 14.0381 406.453 13.8604C406.081 13.6826 405.799 13.4076 405.609 13.0352C405.423 12.6628 405.33 12.1846 405.33 11.6006V7.04297H406.396V11.5244C406.396 12.1042 406.527 12.5379 406.79 12.8257C407.052 13.1092 407.452 13.251 407.989 13.251C408.506 13.251 408.916 13.1536 409.221 12.959C409.53 12.7643 409.752 12.4787 409.887 12.1021C410.023 11.7212 410.09 11.2557 410.09 10.7056V7.04297H411.15ZM416.057 6.91602C416.65 6.91602 417.157 7.0472 417.581 7.30957C418.004 7.57194 418.327 7.9401 418.552 8.41406C418.776 8.88379 418.888 9.43392 418.888 10.0645V10.7183H414.083C414.096 11.535 414.299 12.1571 414.692 12.5845C415.086 13.0119 415.64 13.2256 416.355 13.2256C416.796 13.2256 417.185 13.1854 417.523 13.105C417.862 13.0246 418.213 12.9061 418.577 12.7495V13.6763C418.226 13.8328 417.877 13.9471 417.53 14.019C417.187 14.091 416.781 14.127 416.311 14.127C415.642 14.127 415.058 13.9915 414.559 13.7207C414.064 13.4456 413.679 13.0436 413.404 12.5146C413.129 11.9857 412.991 11.3382 412.991 10.5723C412.991 9.82324 413.116 9.17578 413.366 8.62988C413.62 8.07975 413.975 7.65658 414.432 7.36035C414.893 7.06413 415.435 6.91602 416.057 6.91602ZM416.044 7.7793C415.482 7.7793 415.033 7.96338 414.699 8.33154C414.364 8.69971 414.166 9.21387 414.102 9.87402H417.784C417.779 9.45931 417.714 9.09538 417.587 8.78223C417.464 8.46484 417.276 8.2194 417.022 8.0459C416.768 7.86816 416.442 7.7793 416.044 7.7793ZM423.973 6.91602C424.798 6.91602 425.422 7.11914 425.845 7.52539C426.268 7.92741 426.48 8.57487 426.48 9.46777V14H425.439V9.5376C425.439 8.95785 425.306 8.52409 425.039 8.23633C424.777 7.94857 424.373 7.80469 423.827 7.80469C423.056 7.80469 422.515 8.02262 422.202 8.4585C421.889 8.89437 421.732 9.52702 421.732 10.3564V14H420.678V7.04297H421.529L421.688 8.0459H421.745C421.893 7.80046 422.081 7.59521 422.31 7.43018C422.538 7.2609 422.794 7.13395 423.078 7.04932C423.361 6.96045 423.66 6.91602 423.973 6.91602ZM430.898 13.2637C431.071 13.2637 431.249 13.2489 431.431 13.2192C431.613 13.1896 431.761 13.1536 431.875 13.1113V13.9302C431.753 13.9852 431.581 14.0317 431.361 14.0698C431.146 14.1079 430.934 14.127 430.727 14.127C430.358 14.127 430.024 14.0635 429.724 13.9365C429.423 13.8053 429.182 13.5853 429 13.2764C428.822 12.9674 428.733 12.54 428.733 11.9941V7.86816H427.743V7.354L428.74 6.94141L429.159 5.43066H429.793V7.04297H431.831V7.86816H429.793V11.9624C429.793 12.3983 429.893 12.7241 430.092 12.9399C430.295 13.1558 430.564 13.2637 430.898 13.2637ZM434.345 14H433.285V4.12305H434.345V14ZM435.475 7.04297H436.604L438.141 11.0801C438.229 11.3171 438.312 11.5456 438.388 11.7656C438.464 11.9814 438.532 12.1888 438.591 12.3877C438.651 12.5866 438.697 12.7791 438.731 12.9653H438.775C438.835 12.7537 438.919 12.4766 439.029 12.1338C439.139 11.7868 439.258 11.4334 439.385 11.0737L440.838 7.04297H441.975L438.947 15.022C438.786 15.4494 438.598 15.8218 438.382 16.1392C438.17 16.4565 437.912 16.6999 437.607 16.8691C437.303 17.0426 436.935 17.1294 436.503 17.1294C436.304 17.1294 436.128 17.1167 435.976 17.0913C435.824 17.0701 435.693 17.0448 435.583 17.0151V16.1709C435.676 16.1921 435.788 16.2111 435.919 16.228C436.054 16.245 436.194 16.2534 436.338 16.2534C436.6 16.2534 436.827 16.2026 437.017 16.1011C437.212 16.0037 437.379 15.8599 437.519 15.6694C437.658 15.479 437.779 15.2526 437.88 14.9902L438.261 14.0127L435.475 7.04297ZM452.442 14L451.299 11.0547H447.58L446.443 14H445.352L448.982 4.68164H449.954L453.559 14H452.442ZM450.976 10.0962L449.89 7.16992C449.865 7.09375 449.822 6.96891 449.763 6.79541C449.708 6.62191 449.651 6.44206 449.592 6.25586C449.533 6.06966 449.484 5.91943 449.446 5.80518C449.403 5.97868 449.357 6.15218 449.306 6.32568C449.26 6.49495 449.213 6.65365 449.167 6.80176C449.12 6.94564 449.08 7.06836 449.046 7.16992L447.941 10.0962H450.976ZM459.189 12.0957C459.189 12.54 459.077 12.9146 458.853 13.2192C458.633 13.5197 458.316 13.7461 457.901 13.8984C457.49 14.0508 457 14.127 456.428 14.127C455.942 14.127 455.521 14.0889 455.165 14.0127C454.81 13.9365 454.499 13.8286 454.232 13.689V12.7178C454.515 12.8574 454.854 12.9844 455.248 13.0986C455.641 13.2129 456.043 13.27 456.454 13.27C457.055 13.27 457.49 13.1727 457.761 12.978C458.032 12.7834 458.167 12.5189 458.167 12.1846C458.167 11.9941 458.112 11.827 458.002 11.6831C457.897 11.535 457.717 11.3932 457.463 11.2578C457.209 11.1182 456.858 10.9658 456.409 10.8008C455.965 10.6315 455.58 10.4644 455.254 10.2993C454.932 10.13 454.683 9.9248 454.505 9.68359C454.331 9.44238 454.245 9.12923 454.245 8.74414C454.245 8.15592 454.482 7.70524 454.956 7.39209C455.434 7.07471 456.06 6.91602 456.834 6.91602C457.253 6.91602 457.645 6.95833 458.009 7.04297C458.377 7.12337 458.72 7.2334 459.037 7.37305L458.682 8.21729C458.394 8.09456 458.087 7.99089 457.761 7.90625C457.435 7.82161 457.103 7.7793 456.765 7.7793C456.278 7.7793 455.903 7.8597 455.641 8.02051C455.383 8.18132 455.254 8.40137 455.254 8.68066C455.254 8.89648 455.313 9.07422 455.432 9.21387C455.554 9.35352 455.749 9.4847 456.016 9.60742C456.282 9.73014 456.633 9.87402 457.069 10.0391C457.505 10.1999 457.882 10.367 458.199 10.5405C458.517 10.7098 458.76 10.9172 458.929 11.1626C459.103 11.4038 459.189 11.7148 459.189 12.0957ZM461.932 4.12305V9.25195C461.932 9.42122 461.925 9.62858 461.913 9.87402C461.9 10.1152 461.889 10.3289 461.881 10.5151H461.925C462.014 10.4051 462.143 10.2422 462.312 10.0264C462.486 9.81055 462.632 9.63704 462.75 9.50586L465.061 7.04297H466.299L463.5 10.0137L466.502 14H465.232L462.776 10.7056L461.932 11.48V14H460.884V4.12305H461.932ZM470.393 6.91602C470.986 6.91602 471.493 7.0472 471.917 7.30957C472.34 7.57194 472.663 7.9401 472.888 8.41406C473.112 8.88379 473.224 9.43392 473.224 10.0645V10.7183H468.419C468.432 11.535 468.635 12.1571 469.028 12.5845C469.422 13.0119 469.976 13.2256 470.691 13.2256C471.132 13.2256 471.521 13.1854 471.859 13.105C472.198 13.0246 472.549 12.9061 472.913 12.7495V13.6763C472.562 13.8328 472.213 13.9471 471.866 14.019C471.523 14.091 471.117 14.127 470.647 14.127C469.978 14.127 469.394 13.9915 468.895 13.7207C468.4 13.4456 468.015 13.0436 467.74 12.5146C467.465 11.9857 467.327 11.3382 467.327 10.5723C467.327 9.82324 467.452 9.17578 467.702 8.62988C467.956 8.07975 468.311 7.65658 468.768 7.36035C469.229 7.06413 469.771 6.91602 470.393 6.91602ZM470.38 7.7793C469.818 7.7793 469.369 7.96338 469.035 8.33154C468.7 8.69971 468.501 9.21387 468.438 9.87402H472.12C472.115 9.45931 472.05 9.09538 471.923 8.78223C471.8 8.46484 471.612 8.2194 471.358 8.0459C471.104 7.86816 470.778 7.7793 470.38 7.7793ZM477.49 14.127C476.61 14.127 475.911 13.8265 475.395 13.2256C474.883 12.6247 474.627 11.7318 474.627 10.5469C474.627 9.34928 474.889 8.4458 475.414 7.83643C475.939 7.22282 476.637 6.91602 477.509 6.91602C477.877 6.91602 478.199 6.96468 478.474 7.06201C478.749 7.15934 478.986 7.29053 479.185 7.45557C479.383 7.61637 479.551 7.80046 479.686 8.00781H479.762C479.745 7.87663 479.728 7.69678 479.711 7.46826C479.694 7.23975 479.686 7.05355 479.686 6.90967V4.12305H480.74V14H479.889L479.73 13.0098H479.686C479.555 13.2171 479.388 13.4054 479.185 13.5747C478.986 13.744 478.747 13.8794 478.467 13.981C478.192 14.0783 477.866 14.127 477.49 14.127ZM477.655 13.251C478.4 13.251 478.926 13.0394 479.235 12.6162C479.544 12.193 479.699 11.5646 479.699 10.731V10.5405C479.699 9.65609 479.551 8.97689 479.254 8.50293C478.962 8.02897 478.429 7.79199 477.655 7.79199C477.007 7.79199 476.523 8.04167 476.201 8.54102C475.88 9.03613 475.719 9.71322 475.719 10.5723C475.719 11.4271 475.877 12.0872 476.195 12.5527C476.516 13.0182 477.003 13.251 477.655 13.251ZM494.559 9.34717C494.559 10.1089 494.455 10.7987 494.248 11.4165C494.04 12.0343 493.731 12.557 493.321 12.9844C492.915 13.4118 492.407 13.7228 491.797 13.9175L493.981 16.209H492.438L490.642 14.1143C490.587 14.1143 490.53 14.1164 490.471 14.1206C490.416 14.1248 490.361 14.127 490.306 14.127C489.586 14.127 488.958 14.0127 488.42 13.7842C487.887 13.5557 487.443 13.2298 487.087 12.8066C486.736 12.3835 486.472 11.8778 486.294 11.2896C486.12 10.7013 486.034 10.0496 486.034 9.33447C486.034 8.38656 486.19 7.55501 486.503 6.83984C486.817 6.12467 487.291 5.5682 487.925 5.17041C488.564 4.77262 489.364 4.57373 490.325 4.57373C491.243 4.57373 492.015 4.77051 492.642 5.16406C493.272 5.55762 493.748 6.11198 494.07 6.82715C494.396 7.53809 494.559 8.37809 494.559 9.34717ZM487.17 9.34717C487.17 10.1343 487.282 10.8156 487.506 11.3911C487.731 11.9666 488.073 12.411 488.535 12.7241C489 13.0373 489.59 13.1938 490.306 13.1938C491.025 13.1938 491.613 13.0373 492.07 12.7241C492.532 12.411 492.872 11.9666 493.092 11.3911C493.312 10.8156 493.422 10.1343 493.422 9.34717C493.422 8.14958 493.171 7.21436 492.667 6.5415C492.168 5.86442 491.387 5.52588 490.325 5.52588C489.605 5.52588 489.013 5.68034 488.547 5.98926C488.082 6.29818 487.735 6.73828 487.506 7.30957C487.282 7.87663 487.17 8.55583 487.17 9.34717ZM502.214 7.04297V14H501.351L501.198 13.0225H501.141C500.997 13.2637 500.811 13.4668 500.583 13.6318C500.354 13.7969 500.096 13.9196 499.808 14C499.525 14.0846 499.222 14.127 498.9 14.127C498.35 14.127 497.889 14.0381 497.517 13.8604C497.144 13.6826 496.863 13.4076 496.672 13.0352C496.486 12.6628 496.393 12.1846 496.393 11.6006V7.04297H497.459V11.5244C497.459 12.1042 497.591 12.5379 497.853 12.8257C498.115 13.1092 498.515 13.251 499.053 13.251C499.569 13.251 499.979 13.1536 500.284 12.959C500.593 12.7643 500.815 12.4787 500.951 12.1021C501.086 11.7212 501.154 11.2557 501.154 10.7056V7.04297H502.214ZM507.121 6.91602C507.713 6.91602 508.221 7.0472 508.644 7.30957C509.067 7.57194 509.391 7.9401 509.615 8.41406C509.84 8.88379 509.952 9.43392 509.952 10.0645V10.7183H505.146C505.159 11.535 505.362 12.1571 505.756 12.5845C506.149 13.0119 506.704 13.2256 507.419 13.2256C507.859 13.2256 508.248 13.1854 508.587 13.105C508.925 13.0246 509.277 12.9061 509.641 12.7495V13.6763C509.289 13.8328 508.94 13.9471 508.593 14.019C508.25 14.091 507.844 14.127 507.375 14.127C506.706 14.127 506.122 13.9915 505.623 13.7207C505.127 13.4456 504.742 13.0436 504.467 12.5146C504.192 11.9857 504.055 11.3382 504.055 10.5723C504.055 9.82324 504.18 9.17578 504.429 8.62988C504.683 8.07975 505.039 7.65658 505.496 7.36035C505.957 7.06413 506.499 6.91602 507.121 6.91602ZM507.108 7.7793C506.545 7.7793 506.097 7.96338 505.762 8.33154C505.428 8.69971 505.229 9.21387 505.166 9.87402H508.847C508.843 9.45931 508.777 9.09538 508.65 8.78223C508.528 8.46484 508.339 8.2194 508.085 8.0459C507.832 7.86816 507.506 7.7793 507.108 7.7793ZM516.242 12.0957C516.242 12.54 516.13 12.9146 515.906 13.2192C515.686 13.5197 515.368 13.7461 514.954 13.8984C514.543 14.0508 514.052 14.127 513.481 14.127C512.994 14.127 512.573 14.0889 512.218 14.0127C511.862 13.9365 511.551 13.8286 511.285 13.689V12.7178C511.568 12.8574 511.907 12.9844 512.3 13.0986C512.694 13.2129 513.096 13.27 513.506 13.27C514.107 13.27 514.543 13.1727 514.814 12.978C515.085 12.7834 515.22 12.5189 515.22 12.1846C515.22 11.9941 515.165 11.827 515.055 11.6831C514.949 11.535 514.77 11.3932 514.516 11.2578C514.262 11.1182 513.91 10.9658 513.462 10.8008C513.018 10.6315 512.632 10.4644 512.307 10.2993C511.985 10.13 511.735 9.9248 511.558 9.68359C511.384 9.44238 511.297 9.12923 511.297 8.74414C511.297 8.15592 511.534 7.70524 512.008 7.39209C512.486 7.07471 513.113 6.91602 513.887 6.91602C514.306 6.91602 514.698 6.95833 515.062 7.04297C515.43 7.12337 515.772 7.2334 516.09 7.37305L515.734 8.21729C515.447 8.09456 515.14 7.99089 514.814 7.90625C514.488 7.82161 514.156 7.7793 513.817 7.7793C513.331 7.7793 512.956 7.8597 512.694 8.02051C512.436 8.18132 512.307 8.40137 512.307 8.68066C512.307 8.89648 512.366 9.07422 512.484 9.21387C512.607 9.35352 512.802 9.4847 513.068 9.60742C513.335 9.73014 513.686 9.87402 514.122 10.0391C514.558 10.1999 514.935 10.367 515.252 10.5405C515.569 10.7098 515.813 10.9172 515.982 11.1626C516.155 11.4038 516.242 11.7148 516.242 12.0957ZM520.184 13.2637C520.358 13.2637 520.535 13.2489 520.717 13.2192C520.899 13.1896 521.047 13.1536 521.162 13.1113V13.9302C521.039 13.9852 520.868 14.0317 520.647 14.0698C520.432 14.1079 520.22 14.127 520.013 14.127C519.645 14.127 519.31 14.0635 519.01 13.9365C518.709 13.8053 518.468 13.5853 518.286 13.2764C518.108 12.9674 518.02 12.54 518.02 11.9941V7.86816H517.029V7.354L518.026 6.94141L518.445 5.43066H519.08V7.04297H521.117V7.86816H519.08V11.9624C519.08 12.3983 519.179 12.7241 519.378 12.9399C519.581 13.1558 519.85 13.2637 520.184 13.2637ZM523.625 7.04297V14H522.571V7.04297H523.625ZM523.11 4.44043C523.284 4.44043 523.432 4.49756 523.555 4.61182C523.682 4.72184 523.745 4.89535 523.745 5.13232C523.745 5.36507 523.682 5.53857 523.555 5.65283C523.432 5.76709 523.284 5.82422 523.11 5.82422C522.928 5.82422 522.776 5.76709 522.653 5.65283C522.535 5.53857 522.476 5.36507 522.476 5.13232C522.476 4.89535 522.535 4.72184 522.653 4.61182C522.776 4.49756 522.928 4.44043 523.11 4.44043ZM531.857 10.5088C531.857 11.0801 531.783 11.59 531.635 12.0386C531.487 12.4871 531.273 12.8659 530.994 13.1748C530.715 13.4837 530.376 13.7207 529.979 13.8857C529.585 14.0465 529.139 14.127 528.639 14.127C528.174 14.127 527.746 14.0465 527.357 13.8857C526.972 13.7207 526.638 13.4837 526.354 13.1748C526.075 12.8659 525.857 12.4871 525.7 12.0386C525.548 11.59 525.472 11.0801 525.472 10.5088C525.472 9.74707 525.601 9.09961 525.859 8.56641C526.117 8.02897 526.485 7.62061 526.963 7.34131C527.446 7.05778 528.019 6.91602 528.684 6.91602C529.318 6.91602 529.873 7.05778 530.347 7.34131C530.825 7.62484 531.195 8.03532 531.458 8.57275C531.724 9.10596 531.857 9.7513 531.857 10.5088ZM526.563 10.5088C526.563 11.0674 526.638 11.5519 526.786 11.9624C526.934 12.3729 527.162 12.6903 527.471 12.9146C527.78 13.1388 528.178 13.251 528.665 13.251C529.147 13.251 529.543 13.1388 529.852 12.9146C530.165 12.6903 530.395 12.3729 530.543 11.9624C530.692 11.5519 530.766 11.0674 530.766 10.5088C530.766 9.95443 530.692 9.47624 530.543 9.07422C530.395 8.66797 530.167 8.35482 529.858 8.13477C529.549 7.91471 529.149 7.80469 528.658 7.80469C527.935 7.80469 527.403 8.04378 527.065 8.52197C526.731 9.00016 526.563 9.66243 526.563 10.5088ZM536.974 6.91602C537.799 6.91602 538.423 7.11914 538.846 7.52539C539.269 7.92741 539.481 8.57487 539.481 9.46777V14H538.44V9.5376C538.44 8.95785 538.307 8.52409 538.04 8.23633C537.778 7.94857 537.374 7.80469 536.828 7.80469C536.057 7.80469 535.516 8.02262 535.203 8.4585C534.889 8.89437 534.733 9.52702 534.733 10.3564V14H533.679V7.04297H534.53L534.688 8.0459H534.746C534.894 7.80046 535.082 7.59521 535.311 7.43018C535.539 7.2609 535.795 7.13395 536.079 7.04932C536.362 6.96045 536.66 6.91602 536.974 6.91602ZM546.152 12.0957C546.152 12.54 546.04 12.9146 545.816 13.2192C545.596 13.5197 545.278 13.7461 544.864 13.8984C544.453 14.0508 543.962 14.127 543.391 14.127C542.904 14.127 542.483 14.0889 542.128 14.0127C541.772 13.9365 541.461 13.8286 541.195 13.689V12.7178C541.478 12.8574 541.817 12.9844 542.21 13.0986C542.604 13.2129 543.006 13.27 543.417 13.27C544.017 13.27 544.453 13.1727 544.724 12.978C544.995 12.7834 545.13 12.5189 545.13 12.1846C545.13 11.9941 545.075 11.827 544.965 11.6831C544.86 11.535 544.68 11.3932 544.426 11.2578C544.172 11.1182 543.821 10.9658 543.372 10.8008C542.928 10.6315 542.543 10.4644 542.217 10.2993C541.895 10.13 541.646 9.9248 541.468 9.68359C541.294 9.44238 541.208 9.12923 541.208 8.74414C541.208 8.15592 541.444 7.70524 541.918 7.39209C542.397 7.07471 543.023 6.91602 543.797 6.91602C544.216 6.91602 544.608 6.95833 544.972 7.04297C545.34 7.12337 545.683 7.2334 546 7.37305L545.645 8.21729C545.357 8.09456 545.05 7.99089 544.724 7.90625C544.398 7.82161 544.066 7.7793 543.728 7.7793C543.241 7.7793 542.866 7.8597 542.604 8.02051C542.346 8.18132 542.217 8.40137 542.217 8.68066C542.217 8.89648 542.276 9.07422 542.395 9.21387C542.517 9.35352 542.712 9.4847 542.979 9.60742C543.245 9.73014 543.596 9.87402 544.032 10.0391C544.468 10.1999 544.845 10.367 545.162 10.5405C545.479 10.7098 545.723 10.9172 545.892 11.1626C546.066 11.4038 546.152 11.7148 546.152 12.0957Z" fill="black"/>
<path d="M367.237 391.539C366.725 391.539 366.264 391.627 365.853 391.805C365.447 391.979 365.1 392.233 364.812 392.567C364.528 392.897 364.311 393.297 364.158 393.767C364.006 394.236 363.93 394.765 363.93 395.354C363.93 396.132 364.05 396.809 364.292 397.385C364.537 397.956 364.901 398.398 365.383 398.711C365.87 399.025 366.477 399.181 367.205 399.181C367.62 399.181 368.009 399.147 368.373 399.08C368.741 399.008 369.099 398.919 369.446 398.813V399.752C369.107 399.879 368.752 399.972 368.379 400.032C368.007 400.095 367.565 400.127 367.053 400.127C366.109 400.127 365.32 399.932 364.685 399.543C364.055 399.149 363.581 398.595 363.263 397.88C362.95 397.165 362.793 396.32 362.793 395.347C362.793 394.645 362.891 394.004 363.085 393.424C363.284 392.84 363.572 392.336 363.949 391.913C364.33 391.49 364.795 391.164 365.345 390.936C365.9 390.703 366.534 390.586 367.25 390.586C367.719 390.586 368.172 390.633 368.608 390.726C369.044 390.819 369.437 390.952 369.789 391.126L369.357 392.04C369.061 391.905 368.735 391.788 368.379 391.691C368.028 391.589 367.647 391.539 367.237 391.539ZM377.298 396.509C377.298 397.08 377.224 397.59 377.076 398.039C376.928 398.487 376.714 398.866 376.435 399.175C376.155 399.484 375.817 399.721 375.419 399.886C375.025 400.047 374.579 400.127 374.08 400.127C373.614 400.127 373.187 400.047 372.797 399.886C372.412 399.721 372.078 399.484 371.794 399.175C371.515 398.866 371.297 398.487 371.141 398.039C370.988 397.59 370.912 397.08 370.912 396.509C370.912 395.747 371.041 395.1 371.299 394.566C371.557 394.029 371.926 393.621 372.404 393.341C372.886 393.058 373.46 392.916 374.124 392.916C374.759 392.916 375.313 393.058 375.787 393.341C376.265 393.625 376.636 394.035 376.898 394.573C377.165 395.106 377.298 395.751 377.298 396.509ZM372.004 396.509C372.004 397.067 372.078 397.552 372.226 397.962C372.374 398.373 372.603 398.69 372.912 398.915C373.221 399.139 373.618 399.251 374.105 399.251C374.587 399.251 374.983 399.139 375.292 398.915C375.605 398.69 375.836 398.373 375.984 397.962C376.132 397.552 376.206 397.067 376.206 396.509C376.206 395.954 376.132 395.476 375.984 395.074C375.836 394.668 375.607 394.355 375.298 394.135C374.989 393.915 374.59 393.805 374.099 393.805C373.375 393.805 372.844 394.044 372.505 394.522C372.171 395 372.004 395.662 372.004 396.509ZM382.414 392.916C383.239 392.916 383.863 393.119 384.287 393.525C384.71 393.927 384.921 394.575 384.921 395.468V400H383.88V395.538C383.88 394.958 383.747 394.524 383.48 394.236C383.218 393.949 382.814 393.805 382.268 393.805C381.498 393.805 380.956 394.023 380.643 394.458C380.33 394.894 380.173 395.527 380.173 396.356V400H379.12V393.043H379.97L380.129 394.046H380.186C380.334 393.8 380.522 393.595 380.751 393.43C380.979 393.261 381.236 393.134 381.519 393.049C381.803 392.96 382.101 392.916 382.414 392.916ZM389.339 399.264C389.513 399.264 389.691 399.249 389.873 399.219C390.055 399.19 390.203 399.154 390.317 399.111V399.93C390.194 399.985 390.023 400.032 389.803 400.07C389.587 400.108 389.375 400.127 389.168 400.127C388.8 400.127 388.465 400.063 388.165 399.937C387.865 399.805 387.623 399.585 387.441 399.276C387.264 398.967 387.175 398.54 387.175 397.994V393.868H386.185V393.354L387.181 392.941L387.6 391.431H388.235V393.043H390.272V393.868H388.235V397.962C388.235 398.398 388.334 398.724 388.533 398.94C388.736 399.156 389.005 399.264 389.339 399.264ZM394.329 392.929C395.158 392.929 395.774 393.115 396.176 393.487C396.578 393.86 396.779 394.454 396.779 395.271V400H396.011L395.808 398.972H395.757C395.562 399.226 395.359 399.439 395.147 399.613C394.936 399.782 394.69 399.911 394.411 400C394.136 400.085 393.798 400.127 393.396 400.127C392.972 400.127 392.596 400.053 392.266 399.905C391.94 399.757 391.682 399.532 391.491 399.232C391.305 398.931 391.212 398.551 391.212 398.089C391.212 397.395 391.487 396.862 392.037 396.49C392.587 396.117 393.425 395.914 394.551 395.88L395.75 395.83V395.404C395.75 394.803 395.621 394.382 395.363 394.141C395.105 393.9 394.741 393.779 394.271 393.779C393.908 393.779 393.561 393.832 393.23 393.938C392.9 394.044 392.587 394.169 392.291 394.312L391.967 393.513C392.28 393.352 392.64 393.214 393.046 393.1C393.453 392.986 393.88 392.929 394.329 392.929ZM395.738 396.572L394.678 396.617C393.81 396.651 393.199 396.792 392.843 397.042C392.488 397.292 392.31 397.645 392.31 398.102C392.31 398.5 392.431 398.794 392.672 398.984C392.913 399.175 393.233 399.27 393.63 399.27C394.248 399.27 394.754 399.099 395.147 398.756C395.541 398.413 395.738 397.899 395.738 397.213V396.572ZM401.736 400.127C401.11 400.127 400.558 399.998 400.08 399.74C399.601 399.482 399.229 399.088 398.962 398.559C398.696 398.03 398.562 397.364 398.562 396.56C398.562 395.717 398.702 395.03 398.981 394.497C399.265 393.959 399.654 393.561 400.149 393.303C400.645 393.045 401.207 392.916 401.838 392.916C402.185 392.916 402.519 392.952 402.841 393.024C403.167 393.092 403.433 393.178 403.641 393.284L403.323 394.167C403.112 394.082 402.866 394.006 402.587 393.938C402.312 393.87 402.054 393.836 401.812 393.836C401.33 393.836 400.928 393.94 400.606 394.147C400.289 394.355 400.05 394.66 399.889 395.062C399.733 395.464 399.654 395.959 399.654 396.547C399.654 397.11 399.73 397.59 399.883 397.988C400.039 398.386 400.27 398.69 400.575 398.902C400.884 399.109 401.269 399.213 401.73 399.213C402.098 399.213 402.43 399.175 402.727 399.099C403.023 399.018 403.292 398.925 403.533 398.819V399.759C403.3 399.877 403.04 399.968 402.752 400.032C402.468 400.095 402.13 400.127 401.736 400.127ZM407.43 399.264C407.604 399.264 407.781 399.249 407.963 399.219C408.145 399.19 408.293 399.154 408.408 399.111V399.93C408.285 399.985 408.114 400.032 407.894 400.07C407.678 400.108 407.466 400.127 407.259 400.127C406.891 400.127 406.556 400.063 406.256 399.937C405.955 399.805 405.714 399.585 405.532 399.276C405.354 398.967 405.266 398.54 405.266 397.994V393.868H404.275V393.354L405.272 392.941L405.691 391.431H406.326V393.043H408.363V393.868H406.326V397.962C406.326 398.398 406.425 398.724 406.624 398.94C406.827 399.156 407.096 399.264 407.43 399.264ZM410.871 393.043V400H409.817V393.043H410.871ZM410.356 390.44C410.53 390.44 410.678 390.498 410.801 390.612C410.928 390.722 410.991 390.895 410.991 391.132C410.991 391.365 410.928 391.539 410.801 391.653C410.678 391.767 410.53 391.824 410.356 391.824C410.174 391.824 410.022 391.767 409.899 391.653C409.781 391.539 409.722 391.365 409.722 391.132C409.722 390.895 409.781 390.722 409.899 390.612C410.022 390.498 410.174 390.44 410.356 390.44ZM416.399 392.916C417.225 392.916 417.849 393.119 418.272 393.525C418.695 393.927 418.907 394.575 418.907 395.468V400H417.866V395.538C417.866 394.958 417.732 394.524 417.466 394.236C417.203 393.949 416.799 393.805 416.253 393.805C415.483 393.805 414.942 394.023 414.628 394.458C414.315 394.894 414.159 395.527 414.159 396.356V400H413.105V393.043H413.956L414.114 394.046H414.171C414.319 393.8 414.508 393.595 414.736 393.43C414.965 393.261 415.221 393.134 415.504 393.049C415.788 392.96 416.086 392.916 416.399 392.916ZM423.02 403.123C422.106 403.123 421.401 402.952 420.906 402.609C420.411 402.27 420.164 401.794 420.164 401.181C420.164 400.745 420.301 400.372 420.576 400.063C420.855 399.755 421.241 399.549 421.731 399.448C421.549 399.363 421.393 399.236 421.262 399.067C421.135 398.898 421.071 398.703 421.071 398.483C421.071 398.229 421.141 398.007 421.281 397.816C421.425 397.622 421.643 397.436 421.935 397.258C421.571 397.11 421.274 396.86 421.046 396.509C420.822 396.153 420.709 395.741 420.709 395.271C420.709 394.772 420.813 394.346 421.021 393.995C421.228 393.64 421.528 393.369 421.922 393.183C422.315 392.996 422.792 392.903 423.35 392.903C423.473 392.903 423.596 392.91 423.718 392.922C423.845 392.931 423.966 392.946 424.08 392.967C424.194 392.984 424.294 393.005 424.378 393.03H426.765V393.709L425.483 393.868C425.61 394.033 425.716 394.232 425.8 394.465C425.885 394.698 425.927 394.956 425.927 395.239C425.927 395.933 425.692 396.486 425.223 396.896C424.753 397.302 424.108 397.505 423.287 397.505C423.092 397.505 422.893 397.488 422.69 397.455C422.483 397.569 422.324 397.696 422.214 397.835C422.108 397.975 422.055 398.136 422.055 398.318C422.055 398.453 422.095 398.561 422.176 398.642C422.26 398.722 422.381 398.781 422.538 398.819C422.694 398.853 422.882 398.87 423.103 398.87H424.328C425.085 398.87 425.665 399.029 426.067 399.346C426.473 399.664 426.676 400.127 426.676 400.736C426.676 401.507 426.363 402.097 425.737 402.507C425.111 402.918 424.205 403.123 423.02 403.123ZM423.052 402.298C423.627 402.298 424.103 402.239 424.48 402.12C424.861 402.006 425.144 401.839 425.331 401.619C425.521 401.403 425.616 401.145 425.616 400.844C425.616 400.565 425.553 400.353 425.426 400.209C425.299 400.07 425.113 399.977 424.867 399.93C424.622 399.879 424.321 399.854 423.966 399.854H422.76C422.447 399.854 422.174 399.903 421.941 400C421.708 400.097 421.528 400.241 421.401 400.432C421.279 400.622 421.217 400.859 421.217 401.143C421.217 401.519 421.376 401.805 421.693 402C422.011 402.198 422.464 402.298 423.052 402.298ZM423.325 396.737C423.828 396.737 424.207 396.61 424.461 396.356C424.715 396.103 424.842 395.732 424.842 395.246C424.842 394.725 424.713 394.336 424.455 394.078C424.196 393.815 423.816 393.684 423.312 393.684C422.83 393.684 422.457 393.819 422.195 394.09C421.937 394.357 421.808 394.748 421.808 395.265C421.808 395.739 421.939 396.103 422.201 396.356C422.464 396.61 422.838 396.737 423.325 396.737ZM434.522 400H433.437V391.672H430.517V390.72H437.429V391.672H434.522V400ZM439.727 390.123V393.075C439.727 393.244 439.723 393.415 439.714 393.589C439.706 393.758 439.691 393.915 439.67 394.059H439.74C439.884 393.813 440.066 393.608 440.286 393.443C440.51 393.274 440.764 393.147 441.047 393.062C441.331 392.973 441.631 392.929 441.949 392.929C442.507 392.929 442.973 393.018 443.345 393.195C443.722 393.373 444.003 393.648 444.189 394.021C444.38 394.393 444.475 394.875 444.475 395.468V400H443.434V395.538C443.434 394.958 443.301 394.524 443.034 394.236C442.772 393.949 442.368 393.805 441.822 393.805C441.306 393.805 440.893 393.904 440.584 394.103C440.279 394.298 440.059 394.585 439.924 394.966C439.793 395.347 439.727 395.813 439.727 396.363V400H438.673V390.123H439.727ZM449.807 392.916C449.947 392.916 450.093 392.924 450.245 392.941C450.397 392.954 450.533 392.973 450.651 392.999L450.518 393.976C450.404 393.946 450.277 393.923 450.137 393.906C449.998 393.889 449.866 393.881 449.744 393.881C449.464 393.881 449.2 393.938 448.95 394.052C448.705 394.162 448.489 394.323 448.303 394.535C448.117 394.742 447.971 394.994 447.865 395.29C447.759 395.582 447.706 395.908 447.706 396.268V400H446.646V393.043H447.522L447.636 394.325H447.681C447.825 394.067 447.998 393.832 448.201 393.621C448.404 393.405 448.639 393.233 448.906 393.106C449.177 392.979 449.477 392.916 449.807 392.916ZM457.964 396.509C457.964 397.08 457.89 397.59 457.742 398.039C457.594 398.487 457.38 398.866 457.101 399.175C456.821 399.484 456.483 399.721 456.085 399.886C455.691 400.047 455.245 400.127 454.746 400.127C454.28 400.127 453.853 400.047 453.463 399.886C453.078 399.721 452.744 399.484 452.46 399.175C452.181 398.866 451.963 398.487 451.807 398.039C451.654 397.59 451.578 397.08 451.578 396.509C451.578 395.747 451.707 395.1 451.965 394.566C452.223 394.029 452.592 393.621 453.07 393.341C453.552 393.058 454.126 392.916 454.79 392.916C455.425 392.916 455.979 393.058 456.453 393.341C456.931 393.625 457.302 394.035 457.564 394.573C457.831 395.106 457.964 395.751 457.964 396.509ZM452.67 396.509C452.67 397.067 452.744 397.552 452.892 397.962C453.04 398.373 453.269 398.69 453.578 398.915C453.887 399.139 454.284 399.251 454.771 399.251C455.253 399.251 455.649 399.139 455.958 398.915C456.271 398.69 456.502 398.373 456.65 397.962C456.798 397.552 456.872 397.067 456.872 396.509C456.872 395.954 456.798 395.476 456.65 395.074C456.502 394.668 456.273 394.355 455.964 394.135C455.655 393.915 455.256 393.805 454.765 393.805C454.041 393.805 453.51 394.044 453.171 394.522C452.837 395 452.67 395.662 452.67 396.509ZM465.53 393.043V400H464.667L464.515 399.022H464.458C464.314 399.264 464.127 399.467 463.899 399.632C463.67 399.797 463.412 399.92 463.125 400C462.841 400.085 462.538 400.127 462.217 400.127C461.667 400.127 461.205 400.038 460.833 399.86C460.461 399.683 460.179 399.408 459.989 399.035C459.803 398.663 459.709 398.185 459.709 397.601V393.043H460.776V397.524C460.776 398.104 460.907 398.538 461.169 398.826C461.432 399.109 461.832 399.251 462.369 399.251C462.885 399.251 463.296 399.154 463.601 398.959C463.91 398.764 464.132 398.479 464.267 398.102C464.403 397.721 464.47 397.256 464.47 396.706V393.043H465.53ZM469.701 403.123C468.787 403.123 468.082 402.952 467.587 402.609C467.092 402.27 466.844 401.794 466.844 401.181C466.844 400.745 466.982 400.372 467.257 400.063C467.536 399.755 467.921 399.549 468.412 399.448C468.23 399.363 468.074 399.236 467.942 399.067C467.815 398.898 467.752 398.703 467.752 398.483C467.752 398.229 467.822 398.007 467.961 397.816C468.105 397.622 468.323 397.436 468.615 397.258C468.251 397.11 467.955 396.86 467.727 396.509C467.502 396.153 467.39 395.741 467.39 395.271C467.39 394.772 467.494 394.346 467.701 393.995C467.909 393.64 468.209 393.369 468.603 393.183C468.996 392.996 469.472 392.903 470.031 392.903C470.153 392.903 470.276 392.91 470.399 392.922C470.526 392.931 470.646 392.946 470.761 392.967C470.875 392.984 470.974 393.005 471.059 393.03H473.446V393.709L472.164 393.868C472.291 394.033 472.396 394.232 472.481 394.465C472.566 394.698 472.608 394.956 472.608 395.239C472.608 395.933 472.373 396.486 471.903 396.896C471.434 397.302 470.788 397.505 469.967 397.505C469.773 397.505 469.574 397.488 469.371 397.455C469.163 397.569 469.005 397.696 468.895 397.835C468.789 397.975 468.736 398.136 468.736 398.318C468.736 398.453 468.776 398.561 468.856 398.642C468.941 398.722 469.062 398.781 469.218 398.819C469.375 398.853 469.563 398.87 469.783 398.87H471.008C471.766 398.87 472.346 399.029 472.748 399.346C473.154 399.664 473.357 400.127 473.357 400.736C473.357 401.507 473.044 402.097 472.417 402.507C471.791 402.918 470.886 403.123 469.701 403.123ZM469.732 402.298C470.308 402.298 470.784 402.239 471.161 402.12C471.542 402.006 471.825 401.839 472.011 401.619C472.202 401.403 472.297 401.145 472.297 400.844C472.297 400.565 472.233 400.353 472.106 400.209C471.979 400.07 471.793 399.977 471.548 399.93C471.302 399.879 471.002 399.854 470.646 399.854H469.44C469.127 399.854 468.854 399.903 468.622 400C468.389 400.097 468.209 400.241 468.082 400.432C467.959 400.622 467.898 400.859 467.898 401.143C467.898 401.519 468.057 401.805 468.374 402C468.691 402.198 469.144 402.298 469.732 402.298ZM470.005 396.737C470.509 396.737 470.888 396.61 471.142 396.356C471.396 396.103 471.522 395.732 471.522 395.246C471.522 394.725 471.393 394.336 471.135 394.078C470.877 393.815 470.496 393.684 469.993 393.684C469.51 393.684 469.138 393.819 468.875 394.09C468.617 394.357 468.488 394.748 468.488 395.265C468.488 395.739 468.619 396.103 468.882 396.356C469.144 396.61 469.519 396.737 470.005 396.737ZM475.871 390.123V393.075C475.871 393.244 475.866 393.415 475.858 393.589C475.849 393.758 475.835 393.915 475.813 394.059H475.883C476.027 393.813 476.209 393.608 476.429 393.443C476.653 393.274 476.907 393.147 477.191 393.062C477.474 392.973 477.775 392.929 478.092 392.929C478.651 392.929 479.116 393.018 479.489 393.195C479.865 393.373 480.147 393.648 480.333 394.021C480.523 394.393 480.619 394.875 480.619 395.468V400H479.578V395.538C479.578 394.958 479.444 394.524 479.178 394.236C478.915 393.949 478.511 393.805 477.965 393.805C477.449 393.805 477.036 393.904 476.728 394.103C476.423 394.298 476.203 394.585 476.067 394.966C475.936 395.347 475.871 395.813 475.871 396.363V400H474.817V390.123H475.871ZM496.869 390.72L494.387 400H493.301L491.46 393.754C491.405 393.576 491.353 393.398 491.302 393.221C491.255 393.039 491.211 392.867 491.168 392.707C491.126 392.542 491.09 392.398 491.061 392.275C491.035 392.148 491.016 392.053 491.003 391.989C490.995 392.053 490.978 392.146 490.953 392.269C490.931 392.391 490.902 392.533 490.864 392.694C490.83 392.855 490.788 393.026 490.737 393.208C490.69 393.39 490.639 393.574 490.584 393.76L488.794 400H487.709L485.246 390.72H486.37L487.861 396.541C487.912 396.735 487.959 396.928 488.001 397.118C488.048 397.304 488.088 397.486 488.122 397.664C488.16 397.842 488.194 398.015 488.223 398.185C488.253 398.354 488.28 398.519 488.306 398.68C488.327 398.515 488.354 398.343 488.388 398.166C488.422 397.984 488.458 397.799 488.496 397.613C488.538 397.427 488.583 397.239 488.629 397.048C488.68 396.858 488.733 396.667 488.788 396.477L490.458 390.72H491.568L493.308 396.521C493.367 396.72 493.422 396.917 493.473 397.112C493.523 397.306 493.568 397.497 493.606 397.683C493.648 397.865 493.684 398.041 493.714 398.21C493.748 398.375 493.777 398.532 493.803 398.68C493.832 398.472 493.868 398.254 493.911 398.026C493.953 397.797 494.002 397.558 494.057 397.309C494.116 397.059 494.179 396.801 494.247 396.534L495.739 390.72H496.869ZM499.23 390.123V393.075C499.23 393.244 499.226 393.415 499.217 393.589C499.209 393.758 499.194 393.915 499.173 394.059H499.243C499.387 393.813 499.569 393.608 499.789 393.443C500.013 393.274 500.267 393.147 500.55 393.062C500.834 392.973 501.134 392.929 501.452 392.929C502.01 392.929 502.476 393.018 502.848 393.195C503.225 393.373 503.506 393.648 503.692 394.021C503.883 394.393 503.978 394.875 503.978 395.468V400H502.937V395.538C502.937 394.958 502.804 394.524 502.537 394.236C502.275 393.949 501.871 393.805 501.325 393.805C500.808 393.805 500.396 393.904 500.087 394.103C499.782 394.298 499.562 394.585 499.427 394.966C499.296 395.347 499.23 395.813 499.23 396.363V400H498.176V390.123H499.23ZM508.751 392.929C509.581 392.929 510.197 393.115 510.599 393.487C511.001 393.86 511.202 394.454 511.202 395.271V400H510.434L510.23 398.972H510.18C509.985 399.226 509.782 399.439 509.57 399.613C509.359 399.782 509.113 399.911 508.834 400C508.559 400.085 508.22 400.127 507.818 400.127C507.395 400.127 507.019 400.053 506.688 399.905C506.363 399.757 506.104 399.532 505.914 399.232C505.728 398.931 505.635 398.551 505.635 398.089C505.635 397.395 505.91 396.862 506.46 396.49C507.01 396.117 507.848 395.914 508.974 395.88L510.173 395.83V395.404C510.173 394.803 510.044 394.382 509.786 394.141C509.528 393.9 509.164 393.779 508.694 393.779C508.33 393.779 507.983 393.832 507.653 393.938C507.323 394.044 507.01 394.169 506.714 394.312L506.39 393.513C506.703 393.352 507.063 393.214 507.469 393.1C507.875 392.986 508.303 392.929 508.751 392.929ZM510.161 396.572L509.101 396.617C508.233 396.651 507.622 396.792 507.266 397.042C506.911 397.292 506.733 397.645 506.733 398.102C506.733 398.5 506.854 398.794 507.095 398.984C507.336 399.175 507.655 399.27 508.053 399.27C508.671 399.27 509.177 399.099 509.57 398.756C509.964 398.413 510.161 397.899 510.161 397.213V396.572ZM515.62 399.264C515.793 399.264 515.971 399.249 516.153 399.219C516.335 399.19 516.483 399.154 516.597 399.111V399.93C516.474 399.985 516.303 400.032 516.083 400.07C515.867 400.108 515.656 400.127 515.448 400.127C515.08 400.127 514.746 400.063 514.445 399.937C514.145 399.805 513.904 399.585 513.722 399.276C513.544 398.967 513.455 398.54 513.455 397.994V393.868H512.465V393.354L513.461 392.941L513.88 391.431H514.515V393.043H516.553V393.868H514.515V397.962C514.515 398.398 514.615 398.724 514.813 398.94C515.017 399.156 515.285 399.264 515.62 399.264ZM522.507 398.096C522.507 398.54 522.395 398.915 522.17 399.219C521.95 399.52 521.633 399.746 521.218 399.898C520.808 400.051 520.317 400.127 519.746 400.127C519.259 400.127 518.838 400.089 518.482 400.013C518.127 399.937 517.816 399.829 517.549 399.689V398.718C517.833 398.857 518.171 398.984 518.565 399.099C518.958 399.213 519.361 399.27 519.771 399.27C520.372 399.27 520.808 399.173 521.079 398.978C521.349 398.783 521.485 398.519 521.485 398.185C521.485 397.994 521.43 397.827 521.32 397.683C521.214 397.535 521.034 397.393 520.78 397.258C520.526 397.118 520.175 396.966 519.727 396.801C519.282 396.632 518.897 396.464 518.571 396.299C518.25 396.13 518 395.925 517.822 395.684C517.649 395.442 517.562 395.129 517.562 394.744C517.562 394.156 517.799 393.705 518.273 393.392C518.751 393.075 519.377 392.916 520.152 392.916C520.571 392.916 520.962 392.958 521.326 393.043C521.694 393.123 522.037 393.233 522.354 393.373L521.999 394.217C521.711 394.095 521.404 393.991 521.079 393.906C520.753 393.822 520.421 393.779 520.082 393.779C519.595 393.779 519.221 393.86 518.958 394.021C518.7 394.181 518.571 394.401 518.571 394.681C518.571 394.896 518.631 395.074 518.749 395.214C518.872 395.354 519.066 395.485 519.333 395.607C519.6 395.73 519.951 395.874 520.387 396.039C520.823 396.2 521.199 396.367 521.517 396.541C521.834 396.71 522.077 396.917 522.247 397.163C522.42 397.404 522.507 397.715 522.507 398.096ZM526.804 392.929C527.634 392.929 528.249 393.115 528.651 393.487C529.053 393.86 529.254 394.454 529.254 395.271V400H528.486L528.283 398.972H528.232C528.038 399.226 527.835 399.439 527.623 399.613C527.411 399.782 527.166 399.911 526.887 400C526.612 400.085 526.273 400.127 525.871 400.127C525.448 400.127 525.071 400.053 524.741 399.905C524.415 399.757 524.157 399.532 523.967 399.232C523.781 398.931 523.688 398.551 523.688 398.089C523.688 397.395 523.963 396.862 524.513 396.49C525.063 396.117 525.901 395.914 527.026 395.88L528.226 395.83V395.404C528.226 394.803 528.097 394.382 527.839 394.141C527.581 393.9 527.217 393.779 526.747 393.779C526.383 393.779 526.036 393.832 525.706 393.938C525.376 394.044 525.063 394.169 524.767 394.312L524.443 393.513C524.756 393.352 525.116 393.214 525.522 393.1C525.928 392.986 526.356 392.929 526.804 392.929ZM528.213 396.572L527.153 396.617C526.286 396.651 525.674 396.792 525.319 397.042C524.963 397.292 524.786 397.645 524.786 398.102C524.786 398.5 524.906 398.794 525.147 398.984C525.389 399.175 525.708 399.27 526.106 399.27C526.724 399.27 527.229 399.099 527.623 398.756C528.017 398.413 528.213 397.899 528.213 397.213V396.572ZM534.694 392.916C535.562 392.916 536.254 393.214 536.77 393.811C537.286 394.408 537.544 395.305 537.544 396.502C537.544 397.294 537.426 397.958 537.189 398.496C536.952 399.033 536.618 399.439 536.186 399.714C535.759 399.989 535.253 400.127 534.669 400.127C534.301 400.127 533.977 400.078 533.698 399.981C533.418 399.884 533.179 399.752 532.98 399.587C532.782 399.422 532.617 399.243 532.485 399.048H532.409C532.422 399.213 532.437 399.412 532.454 399.645C532.475 399.877 532.485 400.08 532.485 400.254V403.11H531.425V393.043H532.295L532.435 394.071H532.485C532.621 393.86 532.786 393.667 532.98 393.494C533.175 393.316 533.412 393.176 533.691 393.075C533.975 392.969 534.309 392.916 534.694 392.916ZM534.51 393.805C534.028 393.805 533.639 393.898 533.342 394.084C533.05 394.27 532.837 394.549 532.701 394.922C532.566 395.29 532.494 395.753 532.485 396.312V396.515C532.485 397.103 532.549 397.601 532.676 398.007C532.807 398.413 533.021 398.722 533.317 398.934C533.617 399.145 534.019 399.251 534.523 399.251C534.955 399.251 535.314 399.135 535.602 398.902C535.89 398.669 536.104 398.345 536.243 397.931C536.387 397.512 536.459 397.031 536.459 396.49C536.459 395.669 536.298 395.017 535.977 394.535C535.659 394.048 535.17 393.805 534.51 393.805ZM542.654 392.916C543.522 392.916 544.214 393.214 544.73 393.811C545.246 394.408 545.504 395.305 545.504 396.502C545.504 397.294 545.386 397.958 545.149 398.496C544.912 399.033 544.578 399.439 544.146 399.714C543.719 399.989 543.213 400.127 542.629 400.127C542.261 400.127 541.937 400.078 541.658 399.981C541.378 399.884 541.139 399.752 540.94 399.587C540.742 399.422 540.576 399.243 540.445 399.048H540.369C540.382 399.213 540.397 399.412 540.414 399.645C540.435 399.877 540.445 400.08 540.445 400.254V403.11H539.385V393.043H540.255L540.395 394.071H540.445C540.581 393.86 540.746 393.667 540.94 393.494C541.135 393.316 541.372 393.176 541.651 393.075C541.935 392.969 542.269 392.916 542.654 392.916ZM542.47 393.805C541.988 393.805 541.598 393.898 541.302 394.084C541.01 394.27 540.797 394.549 540.661 394.922C540.526 395.29 540.454 395.753 540.445 396.312V396.515C540.445 397.103 540.509 397.601 540.636 398.007C540.767 398.413 540.981 398.722 541.277 398.934C541.577 399.145 541.979 399.251 542.483 399.251C542.915 399.251 543.274 399.135 543.562 398.902C543.85 398.669 544.063 398.345 544.203 397.931C544.347 397.512 544.419 397.031 544.419 396.49C544.419 395.669 544.258 395.017 543.937 394.535C543.619 394.048 543.13 393.805 542.47 393.805Z" fill="black"/>
<path d="M240.49 376C216.728 376 193.246 370.868 171.651 360.954C150.056 351.04 130.856 336.579 115.366 318.559C99.8765 300.54 88.4613 279.387 81.9017 256.549C75.3421 233.71 73.7929 209.724 77.36 186.231C80.9271 162.738 89.5263 140.293 102.57 120.43C115.613 100.568 132.792 83.757 152.933 71.1475C173.073 58.5381 195.7 50.4277 219.265 47.3709C242.829 44.3142 266.776 46.3833 289.468 53.4366L240.49 211L240.49 376Z" fill="#FBA03A" fill-opacity="0.3"/>
<path d="M289.468 53.4366C325.55 64.6526 356.69 87.9133 377.683 119.331L240.49 211L289.468 53.4366Z" fill="#FBA03A"/>
<path d="M377.683 119.331C395.528 146.038 405.19 177.374 405.483 209.493C405.777 241.613 396.689 273.119 379.334 300.148L240.49 211L377.683 119.331Z" fill="#FBA03A" fill-opacity="0.7"/>
<path d="M379.334 300.148C364.398 323.41 343.857 342.547 319.596 355.801C295.336 369.054 268.135 376 240.49 376L240.49 211L379.334 300.148Z" fill="#FBA03A" fill-opacity="0.5"/>
<path d="M403.333 211C403.333 212.473 404.527 213.667 406 213.667C407.473 213.667 408.667 212.473 408.667 211C408.667 209.527 407.473 208.333 406 208.333C404.527 208.333 403.333 209.527 403.333 211ZM406 211.5L547 211.5L547 210.5L406 210.5L406 211.5Z" fill="black"/>
<path d="M345.333 86C345.333 87.4728 346.527 88.6667 348 88.6667C349.473 88.6667 350.667 87.4728 350.667 86C350.667 84.5272 349.473 83.3333 348 83.3333C346.527 83.3333 345.333 84.5272 345.333 86ZM378 28V27.5H377.696L377.556 27.7703L378 28ZM348.444 86.2297L378.444 28.2297L377.556 27.7703L347.556 85.7703L348.444 86.2297ZM378 28.5H547V27.5H378V28.5Z" fill="black"/>
<path d="M180.667 59C180.667 60.4728 179.473 61.6667 178 61.6667C176.527 61.6667 175.333 60.4728 175.333 59C175.333 57.5272 176.527 56.3333 178 56.3333C179.473 56.3333 180.667 57.5272 180.667 59ZM148 28V27.5H148.212L148.359 27.6523L148 28ZM177.641 59.3477L147.641 28.3477L148.359 27.6523L178.359 58.6523L177.641 59.3477ZM148 28.5H0V27.5H148V28.5Z" fill="black"/>
<path d="M344.333 337C344.333 335.527 345.527 334.333 347 334.333C348.473 334.333 349.667 335.527 349.667 337C349.667 338.473 348.473 339.667 347 339.667C345.527 339.667 344.333 338.473 344.333 337ZM378 376V376.5H377.759L377.609 376.311L378 376ZM347.391 336.689L378.391 375.689L377.609 376.311L346.609 337.311L347.391 336.689ZM378 375.5H547V376.5H378V375.5Z" fill="black"/>
</svg>
