<svg width="50" height="40" viewBox="0 0 50 40" fill="none" xmlns="http://www.w3.org/2000/svg">
<path d="M17.2266 22.2344L0.125348 3.73748C0.360084 2.69425 0.911269 1.76666 1.69105 1.10235C2.47085 0.438022 3.4339 0.0758687 4.42652 0.0739746H45.5709C46.5635 0.076311 47.5266 0.438451 48.306 1.10235C49.0858 1.76667 49.6374 2.69425 49.8721 3.73748L32.7736 22.2344C30.7103 24.461 27.9147 25.7114 25 25.7114C22.0853 25.7114 19.2897 24.461 17.2264 22.2344H17.2266ZM3.24932e-06 5.80599V34.7492C-0.00107684 35.7106 0.267135 36.6498 0.768643 37.443L15.01 22.0403L3.24932e-06 5.80599ZM33.7915 23.337C31.4578 25.8549 28.2961 27.2687 24.9997 27.2687C21.7034 27.2687 18.5417 25.8548 16.208 23.337L16.028 23.1423L1.76265 38.5718C2.5295 39.2011 3.46559 39.5411 4.42826 39.5403H45.5699C46.5326 39.5411 47.469 39.2011 48.2359 38.5718L33.9715 23.1423L33.7915 23.337ZM34.99 22.0406L49.2314 37.4433C49.7329 36.6501 50.0011 35.7108 50 34.7495V5.80628L34.99 22.0406Z" fill="#003060"/>
</svg>
