<svg width="1438" height="474" viewBox="0 0 1438 474" fill="none" xmlns="http://www.w3.org/2000/svg">
<rect width="1438" height="152" fill="#68BBE3"/>
<path fill-rule="evenodd" clip-rule="evenodd" d="M1438 474L1398.45 426C1357.71 378 1278.62 282 1198.33 264C1118.04 246 1038.95 306 958.667 312C878.378 318 799.288 270 719 270C638.712 270 559.622 318 479.333 324C399.045 330 319.955 294 239.667 312C159.378 330 80.2883 402 39.5449 438L-5.91278e-05 474V150H39.5449C80.2883 150 159.378 150 239.667 150C319.955 150 399.045 150 479.333 150C559.622 150 638.712 150 719 150C799.288 150 878.378 150 958.667 150C1038.95 150 1118.04 150 1198.33 150C1278.62 150 1357.71 150 1398.45 150H1438V474Z" fill="#68BBE3"/>
</svg>
