<svg width="806" height="257" viewBox="0 0 806 257" fill="none" xmlns="http://www.w3.org/2000/svg">
<rect x="205" width="190" height="190" fill="#E0DBD3"/>
<rect x="616" width="190" height="190" fill="#161615"/>
<rect width="191.021" height="190" fill="#A01811"/>
<rect x="411.25" y="0.25" width="189.5" height="189.5" fill="#FCFBFA" stroke="black" stroke-width="0.5"/>
<path d="M415.775 218H412.797V203.723H420.98V206.203H415.775V209.885H420.619V212.355H415.775V218ZM429.458 206.037C428.878 206.037 428.364 206.151 427.915 206.379C427.472 206.6 427.098 206.923 426.792 207.346C426.492 207.769 426.265 208.28 426.108 208.879C425.952 209.478 425.874 210.152 425.874 210.9C425.874 211.91 425.998 212.772 426.245 213.488C426.499 214.198 426.89 214.742 427.417 215.119C427.944 215.49 428.625 215.676 429.458 215.676C430.037 215.676 430.617 215.611 431.196 215.48C431.782 215.35 432.417 215.165 433.1 214.924V217.463C432.469 217.723 431.847 217.909 431.235 218.02C430.623 218.137 429.936 218.195 429.175 218.195C427.703 218.195 426.492 217.893 425.542 217.287C424.598 216.675 423.898 215.822 423.442 214.729C422.987 213.628 422.759 212.346 422.759 210.881C422.759 209.8 422.905 208.811 423.198 207.912C423.491 207.014 423.921 206.236 424.487 205.578C425.054 204.921 425.753 204.413 426.587 204.055C427.42 203.697 428.377 203.518 429.458 203.518C430.168 203.518 430.877 203.609 431.587 203.791C432.303 203.967 432.987 204.211 433.638 204.523L432.661 206.984C432.127 206.73 431.59 206.509 431.05 206.32C430.509 206.132 429.979 206.037 429.458 206.037ZM438.746 218H435.767V203.723H443.951V206.203H438.746V209.885H443.59V212.355H438.746V218ZM446.364 203.723H450.807C452.708 203.723 454.147 203.99 455.124 204.523C456.1 205.057 456.589 205.995 456.589 207.336C456.589 207.876 456.501 208.365 456.325 208.801C456.156 209.237 455.908 209.595 455.583 209.875C455.257 210.155 454.86 210.337 454.391 210.422V210.52C454.867 210.617 455.296 210.786 455.68 211.027C456.064 211.262 456.37 211.607 456.598 212.062C456.833 212.512 456.95 213.111 456.95 213.859C456.95 214.725 456.738 215.467 456.315 216.086C455.892 216.704 455.286 217.18 454.499 217.512C453.717 217.837 452.786 218 451.706 218H446.364V203.723ZM449.391 209.377H451.149C452.028 209.377 452.637 209.24 452.975 208.967C453.314 208.687 453.483 208.277 453.483 207.736C453.483 207.189 453.281 206.799 452.878 206.564C452.48 206.324 451.849 206.203 450.983 206.203H449.391V209.377ZM449.391 211.779V215.5H451.364C452.275 215.5 452.91 215.324 453.268 214.973C453.626 214.621 453.805 214.149 453.805 213.557C453.805 213.205 453.727 212.896 453.571 212.629C453.415 212.362 453.151 212.154 452.78 212.004C452.415 211.854 451.911 211.779 451.266 211.779H449.391ZM462.4 218H459.421V203.723H467.605V206.203H462.4V209.885H467.244V212.355H462.4V218ZM478.758 218L477.723 214.602H472.518L471.483 218H468.221L473.26 203.664H476.961L482.02 218H478.758ZM477 212.062L475.965 208.742C475.9 208.521 475.812 208.238 475.702 207.893C475.597 207.541 475.49 207.186 475.379 206.828C475.275 206.464 475.19 206.148 475.125 205.881C475.06 206.148 474.969 206.48 474.852 206.877C474.741 207.268 474.634 207.639 474.53 207.99C474.426 208.342 474.351 208.592 474.305 208.742L473.28 212.062H477Z" fill="#161615"/>
<path d="M215.02 218H206.797V203.723H215.02V206.203H209.824V209.338H214.658V211.818H209.824V215.5H215.02V218ZM226.534 210.861C226.534 212.014 226.443 213.042 226.261 213.947C226.085 214.852 225.798 215.62 225.401 216.252C225.011 216.883 224.496 217.365 223.858 217.697C223.22 218.029 222.446 218.195 221.534 218.195C220.388 218.195 219.447 217.906 218.712 217.326C217.976 216.74 217.432 215.9 217.081 214.807C216.729 213.706 216.554 212.391 216.554 210.861C216.554 209.318 216.713 208 217.032 206.906C217.358 205.806 217.885 204.963 218.614 204.377C219.343 203.791 220.317 203.498 221.534 203.498C222.673 203.498 223.611 203.791 224.347 204.377C225.089 204.956 225.639 205.796 225.997 206.896C226.355 207.99 226.534 209.312 226.534 210.861ZM219.552 210.861C219.552 211.949 219.61 212.857 219.727 213.586C219.851 214.309 220.056 214.852 220.343 215.217C220.629 215.581 221.026 215.764 221.534 215.764C222.035 215.764 222.429 215.585 222.716 215.227C223.009 214.862 223.217 214.318 223.341 213.596C223.464 212.867 223.526 211.955 223.526 210.861C223.526 209.774 223.464 208.866 223.341 208.137C223.217 207.408 223.009 206.861 222.716 206.496C222.429 206.125 222.035 205.939 221.534 205.939C221.026 205.939 220.629 206.125 220.343 206.496C220.056 206.861 219.851 207.408 219.727 208.137C219.61 208.866 219.552 209.774 219.552 210.861ZM240.539 210.725C240.539 212.333 240.23 213.677 239.611 214.758C238.999 215.832 238.11 216.643 236.945 217.189C235.78 217.73 234.377 218 232.736 218H228.693V203.723H233.176C234.673 203.723 235.972 203.99 237.072 204.523C238.172 205.051 239.025 205.835 239.631 206.877C240.236 207.912 240.539 209.195 240.539 210.725ZM237.394 210.803C237.394 209.748 237.238 208.882 236.926 208.205C236.62 207.521 236.164 207.017 235.558 206.691C234.959 206.366 234.217 206.203 233.332 206.203H231.72V215.5H233.019C234.497 215.5 235.594 215.106 236.31 214.318C237.033 213.531 237.394 212.359 237.394 210.803ZM243.118 203.723H247.561C249.462 203.723 250.901 203.99 251.878 204.523C252.854 205.057 253.342 205.995 253.342 207.336C253.342 207.876 253.255 208.365 253.079 208.801C252.909 209.237 252.662 209.595 252.337 209.875C252.011 210.155 251.614 210.337 251.145 210.422V210.52C251.62 210.617 252.05 210.786 252.434 211.027C252.818 211.262 253.124 211.607 253.352 212.062C253.587 212.512 253.704 213.111 253.704 213.859C253.704 214.725 253.492 215.467 253.069 216.086C252.646 216.704 252.04 217.18 251.253 217.512C250.471 217.837 249.54 218 248.46 218H243.118V203.723ZM246.145 209.377H247.903C248.782 209.377 249.391 209.24 249.729 208.967C250.068 208.687 250.237 208.277 250.237 207.736C250.237 207.189 250.035 206.799 249.631 206.564C249.234 206.324 248.603 206.203 247.737 206.203H246.145V209.377ZM246.145 211.779V215.5H248.118C249.029 215.5 249.664 215.324 250.022 214.973C250.38 214.621 250.559 214.149 250.559 213.557C250.559 213.205 250.481 212.896 250.325 212.629C250.169 212.362 249.905 212.154 249.534 212.004C249.169 211.854 248.665 211.779 248.02 211.779H246.145ZM268.021 210.725C268.021 212.333 267.712 213.677 267.093 214.758C266.481 215.832 265.593 216.643 264.427 217.189C263.262 217.73 261.859 218 260.218 218H256.175V203.723H260.658C262.155 203.723 263.454 203.99 264.554 204.523C265.654 205.051 266.507 205.835 267.113 206.877C267.718 207.912 268.021 209.195 268.021 210.725ZM264.876 210.803C264.876 209.748 264.72 208.882 264.408 208.205C264.102 207.521 263.646 207.017 263.041 206.691C262.442 206.366 261.699 206.203 260.814 206.203H259.203V215.5H260.501C261.979 215.5 263.076 215.106 263.792 214.318C264.515 213.531 264.876 212.359 264.876 210.803ZM279.028 206.916C279.028 207.574 278.891 208.143 278.618 208.625C278.344 209.107 277.973 209.501 277.504 209.807C277.042 210.113 276.521 210.337 275.942 210.48V210.539C277.088 210.682 277.957 211.034 278.549 211.594C279.148 212.154 279.448 212.902 279.448 213.84C279.448 214.673 279.243 215.419 278.832 216.076C278.429 216.734 277.804 217.251 276.957 217.629C276.111 218.007 275.021 218.195 273.686 218.195C272.898 218.195 272.162 218.13 271.479 218C270.802 217.876 270.164 217.684 269.565 217.424V214.855C270.177 215.168 270.818 215.406 271.489 215.568C272.159 215.725 272.784 215.803 273.364 215.803C274.444 215.803 275.2 215.617 275.629 215.246C276.065 214.868 276.284 214.341 276.284 213.664C276.284 213.267 276.183 212.932 275.981 212.658C275.779 212.385 275.427 212.176 274.926 212.033C274.431 211.89 273.738 211.818 272.846 211.818H271.762V209.504H272.866C273.745 209.504 274.412 209.423 274.868 209.26C275.33 209.09 275.642 208.863 275.805 208.576C275.974 208.283 276.059 207.951 276.059 207.58C276.059 207.072 275.903 206.675 275.59 206.389C275.278 206.102 274.757 205.959 274.028 205.959C273.572 205.959 273.155 206.018 272.778 206.135C272.407 206.245 272.071 206.382 271.772 206.545C271.472 206.701 271.209 206.854 270.981 207.004L269.584 204.924C270.144 204.52 270.799 204.185 271.547 203.918C272.302 203.651 273.201 203.518 274.243 203.518C275.714 203.518 276.879 203.814 277.739 204.406C278.598 204.999 279.028 205.835 279.028 206.916Z" fill="#161615"/>
<path d="M10.5371 218L9.50195 214.602H4.29688L3.26172 218H0L5.03906 203.664H8.74023L13.7988 218H10.5371ZM8.7793 212.062L7.74414 208.742C7.67904 208.521 7.59115 208.238 7.48047 207.893C7.3763 207.541 7.26888 207.186 7.1582 206.828C7.05404 206.464 6.9694 206.148 6.9043 205.881C6.83919 206.148 6.74805 206.48 6.63086 206.877C6.52018 207.268 6.41276 207.639 6.30859 207.99C6.20443 208.342 6.12956 208.592 6.08398 208.742L5.05859 212.062H8.7793ZM24.1317 210.861C24.1317 212.014 24.0406 213.042 23.8583 213.947C23.6825 214.852 23.396 215.62 22.9989 216.252C22.6083 216.883 22.094 217.365 21.4559 217.697C20.8179 218.029 20.0432 218.195 19.1317 218.195C17.9859 218.195 17.0451 217.906 16.3095 217.326C15.5738 216.74 15.0302 215.9 14.6786 214.807C14.327 213.706 14.1512 212.391 14.1512 210.861C14.1512 209.318 14.3108 208 14.6298 206.906C14.9553 205.806 15.4826 204.963 16.2118 204.377C16.941 203.791 17.9143 203.498 19.1317 203.498C20.271 203.498 21.2085 203.791 21.9442 204.377C22.6864 204.956 23.2365 205.796 23.5946 206.896C23.9527 207.99 24.1317 209.312 24.1317 210.861ZM17.1493 210.861C17.1493 211.949 17.2079 212.857 17.3251 213.586C17.4488 214.309 17.6539 214.852 17.9403 215.217C18.2268 215.581 18.6239 215.764 19.1317 215.764C19.633 215.764 20.0269 215.585 20.3134 215.227C20.6063 214.862 20.8147 214.318 20.9384 213.596C21.0621 212.867 21.1239 211.955 21.1239 210.861C21.1239 209.774 21.0621 208.866 20.9384 208.137C20.8147 207.408 20.6063 206.861 20.3134 206.496C20.0269 206.125 19.633 205.939 19.1317 205.939C18.6239 205.939 18.2268 206.125 17.9403 206.496C17.6539 206.861 17.4488 207.408 17.3251 208.137C17.2079 208.866 17.1493 209.774 17.1493 210.861ZM32.7556 218H29.738V209.738C29.738 209.51 29.7413 209.23 29.7478 208.898C29.7543 208.56 29.7641 208.215 29.7771 207.863C29.7901 207.505 29.8032 207.183 29.8162 206.896C29.7446 206.981 29.5981 207.128 29.3767 207.336C29.1619 207.538 28.9601 207.72 28.7712 207.883L27.1306 209.201L25.6755 207.385L30.2752 203.723H32.7556V218ZM41.2819 203.537C42.1022 203.537 42.8574 203.664 43.5475 203.918C44.2441 204.172 44.8008 204.556 45.2174 205.07C45.6341 205.578 45.8424 206.216 45.8424 206.984C45.8424 207.557 45.7285 208.059 45.5006 208.488C45.2793 208.918 44.9765 209.296 44.5924 209.621C44.2083 209.94 43.7721 210.22 43.2838 210.461C43.7916 210.728 44.2734 211.04 44.7291 211.398C45.1849 211.75 45.556 212.163 45.8424 212.639C46.1354 213.114 46.2819 213.667 46.2819 214.299C46.2819 215.093 46.0703 215.783 45.6471 216.369C45.2239 216.949 44.638 217.398 43.8893 217.717C43.1406 218.036 42.2715 218.195 41.2819 218.195C40.2142 218.195 39.306 218.042 38.5573 217.736C37.8086 217.43 37.2389 216.994 36.8483 216.428C36.4577 215.855 36.2623 215.171 36.2623 214.377C36.2623 213.726 36.3828 213.16 36.6237 212.678C36.8711 212.196 37.2031 211.783 37.6198 211.438C38.0364 211.086 38.4954 210.786 38.9967 210.539C38.5735 210.272 38.1862 209.969 37.8346 209.631C37.4896 209.292 37.2129 208.905 37.0045 208.469C36.8027 208.033 36.7018 207.531 36.7018 206.965C36.7018 206.21 36.9134 205.578 37.3366 205.07C37.7663 204.562 38.3294 204.182 39.026 203.928C39.7226 203.667 40.4746 203.537 41.2819 203.537ZM39.0553 214.201C39.0553 214.715 39.2376 215.142 39.6022 215.48C39.9733 215.812 40.5202 215.979 41.2428 215.979C41.9915 215.979 42.5514 215.819 42.9225 215.5C43.2936 215.174 43.4791 214.748 43.4791 214.221C43.4791 213.856 43.3717 213.537 43.1569 213.264C42.9485 212.99 42.6849 212.746 42.3659 212.531C42.0468 212.31 41.7246 212.105 41.3991 211.916L41.1354 211.779C40.7187 211.968 40.3541 212.18 40.0416 212.414C39.7357 212.648 39.4948 212.912 39.319 213.205C39.1432 213.498 39.0553 213.83 39.0553 214.201ZM41.2623 205.744C40.7676 205.744 40.3574 205.871 40.0319 206.125C39.7064 206.379 39.5436 206.737 39.5436 207.199C39.5436 207.525 39.6217 207.811 39.778 208.059C39.9407 208.299 40.1523 208.511 40.4127 208.693C40.6797 208.876 40.9694 209.045 41.2819 209.201C41.5814 209.058 41.8613 208.898 42.1217 208.723C42.3821 208.547 42.5937 208.335 42.7565 208.088C42.9192 207.84 43.0006 207.544 43.0006 207.199C43.0006 206.737 42.8346 206.379 42.5026 206.125C42.1771 205.871 41.7636 205.744 41.2623 205.744ZM54.8862 218H51.8687V209.738C51.8687 209.51 51.8719 209.23 51.8784 208.898C51.8849 208.56 51.8947 208.215 51.9077 207.863C51.9208 207.505 51.9338 207.183 51.9468 206.896C51.8752 206.981 51.7287 207.128 51.5073 207.336C51.2925 207.538 51.0907 207.72 50.9019 207.883L49.2612 209.201L47.8062 207.385L52.4058 203.723H54.8862V218ZM65.9516 218H62.934V209.738C62.934 209.51 62.9372 209.23 62.9437 208.898C62.9503 208.56 62.96 208.215 62.973 207.863C62.9861 207.505 62.9991 207.183 63.0121 206.896C62.9405 206.981 62.794 207.128 62.5727 207.336C62.3578 207.538 62.156 207.72 61.9672 207.883L60.3266 209.201L58.8715 207.385L63.4711 203.723H65.9516V218Z" fill="#161615"/>
<path d="M622.338 250H620.668V237.188H616.176V235.723H626.811V237.188H622.338V250ZM632.406 239.102C633.317 239.102 634.098 239.303 634.749 239.707C635.4 240.111 635.899 240.677 636.244 241.406C636.589 242.129 636.761 242.975 636.761 243.945V244.951H629.369C629.388 246.208 629.701 247.165 630.306 247.822C630.912 248.48 631.764 248.809 632.865 248.809C633.542 248.809 634.141 248.747 634.662 248.623C635.182 248.499 635.723 248.317 636.283 248.076V249.502C635.742 249.743 635.205 249.919 634.671 250.029C634.144 250.14 633.519 250.195 632.796 250.195C631.768 250.195 630.869 249.987 630.101 249.57C629.339 249.147 628.747 248.529 628.324 247.715C627.9 246.901 627.689 245.905 627.689 244.727C627.689 243.574 627.881 242.578 628.265 241.738C628.656 240.892 629.203 240.241 629.906 239.785C630.615 239.329 631.449 239.102 632.406 239.102ZM632.386 240.43C631.52 240.43 630.83 240.713 630.316 241.279C629.802 241.846 629.496 242.637 629.398 243.652H635.062C635.055 243.014 634.955 242.454 634.759 241.973C634.57 241.484 634.281 241.107 633.89 240.84C633.499 240.566 632.998 240.43 632.386 240.43ZM641.624 244.521L637.923 239.297H639.778L642.6 243.418L645.413 239.297H647.249L643.548 244.521L647.454 250H645.599L642.6 245.635L639.583 250H637.747L641.624 244.521ZM652.561 248.867C652.828 248.867 653.101 248.844 653.381 248.799C653.661 248.753 653.889 248.698 654.065 248.633V249.893C653.876 249.977 653.612 250.049 653.274 250.107C652.942 250.166 652.616 250.195 652.297 250.195C651.731 250.195 651.216 250.098 650.754 249.902C650.292 249.701 649.921 249.362 649.641 248.887C649.368 248.411 649.231 247.754 649.231 246.914V240.566H647.707V239.775L649.241 239.141L649.885 236.816H650.862V239.297H653.996V240.566H650.862V246.865C650.862 247.536 651.015 248.037 651.321 248.369C651.633 248.701 652.047 248.867 652.561 248.867ZM666.896 236.982C666.108 236.982 665.398 237.119 664.767 237.393C664.142 237.66 663.608 238.05 663.165 238.564C662.729 239.072 662.394 239.688 662.159 240.41C661.925 241.133 661.808 241.947 661.808 242.852C661.808 244.049 661.993 245.091 662.364 245.977C662.742 246.855 663.302 247.536 664.044 248.018C664.793 248.499 665.727 248.74 666.847 248.74C667.485 248.74 668.084 248.688 668.644 248.584C669.21 248.473 669.76 248.337 670.294 248.174V249.619C669.773 249.814 669.226 249.958 668.654 250.049C668.081 250.146 667.4 250.195 666.612 250.195C665.161 250.195 663.946 249.896 662.97 249.297C662 248.691 661.271 247.839 660.782 246.738C660.301 245.638 660.06 244.339 660.06 242.842C660.06 241.761 660.21 240.775 660.509 239.883C660.815 238.984 661.258 238.21 661.837 237.559C662.423 236.908 663.139 236.406 663.986 236.055C664.838 235.697 665.815 235.518 666.915 235.518C667.638 235.518 668.335 235.589 669.005 235.732C669.676 235.876 670.281 236.081 670.821 236.348L670.157 237.754C669.702 237.546 669.2 237.367 668.654 237.217C668.113 237.061 667.527 236.982 666.896 236.982ZM681.934 244.629C681.934 245.508 681.82 246.292 681.592 246.982C681.365 247.673 681.036 248.255 680.606 248.73C680.176 249.206 679.656 249.57 679.044 249.824C678.438 250.072 677.751 250.195 676.983 250.195C676.267 250.195 675.609 250.072 675.01 249.824C674.418 249.57 673.904 249.206 673.467 248.73C673.038 248.255 672.702 247.673 672.462 246.982C672.227 246.292 672.11 245.508 672.11 244.629C672.11 243.457 672.309 242.461 672.706 241.641C673.103 240.814 673.669 240.186 674.405 239.756C675.147 239.32 676.029 239.102 677.051 239.102C678.028 239.102 678.881 239.32 679.61 239.756C680.346 240.192 680.915 240.824 681.319 241.65C681.729 242.471 681.934 243.464 681.934 244.629ZM673.79 244.629C673.79 245.488 673.904 246.234 674.131 246.865C674.359 247.497 674.711 247.985 675.186 248.33C675.661 248.675 676.273 248.848 677.022 248.848C677.764 248.848 678.373 248.675 678.848 248.33C679.33 247.985 679.685 247.497 679.913 246.865C680.141 246.234 680.255 245.488 680.255 244.629C680.255 243.776 680.141 243.04 679.913 242.422C679.685 241.797 679.333 241.315 678.858 240.977C678.383 240.638 677.768 240.469 677.012 240.469C675.899 240.469 675.082 240.837 674.561 241.572C674.047 242.308 673.79 243.327 673.79 244.629ZM685.928 250H684.297V234.805H685.928V250ZM698.144 244.629C698.144 245.508 698.03 246.292 697.802 246.982C697.574 247.673 697.246 248.255 696.816 248.73C696.386 249.206 695.865 249.57 695.253 249.824C694.648 250.072 693.961 250.195 693.193 250.195C692.477 250.195 691.819 250.072 691.22 249.824C690.628 249.57 690.113 249.206 689.677 248.73C689.248 248.255 688.912 247.673 688.671 246.982C688.437 246.292 688.32 245.508 688.32 244.629C688.32 243.457 688.518 242.461 688.916 241.641C689.313 240.814 689.879 240.186 690.615 239.756C691.357 239.32 692.239 239.102 693.261 239.102C694.238 239.102 695.091 239.32 695.82 239.756C696.556 240.192 697.125 240.824 697.529 241.65C697.939 242.471 698.144 243.464 698.144 244.629ZM690 244.629C690 245.488 690.113 246.234 690.341 246.865C690.569 247.497 690.921 247.985 691.396 248.33C691.871 248.675 692.483 248.848 693.232 248.848C693.974 248.848 694.583 248.675 695.058 248.33C695.54 247.985 695.895 247.497 696.123 246.865C696.35 246.234 696.464 245.488 696.464 244.629C696.464 243.776 696.35 243.04 696.123 242.422C695.895 241.797 695.543 241.315 695.068 240.977C694.593 240.638 693.977 240.469 693.222 240.469C692.109 240.469 691.292 240.837 690.771 241.572C690.257 242.308 690 243.327 690 244.629ZM705.37 239.102C705.585 239.102 705.81 239.115 706.044 239.141C706.278 239.16 706.487 239.189 706.669 239.229L706.464 240.732C706.288 240.687 706.093 240.651 705.878 240.625C705.663 240.599 705.461 240.586 705.272 240.586C704.843 240.586 704.436 240.674 704.052 240.85C703.674 241.019 703.342 241.266 703.056 241.592C702.769 241.911 702.545 242.298 702.382 242.754C702.219 243.203 702.138 243.704 702.138 244.258V250H700.507V239.297H701.854L702.03 241.27H702.099C702.32 240.872 702.587 240.511 702.899 240.186C703.212 239.854 703.573 239.59 703.983 239.395C704.4 239.199 704.862 239.102 705.37 239.102Z" fill="#161615"/>
<path d="M412.953 235.723H416.996C418.78 235.723 420.121 235.99 421.02 236.523C421.918 237.057 422.367 237.965 422.367 239.248C422.367 239.801 422.26 240.299 422.045 240.742C421.837 241.178 421.531 241.54 421.127 241.826C420.723 242.113 420.225 242.311 419.633 242.422V242.52C420.258 242.617 420.811 242.796 421.293 243.057C421.775 243.317 422.152 243.682 422.426 244.15C422.699 244.619 422.836 245.215 422.836 245.938C422.836 246.816 422.631 247.559 422.221 248.164C421.817 248.77 421.244 249.229 420.502 249.541C419.76 249.847 418.881 250 417.865 250H412.953V235.723ZM414.613 241.846H417.348C418.591 241.846 419.451 241.641 419.926 241.23C420.408 240.82 420.648 240.221 420.648 239.434C420.648 238.62 420.362 238.034 419.789 237.676C419.223 237.318 418.318 237.139 417.074 237.139H414.613V241.846ZM414.613 243.242V248.584H417.582C418.852 248.584 419.75 248.337 420.277 247.842C420.805 247.34 421.068 246.667 421.068 245.82C421.068 245.28 420.948 244.818 420.707 244.434C420.473 244.049 420.089 243.757 419.555 243.555C419.027 243.346 418.321 243.242 417.436 243.242H414.613ZM429.203 239.121C430.479 239.121 431.426 239.408 432.044 239.98C432.663 240.553 432.972 241.468 432.972 242.725V250H431.79L431.478 248.418H431.4C431.1 248.809 430.788 249.137 430.462 249.404C430.137 249.665 429.759 249.863 429.33 250C428.906 250.13 428.386 250.195 427.767 250.195C427.116 250.195 426.537 250.081 426.029 249.854C425.527 249.626 425.13 249.281 424.837 248.818C424.551 248.356 424.408 247.77 424.408 247.061C424.408 245.993 424.831 245.173 425.677 244.6C426.524 244.027 427.813 243.714 429.544 243.662L431.39 243.584V242.93C431.39 242.005 431.192 241.357 430.794 240.986C430.397 240.615 429.837 240.43 429.115 240.43C428.555 240.43 428.021 240.511 427.513 240.674C427.005 240.837 426.524 241.029 426.068 241.25L425.57 240.02C426.052 239.772 426.605 239.561 427.23 239.385C427.855 239.209 428.512 239.121 429.203 239.121ZM431.371 244.727L429.74 244.795C428.405 244.847 427.464 245.065 426.917 245.449C426.371 245.833 426.097 246.377 426.097 247.08C426.097 247.692 426.283 248.145 426.654 248.438C427.025 248.73 427.516 248.877 428.128 248.877C429.079 248.877 429.857 248.613 430.462 248.086C431.068 247.559 431.371 246.768 431.371 245.713V244.727ZM440.159 250.195C439.196 250.195 438.346 249.997 437.61 249.6C436.875 249.202 436.302 248.597 435.891 247.783C435.481 246.969 435.276 245.944 435.276 244.707C435.276 243.411 435.491 242.354 435.921 241.533C436.357 240.706 436.956 240.094 437.718 239.697C438.479 239.3 439.345 239.102 440.315 239.102C440.849 239.102 441.363 239.157 441.858 239.268C442.36 239.372 442.77 239.505 443.089 239.668L442.6 241.025C442.275 240.895 441.897 240.778 441.468 240.674C441.044 240.57 440.647 240.518 440.276 240.518C439.534 240.518 438.916 240.677 438.421 240.996C437.933 241.315 437.565 241.784 437.317 242.402C437.076 243.021 436.956 243.783 436.956 244.688C436.956 245.553 437.073 246.292 437.308 246.904C437.548 247.516 437.903 247.985 438.372 248.311C438.847 248.63 439.44 248.789 440.149 248.789C440.716 248.789 441.227 248.73 441.683 248.613C442.138 248.49 442.552 248.346 442.923 248.184V249.629C442.565 249.811 442.164 249.951 441.722 250.049C441.285 250.146 440.765 250.195 440.159 250.195ZM446.633 234.805V242.695C446.633 242.956 446.623 243.275 446.604 243.652C446.584 244.023 446.568 244.352 446.555 244.639H446.623C446.76 244.469 446.959 244.219 447.219 243.887C447.486 243.555 447.711 243.288 447.893 243.086L451.448 239.297H453.352L449.045 243.867L453.664 250H451.711L447.932 244.932L446.633 246.123V250H445.022V234.805H446.633ZM458.078 254.805C456.672 254.805 455.588 254.541 454.826 254.014C454.064 253.493 453.683 252.76 453.683 251.816C453.683 251.146 453.895 250.573 454.318 250.098C454.748 249.622 455.34 249.307 456.095 249.15C455.816 249.02 455.575 248.825 455.373 248.564C455.178 248.304 455.08 248.005 455.08 247.666C455.08 247.275 455.187 246.934 455.402 246.641C455.623 246.341 455.959 246.055 456.408 245.781C455.848 245.553 455.392 245.169 455.041 244.629C454.696 244.082 454.523 243.447 454.523 242.725C454.523 241.956 454.683 241.302 455.002 240.762C455.321 240.215 455.783 239.798 456.388 239.512C456.994 239.225 457.726 239.082 458.586 239.082C458.775 239.082 458.963 239.092 459.152 239.111C459.347 239.124 459.533 239.147 459.709 239.18C459.885 239.206 460.038 239.238 460.168 239.277H463.84V240.322L461.867 240.566C462.062 240.82 462.225 241.126 462.355 241.484C462.485 241.842 462.551 242.24 462.551 242.676C462.551 243.743 462.189 244.593 461.467 245.225C460.744 245.85 459.751 246.162 458.488 246.162C458.189 246.162 457.883 246.136 457.57 246.084C457.251 246.26 457.007 246.455 456.838 246.67C456.675 246.885 456.594 247.132 456.594 247.412C456.594 247.62 456.655 247.786 456.779 247.91C456.909 248.034 457.095 248.125 457.336 248.184C457.577 248.236 457.866 248.262 458.205 248.262H460.09C461.255 248.262 462.147 248.506 462.765 248.994C463.39 249.482 463.703 250.195 463.703 251.133C463.703 252.318 463.221 253.226 462.258 253.857C461.294 254.489 459.901 254.805 458.078 254.805ZM458.127 253.535C459.012 253.535 459.745 253.444 460.324 253.262C460.91 253.086 461.346 252.829 461.633 252.49C461.926 252.158 462.072 251.761 462.072 251.299C462.072 250.869 461.974 250.544 461.779 250.322C461.584 250.107 461.297 249.964 460.92 249.893C460.542 249.814 460.08 249.775 459.533 249.775H457.678C457.196 249.775 456.776 249.85 456.418 250C456.06 250.15 455.783 250.371 455.588 250.664C455.399 250.957 455.304 251.322 455.304 251.758C455.304 252.337 455.549 252.777 456.037 253.076C456.525 253.382 457.222 253.535 458.127 253.535ZM458.547 244.98C459.321 244.98 459.904 244.785 460.295 244.395C460.685 244.004 460.881 243.434 460.881 242.686C460.881 241.885 460.682 241.286 460.285 240.889C459.888 240.485 459.302 240.283 458.527 240.283C457.785 240.283 457.212 240.492 456.808 240.908C456.411 241.318 456.213 241.921 456.213 242.715C456.213 243.444 456.414 244.004 456.818 244.395C457.222 244.785 457.798 244.98 458.547 244.98ZM470.372 239.102C470.587 239.102 470.812 239.115 471.046 239.141C471.28 239.16 471.489 239.189 471.671 239.229L471.466 240.732C471.29 240.687 471.095 240.651 470.88 240.625C470.665 240.599 470.463 240.586 470.275 240.586C469.845 240.586 469.438 240.674 469.054 240.85C468.676 241.019 468.344 241.266 468.058 241.592C467.771 241.911 467.547 242.298 467.384 242.754C467.221 243.203 467.14 243.704 467.14 244.258V250H465.509V239.297H466.857L467.032 241.27H467.101C467.322 240.872 467.589 240.511 467.902 240.186C468.214 239.854 468.575 239.59 468.986 239.395C469.402 239.199 469.864 239.102 470.372 239.102ZM482.481 244.629C482.481 245.508 482.367 246.292 482.139 246.982C481.911 247.673 481.583 248.255 481.153 248.73C480.723 249.206 480.202 249.57 479.59 249.824C478.985 250.072 478.298 250.195 477.53 250.195C476.814 250.195 476.156 250.072 475.557 249.824C474.965 249.57 474.45 249.206 474.014 248.73C473.585 248.255 473.249 247.673 473.008 246.982C472.774 246.292 472.657 245.508 472.657 244.629C472.657 243.457 472.855 242.461 473.253 241.641C473.65 240.814 474.216 240.186 474.952 239.756C475.694 239.32 476.576 239.102 477.598 239.102C478.575 239.102 479.428 239.32 480.157 239.756C480.893 240.192 481.462 240.824 481.866 241.65C482.276 242.471 482.481 243.464 482.481 244.629ZM474.337 244.629C474.337 245.488 474.45 246.234 474.678 246.865C474.906 247.497 475.258 247.985 475.733 248.33C476.208 248.675 476.82 248.848 477.569 248.848C478.311 248.848 478.92 248.675 479.395 248.33C479.877 247.985 480.232 247.497 480.46 246.865C480.687 246.234 480.801 245.488 480.801 244.629C480.801 243.776 480.687 243.04 480.46 242.422C480.232 241.797 479.88 241.315 479.405 240.977C478.93 240.638 478.314 240.469 477.559 240.469C476.446 240.469 475.629 240.837 475.108 241.572C474.594 242.308 474.337 243.327 474.337 244.629ZM493.682 239.297V250H492.354L492.119 248.496H492.031C491.81 248.867 491.524 249.18 491.172 249.434C490.82 249.688 490.423 249.876 489.981 250C489.544 250.13 489.079 250.195 488.584 250.195C487.738 250.195 487.028 250.059 486.455 249.785C485.882 249.512 485.449 249.089 485.156 248.516C484.87 247.943 484.727 247.207 484.727 246.309V239.297H486.367V246.191C486.367 247.083 486.569 247.751 486.973 248.193C487.376 248.63 487.992 248.848 488.818 248.848C489.613 248.848 490.244 248.698 490.713 248.398C491.188 248.099 491.53 247.66 491.738 247.08C491.947 246.494 492.051 245.778 492.051 244.932V239.297H493.682ZM501.738 239.102C503.007 239.102 503.968 239.414 504.619 240.039C505.27 240.658 505.595 241.654 505.595 243.027V250H503.994V243.135C503.994 242.243 503.789 241.576 503.378 241.133C502.975 240.69 502.353 240.469 501.513 240.469C500.328 240.469 499.495 240.804 499.013 241.475C498.531 242.145 498.291 243.118 498.291 244.395V250H496.669V239.297H497.978L498.222 240.84H498.31C498.538 240.462 498.828 240.146 499.179 239.893C499.531 239.632 499.925 239.437 500.361 239.307C500.797 239.17 501.256 239.102 501.738 239.102ZM512.304 250.195C510.95 250.195 509.875 249.733 509.081 248.809C508.293 247.884 507.899 246.51 507.899 244.688C507.899 242.845 508.303 241.455 509.11 240.518C509.918 239.574 510.992 239.102 512.333 239.102C512.899 239.102 513.394 239.176 513.817 239.326C514.241 239.476 514.605 239.678 514.911 239.932C515.217 240.179 515.474 240.462 515.683 240.781H515.8C515.774 240.579 515.748 240.303 515.722 239.951C515.696 239.6 515.683 239.313 515.683 239.092V234.805H517.304V250H515.995L515.751 248.477H515.683C515.481 248.796 515.224 249.085 514.911 249.346C514.605 249.606 514.237 249.814 513.808 249.971C513.384 250.12 512.883 250.195 512.304 250.195ZM512.558 248.848C513.703 248.848 514.514 248.522 514.989 247.871C515.464 247.22 515.702 246.253 515.702 244.971V244.678C515.702 243.317 515.474 242.272 515.019 241.543C514.569 240.814 513.749 240.449 512.558 240.449C511.561 240.449 510.816 240.833 510.321 241.602C509.826 242.363 509.579 243.405 509.579 244.727C509.579 246.042 509.823 247.057 510.311 247.773C510.806 248.49 511.555 248.848 512.558 248.848ZM531.404 236.982C530.616 236.982 529.907 237.119 529.275 237.393C528.65 237.66 528.116 238.05 527.674 238.564C527.237 239.072 526.902 239.688 526.668 240.41C526.433 241.133 526.316 241.947 526.316 242.852C526.316 244.049 526.502 245.091 526.873 245.977C527.25 246.855 527.81 247.536 528.553 248.018C529.301 248.499 530.236 248.74 531.355 248.74C531.993 248.74 532.592 248.688 533.152 248.584C533.719 248.473 534.269 248.337 534.803 248.174V249.619C534.282 249.814 533.735 249.958 533.162 250.049C532.589 250.146 531.909 250.195 531.121 250.195C529.669 250.195 528.455 249.896 527.478 249.297C526.508 248.691 525.779 247.839 525.291 246.738C524.809 245.638 524.568 244.339 524.568 242.842C524.568 241.761 524.718 240.775 525.017 239.883C525.323 238.984 525.766 238.21 526.346 237.559C526.931 236.908 527.648 236.406 528.494 236.055C529.347 235.697 530.323 235.518 531.424 235.518C532.146 235.518 532.843 235.589 533.514 235.732C534.184 235.876 534.79 236.081 535.33 236.348L534.666 237.754C534.21 237.546 533.709 237.367 533.162 237.217C532.622 237.061 532.036 236.982 531.404 236.982ZM546.443 244.629C546.443 245.508 546.329 246.292 546.101 246.982C545.873 247.673 545.544 248.255 545.115 248.73C544.685 249.206 544.164 249.57 543.552 249.824C542.947 250.072 542.26 250.195 541.491 250.195C540.775 250.195 540.118 250.072 539.519 249.824C538.926 249.57 538.412 249.206 537.976 248.73C537.546 248.255 537.211 247.673 536.97 246.982C536.736 246.292 536.618 245.508 536.618 244.629C536.618 243.457 536.817 242.461 537.214 241.641C537.611 240.814 538.178 240.186 538.913 239.756C539.656 239.32 540.538 239.102 541.56 239.102C542.536 239.102 543.389 239.32 544.118 239.756C544.854 240.192 545.424 240.824 545.827 241.65C546.238 242.471 546.443 243.464 546.443 244.629ZM538.298 244.629C538.298 245.488 538.412 246.234 538.64 246.865C538.868 247.497 539.219 247.985 539.695 248.33C540.17 248.675 540.782 248.848 541.531 248.848C542.273 248.848 542.881 248.675 543.357 248.33C543.838 247.985 544.193 247.497 544.421 246.865C544.649 246.234 544.763 245.488 544.763 244.629C544.763 243.776 544.649 243.04 544.421 242.422C544.193 241.797 543.842 241.315 543.366 240.977C542.891 240.638 542.276 240.469 541.521 240.469C540.408 240.469 539.59 240.837 539.07 241.572C538.555 242.308 538.298 243.327 538.298 244.629ZM550.436 250H548.805V234.805H550.436V250ZM562.652 244.629C562.652 245.508 562.539 246.292 562.311 246.982C562.083 247.673 561.754 248.255 561.324 248.73C560.895 249.206 560.374 249.57 559.762 249.824C559.156 250.072 558.47 250.195 557.701 250.195C556.985 250.195 556.328 250.072 555.729 249.824C555.136 249.57 554.622 249.206 554.186 248.73C553.756 248.255 553.421 247.673 553.18 246.982C552.945 246.292 552.828 245.508 552.828 244.629C552.828 243.457 553.027 242.461 553.424 241.641C553.821 240.814 554.388 240.186 555.123 239.756C555.865 239.32 556.748 239.102 557.77 239.102C558.746 239.102 559.599 239.32 560.328 239.756C561.064 240.192 561.634 240.824 562.037 241.65C562.447 242.471 562.652 243.464 562.652 244.629ZM554.508 244.629C554.508 245.488 554.622 246.234 554.85 246.865C555.078 247.497 555.429 247.985 555.904 248.33C556.38 248.675 556.992 248.848 557.74 248.848C558.483 248.848 559.091 248.675 559.567 248.33C560.048 247.985 560.403 247.497 560.631 246.865C560.859 246.234 560.973 245.488 560.973 244.629C560.973 243.776 560.859 243.04 560.631 242.422C560.403 241.797 560.052 241.315 559.576 240.977C559.101 240.638 558.486 240.469 557.731 240.469C556.617 240.469 555.8 240.837 555.279 241.572C554.765 242.308 554.508 243.327 554.508 244.629ZM569.879 239.102C570.093 239.102 570.318 239.115 570.552 239.141C570.787 239.16 570.995 239.189 571.177 239.229L570.972 240.732C570.796 240.687 570.601 240.651 570.386 240.625C570.171 240.599 569.97 240.586 569.781 240.586C569.351 240.586 568.944 240.674 568.56 240.85C568.183 241.019 567.851 241.266 567.564 241.592C567.278 241.911 567.053 242.298 566.89 242.754C566.727 243.203 566.646 243.704 566.646 244.258V250H565.015V239.297H566.363L566.539 241.27H566.607C566.828 240.872 567.095 240.511 567.408 240.186C567.72 239.854 568.082 239.59 568.492 239.395C568.908 239.199 569.371 239.102 569.879 239.102Z" fill="#161615"/>
<path d="M215.01 246.201C215.01 247.048 214.798 247.77 214.375 248.369C213.958 248.962 213.372 249.414 212.617 249.727C211.862 250.039 210.973 250.195 209.951 250.195C209.411 250.195 208.9 250.169 208.418 250.117C207.936 250.065 207.493 249.99 207.09 249.893C206.686 249.795 206.331 249.674 206.025 249.531V247.939C206.514 248.141 207.109 248.33 207.812 248.506C208.516 248.675 209.251 248.76 210.02 248.76C210.736 248.76 211.341 248.665 211.836 248.477C212.331 248.281 212.705 248.005 212.959 247.646C213.219 247.282 213.35 246.846 213.35 246.338C213.35 245.85 213.242 245.443 213.027 245.117C212.812 244.785 212.454 244.486 211.953 244.219C211.458 243.945 210.781 243.656 209.922 243.35C209.316 243.135 208.783 242.9 208.32 242.646C207.858 242.386 207.471 242.093 207.158 241.768C206.846 241.442 206.608 241.064 206.445 240.635C206.289 240.205 206.211 239.714 206.211 239.16C206.211 238.398 206.403 237.747 206.787 237.207C207.178 236.66 207.715 236.243 208.398 235.957C209.089 235.664 209.88 235.518 210.771 235.518C211.533 235.518 212.236 235.589 212.881 235.732C213.532 235.876 214.128 236.068 214.668 236.309L214.15 237.734C213.636 237.52 213.089 237.34 212.51 237.197C211.937 237.054 211.344 236.982 210.732 236.982C210.12 236.982 209.603 237.074 209.18 237.256C208.763 237.432 208.444 237.682 208.223 238.008C208.001 238.333 207.891 238.721 207.891 239.17C207.891 239.671 207.995 240.088 208.203 240.42C208.418 240.752 208.757 241.048 209.219 241.309C209.688 241.562 210.306 241.829 211.074 242.109C211.914 242.415 212.627 242.741 213.213 243.086C213.799 243.424 214.245 243.841 214.551 244.336C214.857 244.824 215.01 245.446 215.01 246.201ZM221.367 239.102C222.278 239.102 223.059 239.303 223.71 239.707C224.361 240.111 224.859 240.677 225.205 241.406C225.55 242.129 225.722 242.975 225.722 243.945V244.951H218.33C218.349 246.208 218.662 247.165 219.267 247.822C219.873 248.48 220.725 248.809 221.826 248.809C222.503 248.809 223.102 248.747 223.623 248.623C224.143 248.499 224.684 248.317 225.244 248.076V249.502C224.703 249.743 224.166 249.919 223.632 250.029C223.105 250.14 222.48 250.195 221.757 250.195C220.729 250.195 219.83 249.987 219.062 249.57C218.3 249.147 217.708 248.529 217.285 247.715C216.861 246.901 216.65 245.905 216.65 244.727C216.65 243.574 216.842 242.578 217.226 241.738C217.617 240.892 218.164 240.241 218.867 239.785C219.576 239.329 220.41 239.102 221.367 239.102ZM221.347 240.43C220.481 240.43 219.791 240.713 219.277 241.279C218.762 241.846 218.456 242.637 218.359 243.652H224.023C224.016 243.014 223.915 242.454 223.72 241.973C223.531 241.484 223.242 241.107 222.851 240.84C222.46 240.566 221.959 240.43 221.347 240.43ZM232.323 250.195C231.36 250.195 230.51 249.997 229.774 249.6C229.039 249.202 228.466 248.597 228.056 247.783C227.645 246.969 227.44 245.944 227.44 244.707C227.44 243.411 227.655 242.354 228.085 241.533C228.521 240.706 229.12 240.094 229.882 239.697C230.643 239.3 231.509 239.102 232.479 239.102C233.013 239.102 233.528 239.157 234.022 239.268C234.524 239.372 234.934 239.505 235.253 239.668L234.765 241.025C234.439 240.895 234.061 240.778 233.632 240.674C233.209 240.57 232.811 240.518 232.44 240.518C231.698 240.518 231.08 240.677 230.585 240.996C230.097 241.315 229.729 241.784 229.481 242.402C229.24 243.021 229.12 243.783 229.12 244.688C229.12 245.553 229.237 246.292 229.472 246.904C229.712 247.516 230.067 247.985 230.536 248.311C231.011 248.63 231.604 248.789 232.313 248.789C232.88 248.789 233.391 248.73 233.847 248.613C234.302 248.49 234.716 248.346 235.087 248.184V249.629C234.729 249.811 234.328 249.951 233.886 250.049C233.449 250.146 232.929 250.195 232.323 250.195ZM246.414 244.629C246.414 245.508 246.3 246.292 246.073 246.982C245.845 247.673 245.516 248.255 245.086 248.73C244.657 249.206 244.136 249.57 243.524 249.824C242.918 250.072 242.231 250.195 241.463 250.195C240.747 250.195 240.09 250.072 239.491 249.824C238.898 249.57 238.384 249.206 237.948 248.73C237.518 248.255 237.183 247.673 236.942 246.982C236.707 246.292 236.59 245.508 236.59 244.629C236.59 243.457 236.789 242.461 237.186 241.641C237.583 240.814 238.149 240.186 238.885 239.756C239.627 239.32 240.509 239.102 241.532 239.102C242.508 239.102 243.361 239.32 244.09 239.756C244.826 240.192 245.395 240.824 245.799 241.65C246.209 242.471 246.414 243.464 246.414 244.629ZM238.27 244.629C238.27 245.488 238.384 246.234 238.612 246.865C238.84 247.497 239.191 247.985 239.666 248.33C240.142 248.675 240.754 248.848 241.502 248.848C242.244 248.848 242.853 248.675 243.328 248.33C243.81 247.985 244.165 247.497 244.393 246.865C244.621 246.234 244.735 245.488 244.735 244.629C244.735 243.776 244.621 243.04 244.393 242.422C244.165 241.797 243.813 241.315 243.338 240.977C242.863 240.638 242.248 240.469 241.493 240.469C240.379 240.469 239.562 240.837 239.041 241.572C238.527 242.308 238.27 243.327 238.27 244.629ZM253.845 239.102C255.115 239.102 256.075 239.414 256.726 240.039C257.377 240.658 257.703 241.654 257.703 243.027V250H256.101V243.135C256.101 242.243 255.896 241.576 255.486 241.133C255.082 240.69 254.461 240.469 253.621 240.469C252.436 240.469 251.603 240.804 251.121 241.475C250.639 242.145 250.398 243.118 250.398 244.395V250H248.777V239.297H250.086L250.33 240.84H250.418C250.646 240.462 250.935 240.146 251.287 239.893C251.638 239.632 252.032 239.437 252.469 239.307C252.905 239.17 253.364 239.102 253.845 239.102ZM264.411 250.195C263.057 250.195 261.983 249.733 261.189 248.809C260.401 247.884 260.007 246.51 260.007 244.688C260.007 242.845 260.411 241.455 261.218 240.518C262.025 239.574 263.099 239.102 264.441 239.102C265.007 239.102 265.502 239.176 265.925 239.326C266.348 239.476 266.713 239.678 267.019 239.932C267.325 240.179 267.582 240.462 267.79 240.781H267.907C267.881 240.579 267.855 240.303 267.829 239.951C267.803 239.6 267.79 239.313 267.79 239.092V234.805H269.411V250H268.103L267.859 248.477H267.79C267.588 248.796 267.331 249.085 267.019 249.346C266.713 249.606 266.345 249.814 265.915 249.971C265.492 250.12 264.991 250.195 264.411 250.195ZM264.665 248.848C265.811 248.848 266.622 248.522 267.097 247.871C267.572 247.22 267.81 246.253 267.81 244.971V244.678C267.81 243.317 267.582 242.272 267.126 241.543C266.677 240.814 265.857 240.449 264.665 240.449C263.669 240.449 262.924 240.833 262.429 241.602C261.934 242.363 261.687 243.405 261.687 244.727C261.687 246.042 261.931 247.057 262.419 247.773C262.914 248.49 263.663 248.848 264.665 248.848ZM276.413 239.121C277.689 239.121 278.636 239.408 279.255 239.98C279.873 240.553 280.182 241.468 280.182 242.725V250H279.001L278.688 248.418H278.61C278.311 248.809 277.998 249.137 277.673 249.404C277.347 249.665 276.969 249.863 276.54 250C276.117 250.13 275.596 250.195 274.977 250.195C274.326 250.195 273.747 250.081 273.239 249.854C272.738 249.626 272.34 249.281 272.048 248.818C271.761 248.356 271.618 247.77 271.618 247.061C271.618 245.993 272.041 245.173 272.887 244.6C273.734 244.027 275.023 243.714 276.755 243.662L278.6 243.584V242.93C278.6 242.005 278.402 241.357 278.005 240.986C277.607 240.615 277.048 240.43 276.325 240.43C275.765 240.43 275.231 240.511 274.723 240.674C274.215 240.837 273.734 241.029 273.278 241.25L272.78 240.02C273.262 239.772 273.815 239.561 274.44 239.385C275.065 239.209 275.723 239.121 276.413 239.121ZM278.581 244.727L276.95 244.795C275.615 244.847 274.674 245.065 274.128 245.449C273.581 245.833 273.307 246.377 273.307 247.08C273.307 247.692 273.493 248.145 273.864 248.438C274.235 248.73 274.727 248.877 275.339 248.877C276.289 248.877 277.067 248.613 277.673 248.086C278.278 247.559 278.581 246.768 278.581 245.713V244.727ZM287.945 239.102C288.16 239.102 288.385 239.115 288.619 239.141C288.854 239.16 289.062 239.189 289.244 239.229L289.039 240.732C288.863 240.687 288.668 240.651 288.453 240.625C288.238 240.599 288.037 240.586 287.848 240.586C287.418 240.586 287.011 240.674 286.627 240.85C286.249 241.019 285.917 241.266 285.631 241.592C285.344 241.911 285.12 242.298 284.957 242.754C284.794 243.203 284.713 243.704 284.713 244.258V250H283.082V239.297H284.43L284.606 241.27H284.674C284.895 240.872 285.162 240.511 285.475 240.186C285.787 239.854 286.149 239.59 286.559 239.395C286.975 239.199 287.438 239.102 287.945 239.102ZM289.136 239.297H290.875L293.238 245.508C293.375 245.872 293.501 246.224 293.619 246.562C293.736 246.895 293.84 247.214 293.931 247.52C294.022 247.826 294.094 248.122 294.146 248.408H294.214C294.306 248.083 294.436 247.656 294.605 247.129C294.774 246.595 294.957 246.051 295.152 245.498L297.388 239.297H299.136L294.478 251.572C294.231 252.23 293.941 252.803 293.609 253.291C293.283 253.779 292.886 254.154 292.418 254.414C291.949 254.681 291.382 254.814 290.718 254.814C290.412 254.814 290.142 254.795 289.908 254.756C289.673 254.723 289.472 254.684 289.302 254.639V253.34C289.445 253.372 289.618 253.402 289.82 253.428C290.028 253.454 290.243 253.467 290.464 253.467C290.868 253.467 291.216 253.389 291.509 253.232C291.809 253.083 292.066 252.861 292.281 252.568C292.496 252.275 292.681 251.927 292.837 251.523L293.423 250.02L289.136 239.297ZM311.508 236.982C310.72 236.982 310.011 237.119 309.379 237.393C308.754 237.66 308.22 238.05 307.778 238.564C307.342 239.072 307.006 239.688 306.772 240.41C306.537 241.133 306.42 241.947 306.42 242.852C306.42 244.049 306.606 245.091 306.977 245.977C307.355 246.855 307.914 247.536 308.657 248.018C309.405 248.499 310.34 248.74 311.459 248.74C312.097 248.74 312.696 248.688 313.256 248.584C313.823 248.473 314.373 248.337 314.907 248.174V249.619C314.386 249.814 313.839 249.958 313.266 250.049C312.693 250.146 312.013 250.195 311.225 250.195C309.773 250.195 308.559 249.896 307.582 249.297C306.612 248.691 305.883 247.839 305.395 246.738C304.913 245.638 304.672 244.339 304.672 242.842C304.672 241.761 304.822 240.775 305.121 239.883C305.427 238.984 305.87 238.21 306.45 237.559C307.036 236.908 307.752 236.406 308.598 236.055C309.451 235.697 310.427 235.518 311.528 235.518C312.25 235.518 312.947 235.589 313.618 235.732C314.288 235.876 314.894 236.081 315.434 236.348L314.77 237.754C314.314 237.546 313.813 237.367 313.266 237.217C312.726 237.061 312.14 236.982 311.508 236.982ZM326.547 244.629C326.547 245.508 326.433 246.292 326.205 246.982C325.977 247.673 325.648 248.255 325.219 248.73C324.789 249.206 324.268 249.57 323.656 249.824C323.051 250.072 322.364 250.195 321.596 250.195C320.879 250.195 320.222 250.072 319.623 249.824C319.03 249.57 318.516 249.206 318.08 248.73C317.65 248.255 317.315 247.673 317.074 246.982C316.84 246.292 316.723 245.508 316.723 244.629C316.723 243.457 316.921 242.461 317.318 241.641C317.715 240.814 318.282 240.186 319.017 239.756C319.76 239.32 320.642 239.102 321.664 239.102C322.64 239.102 323.493 239.32 324.223 239.756C324.958 240.192 325.528 240.824 325.931 241.65C326.342 242.471 326.547 243.464 326.547 244.629ZM318.402 244.629C318.402 245.488 318.516 246.234 318.744 246.865C318.972 247.497 319.323 247.985 319.799 248.33C320.274 248.675 320.886 248.848 321.635 248.848C322.377 248.848 322.986 248.675 323.461 248.33C323.943 247.985 324.297 247.497 324.525 246.865C324.753 246.234 324.867 245.488 324.867 244.629C324.867 243.776 324.753 243.04 324.525 242.422C324.297 241.797 323.946 241.315 323.471 240.977C322.995 240.638 322.38 240.469 321.625 240.469C320.512 240.469 319.695 240.837 319.174 241.572C318.659 242.308 318.402 243.327 318.402 244.629ZM330.54 250H328.909V234.805H330.54V250ZM342.757 244.629C342.757 245.508 342.643 246.292 342.415 246.982C342.187 247.673 341.858 248.255 341.428 248.73C340.999 249.206 340.478 249.57 339.866 249.824C339.26 250.072 338.574 250.195 337.805 250.195C337.089 250.195 336.432 250.072 335.833 249.824C335.24 249.57 334.726 249.206 334.29 248.73C333.86 248.255 333.525 247.673 333.284 246.982C333.05 246.292 332.932 245.508 332.932 244.629C332.932 243.457 333.131 242.461 333.528 241.641C333.925 240.814 334.492 240.186 335.227 239.756C335.969 239.32 336.852 239.102 337.874 239.102C338.85 239.102 339.703 239.32 340.432 239.756C341.168 240.192 341.738 240.824 342.141 241.65C342.551 242.471 342.757 243.464 342.757 244.629ZM334.612 244.629C334.612 245.488 334.726 246.234 334.954 246.865C335.182 247.497 335.533 247.985 336.009 248.33C336.484 248.675 337.096 248.848 337.844 248.848C338.587 248.848 339.195 248.675 339.671 248.33C340.152 247.985 340.507 247.497 340.735 246.865C340.963 246.234 341.077 245.488 341.077 244.629C341.077 243.776 340.963 243.04 340.735 242.422C340.507 241.797 340.156 241.315 339.68 240.977C339.205 240.638 338.59 240.469 337.835 240.469C336.721 240.469 335.904 240.837 335.384 241.572C334.869 242.308 334.612 243.327 334.612 244.629ZM349.983 239.102C350.197 239.102 350.422 239.115 350.656 239.141C350.891 239.16 351.099 239.189 351.281 239.229L351.076 240.732C350.901 240.687 350.705 240.651 350.49 240.625C350.276 240.599 350.074 240.586 349.885 240.586C349.455 240.586 349.048 240.674 348.664 240.85C348.287 241.019 347.955 241.266 347.668 241.592C347.382 241.911 347.157 242.298 346.994 242.754C346.832 243.203 346.75 243.704 346.75 244.258V250H345.119V239.297H346.467L346.643 241.27H346.711C346.932 240.872 347.199 240.511 347.512 240.186C347.824 239.854 348.186 239.59 348.596 239.395C349.013 239.199 349.475 239.102 349.983 239.102Z" fill="#161615"/>
<path d="M5.68359 235.723C7.52604 235.723 8.87044 236.084 9.7168 236.807C10.5697 237.523 10.9961 238.551 10.9961 239.893C10.9961 240.498 10.8952 241.074 10.6934 241.621C10.498 242.161 10.179 242.64 9.73633 243.057C9.29362 243.467 8.71094 243.792 7.98828 244.033C7.27214 244.268 6.39323 244.385 5.35156 244.385H3.61328V250H1.95312V235.723H5.68359ZM5.52734 237.139H3.61328V242.959H5.16602C6.07747 242.959 6.83594 242.861 7.44141 242.666C8.05339 242.471 8.51237 242.155 8.81836 241.719C9.12435 241.276 9.27734 240.69 9.27734 239.961C9.27734 239.01 8.97461 238.304 8.36914 237.842C7.76367 237.373 6.81641 237.139 5.52734 237.139ZM18.1635 239.102C18.3784 239.102 18.603 239.115 18.8373 239.141C19.0717 239.16 19.2801 239.189 19.4623 239.229L19.2573 240.732C19.0815 240.687 18.8862 240.651 18.6713 240.625C18.4565 240.599 18.2547 240.586 18.0659 240.586C17.6362 240.586 17.2293 240.674 16.8452 240.85C16.4676 241.019 16.1355 241.266 15.8491 241.592C15.5626 241.911 15.338 242.298 15.1752 242.754C15.0125 243.203 14.9311 243.704 14.9311 244.258V250H13.3002V239.297H14.6479L14.8237 241.27H14.892C15.1134 240.872 15.3803 240.511 15.6928 240.186C16.0053 239.854 16.3666 239.59 16.7768 239.395C17.1935 239.199 17.6557 239.102 18.1635 239.102ZM22.6649 239.297V250H21.0438V239.297H22.6649ZM21.8739 235.293C22.1408 235.293 22.3687 235.381 22.5575 235.557C22.7528 235.726 22.8505 235.993 22.8505 236.357C22.8505 236.715 22.7528 236.982 22.5575 237.158C22.3687 237.334 22.1408 237.422 21.8739 237.422C21.594 237.422 21.3596 237.334 21.1708 237.158C20.9885 236.982 20.8973 236.715 20.8973 236.357C20.8973 235.993 20.9885 235.726 21.1708 235.557C21.3596 235.381 21.594 235.293 21.8739 235.293ZM37.2835 239.102C38.4619 239.102 39.3506 239.411 39.9495 240.029C40.5485 240.641 40.848 241.628 40.848 242.988V250H39.2464V243.066C39.2464 242.201 39.0576 241.553 38.68 241.123C38.3089 240.687 37.7555 240.469 37.0198 240.469C35.9847 240.469 35.2327 240.768 34.764 241.367C34.2952 241.966 34.0609 242.848 34.0609 244.014V250H32.4495V243.066C32.4495 242.487 32.3649 242.005 32.1956 241.621C32.0329 241.237 31.7855 240.951 31.4534 240.762C31.1279 240.566 30.7145 240.469 30.2132 240.469C29.5036 240.469 28.9339 240.615 28.5042 240.908C28.0745 241.201 27.762 241.637 27.5667 242.217C27.3779 242.79 27.2835 243.496 27.2835 244.336V250H25.6624V239.297H26.971L27.2152 240.811H27.303C27.5179 240.439 27.7881 240.127 28.1136 239.873C28.4391 239.619 28.8037 239.427 29.2073 239.297C29.611 239.167 30.0407 239.102 30.4964 239.102C31.3102 239.102 31.9905 239.255 32.5374 239.561C33.0908 239.86 33.4912 240.319 33.7386 240.938H33.8265C34.178 240.319 34.6598 239.86 35.2718 239.561C35.8838 239.255 36.5543 239.102 37.2835 239.102ZM47.742 239.121C49.018 239.121 49.9653 239.408 50.5838 239.98C51.2022 240.553 51.5115 241.468 51.5115 242.725V250H50.3298L50.0173 248.418H49.9392C49.6397 248.809 49.3272 249.137 49.0017 249.404C48.6762 249.665 48.2986 249.863 47.8689 250C47.4457 250.13 46.9249 250.195 46.3064 250.195C45.6554 250.195 45.0759 250.081 44.5681 249.854C44.0668 249.626 43.6697 249.281 43.3767 248.818C43.0903 248.356 42.947 247.77 42.947 247.061C42.947 245.993 43.3702 245.173 44.2166 244.6C45.0629 244.027 46.352 243.714 48.0838 243.662L49.9295 243.584V242.93C49.9295 242.005 49.7309 241.357 49.3338 240.986C48.9366 240.615 48.3767 240.43 47.6541 240.43C47.0942 240.43 46.5603 240.511 46.0525 240.674C45.5447 240.837 45.0629 241.029 44.6072 241.25L44.1091 240.02C44.5909 239.772 45.1443 239.561 45.7693 239.385C46.3943 239.209 47.0519 239.121 47.742 239.121ZM49.9099 244.727L48.2791 244.795C46.9444 244.847 46.0037 245.065 45.4568 245.449C44.9099 245.833 44.6365 246.377 44.6365 247.08C44.6365 247.692 44.822 248.145 45.1931 248.438C45.5642 248.73 46.0558 248.877 46.6677 248.877C47.6183 248.877 48.3963 248.613 49.0017 248.086C49.6072 247.559 49.9099 246.768 49.9099 245.713V244.727ZM59.2746 239.102C59.4895 239.102 59.7141 239.115 59.9484 239.141C60.1828 239.16 60.3911 239.189 60.5734 239.229L60.3684 240.732C60.1926 240.687 59.9973 240.651 59.7824 240.625C59.5676 240.599 59.3658 240.586 59.177 240.586C58.7473 240.586 58.3404 240.674 57.9562 240.85C57.5786 241.019 57.2466 241.266 56.9602 241.592C56.6737 241.911 56.4491 242.298 56.2863 242.754C56.1236 243.203 56.0422 243.704 56.0422 244.258V250H54.4113V239.297H55.759L55.9348 241.27H56.0031C56.2245 240.872 56.4914 240.511 56.8039 240.186C57.1164 239.854 57.4777 239.59 57.8879 239.395C58.3046 239.199 58.7668 239.102 59.2746 239.102ZM60.4655 239.297H62.2038L64.567 245.508C64.7038 245.872 64.8307 246.224 64.9479 246.562C65.0651 246.895 65.1692 247.214 65.2604 247.52C65.3515 247.826 65.4232 248.122 65.4752 248.408H65.5436C65.6347 248.083 65.7649 247.656 65.9342 247.129C66.1035 246.595 66.2858 246.051 66.4811 245.498L68.7174 239.297H70.4655L65.8073 251.572C65.5599 252.23 65.2702 252.803 64.9381 253.291C64.6126 253.779 64.2155 254.154 63.7467 254.414C63.278 254.681 62.7116 254.814 62.0475 254.814C61.7415 254.814 61.4713 254.795 61.237 254.756C61.0026 254.723 60.8008 254.684 60.6315 254.639V253.34C60.7747 253.372 60.9472 253.402 61.1491 253.428C61.3574 253.454 61.5722 253.467 61.7936 253.467C62.1972 253.467 62.5455 253.389 62.8385 253.232C63.138 253.083 63.3952 252.861 63.61 252.568C63.8248 252.275 64.0104 251.927 64.1666 251.523L64.7526 250.02L60.4655 239.297ZM82.8374 236.982C82.0497 236.982 81.34 237.119 80.7085 237.393C80.0835 237.66 79.5497 238.05 79.107 238.564C78.6708 239.072 78.3355 239.688 78.1011 240.41C77.8667 241.133 77.7495 241.947 77.7495 242.852C77.7495 244.049 77.9351 245.091 78.3062 245.977C78.6838 246.855 79.2437 247.536 79.9859 248.018C80.7346 248.499 81.6688 248.74 82.7886 248.74C83.4266 248.74 84.0256 248.688 84.5855 248.584C85.1519 248.473 85.702 248.337 86.2359 248.174V249.619C85.715 249.814 85.1682 249.958 84.5952 250.049C84.0223 250.146 83.342 250.195 82.5542 250.195C81.1024 250.195 79.8882 249.896 78.9116 249.297C77.9416 248.691 77.2124 247.839 76.7241 246.738C76.2424 245.638 76.0015 244.339 76.0015 242.842C76.0015 241.761 76.1512 240.775 76.4507 239.883C76.7567 238.984 77.1994 238.21 77.7788 237.559C78.3648 236.908 79.0809 236.406 79.9273 236.055C80.7801 235.697 81.7567 235.518 82.857 235.518C83.5796 235.518 84.2762 235.589 84.9468 235.732C85.6174 235.876 86.2228 236.081 86.7632 236.348L86.0991 237.754C85.6434 237.546 85.1421 237.367 84.5952 237.217C84.0549 237.061 83.4689 236.982 82.8374 236.982ZM97.8759 244.629C97.8759 245.508 97.762 246.292 97.5341 246.982C97.3063 247.673 96.9775 248.255 96.5478 248.73C96.1181 249.206 95.5973 249.57 94.9853 249.824C94.3798 250.072 93.693 250.195 92.9248 250.195C92.2086 250.195 91.5511 250.072 90.9521 249.824C90.3597 249.57 89.8453 249.206 89.4091 248.73C88.9795 248.255 88.6442 247.673 88.4033 246.982C88.1689 246.292 88.0517 245.508 88.0517 244.629C88.0517 243.457 88.2503 242.461 88.6474 241.641C89.0446 240.814 89.611 240.186 90.3466 239.756C91.0888 239.32 91.971 239.102 92.9931 239.102C93.9697 239.102 94.8226 239.32 95.5517 239.756C96.2874 240.192 96.8571 240.824 97.2607 241.65C97.6709 242.471 97.8759 243.464 97.8759 244.629ZM89.7314 244.629C89.7314 245.488 89.8453 246.234 90.0732 246.865C90.3011 247.497 90.6526 247.985 91.1279 248.33C91.6032 248.675 92.2151 248.848 92.9638 248.848C93.706 248.848 94.3147 248.675 94.79 248.33C95.2718 247.985 95.6266 247.497 95.8545 246.865C96.0823 246.234 96.1963 245.488 96.1963 244.629C96.1963 243.776 96.0823 243.04 95.8545 242.422C95.6266 241.797 95.275 241.315 94.7998 240.977C94.3245 240.638 93.7093 240.469 92.9541 240.469C91.8408 240.469 91.0237 240.837 90.5029 241.572C89.9886 242.308 89.7314 243.327 89.7314 244.629ZM101.87 250H100.239V234.805H101.87V250ZM114.086 244.629C114.086 245.508 113.972 246.292 113.744 246.982C113.516 247.673 113.187 248.255 112.758 248.73C112.328 249.206 111.807 249.57 111.195 249.824C110.59 250.072 109.903 250.195 109.135 250.195C108.418 250.195 107.761 250.072 107.162 249.824C106.57 249.57 106.055 249.206 105.619 248.73C105.189 248.255 104.854 247.673 104.613 246.982C104.379 246.292 104.262 245.508 104.262 244.629C104.262 243.457 104.46 242.461 104.857 241.641C105.254 240.814 105.821 240.186 106.556 239.756C107.299 239.32 108.181 239.102 109.203 239.102C110.18 239.102 111.032 239.32 111.762 239.756C112.497 240.192 113.067 240.824 113.471 241.65C113.881 242.471 114.086 243.464 114.086 244.629ZM105.941 244.629C105.941 245.488 106.055 246.234 106.283 246.865C106.511 247.497 106.862 247.985 107.338 248.33C107.813 248.675 108.425 248.848 109.174 248.848C109.916 248.848 110.525 248.675 111 248.33C111.482 247.985 111.836 247.497 112.064 246.865C112.292 246.234 112.406 245.488 112.406 244.629C112.406 243.776 112.292 243.04 112.064 242.422C111.836 241.797 111.485 241.315 111.01 240.977C110.534 240.638 109.919 240.469 109.164 240.469C108.051 240.469 107.234 240.837 106.713 241.572C106.198 242.308 105.941 243.327 105.941 244.629ZM121.312 239.102C121.527 239.102 121.751 239.115 121.986 239.141C122.22 239.16 122.428 239.189 122.611 239.229L122.406 240.732C122.23 240.687 122.034 240.651 121.82 240.625C121.605 240.599 121.403 240.586 121.214 240.586C120.784 240.586 120.378 240.674 119.993 240.85C119.616 241.019 119.284 241.266 118.997 241.592C118.711 241.911 118.486 242.298 118.324 242.754C118.161 243.203 118.079 243.704 118.079 244.258V250H116.449V239.297H117.796L117.972 241.27H118.04C118.262 240.872 118.529 240.511 118.841 240.186C119.154 239.854 119.515 239.59 119.925 239.395C120.342 239.199 120.804 239.102 121.312 239.102Z" fill="#161615"/>
<path d="M624.262 218H621.244V209.738C621.244 209.51 621.247 209.23 621.254 208.898C621.26 208.56 621.27 208.215 621.283 207.863C621.296 207.505 621.309 207.183 621.322 206.896C621.251 206.981 621.104 207.128 620.883 207.336C620.668 207.538 620.466 207.72 620.277 207.883L618.637 209.201L617.182 207.385L621.781 203.723H624.262V218ZM627.768 211.936C627.768 211.115 627.827 210.305 627.944 209.504C628.068 208.697 628.28 207.938 628.579 207.229C628.878 206.512 629.298 205.881 629.839 205.334C630.379 204.781 631.066 204.348 631.899 204.035C632.733 203.716 633.742 203.557 634.927 203.557C635.207 203.557 635.532 203.57 635.903 203.596C636.281 203.615 636.593 203.651 636.841 203.703V206.115C636.58 206.057 636.3 206.011 636.001 205.979C635.708 205.939 635.415 205.92 635.122 205.92C633.937 205.92 633.019 206.109 632.368 206.486C631.724 206.864 631.268 207.388 631.001 208.059C630.74 208.723 630.587 209.497 630.542 210.383H630.669C630.851 210.064 631.079 209.781 631.352 209.533C631.632 209.286 631.971 209.09 632.368 208.947C632.765 208.798 633.231 208.723 633.765 208.723C634.598 208.723 635.321 208.902 635.932 209.26C636.544 209.611 637.016 210.122 637.349 210.793C637.681 211.464 637.847 212.281 637.847 213.244C637.847 214.273 637.648 215.158 637.251 215.9C636.854 216.643 636.291 217.212 635.561 217.609C634.839 218 633.979 218.195 632.983 218.195C632.254 218.195 631.574 218.072 630.942 217.824C630.311 217.57 629.757 217.186 629.282 216.672C628.807 216.158 628.436 215.51 628.169 214.729C627.902 213.941 627.768 213.01 627.768 211.936ZM632.925 215.783C633.517 215.783 633.999 215.581 634.37 215.178C634.741 214.774 634.927 214.143 634.927 213.283C634.927 212.587 634.764 212.04 634.438 211.643C634.119 211.239 633.634 211.037 632.983 211.037C632.541 211.037 632.15 211.138 631.811 211.34C631.479 211.535 631.222 211.786 631.04 212.092C630.858 212.391 630.766 212.701 630.766 213.02C630.766 213.352 630.812 213.68 630.903 214.006C630.994 214.331 631.131 214.628 631.313 214.895C631.496 215.161 631.72 215.376 631.987 215.539C632.261 215.702 632.573 215.783 632.925 215.783ZM646.392 218H643.375V209.738C643.375 209.51 643.378 209.23 643.385 208.898C643.391 208.56 643.401 208.215 643.414 207.863C643.427 207.505 643.44 207.183 643.453 206.896C643.381 206.981 643.235 207.128 643.013 207.336C642.799 207.538 642.597 207.72 642.408 207.883L640.767 209.201L639.312 207.385L643.912 203.723H646.392V218ZM649.899 211.936C649.899 211.115 649.958 210.305 650.075 209.504C650.199 208.697 650.41 207.938 650.71 207.229C651.009 206.512 651.429 205.881 651.969 205.334C652.51 204.781 653.197 204.348 654.03 204.035C654.863 203.716 655.872 203.557 657.057 203.557C657.337 203.557 657.663 203.57 658.034 203.596C658.411 203.615 658.724 203.651 658.971 203.703V206.115C658.711 206.057 658.431 206.011 658.131 205.979C657.839 205.939 657.546 205.92 657.253 205.92C656.068 205.92 655.15 206.109 654.499 206.486C653.854 206.864 653.398 207.388 653.131 208.059C652.871 208.723 652.718 209.497 652.673 210.383H652.799C652.982 210.064 653.21 209.781 653.483 209.533C653.763 209.286 654.102 209.09 654.499 208.947C654.896 208.798 655.361 208.723 655.895 208.723C656.728 208.723 657.451 208.902 658.063 209.26C658.675 209.611 659.147 210.122 659.479 210.793C659.811 211.464 659.977 212.281 659.977 213.244C659.977 214.273 659.779 215.158 659.381 215.9C658.984 216.643 658.421 217.212 657.692 217.609C656.969 218 656.11 218.195 655.114 218.195C654.385 218.195 653.704 218.072 653.073 217.824C652.441 217.57 651.888 217.186 651.413 216.672C650.937 216.158 650.566 215.51 650.299 214.729C650.033 213.941 649.899 213.01 649.899 211.936ZM655.055 215.783C655.648 215.783 656.13 215.581 656.501 215.178C656.872 214.774 657.057 214.143 657.057 213.283C657.057 212.587 656.895 212.04 656.569 211.643C656.25 211.239 655.765 211.037 655.114 211.037C654.671 211.037 654.281 211.138 653.942 211.34C653.61 211.535 653.353 211.786 653.171 212.092C652.988 212.391 652.897 212.701 652.897 213.02C652.897 213.352 652.943 213.68 653.034 214.006C653.125 214.331 653.262 214.628 653.444 214.895C653.626 215.161 653.851 215.376 654.118 215.539C654.391 215.702 654.704 215.783 655.055 215.783ZM668.523 218H665.505V209.738C665.505 209.51 665.509 209.23 665.515 208.898C665.522 208.56 665.531 208.215 665.544 207.863C665.557 207.505 665.57 207.183 665.584 206.896C665.512 206.981 665.365 207.128 665.144 207.336C664.929 207.538 664.727 207.72 664.539 207.883L662.898 209.201L661.443 207.385L666.042 203.723H668.523V218ZM677.323 208.879C678.195 208.879 678.97 209.045 679.647 209.377C680.33 209.709 680.868 210.197 681.258 210.842C681.649 211.486 681.844 212.281 681.844 213.225C681.844 214.253 681.629 215.142 681.2 215.891C680.776 216.633 680.142 217.202 679.295 217.6C678.455 217.997 677.407 218.195 676.151 218.195C675.402 218.195 674.696 218.13 674.032 218C673.374 217.876 672.798 217.684 672.303 217.424V214.816C672.798 215.077 673.39 215.298 674.08 215.48C674.777 215.656 675.431 215.744 676.043 215.744C676.642 215.744 677.147 215.666 677.557 215.51C677.967 215.347 678.276 215.1 678.485 214.768C678.7 214.429 678.807 213.999 678.807 213.479C678.807 212.782 678.573 212.248 678.104 211.877C677.635 211.506 676.916 211.32 675.946 211.32C675.575 211.32 675.187 211.356 674.784 211.428C674.386 211.499 674.054 211.571 673.787 211.643L672.586 210.998L673.123 203.723H680.868V206.281H675.77L675.506 209.084C675.728 209.038 675.968 208.993 676.229 208.947C676.489 208.902 676.854 208.879 677.323 208.879Z" fill="#161615"/>
</svg>
