<svg width="51" height="59" viewBox="0 0 51 59" fill="none" xmlns="http://www.w3.org/2000/svg">
<path d="M30.5987 57.9072C30.5987 58.197 30.4836 58.475 30.2786 58.6799C30.0737 58.8849 29.7958 59 29.5059 59H20.7637C20.4739 59 20.196 58.8849 19.991 58.6799C19.7861 58.475 19.671 58.197 19.671 57.9072C19.671 57.6174 19.7861 57.3395 19.991 57.1345C20.196 56.9296 20.4739 56.8145 20.7637 56.8145H29.5059C29.7958 56.8145 30.0737 56.9296 30.2786 57.1345C30.4836 57.3395 30.5987 57.6174 30.5987 57.9072ZM25.1348 26.2168C25.5671 26.2168 25.9897 26.0886 26.3491 25.8485C26.7085 25.6083 26.9886 25.267 27.154 24.8676C27.3194 24.4683 27.3627 24.0288 27.2784 23.6049C27.1941 23.1809 26.9859 22.7915 26.6803 22.4859C26.3746 22.1802 25.9852 21.972 25.5612 21.8877C25.1373 21.8034 24.6978 21.8467 24.2985 22.0121C23.8991 22.1775 23.5578 22.4576 23.3176 22.817C23.0775 23.1765 22.9493 23.599 22.9493 24.0313C22.9493 24.6109 23.1796 25.1668 23.5894 25.5767C23.9993 25.9865 24.5552 26.2168 25.1348 26.2168ZM50.1921 39.0569L46.8127 54.2464C46.6944 54.7905 46.4383 55.295 46.069 55.7116C45.6997 56.1283 45.2295 56.4431 44.7037 56.6259C44.3525 56.7495 43.9831 56.8132 43.6109 56.8145C42.8735 56.8139 42.1579 56.5636 41.5811 56.1041L33.836 50.2578H16.4336L8.69134 56.1041C8.11447 56.5636 7.39896 56.8139 6.66151 56.8145C6.28927 56.8132 5.91988 56.7495 5.56874 56.6259C5.04286 56.4431 4.57275 56.1283 4.20346 55.7116C3.83416 55.295 3.57806 54.7905 3.45969 54.2464L0.0775558 39.0569C-0.0307829 38.5677 -0.0255529 38.0602 0.0928441 37.5733C0.211241 37.0865 0.439655 36.6333 0.760539 36.2485L8.77876 26.6239C9.6803 12.0545 20.2064 2.94348 23.1269 0.686904C23.7015 0.241635 24.4079 0 25.1348 0C25.8618 0 26.5682 0.241635 27.1428 0.686904C30.0632 2.94348 40.5894 12.0545 41.4909 26.6239L49.5091 36.2485C49.83 36.6333 50.0584 37.0865 50.1768 37.5733C50.2952 38.0602 50.3005 38.5677 50.1921 39.0569ZM16.6959 48.0723H33.5738C48.6486 21.9796 29.7791 5.46779 25.8069 2.40529C25.6149 2.25553 25.3783 2.1742 25.1348 2.1742C24.8913 2.1742 24.6548 2.25553 24.4628 2.40529C20.4906 5.46779 1.6211 21.9796 16.6959 48.0723ZM14.6415 48.8727C10.6884 41.9418 8.99732 35.6474 8.74325 30.0579L2.43794 37.6363C2.33101 37.7647 2.25496 37.916 2.21565 38.0785C2.17634 38.2409 2.17481 38.4102 2.21119 38.5733L5.58786 53.7711C5.62782 53.9526 5.71343 54.121 5.8366 54.2602C5.95976 54.3995 6.11642 54.505 6.29174 54.5668C6.46706 54.6286 6.65525 54.6447 6.83851 54.6135C7.02177 54.5823 7.19405 54.5048 7.33903 54.3885L7.36362 54.3694L14.6415 48.8727ZM47.8317 37.6363L41.5264 30.0579C41.2833 35.6474 39.5922 41.9418 35.6391 48.8727L42.917 54.3694L42.9416 54.3885C43.0866 54.5048 43.2588 54.5823 43.4421 54.6135C43.6254 54.6447 43.8135 54.6286 43.9889 54.5668C44.1642 54.505 44.3208 54.3995 44.444 54.2602C44.5672 54.121 44.6528 53.9526 44.6927 53.7711L48.0694 38.5733C48.1043 38.4094 48.101 38.2396 48.0598 38.0771C48.0186 37.9146 47.9406 37.7638 47.8317 37.6363Z" fill="black"/>
<path fill-rule="evenodd" clip-rule="evenodd" d="M16.6959 48.0723H33.5738C48.6486 21.9796 29.7791 5.46779 25.8069 2.40529C25.6149 2.25553 25.3783 2.1742 25.1348 2.1742C24.8913 2.1742 24.6548 2.25553 24.4628 2.40529C20.4906 5.46779 1.6211 21.9796 16.6959 48.0723ZM26.3491 25.8485C25.9897 26.0886 25.5671 26.2168 25.1348 26.2168C24.5552 26.2168 23.9993 25.9865 23.5894 25.5767C23.1796 25.1668 22.9493 24.6109 22.9493 24.0313C22.9493 23.599 23.0775 23.1765 23.3176 22.817C23.5578 22.4576 23.8991 22.1775 24.2985 22.0121C24.6978 21.8467 25.1373 21.8034 25.5612 21.8877C25.9852 21.972 26.3746 22.1802 26.6803 22.4859C26.9859 22.7915 27.1941 23.1809 27.2784 23.6049C27.3627 24.0288 27.3194 24.4683 27.154 24.8676C26.9886 25.267 26.7085 25.6083 26.3491 25.8485Z" fill="#E0DBD3"/>
</svg>
