<svg width="58" height="69" viewBox="0 0 58 69" fill="none" xmlns="http://www.w3.org/2000/svg">
<path d="M45 57.5008H12C13.8333 54.3341 20 48.1008 30 48.5008C40 48.9008 44.1667 54.6675 45 57.5008Z" fill="#E0DBD3"/>
<circle cx="29" cy="37" r="12" fill="#E0DBD3"/>
<path d="M35.4315 47.8688C37.7472 46.461 39.539 44.3345 40.5335 41.8136C41.528 39.2926 41.6707 36.5155 40.9397 33.9059C40.2088 31.2963 38.6443 28.9974 36.485 27.3598C34.3257 25.7222 31.69 24.8358 28.98 24.8358C26.27 24.8358 23.6343 25.7222 21.475 27.3598C19.3157 28.9974 17.7512 31.2963 17.0203 33.9059C16.2893 36.5155 16.432 39.2926 17.4265 41.8136C18.421 44.3345 20.2128 46.461 22.5285 47.8688C18.0452 49.232 14.116 51.9946 11.316 55.752C11.0964 56.0448 11.0021 56.4128 11.0539 56.7752C11.1056 57.1375 11.2992 57.4644 11.592 57.684C11.8848 57.9036 12.2528 57.9979 12.6152 57.9461C12.9775 57.8944 13.3044 57.7008 13.524 57.408C15.3236 55.0085 17.6571 53.061 20.3398 51.7197C23.0225 50.3783 25.9807 49.68 28.98 49.68C31.9793 49.68 34.9375 50.3783 37.6202 51.7197C40.3029 53.061 42.6364 55.0085 44.436 57.408C44.5447 57.553 44.681 57.6751 44.8369 57.7675C44.9928 57.8598 45.1654 57.9205 45.3448 57.9461C45.5242 57.9718 45.7069 57.9618 45.8825 57.9168C46.058 57.8718 46.223 57.7927 46.368 57.684C46.513 57.5753 46.6351 57.439 46.7275 57.2831C46.8198 57.1272 46.8805 56.9546 46.9061 56.7752C46.9318 56.5958 46.9218 56.4131 46.8768 56.2375C46.8318 56.062 46.7527 55.897 46.644 55.752C43.8433 51.9953 39.9144 49.2329 35.4315 47.8688ZM19.32 37.26C19.32 35.3494 19.8865 33.4818 20.948 31.8932C22.0095 30.3046 23.5181 29.0665 25.2833 28.3353C27.0484 27.6042 28.9907 27.4129 30.8646 27.7856C32.7384 28.1583 34.4597 29.0784 35.8107 30.4293C37.1616 31.7803 38.0817 33.5016 38.4544 35.3754C38.8271 37.2493 38.6358 39.1916 37.9047 40.9567C37.1735 42.7219 35.9354 44.2305 34.3468 45.292C32.7582 46.3534 30.8906 46.92 28.98 46.92C26.418 46.92 23.961 45.9023 22.1493 44.0907C20.3377 42.2791 19.32 39.822 19.32 37.26ZM53.82 0H4.14C3.042 0 1.98898 0.436177 1.21258 1.21258C0.436177 1.98898 0 3.042 0 4.14V64.86C0 65.958 0.436177 67.011 1.21258 67.7874C1.98898 68.5638 3.042 69 4.14 69H53.82C54.918 69 55.971 68.5638 56.7474 67.7874C57.5238 67.011 57.96 65.958 57.96 64.86V4.14C57.96 3.042 57.5238 1.98898 56.7474 1.21258C55.971 0.436177 54.918 0 53.82 0ZM55.2 64.86C55.2 65.226 55.0546 65.577 54.7958 65.8358C54.537 66.0946 54.186 66.24 53.82 66.24H4.14C3.774 66.24 3.42299 66.0946 3.16419 65.8358C2.90539 65.577 2.76 65.226 2.76 64.86V4.14C2.76 3.774 2.90539 3.42299 3.16419 3.16419C3.42299 2.90539 3.774 2.76 4.14 2.76H53.82C54.186 2.76 54.537 2.90539 54.7958 3.16419C55.0546 3.42299 55.2 3.774 55.2 4.14V64.86ZM16.56 12.42C16.56 12.054 16.7054 11.703 16.9642 11.4442C17.223 11.1854 17.574 11.04 17.94 11.04H40.02C40.386 11.04 40.737 11.1854 40.9958 11.4442C41.2546 11.703 41.4 12.054 41.4 12.42C41.4 12.786 41.2546 13.137 40.9958 13.3958C40.737 13.6546 40.386 13.8 40.02 13.8H17.94C17.574 13.8 17.223 13.6546 16.9642 13.3958C16.7054 13.137 16.56 12.786 16.56 12.42Z" fill="black"/>
</svg>
