<svg width="94" height="69" viewBox="0 0 94 69" fill="none" xmlns="http://www.w3.org/2000/svg">
<path d="M71 69H24C26.6111 63.733 35.3939 53.3652 49.6364 54.0305C63.8788 54.6959 69.8131 64.2874 71 69Z" fill="#E0DBD3"/>
<circle cx="47.5" cy="36.5" r="16.5" fill="#E0DBD3"/>
<path d="M92.4146 39.2023C92.0399 39.4244 91.5923 39.4886 91.1702 39.3808C90.7481 39.273 90.3861 39.0019 90.1638 38.6272C86.7424 32.877 81.5672 29.5911 75.9689 29.5911C75.8014 29.589 75.6352 29.5613 75.4761 29.509C74.9576 29.5633 74.4366 29.5907 73.9153 29.5911C73.4796 29.5911 73.0617 29.418 72.7536 29.1099C72.4454 28.8018 72.2724 28.3839 72.2724 27.9482C72.2724 27.5125 72.4454 27.0946 72.7536 26.7865C73.0617 26.4784 73.4796 26.3053 73.9153 26.3053C76.0661 26.3046 78.1736 25.7008 79.9985 24.5624C81.8233 23.424 83.2924 21.7967 84.2388 19.8653C85.1852 17.9339 85.5711 15.7758 85.3525 13.6361C85.1339 11.4964 84.3197 9.46089 83.0023 7.76074C81.6849 6.06058 79.9172 4.76392 77.8999 4.01802C75.8825 3.27213 73.6964 3.10689 71.5899 3.54109C69.4834 3.97528 67.5408 4.9915 65.9828 6.47432C64.4249 7.95715 63.3139 9.84715 62.7762 11.9297C62.6673 12.3518 62.3951 12.7133 62.0196 12.9348C61.6441 13.1562 61.196 13.2195 60.7739 13.1105C60.3518 13.0016 59.9903 12.7294 59.7688 12.3539C59.5473 11.9784 59.4841 11.5303 59.5931 11.1082C60.196 8.77033 61.3622 6.61565 62.9899 4.83241C64.6176 3.04918 66.6571 1.69164 68.9304 0.878403C71.2037 0.0651635 73.6416 -0.179036 76.031 0.167138C78.4204 0.513312 80.6888 1.43933 82.6378 2.86429C84.5868 4.28924 86.1573 6.16979 87.2119 8.34163C88.2666 10.5135 88.7734 12.9105 88.688 15.3234C88.6027 17.7363 87.9278 20.0915 86.7223 22.1834C85.5168 24.2753 83.8174 26.0402 81.7726 27.3239C86.2126 28.9052 90.1967 32.2527 92.9897 36.9679C93.2066 37.3412 93.268 37.7849 93.1603 38.203C93.0527 38.6211 92.7849 38.9801 92.4146 39.2023ZM72.067 66.5406C72.2845 66.9176 72.3435 67.3654 72.231 67.7859C72.1186 68.2063 71.8439 68.565 71.4673 68.7831C71.2183 68.9292 70.9346 69.0058 70.6459 69.0049C70.3577 69.0046 70.0748 68.9286 69.8253 68.7844C69.5759 68.6402 69.3688 68.433 69.2247 68.1835C67.0104 64.4296 63.8551 61.3183 60.0706 59.1569C56.2861 56.9954 52.0032 55.8585 47.6449 55.8585C43.2866 55.8585 39.0037 56.9954 35.2192 59.1569C31.4346 61.3183 28.2794 64.4296 26.065 68.1835C25.8377 68.5411 25.481 68.797 25.0694 68.8978C24.6578 68.9987 24.2232 68.9365 23.8564 68.7245C23.4895 68.5124 23.2187 68.1668 23.1007 67.7598C22.9826 67.3529 23.0264 66.916 23.2228 66.5406C26.789 60.4169 32.5391 55.8684 39.3194 53.8079C35.7267 51.9432 32.8641 48.9264 31.1903 45.241C29.5165 41.5556 29.1283 37.415 30.088 33.4827C31.0477 29.5504 33.2998 26.0541 36.4832 23.5542C39.6667 21.0543 43.5972 19.6954 47.6449 19.6954C51.6926 19.6954 55.6231 21.0543 58.8065 23.5542C61.99 26.0541 64.242 29.5504 65.2017 33.4827C66.1615 37.415 65.7733 41.5556 64.0995 45.241C62.4256 48.9264 59.563 51.9432 55.9704 53.8079C62.7507 55.8684 68.5008 60.4169 72.067 66.5406ZM47.6449 52.5757C50.5693 52.5757 53.4281 51.7085 55.8597 50.0837C58.2913 48.459 60.1865 46.1497 61.3057 43.4478C62.4248 40.746 62.7176 37.7729 62.1471 34.9047C61.5766 32.0364 60.1683 29.4017 58.1004 27.3338C56.0325 25.2659 53.3978 23.8576 50.5296 23.2871C47.6613 22.7166 44.6882 23.0094 41.9864 24.1285C39.2845 25.2477 36.9752 27.1429 35.3505 29.5745C33.7257 32.0061 32.8585 34.8649 32.8585 37.7893C32.8585 41.7109 34.4164 45.4719 37.1894 48.2449C39.9623 51.0178 43.7233 52.5757 47.6449 52.5757ZM21.3581 26.2889C19.2072 26.2882 17.0997 25.6843 15.2749 24.5459C13.45 23.4076 11.9809 21.7803 11.0345 19.8489C10.0881 17.9174 9.70228 15.7593 9.92085 13.6197C10.1394 11.48 10.9536 9.44446 12.271 7.74431C13.5884 6.04415 15.3561 4.74749 17.3735 4.00159C19.3908 3.2557 21.5769 3.09046 23.6834 3.52466C25.79 3.95885 27.7325 4.97507 29.2905 6.4579C30.8485 7.94072 31.9594 9.83072 32.4971 11.9132C32.606 12.3354 32.8782 12.6969 33.2537 12.9184C33.6292 13.1398 34.0773 13.203 34.4994 13.0941C34.9215 12.9852 35.2831 12.713 35.5045 12.3375C35.726 11.962 35.7892 11.5139 35.6803 11.0918C35.0748 8.74559 33.9021 6.58415 32.2652 4.79758C30.6284 3.01101 28.5776 1.65408 26.2932 0.846164C24.0088 0.0382438 21.5609 -0.195907 19.1647 0.16431C16.7686 0.524527 14.4978 1.46807 12.5519 2.91194C10.606 4.35581 9.04482 6.25575 8.0056 8.44462C6.96638 10.6335 6.481 13.0442 6.59216 15.4647C6.70333 17.8852 7.40762 20.2413 8.6431 22.3257C9.87857 24.4101 11.6074 26.1589 13.6774 27.4184C8.33912 29.0398 3.66084 32.329 0.328592 36.8036C0.0671533 37.1522 -0.0451028 37.5903 0.016519 38.0217C0.0781407 38.453 0.308592 38.8422 0.657178 39.1037C1.00576 39.3651 1.44393 39.4774 1.87528 39.4158C2.30663 39.3541 2.69584 39.1237 2.95728 38.7751C5.08968 35.9077 7.86575 33.5813 11.0619 31.9833C14.258 30.3852 17.7847 29.5602 21.3581 29.5747C21.7938 29.5747 22.2117 29.4016 22.5198 29.0935C22.8279 28.7854 23.001 28.3675 23.001 27.9318C23.001 27.496 22.8279 27.0782 22.5198 26.7701C22.2117 26.4619 21.7938 26.2889 21.3581 26.2889Z" fill="black"/>
</svg>
