<svg width="69" height="69" viewBox="0 0 69 69" fill="none" xmlns="http://www.w3.org/2000/svg">
<path d="M67.7318 17.3271L51.6729 1.26827C51.2723 0.866273 50.7963 0.547309 50.2721 0.32967C49.748 0.112032 49.1861 0 48.6185 0C48.051 0 47.4891 0.112032 46.9649 0.32967C46.4408 0.547309 45.9648 0.866273 45.5641 1.26827L1.26489 45.5819C0.862758 45.9807 0.543867 46.4555 0.326732 46.9786C0.109596 47.5017 -0.00145906 48.0627 1.44735e-05 48.6291V64.6879C1.44735e-05 65.8316 0.454319 66.9283 1.26299 67.737C2.07166 68.5457 3.16845 69 4.31208 69H20.3709C21.5136 68.9999 22.6096 68.5463 23.4181 67.7387L67.7281 23.4251C68.1301 23.0245 68.4491 22.5485 68.6668 22.0243C68.8844 21.5002 68.9964 20.9382 68.9964 20.3707C68.9964 19.8032 68.8844 19.2412 68.6668 18.7171C68.4491 18.193 68.1301 17.7169 67.7281 17.3163L67.7318 17.3271ZM3.47123 47.4397L35.9339 14.9734L43.9615 23.0047L11.4988 55.4673L3.47123 47.4397ZM2.87472 64.6879V50.9109L10.4819 58.5181L18.0891 66.1253H4.31208C3.93087 66.1253 3.56527 65.9739 3.29571 65.7043C3.02616 65.4347 2.87472 65.0691 2.87472 64.6879ZM21.5603 65.5288L13.5327 57.5012L45.9954 25.0349L54.023 33.0661L37.7917 49.2975L21.5603 65.5288ZM65.6979 21.3912L56.0568 31.0323L37.9677 12.9432L47.6052 3.30213C47.7387 3.16849 47.8972 3.06247 48.0717 2.99014C48.2462 2.9178 48.4332 2.88057 48.6221 2.88057C48.811 2.88057 48.9981 2.9178 49.1725 2.99014C49.347 3.06247 49.5056 3.16849 49.639 3.30213L65.6979 19.3574C65.8315 19.4909 65.9375 19.6494 66.0099 19.8239C66.0822 19.9984 66.1194 20.1854 66.1194 20.3743C66.1194 20.5632 66.0822 20.7502 66.0099 20.9247C65.9375 21.0992 65.8315 21.2577 65.6979 21.3912Z" fill="black"/>
<path d="M3.47123 47.4397L35.9339 14.9734L43.9615 23.0047L11.4988 55.4673L3.47123 47.4397Z" fill="#E0DBD3"/>
<path d="M21.5603 65.5288L13.5327 57.5012L45.9954 25.0349L54.023 33.0661L37.7917 49.2975L21.5603 65.5288Z" fill="#E0DBD3"/>
</svg>
