<svg width="63" height="60" viewBox="0 0 63 60" fill="none" xmlns="http://www.w3.org/2000/svg">
<path d="M0 9.37668C0 6.88983 0.972625 4.50484 2.70391 2.74637C4.43519 0.987898 6.78332 0 9.23172 0H42.4659C44.9143 0 47.2625 0.987898 48.9937 2.74637C50.725 4.50484 51.6977 6.88983 51.6977 9.37668V17.6694C50.4369 17.7656 49.1948 18.0343 48.005 18.4683V14.9989H3.69269V43.129C3.69269 44.6211 4.27627 46.0521 5.31504 47.1072C6.35381 48.1623 7.76268 48.755 9.23172 48.755H33.9358L32.3184 51.6055C32.1526 51.896 32.0046 52.1966 31.8753 52.5057H9.23172C6.78332 52.5057 4.43519 51.5178 2.70391 49.7593C0.972625 48.0008 0 45.6158 0 43.129V9.37668ZM9.22803 3.74692C7.75899 3.74692 6.35011 4.33966 5.31134 5.39474C4.27257 6.44983 3.689 7.88082 3.689 9.37293V11.2483H48.0013V9.37293C48.0013 7.88082 47.4177 6.44983 46.3789 5.39474C45.3402 4.33966 43.9313 3.74692 42.4622 3.74692H9.22803ZM43.847 26.5923C42.8602 28.3275 42.3866 30.3148 42.4828 32.3163C42.5791 34.3178 43.2412 36.2488 44.3898 37.8781L35.5163 53.4846C34.9492 54.4823 34.7956 55.668 35.0893 56.7807C35.3829 57.8935 36.0997 58.8422 37.082 59.4182C38.0643 59.9941 39.2316 60.1501 40.3272 59.8519C41.4227 59.5537 42.3568 58.8256 42.9238 57.8279L51.8121 42.1876C53.8445 42.3738 55.8855 41.9405 57.6743 40.9431C59.4632 39.9457 60.9187 38.4294 61.8552 36.5878C62.7917 34.7462 63.1665 32.663 62.9319 30.604C62.6973 28.5451 61.8638 26.6038 60.5379 25.0282L55.7005 33.5423C55.2313 34.3082 54.4874 34.8589 53.6259 35.0781C52.7644 35.2972 51.8527 35.1678 51.0835 34.717C50.3142 34.2662 49.7475 33.5293 49.5032 32.6621C49.2588 31.7949 49.3558 30.8651 49.7738 30.0692L54.6112 21.5551C52.5244 21.1615 50.3688 21.4345 48.4411 22.3366C46.5134 23.2387 44.9084 24.7254 43.847 26.5923Z" fill="#123637"/>
</svg>
