<svg width="47" height="59" viewBox="0 0 47 59" fill="none" xmlns="http://www.w3.org/2000/svg">
<path d="M46.4752 26.8704C46.4682 26.8535 46.4597 26.8373 46.4497 26.8221L38.6552 12.9545V3.05172C38.6552 2.24235 38.3336 1.46614 37.7613 0.893827C37.189 0.321519 36.4128 0 35.6034 0H11.1897C10.3803 0 9.60412 0.321519 9.03181 0.893827C8.4595 1.46614 8.13798 2.24235 8.13798 3.05172V12.9698L0.340843 26.8221L0.315413 26.8704C0.0659429 27.3756 -0.038785 27.94 0.0128348 28.5011C0.0644546 29.0622 0.270406 29.598 0.607868 30.0492L22.5904 58.6031C22.6854 58.7266 22.8075 58.8266 22.9473 58.8954C23.0871 58.9642 23.2408 59 23.3966 59C23.5524 59 23.7061 58.9642 23.8458 58.8954C23.9856 58.8266 24.1077 58.7266 24.2027 58.6031L46.198 30.0314C46.5296 29.5806 46.7309 29.0473 46.7797 28.4898C46.8286 27.9323 46.7233 27.372 46.4752 26.8704ZM11.1897 2.03448H35.6034C35.8732 2.03448 36.132 2.14165 36.3227 2.33242C36.5135 2.52319 36.6207 2.78193 36.6207 3.05172V12.2069H10.1725V3.05172C10.1725 2.78193 10.2796 2.52319 10.4704 2.33242C10.6612 2.14165 10.9199 2.03448 11.1897 2.03448ZM23.3966 32.5517C22.5918 32.5517 21.8051 32.313 21.136 31.8659C20.4668 31.4188 19.9453 30.7833 19.6373 30.0398C19.3294 29.2963 19.2488 28.4782 19.4058 27.6889C19.5628 26.8996 19.9503 26.1746 20.5194 25.6055C21.0884 25.0365 21.8135 24.6489 22.6028 24.4919C23.3921 24.3349 24.2102 24.4155 24.9537 24.7235C25.6972 25.0314 26.3327 25.553 26.7798 26.2221C27.2269 26.8912 27.4655 27.6779 27.4655 28.4827C27.4655 29.5618 27.0368 30.5968 26.2738 31.3599C25.5107 32.123 24.4757 32.5517 23.3966 32.5517ZM44.5729 28.8082L24.4138 54.9945V34.4997C25.9228 34.2446 27.2809 33.432 28.2189 32.2228C29.157 31.0136 29.6066 29.4962 29.4786 27.9712C29.3506 26.4462 28.6544 25.0249 27.528 23.989C26.4015 22.9531 24.9269 22.3782 23.3966 22.3782C21.8662 22.3782 20.3917 22.9531 19.2652 23.989C18.1387 25.0249 17.4425 26.4462 17.3145 27.9712C17.1865 29.4962 17.6361 31.0136 18.5742 32.2228C19.5123 33.432 20.8704 34.2446 22.3793 34.4997V54.9919L2.23291 28.8235C2.12487 28.6763 2.05842 28.5028 2.04052 28.3212C2.02262 28.1395 2.05394 27.9564 2.13118 27.791L9.75285 14.2413H37.0428L44.6721 27.791C44.7468 27.9542 44.777 28.1343 44.7596 28.313C44.7421 28.4916 44.6778 28.6625 44.5729 28.8082Z" fill="black"/>
<path d="M44.5729 28.8082L24.4138 54.9945V34.4997C25.9228 34.2446 27.2809 33.432 28.2189 32.2228C29.157 31.0136 29.6066 29.4962 29.4786 27.9712C29.3506 26.4462 28.6544 25.0249 27.528 23.989C26.4015 22.9531 24.9269 22.3782 23.3966 22.3782C21.8662 22.3782 20.3917 22.9531 19.2652 23.989C18.1387 25.0249 17.4425 26.4462 17.3145 27.9712C17.1865 29.4962 17.6361 31.0136 18.5742 32.2228C19.5123 33.432 20.8704 34.2446 22.3793 34.4997V54.9919L2.23291 28.8235C2.12487 28.6763 2.05842 28.5028 2.04052 28.3212C2.02262 28.1395 2.05394 27.9564 2.13118 27.791L9.75285 14.2413H37.0428L44.6721 27.791C44.7468 27.9542 44.777 28.1343 44.7596 28.313C44.7421 28.4916 44.6778 28.6625 44.5729 28.8082Z" fill="#E0DBD3"/>
</svg>
