<svg width="72" height="52" viewBox="0 0 72 52" fill="none" xmlns="http://www.w3.org/2000/svg">
<rect x="0.867188" y="11.2676" width="64.1374" height="39.8692" fill="#E0DBD3"/>
<path d="M0.611816 0.00319875C0.437679 0.036422 0.280878 0.130093 0.169087 0.267668C0.057296 0.405242 -0.00229708 0.57788 0.000825855 0.755113V11.2114C-0.000275285 11.2348 -0.000275285 11.2584 0.000825855 11.2819V50.3813C0.000840878 50.5807 0.0800722 50.772 0.221094 50.913C0.362115 51.054 0.553377 51.1332 0.752814 51.1332H63.9199C63.9668 51.1376 64.014 51.1376 64.0609 51.1332C64.1358 51.113 64.2071 51.0813 64.2724 51.0392C64.2962 51.0326 64.3198 51.0248 64.3429 51.0159C64.4059 50.9699 64.4614 50.9145 64.5073 50.8515C64.614 50.7181 64.672 50.5524 64.6718 50.3816V11.2821C64.6729 11.2586 64.6729 11.2351 64.6718 11.2116V0.755342C64.6718 0.55593 64.5926 0.364656 64.4516 0.223651C64.3106 0.082645 64.1193 0.00344806 63.9199 0.00342824H0.752816C0.70592 -0.000986771 0.658712 -0.00121626 0.611816 0.00319875ZM1.5048 1.50703H63.1679V10.53H1.5048V1.50703ZM7.37971 5.26655C7.28096 5.27581 7.185 5.30444 7.09731 5.35078C7.00961 5.39712 6.93191 5.4603 6.86862 5.53667C6.80534 5.61303 6.75772 5.70109 6.72848 5.79586C6.69925 5.89063 6.68896 5.99022 6.69822 6.08897C6.70748 6.18771 6.7361 6.2837 6.78244 6.37138C6.82879 6.45907 6.89195 6.53673 6.96832 6.6C7.0447 6.66328 7.13279 6.7109 7.22757 6.74013C7.32235 6.76937 7.42196 6.77968 7.52071 6.77043H10.5287C10.6283 6.7718 10.7272 6.75334 10.8196 6.71617C10.9121 6.679 10.9962 6.62383 11.0672 6.55388C11.1381 6.48392 11.1944 6.40055 11.2329 6.30864C11.2713 6.21673 11.2911 6.11814 11.2911 6.01851C11.2911 5.91889 11.2713 5.82025 11.2329 5.72834C11.1944 5.63643 11.1381 5.55306 11.0672 5.4831C10.9962 5.41314 10.9121 5.35797 10.8196 5.3208C10.7272 5.28363 10.6283 5.26518 10.5287 5.26655H7.52071C7.47382 5.26214 7.42661 5.26214 7.37971 5.26655ZM16.4036 5.26655C16.2041 5.28525 16.0203 5.38243 15.8925 5.53667C15.7647 5.6909 15.7034 5.88955 15.7221 6.08897C15.7408 6.28839 15.8379 6.47221 15.9922 6.6C16.1464 6.7278 16.3451 6.78912 16.5446 6.77043H19.5525C19.6522 6.7718 19.7511 6.75334 19.8435 6.71617C19.9359 6.679 20.0201 6.62383 20.091 6.55388C20.162 6.48392 20.2183 6.40055 20.2567 6.30864C20.2952 6.21673 20.315 6.11814 20.315 6.01851C20.315 5.91889 20.2952 5.82025 20.2567 5.72834C20.2183 5.63643 20.162 5.55306 20.091 5.4831C20.0201 5.41314 19.9359 5.35797 19.8435 5.3208C19.7511 5.28363 19.6522 5.26518 19.5525 5.26655H16.5446C16.4977 5.26214 16.4505 5.26214 16.4036 5.26655ZM1.5048 12.0338H63.1679V49.6294H1.5048V12.0338Z" fill="black"/>
<path fill-rule="evenodd" clip-rule="evenodd" d="M71.2856 32.4007C71.613 31.7812 71.613 31.04 71.2856 30.4205C71.27 30.3901 66.1973 20.8027 55.2656 20.8027C44.3338 20.8027 39.2611 30.3901 39.2456 30.4205C38.9181 31.04 38.9181 31.7812 39.2456 32.4007C39.2611 32.4311 44.3338 42.0185 55.2656 42.0185C66.1973 42.0185 71.27 32.4311 71.2856 32.4007ZM70.0346 31.7409C70.0346 31.7409 65.3586 40.6041 55.2656 40.6041C45.1726 40.6041 40.4966 31.7409 40.4966 31.7409C40.387 31.5344 40.387 31.2868 40.4966 31.0803C40.4966 31.0803 45.1726 22.2171 55.2656 22.2171C65.3586 22.2171 70.0346 31.0803 70.0346 31.0803C70.1442 31.2868 70.1442 31.5344 70.0346 31.7409Z" fill="black"/>
<path d="M70.0346 31.7409C70.0346 31.7409 65.3586 40.6041 55.2656 40.6041C45.1726 40.6041 40.4966 31.7409 40.4966 31.7409C40.387 31.5344 40.387 31.2868 40.4966 31.0803C40.4966 31.0803 45.1726 22.2171 55.2656 22.2171C65.3586 22.2171 70.0346 31.0803 70.0346 31.0803C70.1442 31.2868 70.1442 31.5344 70.0346 31.7409Z" fill="white"/>
<path fill-rule="evenodd" clip-rule="evenodd" d="M55.2632 25.0449C51.7505 25.0449 48.8984 27.897 48.8984 31.4096C48.8984 34.9223 51.7505 37.7744 55.2632 37.7744C58.7758 37.7744 61.6279 34.9223 61.6279 31.4096C61.6279 27.897 58.7758 25.0449 55.2632 25.0449ZM55.2632 26.4593C57.995 26.4593 60.2135 28.6778 60.2135 31.4096C60.2135 34.1415 57.995 36.36 55.2632 36.36C52.5313 36.36 50.3128 34.1415 50.3128 31.4096C50.3128 28.6778 52.5313 26.4593 55.2632 26.4593Z" fill="black"/>
</svg>
