<svg width="59" height="69" viewBox="0 0 59 69" fill="none" xmlns="http://www.w3.org/2000/svg">
<circle cx="29.5" cy="39.5" r="29.5" fill="#E0DBD3"/>
<path d="M29.5 10.2222C23.6655 10.2222 17.9619 11.9458 13.1107 15.1751C8.25944 18.4044 4.47835 22.9943 2.24557 28.3645C0.0127819 33.7346 -0.571416 39.6437 0.566847 45.3446C1.70511 51.0455 4.51471 56.2821 8.64036 60.3922C12.766 64.5023 18.0224 67.3013 23.7448 68.4353C29.4673 69.5693 35.3987 68.9873 40.7892 66.7629C46.1796 64.5385 50.7869 60.7717 54.0284 55.9387C57.2699 51.1057 59 45.4237 59 39.6111C58.9915 31.8193 55.8808 24.349 50.3503 18.8394C44.8198 13.3297 37.3213 10.2307 29.5 10.2222ZM29.5 66.4444C24.1728 66.4444 18.9652 64.8707 14.5358 61.9222C10.1064 58.9737 6.65415 54.7829 4.61552 49.8798C2.57689 44.9766 2.04349 39.5813 3.08277 34.3762C4.12206 29.171 6.68735 24.3898 10.4542 20.6371C14.2211 16.8844 19.0205 14.3287 24.2453 13.2934C29.4701 12.258 34.8858 12.7894 39.8075 14.8203C44.7292 16.8513 48.9358 20.2906 51.8955 24.7033C54.8551 29.116 56.4348 34.304 56.4348 39.6111C56.4271 46.7254 53.5869 53.5462 48.5373 58.5767C43.4877 63.6073 36.6412 66.4368 29.5 66.4444ZM43.2335 25.9293C43.3528 26.048 43.4474 26.1889 43.5119 26.344C43.5765 26.4991 43.6097 26.6654 43.6097 26.8333C43.6097 27.0012 43.5765 27.1675 43.5119 27.3226C43.4474 27.4778 43.3528 27.6187 43.2335 27.7374L30.4075 40.5151C30.2883 40.6339 30.1468 40.728 29.9911 40.7923C29.8354 40.8565 29.6685 40.8896 29.5 40.8896C29.3315 40.8896 29.1646 40.8565 29.0089 40.7923C28.8532 40.728 28.7117 40.6339 28.5926 40.5151C28.4734 40.3964 28.3789 40.2555 28.3144 40.1004C28.2499 39.9452 28.2167 39.779 28.2167 39.6111C28.2167 39.4432 28.2499 39.277 28.3144 39.1218C28.3789 38.9667 28.4734 38.8258 28.5926 38.7071L41.4186 25.9293C41.5378 25.8105 41.6792 25.7162 41.8349 25.6519C41.9906 25.5876 42.1575 25.5545 42.3261 25.5545C42.4946 25.5545 42.6616 25.5876 42.8173 25.6519C42.973 25.7162 43.1144 25.8105 43.2335 25.9293ZM20.5217 1.27778C20.5217 0.93889 20.6569 0.613882 20.8974 0.374252C21.1379 0.134623 21.4642 0 21.8044 0H37.1957C37.5358 0 37.8621 0.134623 38.1026 0.374252C38.3431 0.613882 38.4783 0.93889 38.4783 1.27778C38.4783 1.61667 38.3431 1.94167 38.1026 2.1813C37.8621 2.42093 37.5358 2.55556 37.1957 2.55556H21.8044C21.4642 2.55556 21.1379 2.42093 20.8974 2.1813C20.6569 1.94167 20.5217 1.61667 20.5217 1.27778Z" fill="black"/>
</svg>
