<svg width="60" height="60" viewBox="0 0 60 60" fill="none" xmlns="http://www.w3.org/2000/svg">
<path d="M24.7059 0C20.9616 0 17.3708 1.48739 14.7232 4.13496C12.0756 6.78254 10.5882 10.3734 10.5882 14.1176C10.5882 17.8619 12.0756 21.4528 14.7232 24.1003C17.3708 26.7479 20.9616 28.2353 24.7059 28.2353C28.4501 28.2353 32.041 26.7479 34.6886 24.1003C37.3361 21.4528 38.8235 17.8619 38.8235 14.1176C38.8235 10.3734 37.3361 6.78254 34.6886 4.13496C32.041 1.48739 28.4501 0 24.7059 0ZM14.1176 14.1176C14.1176 11.3095 15.2332 8.61631 17.2189 6.63063C19.2045 4.64496 21.8977 3.52941 24.7059 3.52941C27.5141 3.52941 30.2072 4.64496 32.1929 6.63063C34.1786 8.61631 35.2941 11.3095 35.2941 14.1176C35.2941 16.9258 34.1786 19.619 32.1929 21.6047C30.2072 23.5903 27.5141 24.7059 24.7059 24.7059C21.8977 24.7059 19.2045 23.5903 17.2189 21.6047C15.2332 19.619 14.1176 16.9258 14.1176 14.1176ZM7.09059 31.7647C6.16107 31.761 5.23996 31.9408 4.38009 32.2938C3.52021 32.6469 2.73849 33.1662 2.07974 33.822C1.42099 34.4778 0.898182 35.2571 0.541293 36.1154C0.184404 36.9737 0.000457101 37.894 0 38.8235C0 44.7918 2.94 49.2918 7.5353 52.2247C12.06 55.1082 18.1588 56.4706 24.7059 56.4706C25.1012 56.4706 25.4965 56.4671 25.8882 56.4565C25.361 55.3444 25.004 54.1594 24.8294 52.9412H24.7059C18.5824 52.9412 13.2106 51.6565 9.43412 49.2459C5.72824 46.8812 3.52941 43.4471 3.52941 38.8235C3.52941 36.8718 5.11059 35.2941 7.09059 35.2941H42.3529C43.289 35.2941 44.1867 35.666 44.8486 36.3279C45.5105 36.9898 45.8824 37.8875 45.8824 38.8235H49.4118C49.4118 36.9514 48.6681 35.156 47.3443 33.8322C46.0205 32.5084 44.2251 31.7647 42.3529 31.7647H7.09059ZM37.0588 42.3529C34.7187 42.3529 32.4744 43.2826 30.8196 44.9373C29.1649 46.592 28.2353 48.8363 28.2353 51.1765C28.2353 53.5166 29.1649 55.7609 30.8196 57.4156C32.4744 59.0704 34.7187 60 37.0588 60H38.8235C39.2916 60 39.7404 59.8141 40.0714 59.4831C40.4023 59.1522 40.5882 58.7033 40.5882 58.2353C40.5882 57.7673 40.4023 57.3184 40.0714 56.9875C39.7404 56.6565 39.2916 56.4706 38.8235 56.4706H37.0588C35.6547 56.4706 34.3082 55.9128 33.3153 54.92C32.3225 53.9271 31.7647 52.5806 31.7647 51.1765C31.7647 49.7724 32.3225 48.4258 33.3153 47.433C34.3082 46.4401 35.6547 45.8824 37.0588 45.8824H38.8235C39.2916 45.8824 39.7404 45.6964 40.0714 45.3655C40.4023 45.0345 40.5882 44.5857 40.5882 44.1176C40.5882 43.6496 40.4023 43.2008 40.0714 42.8698C39.7404 42.5389 39.2916 42.3529 38.8235 42.3529H37.0588ZM49.4118 42.3529C48.9437 42.3529 48.4949 42.5389 48.1639 42.8698C47.833 43.2008 47.6471 43.6496 47.6471 44.1176C47.6471 44.5857 47.833 45.0345 48.1639 45.3655C48.4949 45.6964 48.9437 45.8824 49.4118 45.8824H51.1765C52.5806 45.8824 53.9271 46.4401 54.92 47.433C55.9128 48.4258 56.4706 49.7724 56.4706 51.1765C56.4706 52.5806 55.9128 53.9271 54.92 54.92C53.9271 55.9128 52.5806 56.4706 51.1765 56.4706H49.4118C48.9437 56.4706 48.4949 56.6565 48.1639 56.9875C47.833 57.3184 47.6471 57.7673 47.6471 58.2353C47.6471 58.7033 47.833 59.1522 48.1639 59.4831C48.4949 59.8141 48.9437 60 49.4118 60H51.1765C53.5166 60 55.7609 59.0704 57.4156 57.4156C59.0704 55.7609 60 53.5166 60 51.1765C60 48.8363 59.0704 46.592 57.4156 44.9373C55.7609 43.2826 53.5166 42.3529 51.1765 42.3529H49.4118ZM35.2941 51.1765C35.2941 50.7084 35.48 50.2596 35.811 49.9286C36.1419 49.5977 36.5908 49.4118 37.0588 49.4118H51.1765C51.6445 49.4118 52.0934 49.5977 52.4243 49.9286C52.7553 50.2596 52.9412 50.7084 52.9412 51.1765C52.9412 51.6445 52.7553 52.0934 52.4243 52.4243C52.0934 52.7553 51.6445 52.9412 51.1765 52.9412H37.0588C36.5908 52.9412 36.1419 52.7553 35.811 52.4243C35.48 52.0934 35.2941 51.6445 35.2941 51.1765Z" fill="#123637"/>
</svg>
