<svg width="63" height="60" viewBox="0 0 63 60" fill="none" xmlns="http://www.w3.org/2000/svg">
<path d="M27.0971 18C25.939 18 25 18.9671 25 20.16V35.8391C25 37.0327 25.939 37.9994 27.0971 37.9994H38.9029C40.0614 37.9994 41 37.0327 41 35.8391C41 34.6469 40.0614 33.6798 38.9029 33.6798L29.1952 33.6795V20.1594C29.1952 18.967 28.2557 18 27.0971 18Z" fill="#123637"/>
<path d="M58 30L62.5054 7.34974L40.637 14.773L58 30ZM51.6443 12.237L53.1903 10.9682L51.6443 12.237ZM35.4625 2.53801L35.8527 0.576442L35.4625 2.53801ZM16.8009 5.3062L17.7437 7.07005L16.8009 5.3062ZM4.13137 19.2849L2.28361 18.5195H2.28361L4.13137 19.2849ZM3.20567 38.128L1.29179 38.7085L3.20567 38.128ZM14.444 53.2812L13.3329 54.9441L13.3329 54.9441L14.444 53.2812ZM51.2132 51.2132C51.9943 50.4322 51.9943 49.1658 51.2132 48.3848C50.4322 47.6037 49.1658 47.6037 48.3848 48.3848L51.2132 51.2132ZM53.8006 11.7371C53.6016 11.4779 53.3982 11.2215 53.1903 10.9682L50.0983 13.5058C50.2785 13.7253 50.4548 13.9475 50.6272 14.1722L53.8006 11.7371ZM53.1903 10.9682C48.7872 5.603 42.66 1.9305 35.8527 0.576442L35.0723 4.49958C40.972 5.6731 46.2822 8.85593 50.0983 13.5058L53.1903 10.9682ZM35.8527 0.576442C29.0454 -0.777614 21.9792 0.270558 15.8581 3.54236L17.7437 7.07005C23.0487 4.23448 29.1727 3.32607 35.0723 4.49958L35.8527 0.576442ZM15.8581 3.54236C9.73699 6.81416 4.93969 12.1072 2.28361 18.5195L5.97913 20.0502C8.28106 14.4929 12.4387 9.90561 17.7437 7.07005L15.8581 3.54236ZM2.28361 18.5195C-0.372461 24.9318 -0.722977 32.0667 1.29179 38.7085L5.11955 37.5474C3.37342 31.7912 3.6772 25.6076 5.97913 20.0502L2.28361 18.5195ZM1.29179 38.7085C3.30656 45.3503 7.56194 51.0881 13.3329 54.9441L15.5552 51.6182C10.5537 48.2763 6.86568 43.3036 5.11955 37.5474L1.29179 38.7085ZM13.3329 54.9441C19.1038 58.8001 26.0333 60.5358 32.9405 59.8555L32.5484 55.8748C26.5622 56.4644 20.5567 54.9601 15.5552 51.6182L13.3329 54.9441ZM32.9405 59.8555C39.8477 59.1752 46.3054 56.121 51.2132 51.2132L48.3848 48.3848C44.1314 52.6382 38.5347 55.2852 32.5484 55.8748L32.9405 59.8555Z" fill="#123637"/>
</svg>
