<svg width="758" height="524" viewBox="0 0 758 524" fill="none" xmlns="http://www.w3.org/2000/svg">
<path d="M74.2003 133.89C109.374 133.89 137.889 105.375 137.889 70.2012C137.889 35.027 109.374 6.5127 74.2003 6.5127C39.026 6.5127 10.5117 35.027 10.5117 70.2012C10.5117 105.375 39.026 133.89 74.2003 133.89Z" fill="#4C6A92"/>
<path d="M65.6885 130.334C100.863 130.334 129.377 101.82 129.377 66.6456C129.377 31.4713 100.863 2.95703 65.6885 2.95703C30.5143 2.95703 2 31.4713 2 66.6456C2 101.82 30.5143 130.334 65.6885 130.334Z" stroke="black" stroke-width="2.5" stroke-miterlimit="10"/>
<path d="M229.2 133.89C264.374 133.89 292.889 105.375 292.889 70.2012C292.889 35.027 264.374 6.5127 229.2 6.5127C194.026 6.5127 165.512 35.027 165.512 70.2012C165.512 105.375 194.026 133.89 229.2 133.89Z" fill="#D0EEE9"/>
<path d="M220.689 130.334C255.863 130.334 284.377 101.82 284.377 66.6456C284.377 31.4713 255.863 2.95703 220.689 2.95703C185.514 2.95703 157 31.4713 157 66.6456C157 101.82 185.514 130.334 220.689 130.334Z" stroke="black" stroke-width="2.5" stroke-miterlimit="10"/>
<path d="M384.2 133.89C419.374 133.89 447.889 105.375 447.889 70.2012C447.889 35.027 419.374 6.5127 384.2 6.5127C349.026 6.5127 320.512 35.027 320.512 70.2012C320.512 105.375 349.026 133.89 384.2 133.89Z" fill="#6FB0B7"/>
<path d="M375.689 130.334C410.863 130.334 439.377 101.82 439.377 66.6456C439.377 31.4713 410.863 2.95703 375.689 2.95703C340.514 2.95703 312 31.4713 312 66.6456C312 101.82 340.514 130.334 375.689 130.334Z" stroke="black" stroke-width="2.5" stroke-miterlimit="10"/>
<path d="M539.2 133.89C574.374 133.89 602.889 105.375 602.889 70.2012C602.889 35.027 574.374 6.5127 539.2 6.5127C504.026 6.5127 475.512 35.027 475.512 70.2012C475.512 105.375 504.026 133.89 539.2 133.89Z" fill="#FFF4E8"/>
<path d="M530.689 130.334C565.863 130.334 594.377 101.82 594.377 66.6456C594.377 31.4713 565.863 2.95703 530.689 2.95703C495.514 2.95703 467 31.4713 467 66.6456C467 101.82 495.514 130.334 530.689 130.334Z" stroke="black" stroke-width="2.5" stroke-miterlimit="10"/>
<path d="M694.2 132.933C729.374 132.933 757.889 104.418 757.889 69.2442C757.889 34.07 729.374 5.55566 694.2 5.55566C659.026 5.55566 630.511 34.07 630.511 69.2442C630.511 104.418 659.026 132.933 694.2 132.933Z" fill="#FFE2DA"/>
<path d="M685.689 129.377C720.863 129.377 749.377 100.863 749.377 65.6885C749.377 30.5143 720.863 2 685.689 2C650.514 2 622 30.5143 622 65.6885C622 100.863 650.514 129.377 685.689 129.377Z" stroke="black" stroke-width="2.5" stroke-miterlimit="10"/>
<path d="M36.668 171.484L36.1211 174.277H38.7578V175.908H35.8086L35.0176 180H33.2793L34.0801 175.908H31.6387L30.8672 180H29.168L29.9199 175.908H27.4785V174.277H30.2324L30.7891 171.484H28.2012V169.854H31.082L31.8633 165.732H33.6016L32.8203 169.854H35.2812L36.0723 165.732H37.7617L36.9805 169.854H39.4414V171.484H36.668ZM31.9512 174.277H34.3926L34.9492 171.484H32.498L31.9512 174.277ZM51.0137 176.865H49.0801V180H46.8145V176.865H40.3203V175.127L46.8438 165.684H49.0801V174.961H51.0137V176.865ZM46.8145 174.961V171.416C46.8145 171.123 46.8177 170.827 46.8242 170.527C46.8372 170.221 46.8503 169.928 46.8633 169.648C46.8763 169.368 46.8893 169.111 46.9023 168.877C46.9154 168.636 46.9251 168.438 46.9316 168.281H46.8535C46.7298 168.542 46.5931 168.809 46.4434 169.082C46.2936 169.349 46.1341 169.609 45.9648 169.863L42.4492 174.961H46.8145ZM59.334 167.51C58.6504 167.51 58.0384 167.633 57.498 167.881C56.9642 168.128 56.5117 168.486 56.1406 168.955C55.7695 169.417 55.4863 169.98 55.291 170.645C55.0957 171.302 54.998 172.044 54.998 172.871C54.998 173.978 55.1543 174.932 55.4668 175.732C55.7793 176.527 56.2546 177.139 56.8926 177.568C57.5306 177.992 58.3379 178.203 59.3145 178.203C59.9199 178.203 60.5091 178.145 61.082 178.027C61.6549 177.91 62.2474 177.751 62.8594 177.549V179.541C62.2799 179.769 61.694 179.935 61.1016 180.039C60.5091 180.143 59.8255 180.195 59.0508 180.195C57.5924 180.195 56.3815 179.893 55.418 179.287C54.4609 178.682 53.7448 177.829 53.2695 176.729C52.8008 175.628 52.5664 174.339 52.5664 172.861C52.5664 171.781 52.7161 170.791 53.0156 169.893C53.3151 168.994 53.7513 168.219 54.3242 167.568C54.8971 166.911 55.6035 166.406 56.4434 166.055C57.2897 165.697 58.2565 165.518 59.3438 165.518C60.0599 165.518 60.763 165.599 61.4531 165.762C62.1497 165.918 62.7943 166.143 63.3867 166.436L62.5664 168.369C62.0716 168.135 61.554 167.933 61.0137 167.764C60.4733 167.594 59.9134 167.51 59.334 167.51ZM64.9688 173.916C64.9688 173.076 65.0273 172.249 65.1445 171.436C65.2682 170.622 65.4766 169.86 65.7695 169.15C66.0625 168.441 66.4661 167.816 66.9805 167.275C67.5013 166.735 68.1556 166.312 68.9434 166.006C69.7311 165.693 70.6784 165.537 71.7852 165.537C72.0716 165.537 72.3939 165.55 72.752 165.576C73.11 165.602 73.4062 165.645 73.6406 165.703V167.607C73.3867 167.536 73.1068 167.48 72.8008 167.441C72.5013 167.402 72.2018 167.383 71.9023 167.383C70.7044 167.383 69.7702 167.611 69.0996 168.066C68.429 168.516 67.9505 169.134 67.6641 169.922C67.3776 170.703 67.2116 171.598 67.166 172.607H67.2832C67.4785 172.282 67.7227 171.992 68.0156 171.738C68.3086 171.484 68.6667 171.283 69.0898 171.133C69.513 170.977 70.0046 170.898 70.5645 170.898C71.3978 170.898 72.1237 171.074 72.7422 171.426C73.3607 171.771 73.8359 172.272 74.168 172.93C74.5065 173.587 74.6758 174.385 74.6758 175.322C74.6758 176.331 74.4837 177.201 74.0996 177.93C73.722 178.659 73.1816 179.219 72.4785 179.609C71.7819 180 70.9518 180.195 69.9883 180.195C69.2786 180.195 68.6178 180.065 68.0059 179.805C67.4004 179.544 66.8698 179.154 66.4141 178.633C65.9583 178.112 65.6035 177.461 65.3496 176.68C65.0957 175.892 64.9688 174.971 64.9688 173.916ZM69.9492 178.301C70.6914 178.301 71.2871 178.06 71.7363 177.578C72.1921 177.09 72.4199 176.344 72.4199 175.342C72.4199 174.528 72.2181 173.883 71.8145 173.408C71.4173 172.933 70.8184 172.695 70.0176 172.695C69.4707 172.695 68.9922 172.812 68.582 173.047C68.1719 173.281 67.8529 173.577 67.625 173.936C67.4036 174.294 67.293 174.658 67.293 175.029C67.293 175.407 67.3483 175.788 67.459 176.172C67.5697 176.556 67.7357 176.911 67.957 177.236C68.1784 177.555 68.4551 177.812 68.7871 178.008C69.1191 178.203 69.5065 178.301 69.9492 178.301ZM86.2188 180L84.8223 176.035H79.3633L77.9668 180H75.4961L80.8086 165.664H83.4062L88.709 180H86.2188ZM84.2168 174.023L82.8594 170.117C82.8073 169.948 82.7324 169.71 82.6348 169.404C82.5371 169.092 82.4395 168.776 82.3418 168.457C82.2441 168.132 82.1628 167.858 82.0977 167.637C82.0326 167.904 81.9512 168.203 81.8535 168.535C81.7624 168.861 81.6712 169.167 81.5801 169.453C81.4954 169.74 81.4303 169.961 81.3848 170.117L80.0176 174.023H84.2168ZM99.2656 171.807C99.2656 172.653 99.2038 173.483 99.0801 174.297C98.9629 175.111 98.7546 175.872 98.4551 176.582C98.1621 177.292 97.7552 177.92 97.2344 178.467C96.7201 179.007 96.069 179.43 95.2812 179.736C94.4935 180.042 93.543 180.195 92.4297 180.195C92.1497 180.195 91.8242 180.179 91.4531 180.146C91.0885 180.12 90.7891 180.081 90.5547 180.029V178.115C90.8021 178.187 91.0788 178.245 91.3848 178.291C91.6973 178.33 92.0065 178.35 92.3125 178.35C93.5169 178.35 94.4544 178.125 95.125 177.676C95.8021 177.227 96.2806 176.608 96.5605 175.82C96.847 175.033 97.0098 174.137 97.0488 173.135H96.9316C96.7428 173.447 96.5052 173.734 96.2188 173.994C95.9323 174.248 95.5775 174.453 95.1543 174.609C94.7311 174.759 94.2168 174.834 93.6113 174.834C92.791 174.834 92.0749 174.661 91.4629 174.316C90.8574 173.971 90.3854 173.47 90.0469 172.812C89.7148 172.148 89.5488 171.351 89.5488 170.42C89.5488 169.411 89.7409 168.542 90.125 167.812C90.5091 167.083 91.0527 166.523 91.7559 166.133C92.459 165.736 93.2858 165.537 94.2363 165.537C94.9525 165.537 95.6133 165.667 96.2188 165.928C96.8307 166.182 97.3646 166.572 97.8203 167.1C98.276 167.62 98.6309 168.275 98.8848 169.062C99.1387 169.844 99.2656 170.758 99.2656 171.807ZM94.2656 167.432C93.543 167.432 92.9538 167.676 92.498 168.164C92.0423 168.646 91.8145 169.388 91.8145 170.391C91.8145 171.204 92.0098 171.849 92.4004 172.324C92.791 172.799 93.39 173.037 94.1973 173.037C94.7572 173.037 95.2389 172.923 95.6426 172.695C96.0527 172.461 96.3685 172.165 96.5898 171.807C96.8177 171.449 96.9316 171.084 96.9316 170.713C96.9316 170.329 96.8763 169.945 96.7656 169.561C96.6615 169.176 96.4987 168.825 96.2773 168.506C96.056 168.187 95.776 167.93 95.4375 167.734C95.1055 167.533 94.7148 167.432 94.2656 167.432ZM110.73 180H101.062V178.271L104.764 174.521C105.48 173.792 106.069 173.164 106.531 172.637C106.993 172.103 107.335 171.598 107.557 171.123C107.785 170.648 107.898 170.13 107.898 169.57C107.898 168.88 107.7 168.359 107.303 168.008C106.906 167.65 106.382 167.471 105.73 167.471C105.112 167.471 104.539 167.594 104.012 167.842C103.491 168.083 102.951 168.428 102.391 168.877L101.131 167.363C101.528 167.025 101.951 166.715 102.4 166.436C102.856 166.156 103.364 165.934 103.924 165.771C104.484 165.602 105.122 165.518 105.838 165.518C106.743 165.518 107.524 165.68 108.182 166.006C108.839 166.325 109.344 166.771 109.695 167.344C110.053 167.917 110.232 168.584 110.232 169.346C110.232 170.114 110.079 170.824 109.773 171.475C109.467 172.126 109.031 172.77 108.465 173.408C107.898 174.04 107.225 174.727 106.443 175.469L103.973 177.881V177.988H110.73V180Z" fill="black"/>
<path d="M94.0703 357H92.7344V346.75H89.1406V345.578H97.6484V346.75H94.0703V357ZM107.586 357H106.32V348.906C106.32 348.599 106.32 348.336 106.32 348.117C106.326 347.893 106.331 347.69 106.336 347.508C106.346 347.32 106.359 347.13 106.375 346.938C106.214 347.104 106.062 347.247 105.922 347.367C105.781 347.482 105.607 347.625 105.398 347.797L104.094 348.844L103.414 347.961L106.508 345.578H107.586V357ZM119.461 351.273C119.461 352.201 119.391 353.029 119.25 353.758C119.109 354.487 118.888 355.104 118.586 355.609C118.284 356.115 117.893 356.5 117.414 356.766C116.935 357.026 116.359 357.156 115.688 357.156C114.839 357.156 114.135 356.924 113.578 356.461C113.026 355.997 112.612 355.328 112.336 354.453C112.065 353.573 111.93 352.513 111.93 351.273C111.93 350.055 112.052 349.008 112.297 348.133C112.547 347.253 112.948 346.578 113.5 346.109C114.052 345.635 114.781 345.398 115.688 345.398C116.547 345.398 117.255 345.633 117.812 346.102C118.37 346.565 118.784 347.237 119.055 348.117C119.326 348.992 119.461 350.044 119.461 351.273ZM113.234 351.273C113.234 352.336 113.315 353.221 113.477 353.93C113.638 354.638 113.898 355.169 114.258 355.523C114.622 355.872 115.099 356.047 115.688 356.047C116.276 356.047 116.75 355.872 117.109 355.523C117.474 355.174 117.737 354.646 117.898 353.938C118.065 353.229 118.148 352.341 118.148 351.273C118.148 350.227 118.068 349.352 117.906 348.648C117.745 347.94 117.484 347.409 117.125 347.055C116.766 346.695 116.286 346.516 115.688 346.516C115.089 346.516 114.609 346.695 114.25 347.055C113.891 347.409 113.63 347.94 113.469 348.648C113.312 349.352 113.234 350.227 113.234 351.273ZM128.617 351.273C128.617 352.201 128.547 353.029 128.406 353.758C128.266 354.487 128.044 355.104 127.742 355.609C127.44 356.115 127.049 356.5 126.57 356.766C126.091 357.026 125.516 357.156 124.844 357.156C123.995 357.156 123.292 356.924 122.734 356.461C122.182 355.997 121.768 355.328 121.492 354.453C121.221 353.573 121.086 352.513 121.086 351.273C121.086 350.055 121.208 349.008 121.453 348.133C121.703 347.253 122.104 346.578 122.656 346.109C123.208 345.635 123.938 345.398 124.844 345.398C125.703 345.398 126.411 345.633 126.969 346.102C127.526 346.565 127.94 347.237 128.211 348.117C128.482 348.992 128.617 350.044 128.617 351.273ZM122.391 351.273C122.391 352.336 122.471 353.221 122.633 353.93C122.794 354.638 123.055 355.169 123.414 355.523C123.779 355.872 124.255 356.047 124.844 356.047C125.432 356.047 125.906 355.872 126.266 355.523C126.63 355.174 126.893 354.646 127.055 353.938C127.221 353.229 127.305 352.341 127.305 351.273C127.305 350.227 127.224 349.352 127.062 348.648C126.901 347.94 126.641 347.409 126.281 347.055C125.922 346.695 125.443 346.516 124.844 346.516C124.245 346.516 123.766 346.695 123.406 347.055C123.047 347.409 122.786 347.94 122.625 348.648C122.469 349.352 122.391 350.227 122.391 351.273ZM132.555 345.414C133.336 345.414 133.927 345.727 134.328 346.352C134.734 346.971 134.938 347.849 134.938 348.984C134.938 350.12 134.742 351.005 134.352 351.641C133.961 352.271 133.362 352.586 132.555 352.586C131.805 352.586 131.229 352.271 130.828 351.641C130.432 351.005 130.234 350.12 130.234 348.984C130.234 347.849 130.424 346.971 130.805 346.352C131.185 345.727 131.768 345.414 132.555 345.414ZM132.555 346.344C132.133 346.344 131.823 346.565 131.625 347.008C131.427 347.445 131.328 348.104 131.328 348.984C131.328 349.865 131.427 350.529 131.625 350.977C131.823 351.424 132.133 351.648 132.555 351.648C132.992 351.648 133.318 351.424 133.531 350.977C133.745 350.529 133.852 349.865 133.852 348.984C133.852 348.109 133.745 347.451 133.531 347.008C133.323 346.565 132.997 346.344 132.555 346.344ZM139.789 345.578L133.453 357H132.312L138.648 345.578H139.789ZM139.484 349.992C140.26 349.992 140.852 350.305 141.258 350.93C141.664 351.549 141.867 352.427 141.867 353.562C141.867 354.693 141.672 355.576 141.281 356.211C140.891 356.841 140.292 357.156 139.484 357.156C138.729 357.156 138.154 356.841 137.758 356.211C137.362 355.576 137.164 354.693 137.164 353.562C137.164 352.427 137.352 351.549 137.727 350.93C138.107 350.305 138.693 349.992 139.484 349.992ZM139.484 350.93C139.062 350.93 138.753 351.148 138.555 351.586C138.357 352.023 138.258 352.682 138.258 353.562C138.258 354.443 138.357 355.107 138.555 355.555C138.753 355.997 139.062 356.219 139.484 356.219C139.922 356.219 140.247 356 140.461 355.562C140.674 355.12 140.781 354.453 140.781 353.562C140.781 352.688 140.674 352.031 140.461 351.594C140.253 351.151 139.927 350.93 139.484 350.93Z" fill="black"/>
<path d="M99.0703 519H97.7344V508.75H94.1406V507.578H102.648V508.75H99.0703V519ZM112.586 519H111.32V510.906C111.32 510.599 111.32 510.336 111.32 510.117C111.326 509.893 111.331 509.69 111.336 509.508C111.346 509.32 111.359 509.13 111.375 508.938C111.214 509.104 111.062 509.247 110.922 509.367C110.781 509.482 110.607 509.625 110.398 509.797L109.094 510.844L108.414 509.961L111.508 507.578H112.586V519ZM124.461 513.273C124.461 514.201 124.391 515.029 124.25 515.758C124.109 516.487 123.888 517.104 123.586 517.609C123.284 518.115 122.893 518.5 122.414 518.766C121.935 519.026 121.359 519.156 120.688 519.156C119.839 519.156 119.135 518.924 118.578 518.461C118.026 517.997 117.612 517.328 117.336 516.453C117.065 515.573 116.93 514.513 116.93 513.273C116.93 512.055 117.052 511.008 117.297 510.133C117.547 509.253 117.948 508.578 118.5 508.109C119.052 507.635 119.781 507.398 120.688 507.398C121.547 507.398 122.255 507.633 122.812 508.102C123.37 508.565 123.784 509.237 124.055 510.117C124.326 510.992 124.461 512.044 124.461 513.273ZM118.234 513.273C118.234 514.336 118.315 515.221 118.477 515.93C118.638 516.638 118.898 517.169 119.258 517.523C119.622 517.872 120.099 518.047 120.688 518.047C121.276 518.047 121.75 517.872 122.109 517.523C122.474 517.174 122.737 516.646 122.898 515.938C123.065 515.229 123.148 514.341 123.148 513.273C123.148 512.227 123.068 511.352 122.906 510.648C122.745 509.94 122.484 509.409 122.125 509.055C121.766 508.695 121.286 508.516 120.688 508.516C120.089 508.516 119.609 508.695 119.25 509.055C118.891 509.409 118.63 509.94 118.469 510.648C118.312 511.352 118.234 512.227 118.234 513.273ZM133.617 513.273C133.617 514.201 133.547 515.029 133.406 515.758C133.266 516.487 133.044 517.104 132.742 517.609C132.44 518.115 132.049 518.5 131.57 518.766C131.091 519.026 130.516 519.156 129.844 519.156C128.995 519.156 128.292 518.924 127.734 518.461C127.182 517.997 126.768 517.328 126.492 516.453C126.221 515.573 126.086 514.513 126.086 513.273C126.086 512.055 126.208 511.008 126.453 510.133C126.703 509.253 127.104 508.578 127.656 508.109C128.208 507.635 128.938 507.398 129.844 507.398C130.703 507.398 131.411 507.633 131.969 508.102C132.526 508.565 132.94 509.237 133.211 510.117C133.482 510.992 133.617 512.044 133.617 513.273ZM127.391 513.273C127.391 514.336 127.471 515.221 127.633 515.93C127.794 516.638 128.055 517.169 128.414 517.523C128.779 517.872 129.255 518.047 129.844 518.047C130.432 518.047 130.906 517.872 131.266 517.523C131.63 517.174 131.893 516.646 132.055 515.938C132.221 515.229 132.305 514.341 132.305 513.273C132.305 512.227 132.224 511.352 132.062 510.648C131.901 509.94 131.641 509.409 131.281 509.055C130.922 508.695 130.443 508.516 129.844 508.516C129.245 508.516 128.766 508.695 128.406 509.055C128.047 509.409 127.786 509.94 127.625 510.648C127.469 511.352 127.391 512.227 127.391 513.273ZM137.555 507.414C138.336 507.414 138.927 507.727 139.328 508.352C139.734 508.971 139.938 509.849 139.938 510.984C139.938 512.12 139.742 513.005 139.352 513.641C138.961 514.271 138.362 514.586 137.555 514.586C136.805 514.586 136.229 514.271 135.828 513.641C135.432 513.005 135.234 512.12 135.234 510.984C135.234 509.849 135.424 508.971 135.805 508.352C136.185 507.727 136.768 507.414 137.555 507.414ZM137.555 508.344C137.133 508.344 136.823 508.565 136.625 509.008C136.427 509.445 136.328 510.104 136.328 510.984C136.328 511.865 136.427 512.529 136.625 512.977C136.823 513.424 137.133 513.648 137.555 513.648C137.992 513.648 138.318 513.424 138.531 512.977C138.745 512.529 138.852 511.865 138.852 510.984C138.852 510.109 138.745 509.451 138.531 509.008C138.323 508.565 137.997 508.344 137.555 508.344ZM144.789 507.578L138.453 519H137.312L143.648 507.578H144.789ZM144.484 511.992C145.26 511.992 145.852 512.305 146.258 512.93C146.664 513.549 146.867 514.427 146.867 515.562C146.867 516.693 146.672 517.576 146.281 518.211C145.891 518.841 145.292 519.156 144.484 519.156C143.729 519.156 143.154 518.841 142.758 518.211C142.362 517.576 142.164 516.693 142.164 515.562C142.164 514.427 142.352 513.549 142.727 512.93C143.107 512.305 143.693 511.992 144.484 511.992ZM144.484 512.93C144.062 512.93 143.753 513.148 143.555 513.586C143.357 514.023 143.258 514.682 143.258 515.562C143.258 516.443 143.357 517.107 143.555 517.555C143.753 517.997 144.062 518.219 144.484 518.219C144.922 518.219 145.247 518 145.461 517.562C145.674 517.12 145.781 516.453 145.781 515.562C145.781 514.688 145.674 514.031 145.461 513.594C145.253 513.151 144.927 512.93 144.484 512.93Z" fill="black"/>
<path d="M199.07 357H197.734V346.75H194.141V345.578H202.648V346.75H199.07V357ZM211.531 345.414C212.193 345.414 212.779 345.518 213.289 345.727C213.799 345.935 214.198 346.242 214.484 346.648C214.776 347.049 214.922 347.544 214.922 348.133C214.922 348.596 214.82 349.003 214.617 349.352C214.419 349.695 214.151 349.997 213.812 350.258C213.474 350.513 213.099 350.742 212.688 350.945C213.177 351.169 213.617 351.422 214.008 351.703C214.404 351.984 214.716 352.315 214.945 352.695C215.174 353.076 215.289 353.526 215.289 354.047C215.289 354.688 215.133 355.242 214.82 355.711C214.513 356.174 214.081 356.531 213.523 356.781C212.966 357.031 212.312 357.156 211.562 357.156C210.755 357.156 210.068 357.036 209.5 356.797C208.938 356.552 208.508 356.203 208.211 355.75C207.919 355.292 207.773 354.742 207.773 354.102C207.773 353.576 207.885 353.12 208.109 352.734C208.333 352.344 208.63 352.008 209 351.727C209.37 351.445 209.773 351.208 210.211 351.016C209.831 350.807 209.482 350.57 209.164 350.305C208.852 350.039 208.602 349.729 208.414 349.375C208.232 349.016 208.141 348.599 208.141 348.125C208.141 347.547 208.286 347.057 208.578 346.656C208.875 346.25 209.279 345.943 209.789 345.734C210.305 345.521 210.885 345.414 211.531 345.414ZM209.047 354.109C209.047 354.693 209.253 355.174 209.664 355.555C210.076 355.93 210.698 356.117 211.531 356.117C212.323 356.117 212.935 355.93 213.367 355.555C213.799 355.174 214.016 354.677 214.016 354.062C214.016 353.682 213.917 353.349 213.719 353.062C213.521 352.771 213.24 352.51 212.875 352.281C212.51 352.052 212.081 351.844 211.586 351.656L211.305 351.555C210.826 351.753 210.417 351.974 210.078 352.219C209.745 352.458 209.49 352.732 209.312 353.039C209.135 353.346 209.047 353.703 209.047 354.109ZM211.516 346.477C210.901 346.477 210.398 346.625 210.008 346.922C209.617 347.214 209.422 347.635 209.422 348.188C209.422 348.583 209.516 348.919 209.703 349.195C209.896 349.466 210.156 349.701 210.484 349.898C210.812 350.091 211.18 350.271 211.586 350.438C211.982 350.271 212.333 350.089 212.641 349.891C212.948 349.688 213.19 349.448 213.367 349.172C213.544 348.896 213.633 348.565 213.633 348.18C213.633 347.628 213.438 347.206 213.047 346.914C212.661 346.622 212.151 346.477 211.516 346.477ZM224.461 351.273C224.461 352.201 224.391 353.029 224.25 353.758C224.109 354.487 223.888 355.104 223.586 355.609C223.284 356.115 222.893 356.5 222.414 356.766C221.935 357.026 221.359 357.156 220.688 357.156C219.839 357.156 219.135 356.924 218.578 356.461C218.026 355.997 217.612 355.328 217.336 354.453C217.065 353.573 216.93 352.513 216.93 351.273C216.93 350.055 217.052 349.008 217.297 348.133C217.547 347.253 217.948 346.578 218.5 346.109C219.052 345.635 219.781 345.398 220.688 345.398C221.547 345.398 222.255 345.633 222.812 346.102C223.37 346.565 223.784 347.237 224.055 348.117C224.326 348.992 224.461 350.044 224.461 351.273ZM218.234 351.273C218.234 352.336 218.315 353.221 218.477 353.93C218.638 354.638 218.898 355.169 219.258 355.523C219.622 355.872 220.099 356.047 220.688 356.047C221.276 356.047 221.75 355.872 222.109 355.523C222.474 355.174 222.737 354.646 222.898 353.938C223.065 353.229 223.148 352.341 223.148 351.273C223.148 350.227 223.068 349.352 222.906 348.648C222.745 347.94 222.484 347.409 222.125 347.055C221.766 346.695 221.286 346.516 220.688 346.516C220.089 346.516 219.609 346.695 219.25 347.055C218.891 347.409 218.63 347.94 218.469 348.648C218.312 349.352 218.234 350.227 218.234 351.273ZM228.398 345.414C229.18 345.414 229.771 345.727 230.172 346.352C230.578 346.971 230.781 347.849 230.781 348.984C230.781 350.12 230.586 351.005 230.195 351.641C229.805 352.271 229.206 352.586 228.398 352.586C227.648 352.586 227.073 352.271 226.672 351.641C226.276 351.005 226.078 350.12 226.078 348.984C226.078 347.849 226.268 346.971 226.648 346.352C227.029 345.727 227.612 345.414 228.398 345.414ZM228.398 346.344C227.977 346.344 227.667 346.565 227.469 347.008C227.271 347.445 227.172 348.104 227.172 348.984C227.172 349.865 227.271 350.529 227.469 350.977C227.667 351.424 227.977 351.648 228.398 351.648C228.836 351.648 229.161 351.424 229.375 350.977C229.589 350.529 229.695 349.865 229.695 348.984C229.695 348.109 229.589 347.451 229.375 347.008C229.167 346.565 228.841 346.344 228.398 346.344ZM235.633 345.578L229.297 357H228.156L234.492 345.578H235.633ZM235.328 349.992C236.104 349.992 236.695 350.305 237.102 350.93C237.508 351.549 237.711 352.427 237.711 353.562C237.711 354.693 237.516 355.576 237.125 356.211C236.734 356.841 236.135 357.156 235.328 357.156C234.573 357.156 233.997 356.841 233.602 356.211C233.206 355.576 233.008 354.693 233.008 353.562C233.008 352.427 233.195 351.549 233.57 350.93C233.951 350.305 234.536 349.992 235.328 349.992ZM235.328 350.93C234.906 350.93 234.596 351.148 234.398 351.586C234.201 352.023 234.102 352.682 234.102 353.562C234.102 354.443 234.201 355.107 234.398 355.555C234.596 355.997 234.906 356.219 235.328 356.219C235.766 356.219 236.091 356 236.305 355.562C236.518 355.12 236.625 354.453 236.625 353.562C236.625 352.688 236.518 352.031 236.305 351.594C236.096 351.151 235.771 350.93 235.328 350.93Z" fill="black"/>
<path d="M204.07 519H202.734V508.75H199.141V507.578H207.648V508.75H204.07V519ZM216.531 507.414C217.193 507.414 217.779 507.518 218.289 507.727C218.799 507.935 219.198 508.242 219.484 508.648C219.776 509.049 219.922 509.544 219.922 510.133C219.922 510.596 219.82 511.003 219.617 511.352C219.419 511.695 219.151 511.997 218.812 512.258C218.474 512.513 218.099 512.742 217.688 512.945C218.177 513.169 218.617 513.422 219.008 513.703C219.404 513.984 219.716 514.315 219.945 514.695C220.174 515.076 220.289 515.526 220.289 516.047C220.289 516.688 220.133 517.242 219.82 517.711C219.513 518.174 219.081 518.531 218.523 518.781C217.966 519.031 217.312 519.156 216.562 519.156C215.755 519.156 215.068 519.036 214.5 518.797C213.938 518.552 213.508 518.203 213.211 517.75C212.919 517.292 212.773 516.742 212.773 516.102C212.773 515.576 212.885 515.12 213.109 514.734C213.333 514.344 213.63 514.008 214 513.727C214.37 513.445 214.773 513.208 215.211 513.016C214.831 512.807 214.482 512.57 214.164 512.305C213.852 512.039 213.602 511.729 213.414 511.375C213.232 511.016 213.141 510.599 213.141 510.125C213.141 509.547 213.286 509.057 213.578 508.656C213.875 508.25 214.279 507.943 214.789 507.734C215.305 507.521 215.885 507.414 216.531 507.414ZM214.047 516.109C214.047 516.693 214.253 517.174 214.664 517.555C215.076 517.93 215.698 518.117 216.531 518.117C217.323 518.117 217.935 517.93 218.367 517.555C218.799 517.174 219.016 516.677 219.016 516.062C219.016 515.682 218.917 515.349 218.719 515.062C218.521 514.771 218.24 514.51 217.875 514.281C217.51 514.052 217.081 513.844 216.586 513.656L216.305 513.555C215.826 513.753 215.417 513.974 215.078 514.219C214.745 514.458 214.49 514.732 214.312 515.039C214.135 515.346 214.047 515.703 214.047 516.109ZM216.516 508.477C215.901 508.477 215.398 508.625 215.008 508.922C214.617 509.214 214.422 509.635 214.422 510.188C214.422 510.583 214.516 510.919 214.703 511.195C214.896 511.466 215.156 511.701 215.484 511.898C215.812 512.091 216.18 512.271 216.586 512.438C216.982 512.271 217.333 512.089 217.641 511.891C217.948 511.688 218.19 511.448 218.367 511.172C218.544 510.896 218.633 510.565 218.633 510.18C218.633 509.628 218.438 509.206 218.047 508.914C217.661 508.622 217.151 508.477 216.516 508.477ZM229.461 513.273C229.461 514.201 229.391 515.029 229.25 515.758C229.109 516.487 228.888 517.104 228.586 517.609C228.284 518.115 227.893 518.5 227.414 518.766C226.935 519.026 226.359 519.156 225.688 519.156C224.839 519.156 224.135 518.924 223.578 518.461C223.026 517.997 222.612 517.328 222.336 516.453C222.065 515.573 221.93 514.513 221.93 513.273C221.93 512.055 222.052 511.008 222.297 510.133C222.547 509.253 222.948 508.578 223.5 508.109C224.052 507.635 224.781 507.398 225.688 507.398C226.547 507.398 227.255 507.633 227.812 508.102C228.37 508.565 228.784 509.237 229.055 510.117C229.326 510.992 229.461 512.044 229.461 513.273ZM223.234 513.273C223.234 514.336 223.315 515.221 223.477 515.93C223.638 516.638 223.898 517.169 224.258 517.523C224.622 517.872 225.099 518.047 225.688 518.047C226.276 518.047 226.75 517.872 227.109 517.523C227.474 517.174 227.737 516.646 227.898 515.938C228.065 515.229 228.148 514.341 228.148 513.273C228.148 512.227 228.068 511.352 227.906 510.648C227.745 509.94 227.484 509.409 227.125 509.055C226.766 508.695 226.286 508.516 225.688 508.516C225.089 508.516 224.609 508.695 224.25 509.055C223.891 509.409 223.63 509.94 223.469 510.648C223.312 511.352 223.234 512.227 223.234 513.273ZM233.398 507.414C234.18 507.414 234.771 507.727 235.172 508.352C235.578 508.971 235.781 509.849 235.781 510.984C235.781 512.12 235.586 513.005 235.195 513.641C234.805 514.271 234.206 514.586 233.398 514.586C232.648 514.586 232.073 514.271 231.672 513.641C231.276 513.005 231.078 512.12 231.078 510.984C231.078 509.849 231.268 508.971 231.648 508.352C232.029 507.727 232.612 507.414 233.398 507.414ZM233.398 508.344C232.977 508.344 232.667 508.565 232.469 509.008C232.271 509.445 232.172 510.104 232.172 510.984C232.172 511.865 232.271 512.529 232.469 512.977C232.667 513.424 232.977 513.648 233.398 513.648C233.836 513.648 234.161 513.424 234.375 512.977C234.589 512.529 234.695 511.865 234.695 510.984C234.695 510.109 234.589 509.451 234.375 509.008C234.167 508.565 233.841 508.344 233.398 508.344ZM240.633 507.578L234.297 519H233.156L239.492 507.578H240.633ZM240.328 511.992C241.104 511.992 241.695 512.305 242.102 512.93C242.508 513.549 242.711 514.427 242.711 515.562C242.711 516.693 242.516 517.576 242.125 518.211C241.734 518.841 241.135 519.156 240.328 519.156C239.573 519.156 238.997 518.841 238.602 518.211C238.206 517.576 238.008 516.693 238.008 515.562C238.008 514.427 238.195 513.549 238.57 512.93C238.951 512.305 239.536 511.992 240.328 511.992ZM240.328 512.93C239.906 512.93 239.596 513.148 239.398 513.586C239.201 514.023 239.102 514.682 239.102 515.562C239.102 516.443 239.201 517.107 239.398 517.555C239.596 517.997 239.906 518.219 240.328 518.219C240.766 518.219 241.091 518 241.305 517.562C241.518 517.12 241.625 516.453 241.625 515.562C241.625 514.688 241.518 514.031 241.305 513.594C241.096 513.151 240.771 512.93 240.328 512.93Z" fill="black"/>
<path d="M310.07 357H308.734V346.75H305.141V345.578H313.648V346.75H310.07V357ZM318.875 352.117C318.875 351.43 318.922 350.758 319.016 350.102C319.115 349.445 319.279 348.836 319.508 348.273C319.737 347.706 320.049 347.208 320.445 346.781C320.841 346.354 321.333 346.021 321.922 345.781C322.516 345.536 323.227 345.414 324.055 345.414C324.289 345.414 324.542 345.427 324.812 345.453C325.083 345.474 325.307 345.51 325.484 345.562V346.68C325.292 346.612 325.07 346.562 324.82 346.531C324.576 346.5 324.328 346.484 324.078 346.484C323.109 346.484 322.346 346.695 321.789 347.117C321.237 347.539 320.839 348.112 320.594 348.836C320.349 349.555 320.208 350.365 320.172 351.266H320.258C320.419 351.005 320.625 350.771 320.875 350.562C321.125 350.349 321.427 350.18 321.781 350.055C322.141 349.93 322.557 349.867 323.031 349.867C323.698 349.867 324.279 350.003 324.773 350.273C325.273 350.544 325.659 350.938 325.93 351.453C326.206 351.969 326.344 352.594 326.344 353.328C326.344 354.115 326.198 354.794 325.906 355.367C325.615 355.94 325.198 356.383 324.656 356.695C324.12 357.003 323.479 357.156 322.734 357.156C322.177 357.156 321.664 357.049 321.195 356.836C320.727 356.622 320.318 356.305 319.969 355.883C319.625 355.461 319.357 354.938 319.164 354.312C318.971 353.682 318.875 352.951 318.875 352.117ZM322.719 356.062C323.427 356.062 323.995 355.836 324.422 355.383C324.849 354.93 325.062 354.245 325.062 353.328C325.062 352.578 324.872 351.984 324.492 351.547C324.112 351.109 323.539 350.891 322.773 350.891C322.253 350.891 321.799 351 321.414 351.219C321.029 351.432 320.729 351.703 320.516 352.031C320.302 352.359 320.195 352.693 320.195 353.031C320.195 353.375 320.245 353.724 320.344 354.078C320.448 354.432 320.604 354.76 320.812 355.062C321.021 355.365 321.284 355.607 321.602 355.789C321.919 355.971 322.292 356.062 322.719 356.062ZM335.461 351.273C335.461 352.201 335.391 353.029 335.25 353.758C335.109 354.487 334.888 355.104 334.586 355.609C334.284 356.115 333.893 356.5 333.414 356.766C332.935 357.026 332.359 357.156 331.688 357.156C330.839 357.156 330.135 356.924 329.578 356.461C329.026 355.997 328.612 355.328 328.336 354.453C328.065 353.573 327.93 352.513 327.93 351.273C327.93 350.055 328.052 349.008 328.297 348.133C328.547 347.253 328.948 346.578 329.5 346.109C330.052 345.635 330.781 345.398 331.688 345.398C332.547 345.398 333.255 345.633 333.812 346.102C334.37 346.565 334.784 347.237 335.055 348.117C335.326 348.992 335.461 350.044 335.461 351.273ZM329.234 351.273C329.234 352.336 329.315 353.221 329.477 353.93C329.638 354.638 329.898 355.169 330.258 355.523C330.622 355.872 331.099 356.047 331.688 356.047C332.276 356.047 332.75 355.872 333.109 355.523C333.474 355.174 333.737 354.646 333.898 353.938C334.065 353.229 334.148 352.341 334.148 351.273C334.148 350.227 334.068 349.352 333.906 348.648C333.745 347.94 333.484 347.409 333.125 347.055C332.766 346.695 332.286 346.516 331.688 346.516C331.089 346.516 330.609 346.695 330.25 347.055C329.891 347.409 329.63 347.94 329.469 348.648C329.312 349.352 329.234 350.227 329.234 351.273ZM339.398 345.414C340.18 345.414 340.771 345.727 341.172 346.352C341.578 346.971 341.781 347.849 341.781 348.984C341.781 350.12 341.586 351.005 341.195 351.641C340.805 352.271 340.206 352.586 339.398 352.586C338.648 352.586 338.073 352.271 337.672 351.641C337.276 351.005 337.078 350.12 337.078 348.984C337.078 347.849 337.268 346.971 337.648 346.352C338.029 345.727 338.612 345.414 339.398 345.414ZM339.398 346.344C338.977 346.344 338.667 346.565 338.469 347.008C338.271 347.445 338.172 348.104 338.172 348.984C338.172 349.865 338.271 350.529 338.469 350.977C338.667 351.424 338.977 351.648 339.398 351.648C339.836 351.648 340.161 351.424 340.375 350.977C340.589 350.529 340.695 349.865 340.695 348.984C340.695 348.109 340.589 347.451 340.375 347.008C340.167 346.565 339.841 346.344 339.398 346.344ZM346.633 345.578L340.297 357H339.156L345.492 345.578H346.633ZM346.328 349.992C347.104 349.992 347.695 350.305 348.102 350.93C348.508 351.549 348.711 352.427 348.711 353.562C348.711 354.693 348.516 355.576 348.125 356.211C347.734 356.841 347.135 357.156 346.328 357.156C345.573 357.156 344.997 356.841 344.602 356.211C344.206 355.576 344.008 354.693 344.008 353.562C344.008 352.427 344.195 351.549 344.57 350.93C344.951 350.305 345.536 349.992 346.328 349.992ZM346.328 350.93C345.906 350.93 345.596 351.148 345.398 351.586C345.201 352.023 345.102 352.682 345.102 353.562C345.102 354.443 345.201 355.107 345.398 355.555C345.596 355.997 345.906 356.219 346.328 356.219C346.766 356.219 347.091 356 347.305 355.562C347.518 355.12 347.625 354.453 347.625 353.562C347.625 352.688 347.518 352.031 347.305 351.594C347.096 351.151 346.771 350.93 346.328 350.93Z" fill="black"/>
<path d="M315.07 519H313.734V508.75H310.141V507.578H318.648V508.75H315.07V519ZM323.875 514.117C323.875 513.43 323.922 512.758 324.016 512.102C324.115 511.445 324.279 510.836 324.508 510.273C324.737 509.706 325.049 509.208 325.445 508.781C325.841 508.354 326.333 508.021 326.922 507.781C327.516 507.536 328.227 507.414 329.055 507.414C329.289 507.414 329.542 507.427 329.812 507.453C330.083 507.474 330.307 507.51 330.484 507.562V508.68C330.292 508.612 330.07 508.562 329.82 508.531C329.576 508.5 329.328 508.484 329.078 508.484C328.109 508.484 327.346 508.695 326.789 509.117C326.237 509.539 325.839 510.112 325.594 510.836C325.349 511.555 325.208 512.365 325.172 513.266H325.258C325.419 513.005 325.625 512.771 325.875 512.562C326.125 512.349 326.427 512.18 326.781 512.055C327.141 511.93 327.557 511.867 328.031 511.867C328.698 511.867 329.279 512.003 329.773 512.273C330.273 512.544 330.659 512.938 330.93 513.453C331.206 513.969 331.344 514.594 331.344 515.328C331.344 516.115 331.198 516.794 330.906 517.367C330.615 517.94 330.198 518.383 329.656 518.695C329.12 519.003 328.479 519.156 327.734 519.156C327.177 519.156 326.664 519.049 326.195 518.836C325.727 518.622 325.318 518.305 324.969 517.883C324.625 517.461 324.357 516.938 324.164 516.312C323.971 515.682 323.875 514.951 323.875 514.117ZM327.719 518.062C328.427 518.062 328.995 517.836 329.422 517.383C329.849 516.93 330.062 516.245 330.062 515.328C330.062 514.578 329.872 513.984 329.492 513.547C329.112 513.109 328.539 512.891 327.773 512.891C327.253 512.891 326.799 513 326.414 513.219C326.029 513.432 325.729 513.703 325.516 514.031C325.302 514.359 325.195 514.693 325.195 515.031C325.195 515.375 325.245 515.724 325.344 516.078C325.448 516.432 325.604 516.76 325.812 517.062C326.021 517.365 326.284 517.607 326.602 517.789C326.919 517.971 327.292 518.062 327.719 518.062ZM340.461 513.273C340.461 514.201 340.391 515.029 340.25 515.758C340.109 516.487 339.888 517.104 339.586 517.609C339.284 518.115 338.893 518.5 338.414 518.766C337.935 519.026 337.359 519.156 336.688 519.156C335.839 519.156 335.135 518.924 334.578 518.461C334.026 517.997 333.612 517.328 333.336 516.453C333.065 515.573 332.93 514.513 332.93 513.273C332.93 512.055 333.052 511.008 333.297 510.133C333.547 509.253 333.948 508.578 334.5 508.109C335.052 507.635 335.781 507.398 336.688 507.398C337.547 507.398 338.255 507.633 338.812 508.102C339.37 508.565 339.784 509.237 340.055 510.117C340.326 510.992 340.461 512.044 340.461 513.273ZM334.234 513.273C334.234 514.336 334.315 515.221 334.477 515.93C334.638 516.638 334.898 517.169 335.258 517.523C335.622 517.872 336.099 518.047 336.688 518.047C337.276 518.047 337.75 517.872 338.109 517.523C338.474 517.174 338.737 516.646 338.898 515.938C339.065 515.229 339.148 514.341 339.148 513.273C339.148 512.227 339.068 511.352 338.906 510.648C338.745 509.94 338.484 509.409 338.125 509.055C337.766 508.695 337.286 508.516 336.688 508.516C336.089 508.516 335.609 508.695 335.25 509.055C334.891 509.409 334.63 509.94 334.469 510.648C334.312 511.352 334.234 512.227 334.234 513.273ZM344.398 507.414C345.18 507.414 345.771 507.727 346.172 508.352C346.578 508.971 346.781 509.849 346.781 510.984C346.781 512.12 346.586 513.005 346.195 513.641C345.805 514.271 345.206 514.586 344.398 514.586C343.648 514.586 343.073 514.271 342.672 513.641C342.276 513.005 342.078 512.12 342.078 510.984C342.078 509.849 342.268 508.971 342.648 508.352C343.029 507.727 343.612 507.414 344.398 507.414ZM344.398 508.344C343.977 508.344 343.667 508.565 343.469 509.008C343.271 509.445 343.172 510.104 343.172 510.984C343.172 511.865 343.271 512.529 343.469 512.977C343.667 513.424 343.977 513.648 344.398 513.648C344.836 513.648 345.161 513.424 345.375 512.977C345.589 512.529 345.695 511.865 345.695 510.984C345.695 510.109 345.589 509.451 345.375 509.008C345.167 508.565 344.841 508.344 344.398 508.344ZM351.633 507.578L345.297 519H344.156L350.492 507.578H351.633ZM351.328 511.992C352.104 511.992 352.695 512.305 353.102 512.93C353.508 513.549 353.711 514.427 353.711 515.562C353.711 516.693 353.516 517.576 353.125 518.211C352.734 518.841 352.135 519.156 351.328 519.156C350.573 519.156 349.997 518.841 349.602 518.211C349.206 517.576 349.008 516.693 349.008 515.562C349.008 514.427 349.195 513.549 349.57 512.93C349.951 512.305 350.536 511.992 351.328 511.992ZM351.328 512.93C350.906 512.93 350.596 513.148 350.398 513.586C350.201 514.023 350.102 514.682 350.102 515.562C350.102 516.443 350.201 517.107 350.398 517.555C350.596 517.997 350.906 518.219 351.328 518.219C351.766 518.219 352.091 518 352.305 517.562C352.518 517.12 352.625 516.453 352.625 515.562C352.625 514.688 352.518 514.031 352.305 513.594C352.096 513.151 351.771 512.93 351.328 512.93Z" fill="black"/>
<path d="M417.07 357H415.734V346.75H412.141V345.578H420.648V346.75H417.07V357ZM433.812 354.352H432.102V357H430.836V354.352H425.312V353.258L430.75 345.516H432.102V353.18H433.812V354.352ZM430.836 353.18V349.445C430.836 349.159 430.839 348.901 430.844 348.672C430.849 348.438 430.857 348.221 430.867 348.023C430.878 347.82 430.885 347.628 430.891 347.445C430.901 347.263 430.909 347.083 430.914 346.906H430.852C430.753 347.115 430.638 347.336 430.508 347.57C430.383 347.799 430.255 348.005 430.125 348.188L426.602 353.18H430.836ZM442.461 351.273C442.461 352.201 442.391 353.029 442.25 353.758C442.109 354.487 441.888 355.104 441.586 355.609C441.284 356.115 440.893 356.5 440.414 356.766C439.935 357.026 439.359 357.156 438.688 357.156C437.839 357.156 437.135 356.924 436.578 356.461C436.026 355.997 435.612 355.328 435.336 354.453C435.065 353.573 434.93 352.513 434.93 351.273C434.93 350.055 435.052 349.008 435.297 348.133C435.547 347.253 435.948 346.578 436.5 346.109C437.052 345.635 437.781 345.398 438.688 345.398C439.547 345.398 440.255 345.633 440.812 346.102C441.37 346.565 441.784 347.237 442.055 348.117C442.326 348.992 442.461 350.044 442.461 351.273ZM436.234 351.273C436.234 352.336 436.315 353.221 436.477 353.93C436.638 354.638 436.898 355.169 437.258 355.523C437.622 355.872 438.099 356.047 438.688 356.047C439.276 356.047 439.75 355.872 440.109 355.523C440.474 355.174 440.737 354.646 440.898 353.938C441.065 353.229 441.148 352.341 441.148 351.273C441.148 350.227 441.068 349.352 440.906 348.648C440.745 347.94 440.484 347.409 440.125 347.055C439.766 346.695 439.286 346.516 438.688 346.516C438.089 346.516 437.609 346.695 437.25 347.055C436.891 347.409 436.63 347.94 436.469 348.648C436.312 349.352 436.234 350.227 436.234 351.273ZM446.398 345.414C447.18 345.414 447.771 345.727 448.172 346.352C448.578 346.971 448.781 347.849 448.781 348.984C448.781 350.12 448.586 351.005 448.195 351.641C447.805 352.271 447.206 352.586 446.398 352.586C445.648 352.586 445.073 352.271 444.672 351.641C444.276 351.005 444.078 350.12 444.078 348.984C444.078 347.849 444.268 346.971 444.648 346.352C445.029 345.727 445.612 345.414 446.398 345.414ZM446.398 346.344C445.977 346.344 445.667 346.565 445.469 347.008C445.271 347.445 445.172 348.104 445.172 348.984C445.172 349.865 445.271 350.529 445.469 350.977C445.667 351.424 445.977 351.648 446.398 351.648C446.836 351.648 447.161 351.424 447.375 350.977C447.589 350.529 447.695 349.865 447.695 348.984C447.695 348.109 447.589 347.451 447.375 347.008C447.167 346.565 446.841 346.344 446.398 346.344ZM453.633 345.578L447.297 357H446.156L452.492 345.578H453.633ZM453.328 349.992C454.104 349.992 454.695 350.305 455.102 350.93C455.508 351.549 455.711 352.427 455.711 353.562C455.711 354.693 455.516 355.576 455.125 356.211C454.734 356.841 454.135 357.156 453.328 357.156C452.573 357.156 451.997 356.841 451.602 356.211C451.206 355.576 451.008 354.693 451.008 353.562C451.008 352.427 451.195 351.549 451.57 350.93C451.951 350.305 452.536 349.992 453.328 349.992ZM453.328 350.93C452.906 350.93 452.596 351.148 452.398 351.586C452.201 352.023 452.102 352.682 452.102 353.562C452.102 354.443 452.201 355.107 452.398 355.555C452.596 355.997 452.906 356.219 453.328 356.219C453.766 356.219 454.091 356 454.305 355.562C454.518 355.12 454.625 354.453 454.625 353.562C454.625 352.688 454.518 352.031 454.305 351.594C454.096 351.151 453.771 350.93 453.328 350.93Z" fill="black"/>
<path d="M422.07 519H420.734V508.75H417.141V507.578H425.648V508.75H422.07V519ZM438.812 516.352H437.102V519H435.836V516.352H430.312V515.258L435.75 507.516H437.102V515.18H438.812V516.352ZM435.836 515.18V511.445C435.836 511.159 435.839 510.901 435.844 510.672C435.849 510.438 435.857 510.221 435.867 510.023C435.878 509.82 435.885 509.628 435.891 509.445C435.901 509.263 435.909 509.083 435.914 508.906H435.852C435.753 509.115 435.638 509.336 435.508 509.57C435.383 509.799 435.255 510.005 435.125 510.188L431.602 515.18H435.836ZM447.461 513.273C447.461 514.201 447.391 515.029 447.25 515.758C447.109 516.487 446.888 517.104 446.586 517.609C446.284 518.115 445.893 518.5 445.414 518.766C444.935 519.026 444.359 519.156 443.688 519.156C442.839 519.156 442.135 518.924 441.578 518.461C441.026 517.997 440.612 517.328 440.336 516.453C440.065 515.573 439.93 514.513 439.93 513.273C439.93 512.055 440.052 511.008 440.297 510.133C440.547 509.253 440.948 508.578 441.5 508.109C442.052 507.635 442.781 507.398 443.688 507.398C444.547 507.398 445.255 507.633 445.812 508.102C446.37 508.565 446.784 509.237 447.055 510.117C447.326 510.992 447.461 512.044 447.461 513.273ZM441.234 513.273C441.234 514.336 441.315 515.221 441.477 515.93C441.638 516.638 441.898 517.169 442.258 517.523C442.622 517.872 443.099 518.047 443.688 518.047C444.276 518.047 444.75 517.872 445.109 517.523C445.474 517.174 445.737 516.646 445.898 515.938C446.065 515.229 446.148 514.341 446.148 513.273C446.148 512.227 446.068 511.352 445.906 510.648C445.745 509.94 445.484 509.409 445.125 509.055C444.766 508.695 444.286 508.516 443.688 508.516C443.089 508.516 442.609 508.695 442.25 509.055C441.891 509.409 441.63 509.94 441.469 510.648C441.312 511.352 441.234 512.227 441.234 513.273ZM451.398 507.414C452.18 507.414 452.771 507.727 453.172 508.352C453.578 508.971 453.781 509.849 453.781 510.984C453.781 512.12 453.586 513.005 453.195 513.641C452.805 514.271 452.206 514.586 451.398 514.586C450.648 514.586 450.073 514.271 449.672 513.641C449.276 513.005 449.078 512.12 449.078 510.984C449.078 509.849 449.268 508.971 449.648 508.352C450.029 507.727 450.612 507.414 451.398 507.414ZM451.398 508.344C450.977 508.344 450.667 508.565 450.469 509.008C450.271 509.445 450.172 510.104 450.172 510.984C450.172 511.865 450.271 512.529 450.469 512.977C450.667 513.424 450.977 513.648 451.398 513.648C451.836 513.648 452.161 513.424 452.375 512.977C452.589 512.529 452.695 511.865 452.695 510.984C452.695 510.109 452.589 509.451 452.375 509.008C452.167 508.565 451.841 508.344 451.398 508.344ZM458.633 507.578L452.297 519H451.156L457.492 507.578H458.633ZM458.328 511.992C459.104 511.992 459.695 512.305 460.102 512.93C460.508 513.549 460.711 514.427 460.711 515.562C460.711 516.693 460.516 517.576 460.125 518.211C459.734 518.841 459.135 519.156 458.328 519.156C457.573 519.156 456.997 518.841 456.602 518.211C456.206 517.576 456.008 516.693 456.008 515.562C456.008 514.427 456.195 513.549 456.57 512.93C456.951 512.305 457.536 511.992 458.328 511.992ZM458.328 512.93C457.906 512.93 457.596 513.148 457.398 513.586C457.201 514.023 457.102 514.682 457.102 515.562C457.102 516.443 457.201 517.107 457.398 517.555C457.596 517.997 457.906 518.219 458.328 518.219C458.766 518.219 459.091 518 459.305 517.562C459.518 517.12 459.625 516.453 459.625 515.562C459.625 514.688 459.518 514.031 459.305 513.594C459.096 513.151 458.771 512.93 458.328 512.93Z" fill="black"/>
<path d="M522.07 357H520.734V346.75H517.141V345.578H525.648V346.75H522.07V357ZM538.242 357H530.758V355.914L533.812 352.812C534.38 352.24 534.857 351.729 535.242 351.281C535.633 350.833 535.93 350.393 536.133 349.961C536.336 349.523 536.438 349.044 536.438 348.523C536.438 347.878 536.245 347.385 535.859 347.047C535.479 346.703 534.977 346.531 534.352 346.531C533.805 346.531 533.32 346.625 532.898 346.812C532.477 347 532.044 347.266 531.602 347.609L530.906 346.734C531.208 346.479 531.536 346.253 531.891 346.055C532.25 345.857 532.633 345.701 533.039 345.586C533.451 345.471 533.888 345.414 534.352 345.414C535.055 345.414 535.661 345.536 536.172 345.781C536.682 346.026 537.076 346.375 537.352 346.828C537.633 347.281 537.773 347.82 537.773 348.445C537.773 349.049 537.654 349.612 537.414 350.133C537.174 350.648 536.839 351.161 536.406 351.672C535.974 352.177 535.469 352.714 534.891 353.281L532.406 355.758V355.812H538.242V357ZM547.461 351.273C547.461 352.201 547.391 353.029 547.25 353.758C547.109 354.487 546.888 355.104 546.586 355.609C546.284 356.115 545.893 356.5 545.414 356.766C544.935 357.026 544.359 357.156 543.688 357.156C542.839 357.156 542.135 356.924 541.578 356.461C541.026 355.997 540.612 355.328 540.336 354.453C540.065 353.573 539.93 352.513 539.93 351.273C539.93 350.055 540.052 349.008 540.297 348.133C540.547 347.253 540.948 346.578 541.5 346.109C542.052 345.635 542.781 345.398 543.688 345.398C544.547 345.398 545.255 345.633 545.812 346.102C546.37 346.565 546.784 347.237 547.055 348.117C547.326 348.992 547.461 350.044 547.461 351.273ZM541.234 351.273C541.234 352.336 541.315 353.221 541.477 353.93C541.638 354.638 541.898 355.169 542.258 355.523C542.622 355.872 543.099 356.047 543.688 356.047C544.276 356.047 544.75 355.872 545.109 355.523C545.474 355.174 545.737 354.646 545.898 353.938C546.065 353.229 546.148 352.341 546.148 351.273C546.148 350.227 546.068 349.352 545.906 348.648C545.745 347.94 545.484 347.409 545.125 347.055C544.766 346.695 544.286 346.516 543.688 346.516C543.089 346.516 542.609 346.695 542.25 347.055C541.891 347.409 541.63 347.94 541.469 348.648C541.312 349.352 541.234 350.227 541.234 351.273ZM551.398 345.414C552.18 345.414 552.771 345.727 553.172 346.352C553.578 346.971 553.781 347.849 553.781 348.984C553.781 350.12 553.586 351.005 553.195 351.641C552.805 352.271 552.206 352.586 551.398 352.586C550.648 352.586 550.073 352.271 549.672 351.641C549.276 351.005 549.078 350.12 549.078 348.984C549.078 347.849 549.268 346.971 549.648 346.352C550.029 345.727 550.612 345.414 551.398 345.414ZM551.398 346.344C550.977 346.344 550.667 346.565 550.469 347.008C550.271 347.445 550.172 348.104 550.172 348.984C550.172 349.865 550.271 350.529 550.469 350.977C550.667 351.424 550.977 351.648 551.398 351.648C551.836 351.648 552.161 351.424 552.375 350.977C552.589 350.529 552.695 349.865 552.695 348.984C552.695 348.109 552.589 347.451 552.375 347.008C552.167 346.565 551.841 346.344 551.398 346.344ZM558.633 345.578L552.297 357H551.156L557.492 345.578H558.633ZM558.328 349.992C559.104 349.992 559.695 350.305 560.102 350.93C560.508 351.549 560.711 352.427 560.711 353.562C560.711 354.693 560.516 355.576 560.125 356.211C559.734 356.841 559.135 357.156 558.328 357.156C557.573 357.156 556.997 356.841 556.602 356.211C556.206 355.576 556.008 354.693 556.008 353.562C556.008 352.427 556.195 351.549 556.57 350.93C556.951 350.305 557.536 349.992 558.328 349.992ZM558.328 350.93C557.906 350.93 557.596 351.148 557.398 351.586C557.201 352.023 557.102 352.682 557.102 353.562C557.102 354.443 557.201 355.107 557.398 355.555C557.596 355.997 557.906 356.219 558.328 356.219C558.766 356.219 559.091 356 559.305 355.562C559.518 355.12 559.625 354.453 559.625 353.562C559.625 352.688 559.518 352.031 559.305 351.594C559.096 351.151 558.771 350.93 558.328 350.93Z" fill="black"/>
<path d="M527.07 519H525.734V508.75H522.141V507.578H530.648V508.75H527.07V519ZM543.242 519H535.758V517.914L538.812 514.812C539.38 514.24 539.857 513.729 540.242 513.281C540.633 512.833 540.93 512.393 541.133 511.961C541.336 511.523 541.438 511.044 541.438 510.523C541.438 509.878 541.245 509.385 540.859 509.047C540.479 508.703 539.977 508.531 539.352 508.531C538.805 508.531 538.32 508.625 537.898 508.812C537.477 509 537.044 509.266 536.602 509.609L535.906 508.734C536.208 508.479 536.536 508.253 536.891 508.055C537.25 507.857 537.633 507.701 538.039 507.586C538.451 507.471 538.888 507.414 539.352 507.414C540.055 507.414 540.661 507.536 541.172 507.781C541.682 508.026 542.076 508.375 542.352 508.828C542.633 509.281 542.773 509.82 542.773 510.445C542.773 511.049 542.654 511.612 542.414 512.133C542.174 512.648 541.839 513.161 541.406 513.672C540.974 514.177 540.469 514.714 539.891 515.281L537.406 517.758V517.812H543.242V519ZM552.461 513.273C552.461 514.201 552.391 515.029 552.25 515.758C552.109 516.487 551.888 517.104 551.586 517.609C551.284 518.115 550.893 518.5 550.414 518.766C549.935 519.026 549.359 519.156 548.688 519.156C547.839 519.156 547.135 518.924 546.578 518.461C546.026 517.997 545.612 517.328 545.336 516.453C545.065 515.573 544.93 514.513 544.93 513.273C544.93 512.055 545.052 511.008 545.297 510.133C545.547 509.253 545.948 508.578 546.5 508.109C547.052 507.635 547.781 507.398 548.688 507.398C549.547 507.398 550.255 507.633 550.812 508.102C551.37 508.565 551.784 509.237 552.055 510.117C552.326 510.992 552.461 512.044 552.461 513.273ZM546.234 513.273C546.234 514.336 546.315 515.221 546.477 515.93C546.638 516.638 546.898 517.169 547.258 517.523C547.622 517.872 548.099 518.047 548.688 518.047C549.276 518.047 549.75 517.872 550.109 517.523C550.474 517.174 550.737 516.646 550.898 515.938C551.065 515.229 551.148 514.341 551.148 513.273C551.148 512.227 551.068 511.352 550.906 510.648C550.745 509.94 550.484 509.409 550.125 509.055C549.766 508.695 549.286 508.516 548.688 508.516C548.089 508.516 547.609 508.695 547.25 509.055C546.891 509.409 546.63 509.94 546.469 510.648C546.312 511.352 546.234 512.227 546.234 513.273ZM556.398 507.414C557.18 507.414 557.771 507.727 558.172 508.352C558.578 508.971 558.781 509.849 558.781 510.984C558.781 512.12 558.586 513.005 558.195 513.641C557.805 514.271 557.206 514.586 556.398 514.586C555.648 514.586 555.073 514.271 554.672 513.641C554.276 513.005 554.078 512.12 554.078 510.984C554.078 509.849 554.268 508.971 554.648 508.352C555.029 507.727 555.612 507.414 556.398 507.414ZM556.398 508.344C555.977 508.344 555.667 508.565 555.469 509.008C555.271 509.445 555.172 510.104 555.172 510.984C555.172 511.865 555.271 512.529 555.469 512.977C555.667 513.424 555.977 513.648 556.398 513.648C556.836 513.648 557.161 513.424 557.375 512.977C557.589 512.529 557.695 511.865 557.695 510.984C557.695 510.109 557.589 509.451 557.375 509.008C557.167 508.565 556.841 508.344 556.398 508.344ZM563.633 507.578L557.297 519H556.156L562.492 507.578H563.633ZM563.328 511.992C564.104 511.992 564.695 512.305 565.102 512.93C565.508 513.549 565.711 514.427 565.711 515.562C565.711 516.693 565.516 517.576 565.125 518.211C564.734 518.841 564.135 519.156 563.328 519.156C562.573 519.156 561.997 518.841 561.602 518.211C561.206 517.576 561.008 516.693 561.008 515.562C561.008 514.427 561.195 513.549 561.57 512.93C561.951 512.305 562.536 511.992 563.328 511.992ZM563.328 512.93C562.906 512.93 562.596 513.148 562.398 513.586C562.201 514.023 562.102 514.682 562.102 515.562C562.102 516.443 562.201 517.107 562.398 517.555C562.596 517.997 562.906 518.219 563.328 518.219C563.766 518.219 564.091 518 564.305 517.562C564.518 517.12 564.625 516.453 564.625 515.562C564.625 514.688 564.518 514.031 564.305 513.594C564.096 513.151 563.771 512.93 563.328 512.93Z" fill="black"/>
<path d="M623.07 357H621.734V346.75H618.141V345.578H626.648V346.75H623.07V357ZM636.586 357H635.32V348.906C635.32 348.599 635.32 348.336 635.32 348.117C635.326 347.893 635.331 347.69 635.336 347.508C635.346 347.32 635.359 347.13 635.375 346.938C635.214 347.104 635.062 347.247 634.922 347.367C634.781 347.482 634.607 347.625 634.398 347.797L633.094 348.844L632.414 347.961L635.508 345.578H636.586V357ZM648.461 351.273C648.461 352.201 648.391 353.029 648.25 353.758C648.109 354.487 647.888 355.104 647.586 355.609C647.284 356.115 646.893 356.5 646.414 356.766C645.935 357.026 645.359 357.156 644.688 357.156C643.839 357.156 643.135 356.924 642.578 356.461C642.026 355.997 641.612 355.328 641.336 354.453C641.065 353.573 640.93 352.513 640.93 351.273C640.93 350.055 641.052 349.008 641.297 348.133C641.547 347.253 641.948 346.578 642.5 346.109C643.052 345.635 643.781 345.398 644.688 345.398C645.547 345.398 646.255 345.633 646.812 346.102C647.37 346.565 647.784 347.237 648.055 348.117C648.326 348.992 648.461 350.044 648.461 351.273ZM642.234 351.273C642.234 352.336 642.315 353.221 642.477 353.93C642.638 354.638 642.898 355.169 643.258 355.523C643.622 355.872 644.099 356.047 644.688 356.047C645.276 356.047 645.75 355.872 646.109 355.523C646.474 355.174 646.737 354.646 646.898 353.938C647.065 353.229 647.148 352.341 647.148 351.273C647.148 350.227 647.068 349.352 646.906 348.648C646.745 347.94 646.484 347.409 646.125 347.055C645.766 346.695 645.286 346.516 644.688 346.516C644.089 346.516 643.609 346.695 643.25 347.055C642.891 347.409 642.63 347.94 642.469 348.648C642.312 349.352 642.234 350.227 642.234 351.273ZM652.398 345.414C653.18 345.414 653.771 345.727 654.172 346.352C654.578 346.971 654.781 347.849 654.781 348.984C654.781 350.12 654.586 351.005 654.195 351.641C653.805 352.271 653.206 352.586 652.398 352.586C651.648 352.586 651.073 352.271 650.672 351.641C650.276 351.005 650.078 350.12 650.078 348.984C650.078 347.849 650.268 346.971 650.648 346.352C651.029 345.727 651.612 345.414 652.398 345.414ZM652.398 346.344C651.977 346.344 651.667 346.565 651.469 347.008C651.271 347.445 651.172 348.104 651.172 348.984C651.172 349.865 651.271 350.529 651.469 350.977C651.667 351.424 651.977 351.648 652.398 351.648C652.836 351.648 653.161 351.424 653.375 350.977C653.589 350.529 653.695 349.865 653.695 348.984C653.695 348.109 653.589 347.451 653.375 347.008C653.167 346.565 652.841 346.344 652.398 346.344ZM659.633 345.578L653.297 357H652.156L658.492 345.578H659.633ZM659.328 349.992C660.104 349.992 660.695 350.305 661.102 350.93C661.508 351.549 661.711 352.427 661.711 353.562C661.711 354.693 661.516 355.576 661.125 356.211C660.734 356.841 660.135 357.156 659.328 357.156C658.573 357.156 657.997 356.841 657.602 356.211C657.206 355.576 657.008 354.693 657.008 353.562C657.008 352.427 657.195 351.549 657.57 350.93C657.951 350.305 658.536 349.992 659.328 349.992ZM659.328 350.93C658.906 350.93 658.596 351.148 658.398 351.586C658.201 352.023 658.102 352.682 658.102 353.562C658.102 354.443 658.201 355.107 658.398 355.555C658.596 355.997 658.906 356.219 659.328 356.219C659.766 356.219 660.091 356 660.305 355.562C660.518 355.12 660.625 354.453 660.625 353.562C660.625 352.688 660.518 352.031 660.305 351.594C660.096 351.151 659.771 350.93 659.328 350.93Z" fill="black"/>
<path d="M628.07 519H626.734V508.75H623.141V507.578H631.648V508.75H628.07V519ZM641.586 519H640.32V510.906C640.32 510.599 640.32 510.336 640.32 510.117C640.326 509.893 640.331 509.69 640.336 509.508C640.346 509.32 640.359 509.13 640.375 508.938C640.214 509.104 640.062 509.247 639.922 509.367C639.781 509.482 639.607 509.625 639.398 509.797L638.094 510.844L637.414 509.961L640.508 507.578H641.586V519ZM653.461 513.273C653.461 514.201 653.391 515.029 653.25 515.758C653.109 516.487 652.888 517.104 652.586 517.609C652.284 518.115 651.893 518.5 651.414 518.766C650.935 519.026 650.359 519.156 649.688 519.156C648.839 519.156 648.135 518.924 647.578 518.461C647.026 517.997 646.612 517.328 646.336 516.453C646.065 515.573 645.93 514.513 645.93 513.273C645.93 512.055 646.052 511.008 646.297 510.133C646.547 509.253 646.948 508.578 647.5 508.109C648.052 507.635 648.781 507.398 649.688 507.398C650.547 507.398 651.255 507.633 651.812 508.102C652.37 508.565 652.784 509.237 653.055 510.117C653.326 510.992 653.461 512.044 653.461 513.273ZM647.234 513.273C647.234 514.336 647.315 515.221 647.477 515.93C647.638 516.638 647.898 517.169 648.258 517.523C648.622 517.872 649.099 518.047 649.688 518.047C650.276 518.047 650.75 517.872 651.109 517.523C651.474 517.174 651.737 516.646 651.898 515.938C652.065 515.229 652.148 514.341 652.148 513.273C652.148 512.227 652.068 511.352 651.906 510.648C651.745 509.94 651.484 509.409 651.125 509.055C650.766 508.695 650.286 508.516 649.688 508.516C649.089 508.516 648.609 508.695 648.25 509.055C647.891 509.409 647.63 509.94 647.469 510.648C647.312 511.352 647.234 512.227 647.234 513.273ZM657.398 507.414C658.18 507.414 658.771 507.727 659.172 508.352C659.578 508.971 659.781 509.849 659.781 510.984C659.781 512.12 659.586 513.005 659.195 513.641C658.805 514.271 658.206 514.586 657.398 514.586C656.648 514.586 656.073 514.271 655.672 513.641C655.276 513.005 655.078 512.12 655.078 510.984C655.078 509.849 655.268 508.971 655.648 508.352C656.029 507.727 656.612 507.414 657.398 507.414ZM657.398 508.344C656.977 508.344 656.667 508.565 656.469 509.008C656.271 509.445 656.172 510.104 656.172 510.984C656.172 511.865 656.271 512.529 656.469 512.977C656.667 513.424 656.977 513.648 657.398 513.648C657.836 513.648 658.161 513.424 658.375 512.977C658.589 512.529 658.695 511.865 658.695 510.984C658.695 510.109 658.589 509.451 658.375 509.008C658.167 508.565 657.841 508.344 657.398 508.344ZM664.633 507.578L658.297 519H657.156L663.492 507.578H664.633ZM664.328 511.992C665.104 511.992 665.695 512.305 666.102 512.93C666.508 513.549 666.711 514.427 666.711 515.562C666.711 516.693 666.516 517.576 666.125 518.211C665.734 518.841 665.135 519.156 664.328 519.156C663.573 519.156 662.997 518.841 662.602 518.211C662.206 517.576 662.008 516.693 662.008 515.562C662.008 514.427 662.195 513.549 662.57 512.93C662.951 512.305 663.536 511.992 664.328 511.992ZM664.328 512.93C663.906 512.93 663.596 513.148 663.398 513.586C663.201 514.023 663.102 514.682 663.102 515.562C663.102 516.443 663.201 517.107 663.398 517.555C663.596 517.997 663.906 518.219 664.328 518.219C664.766 518.219 665.091 518 665.305 517.562C665.518 517.12 665.625 516.453 665.625 515.562C665.625 514.688 665.518 514.031 665.305 513.594C665.096 513.151 664.771 512.93 664.328 512.93Z" fill="black"/>
<path d="M191.668 171.484L191.121 174.277H193.758V175.908H190.809L190.018 180H188.279L189.08 175.908H186.639L185.867 180H184.168L184.92 175.908H182.479V174.277H185.232L185.789 171.484H183.201V169.854H186.082L186.863 165.732H188.602L187.82 169.854H190.281L191.072 165.732H192.762L191.98 169.854H194.441V171.484H191.668ZM186.951 174.277H189.393L189.949 171.484H187.498L186.951 174.277ZM208.396 172.725C208.396 174.333 208.097 175.677 207.498 176.758C206.899 177.832 206.03 178.643 204.891 179.189C203.751 179.73 202.378 180 200.77 180H196.805V165.723H201.199C202.677 165.723 203.953 165.99 205.027 166.523C206.102 167.051 206.932 167.835 207.518 168.877C208.104 169.912 208.396 171.195 208.396 172.725ZM205.955 172.793C205.955 171.621 205.77 170.658 205.398 169.902C205.034 169.147 204.493 168.587 203.777 168.223C203.068 167.852 202.192 167.666 201.15 167.666H199.148V178.037H200.809C202.534 178.037 203.823 177.598 204.676 176.719C205.529 175.84 205.955 174.531 205.955 172.793ZM220.164 172.852C220.164 174.004 220.073 175.036 219.891 175.947C219.715 176.852 219.435 177.62 219.051 178.252C218.667 178.883 218.165 179.365 217.547 179.697C216.928 180.029 216.18 180.195 215.301 180.195C214.201 180.195 213.292 179.906 212.576 179.326C211.86 178.74 211.329 177.9 210.984 176.807C210.639 175.706 210.467 174.388 210.467 172.852C210.467 171.315 210.623 170 210.936 168.906C211.255 167.806 211.769 166.963 212.479 166.377C213.188 165.791 214.129 165.498 215.301 165.498C216.408 165.498 217.319 165.791 218.035 166.377C218.758 166.956 219.292 167.796 219.637 168.896C219.988 169.99 220.164 171.309 220.164 172.852ZM212.781 172.852C212.781 174.056 212.859 175.062 213.016 175.869C213.178 176.676 213.445 177.282 213.816 177.686C214.188 178.083 214.682 178.281 215.301 178.281C215.919 178.281 216.414 178.083 216.785 177.686C217.156 177.288 217.423 176.686 217.586 175.879C217.755 175.072 217.84 174.062 217.84 172.852C217.84 171.654 217.758 170.651 217.596 169.844C217.433 169.036 217.166 168.431 216.795 168.027C216.424 167.617 215.926 167.412 215.301 167.412C214.676 167.412 214.178 167.617 213.807 168.027C213.442 168.431 213.178 169.036 213.016 169.844C212.859 170.651 212.781 171.654 212.781 172.852ZM231.004 180H222.918V165.723H231.004V167.695H225.262V171.572H230.643V173.535H225.262V178.018H231.004V180ZM242.176 180H234.09V165.723H242.176V167.695H236.434V171.572H241.814V173.535H236.434V178.018H242.176V180ZM253.348 180H245.262V165.723H253.348V167.695H247.605V171.572H252.986V173.535H247.605V178.018H253.348V180ZM265.105 171.807C265.105 172.653 265.044 173.483 264.92 174.297C264.803 175.111 264.594 175.872 264.295 176.582C264.002 177.292 263.595 177.92 263.074 178.467C262.56 179.007 261.909 179.43 261.121 179.736C260.333 180.042 259.383 180.195 258.27 180.195C257.99 180.195 257.664 180.179 257.293 180.146C256.928 180.12 256.629 180.081 256.395 180.029V178.115C256.642 178.187 256.919 178.245 257.225 178.291C257.537 178.33 257.846 178.35 258.152 178.35C259.357 178.35 260.294 178.125 260.965 177.676C261.642 177.227 262.12 176.608 262.4 175.82C262.687 175.033 262.85 174.137 262.889 173.135H262.771C262.583 173.447 262.345 173.734 262.059 173.994C261.772 174.248 261.417 174.453 260.994 174.609C260.571 174.759 260.057 174.834 259.451 174.834C258.631 174.834 257.915 174.661 257.303 174.316C256.697 173.971 256.225 173.47 255.887 172.812C255.555 172.148 255.389 171.351 255.389 170.42C255.389 169.411 255.581 168.542 255.965 167.812C256.349 167.083 256.893 166.523 257.596 166.133C258.299 165.736 259.126 165.537 260.076 165.537C260.792 165.537 261.453 165.667 262.059 165.928C262.671 166.182 263.204 166.572 263.66 167.1C264.116 167.62 264.471 168.275 264.725 169.062C264.979 169.844 265.105 170.758 265.105 171.807ZM260.105 167.432C259.383 167.432 258.794 167.676 258.338 168.164C257.882 168.646 257.654 169.388 257.654 170.391C257.654 171.204 257.85 171.849 258.24 172.324C258.631 172.799 259.23 173.037 260.037 173.037C260.597 173.037 261.079 172.923 261.482 172.695C261.893 172.461 262.208 172.165 262.43 171.807C262.658 171.449 262.771 171.084 262.771 170.713C262.771 170.329 262.716 169.945 262.605 169.561C262.501 169.176 262.339 168.825 262.117 168.506C261.896 168.187 261.616 167.93 261.277 167.734C260.945 167.533 260.555 167.432 260.105 167.432Z" fill="black"/>
<path d="M346.668 171.484L346.121 174.277H348.758V175.908H345.809L345.018 180H343.279L344.08 175.908H341.639L340.867 180H339.168L339.92 175.908H337.479V174.277H340.232L340.789 171.484H338.201V169.854H341.082L341.863 165.732H343.602L342.82 169.854H345.281L346.072 165.732H347.762L346.98 169.854H349.441V171.484H346.668ZM341.951 174.277H344.393L344.949 171.484H342.498L341.951 174.277ZM350.848 173.916C350.848 173.076 350.906 172.249 351.023 171.436C351.147 170.622 351.355 169.86 351.648 169.15C351.941 168.441 352.345 167.816 352.859 167.275C353.38 166.735 354.035 166.312 354.822 166.006C355.61 165.693 356.557 165.537 357.664 165.537C357.951 165.537 358.273 165.55 358.631 165.576C358.989 165.602 359.285 165.645 359.52 165.703V167.607C359.266 167.536 358.986 167.48 358.68 167.441C358.38 167.402 358.081 167.383 357.781 167.383C356.583 167.383 355.649 167.611 354.979 168.066C354.308 168.516 353.829 169.134 353.543 169.922C353.257 170.703 353.09 171.598 353.045 172.607H353.162C353.357 172.282 353.602 171.992 353.895 171.738C354.188 171.484 354.546 171.283 354.969 171.133C355.392 170.977 355.883 170.898 356.443 170.898C357.277 170.898 358.003 171.074 358.621 171.426C359.24 171.771 359.715 172.272 360.047 172.93C360.385 173.587 360.555 174.385 360.555 175.322C360.555 176.331 360.363 177.201 359.979 177.93C359.601 178.659 359.061 179.219 358.357 179.609C357.661 180 356.831 180.195 355.867 180.195C355.158 180.195 354.497 180.065 353.885 179.805C353.279 179.544 352.749 179.154 352.293 178.633C351.837 178.112 351.482 177.461 351.229 176.68C350.975 175.892 350.848 174.971 350.848 173.916ZM355.828 178.301C356.57 178.301 357.166 178.06 357.615 177.578C358.071 177.09 358.299 176.344 358.299 175.342C358.299 174.528 358.097 173.883 357.693 173.408C357.296 172.933 356.697 172.695 355.896 172.695C355.35 172.695 354.871 172.812 354.461 173.047C354.051 173.281 353.732 173.577 353.504 173.936C353.283 174.294 353.172 174.658 353.172 175.029C353.172 175.407 353.227 175.788 353.338 176.172C353.449 176.556 353.615 176.911 353.836 177.236C354.057 177.555 354.334 177.812 354.666 178.008C354.998 178.203 355.385 178.301 355.828 178.301ZM365.574 180H363.25V165.723H371.316V167.695H365.574V172.148H370.945V174.111H365.574V180ZM373.914 165.723H378.162C380.005 165.723 381.395 165.99 382.332 166.523C383.27 167.057 383.738 167.979 383.738 169.287C383.738 169.834 383.641 170.329 383.445 170.771C383.257 171.208 382.98 171.569 382.615 171.855C382.251 172.135 381.801 172.324 381.268 172.422V172.52C381.821 172.617 382.312 172.79 382.742 173.037C383.178 173.285 383.52 173.639 383.768 174.102C384.021 174.564 384.148 175.163 384.148 175.898C384.148 176.771 383.94 177.513 383.523 178.125C383.113 178.737 382.524 179.202 381.756 179.521C380.994 179.84 380.089 180 379.041 180H373.914V165.723ZM376.258 171.611H378.504C379.565 171.611 380.301 171.439 380.711 171.094C381.121 170.749 381.326 170.244 381.326 169.58C381.326 168.903 381.082 168.415 380.594 168.115C380.112 167.816 379.344 167.666 378.289 167.666H376.258V171.611ZM376.258 173.506V178.037H378.729C379.822 178.037 380.59 177.826 381.033 177.402C381.476 176.979 381.697 176.406 381.697 175.684C381.697 175.241 381.596 174.857 381.395 174.531C381.199 174.206 380.877 173.955 380.428 173.779C379.979 173.597 379.373 173.506 378.611 173.506H376.258ZM395.789 172.852C395.789 174.004 395.698 175.036 395.516 175.947C395.34 176.852 395.06 177.62 394.676 178.252C394.292 178.883 393.79 179.365 393.172 179.697C392.553 180.029 391.805 180.195 390.926 180.195C389.826 180.195 388.917 179.906 388.201 179.326C387.485 178.74 386.954 177.9 386.609 176.807C386.264 175.706 386.092 174.388 386.092 172.852C386.092 171.315 386.248 170 386.561 168.906C386.88 167.806 387.394 166.963 388.104 166.377C388.813 165.791 389.754 165.498 390.926 165.498C392.033 165.498 392.944 165.791 393.66 166.377C394.383 166.956 394.917 167.796 395.262 168.896C395.613 169.99 395.789 171.309 395.789 172.852ZM388.406 172.852C388.406 174.056 388.484 175.062 388.641 175.869C388.803 176.676 389.07 177.282 389.441 177.686C389.812 178.083 390.307 178.281 390.926 178.281C391.544 178.281 392.039 178.083 392.41 177.686C392.781 177.288 393.048 176.686 393.211 175.879C393.38 175.072 393.465 174.062 393.465 172.852C393.465 171.654 393.383 170.651 393.221 169.844C393.058 169.036 392.791 168.431 392.42 168.027C392.049 167.617 391.551 167.412 390.926 167.412C390.301 167.412 389.803 167.617 389.432 168.027C389.067 168.431 388.803 169.036 388.641 169.844C388.484 170.651 388.406 171.654 388.406 172.852ZM398.543 165.723H402.791C404.633 165.723 406.023 165.99 406.961 166.523C407.898 167.057 408.367 167.979 408.367 169.287C408.367 169.834 408.27 170.329 408.074 170.771C407.885 171.208 407.609 171.569 407.244 171.855C406.88 172.135 406.43 172.324 405.896 172.422V172.52C406.45 172.617 406.941 172.79 407.371 173.037C407.807 173.285 408.149 173.639 408.396 174.102C408.65 174.564 408.777 175.163 408.777 175.898C408.777 176.771 408.569 177.513 408.152 178.125C407.742 178.737 407.153 179.202 406.385 179.521C405.623 179.84 404.718 180 403.67 180H398.543V165.723ZM400.887 171.611H403.133C404.194 171.611 404.93 171.439 405.34 171.094C405.75 170.749 405.955 170.244 405.955 169.58C405.955 168.903 405.711 168.415 405.223 168.115C404.741 167.816 403.973 167.666 402.918 167.666H400.887V171.611ZM400.887 173.506V178.037H403.357C404.451 178.037 405.219 177.826 405.662 177.402C406.105 176.979 406.326 176.406 406.326 175.684C406.326 175.241 406.225 174.857 406.023 174.531C405.828 174.206 405.506 173.955 405.057 173.779C404.607 173.597 404.002 173.506 403.24 173.506H400.887ZM412.381 180L417.986 167.734H410.574V165.723H420.457V167.295L414.852 180H412.381Z" fill="black"/>
<path d="M505.668 171.484L505.121 174.277H507.758V175.908H504.809L504.018 180H502.279L503.08 175.908H500.639L499.867 180H498.168L498.92 175.908H496.479V174.277H499.232L499.789 171.484H497.201V169.854H500.082L500.863 165.732H502.602L501.82 169.854H504.281L505.072 165.732H506.762L505.98 169.854H508.441V171.484H505.668ZM500.951 174.277H503.393L503.949 171.484H501.498L500.951 174.277ZM513.129 180H510.805V165.723H518.871V167.695H513.129V172.148H518.5V174.111H513.129V180ZM523.793 180H521.469V165.723H529.535V167.695H523.793V172.148H529.164V174.111H523.793V180ZM534.457 180H532.133V165.723H540.199V167.695H534.457V172.148H539.828V174.111H534.457V180ZM552.006 176.865H550.072V180H547.807V176.865H541.312V175.127L547.836 165.684H550.072V174.961H552.006V176.865ZM547.807 174.961V171.416C547.807 171.123 547.81 170.827 547.816 170.527C547.829 170.221 547.842 169.928 547.855 169.648C547.868 169.368 547.882 169.111 547.895 168.877C547.908 168.636 547.917 168.438 547.924 168.281H547.846C547.722 168.542 547.585 168.809 547.436 169.082C547.286 169.349 547.126 169.609 546.957 169.863L543.441 174.961H547.807ZM562.328 180H554.242V165.723H562.328V167.695H556.586V171.572H561.967V173.535H556.586V178.018H562.328V180ZM569.252 165.527C570.079 165.527 570.824 165.658 571.488 165.918C572.152 166.172 572.68 166.553 573.07 167.061C573.461 167.568 573.656 168.197 573.656 168.945C573.656 169.525 573.536 170.029 573.295 170.459C573.061 170.889 572.742 171.266 572.338 171.592C571.934 171.911 571.482 172.194 570.98 172.441C571.54 172.715 572.055 173.031 572.523 173.389C572.999 173.74 573.38 174.154 573.666 174.629C573.959 175.104 574.105 175.661 574.105 176.299C574.105 177.1 573.9 177.793 573.49 178.379C573.087 178.958 572.523 179.408 571.801 179.727C571.078 180.039 570.235 180.195 569.271 180.195C568.236 180.195 567.354 180.042 566.625 179.736C565.896 179.43 565.342 178.994 564.965 178.428C564.587 177.855 564.398 177.171 564.398 176.377C564.398 175.719 564.529 175.15 564.789 174.668C565.049 174.186 565.398 173.77 565.834 173.418C566.277 173.066 566.762 172.77 567.289 172.529C566.84 172.262 566.43 171.963 566.059 171.631C565.688 171.292 565.391 170.905 565.17 170.469C564.955 170.026 564.848 169.515 564.848 168.936C564.848 168.193 565.046 167.572 565.443 167.07C565.84 166.562 566.371 166.178 567.035 165.918C567.706 165.658 568.445 165.527 569.252 165.527ZM566.586 176.289C566.586 176.914 566.807 177.428 567.25 177.832C567.693 178.236 568.354 178.438 569.232 178.438C570.105 178.438 570.769 178.239 571.225 177.842C571.68 177.445 571.908 176.921 571.908 176.27C571.908 175.853 571.791 175.485 571.557 175.166C571.329 174.847 571.02 174.564 570.629 174.316C570.245 174.062 569.818 173.828 569.35 173.613L569.037 173.486C568.529 173.701 568.093 173.945 567.729 174.219C567.364 174.486 567.081 174.788 566.879 175.127C566.684 175.465 566.586 175.853 566.586 176.289ZM569.232 167.295C568.601 167.295 568.08 167.451 567.67 167.764C567.266 168.07 567.064 168.512 567.064 169.092C567.064 169.502 567.162 169.854 567.357 170.146C567.559 170.439 567.829 170.693 568.168 170.908C568.507 171.117 568.881 171.312 569.291 171.494C569.688 171.318 570.046 171.126 570.365 170.918C570.691 170.703 570.948 170.449 571.137 170.156C571.332 169.857 571.43 169.499 571.43 169.082C571.43 168.509 571.225 168.07 570.814 167.764C570.411 167.451 569.883 167.295 569.232 167.295Z" fill="black"/>
<path d="M657.668 171.484L657.121 174.277H659.758V175.908H656.809L656.018 180H654.279L655.08 175.908H652.639L651.867 180H650.168L650.92 175.908H648.479V174.277H651.232L651.789 171.484H649.201V169.854H652.082L652.863 165.732H654.602L653.82 169.854H656.281L657.072 165.732H658.762L657.98 169.854H660.441V171.484H657.668ZM652.951 174.277H655.393L655.949 171.484H653.498L652.951 174.277ZM665.129 180H662.805V165.723H670.871V167.695H665.129V172.148H670.5V174.111H665.129V180ZM675.793 180H673.469V165.723H681.535V167.695H675.793V172.148H681.164V174.111H675.793V180ZM692.219 180H684.133V165.723H692.219V167.695H686.477V171.572H691.857V173.535H686.477V178.018H692.219V180ZM703.996 180H694.328V178.271L698.029 174.521C698.745 173.792 699.335 173.164 699.797 172.637C700.259 172.103 700.601 171.598 700.822 171.123C701.05 170.648 701.164 170.13 701.164 169.57C701.164 168.88 700.965 168.359 700.568 168.008C700.171 167.65 699.647 167.471 698.996 167.471C698.378 167.471 697.805 167.594 697.277 167.842C696.757 168.083 696.216 168.428 695.656 168.877L694.396 167.363C694.794 167.025 695.217 166.715 695.666 166.436C696.122 166.156 696.63 165.934 697.189 165.771C697.749 165.602 698.387 165.518 699.104 165.518C700.008 165.518 700.79 165.68 701.447 166.006C702.105 166.325 702.609 166.771 702.961 167.344C703.319 167.917 703.498 168.584 703.498 169.346C703.498 170.114 703.345 170.824 703.039 171.475C702.733 172.126 702.297 172.77 701.73 173.408C701.164 174.04 700.49 174.727 699.709 175.469L697.238 177.881V177.988H703.996V180ZM718.342 172.725C718.342 174.333 718.042 175.677 717.443 176.758C716.844 177.832 715.975 178.643 714.836 179.189C713.697 179.73 712.323 180 710.715 180H706.75V165.723H711.145C712.622 165.723 713.898 165.99 714.973 166.523C716.047 167.051 716.877 167.835 717.463 168.877C718.049 169.912 718.342 171.195 718.342 172.725ZM715.9 172.793C715.9 171.621 715.715 170.658 715.344 169.902C714.979 169.147 714.439 168.587 713.723 168.223C713.013 167.852 712.137 167.666 711.096 167.666H709.094V178.037H710.754C712.479 178.037 713.768 177.598 714.621 176.719C715.474 175.84 715.9 174.531 715.9 172.793ZM730.266 180L728.869 176.035H723.41L722.014 180H719.543L724.855 165.664H727.453L732.756 180H730.266ZM728.264 174.023L726.906 170.117C726.854 169.948 726.779 169.71 726.682 169.404C726.584 169.092 726.486 168.776 726.389 168.457C726.291 168.132 726.21 167.858 726.145 167.637C726.079 167.904 725.998 168.203 725.9 168.535C725.809 168.861 725.718 169.167 725.627 169.453C725.542 169.74 725.477 169.961 725.432 170.117L724.064 174.023H728.264Z" fill="black"/>
<path d="M144.746 253.042L92.2049 254.849C88.0815 254.991 84.8537 258.449 84.9956 262.572L86.8022 315.094C86.944 319.218 90.4017 322.445 94.5251 322.304L147.066 320.496C151.189 320.354 154.417 316.897 154.275 312.773L152.468 260.251C152.327 256.128 148.869 252.9 144.746 253.042Z" fill="#6FB0B7"/>
<path d="M139.565 260.087L89.3587 261.814C85.4195 261.949 82.3359 265.252 82.4714 269.192L84.1983 319.398C84.3338 323.337 87.6371 326.421 91.5763 326.285L141.783 324.558C145.722 324.423 148.805 321.12 148.67 317.181L146.943 266.974C146.808 263.035 143.504 259.951 139.565 260.087Z" stroke="black" stroke-width="2.5" stroke-miterlimit="10"/>
<path d="M144.746 414.042L92.2054 415.849C88.0819 415.991 84.8542 419.449 84.9961 423.572L86.8026 476.094C86.9445 480.218 90.4021 483.445 94.5256 483.304L147.066 481.496C151.19 481.354 154.417 477.897 154.276 473.773L152.469 421.251C152.327 417.128 148.869 413.9 144.746 414.042Z" fill="#4C6A92"/>
<path d="M139.566 421.087L89.3592 422.814C85.42 422.949 82.3364 426.252 82.4719 430.192L84.1988 480.398C84.3343 484.337 87.6376 487.421 91.5768 487.285L141.783 485.558C145.722 485.423 148.806 482.12 148.67 478.181L146.944 427.974C146.808 424.035 143.505 420.951 139.566 421.087Z" stroke="black" stroke-width="2.5" stroke-miterlimit="10"/>
<path d="M249.746 253.042L197.205 254.849C193.082 254.991 189.854 258.449 189.996 262.572L191.803 315.094C191.944 319.218 195.402 322.445 199.526 322.304L252.066 320.496C256.19 320.354 259.417 316.897 259.276 312.773L257.469 260.251C257.327 256.128 253.869 252.9 249.746 253.042Z" fill="#6FB0B7" fill-opacity="0.8"/>
<path d="M244.566 260.087L194.359 261.814C190.42 261.949 187.336 265.252 187.472 269.192L189.199 319.398C189.334 323.337 192.638 326.421 196.577 326.285L246.783 324.558C250.722 324.423 253.806 321.12 253.67 317.181L251.944 266.974C251.808 263.035 248.505 259.951 244.566 260.087Z" fill="#6FB0B7" fill-opacity="0.8" stroke="black" stroke-width="2.5" stroke-miterlimit="10"/>
<path d="M249.746 414.042L197.205 415.849C193.082 415.991 189.854 419.449 189.996 423.572L191.803 476.094C191.944 480.218 195.402 483.445 199.526 483.304L252.066 481.496C256.19 481.354 259.417 477.897 259.276 473.773L257.469 421.251C257.327 417.128 253.869 413.9 249.746 414.042Z" fill="#4C6A92" fill-opacity="0.8"/>
<path d="M244.566 421.087L194.359 422.814C190.42 422.949 187.336 426.252 187.472 430.192L189.199 480.398C189.334 484.337 192.638 487.421 196.577 487.285L246.783 485.558C250.722 485.423 253.806 482.12 253.67 478.181L251.944 427.974C251.808 424.035 248.505 420.951 244.566 421.087Z" fill="#4C6A92" fill-opacity="0.8" stroke="black" stroke-width="2.5" stroke-miterlimit="10"/>
<path d="M354.746 253.042L302.205 254.849C298.082 254.991 294.854 258.449 294.996 262.572L296.803 315.094C296.944 319.218 300.402 322.445 304.526 322.304L357.066 320.496C361.19 320.354 364.417 316.897 364.276 312.773L362.469 260.251C362.327 256.128 358.869 252.9 354.746 253.042Z" fill="#6FB0B7" fill-opacity="0.6"/>
<path d="M349.566 260.087L299.359 261.814C295.42 261.949 292.336 265.252 292.472 269.192L294.199 319.398C294.334 323.337 297.638 326.421 301.577 326.285L351.783 324.558C355.722 324.423 358.806 321.12 358.67 317.181L356.944 266.974C356.808 263.035 353.505 259.951 349.566 260.087Z" fill="#6FB0B7" fill-opacity="0.6" stroke="black" stroke-width="2.5" stroke-miterlimit="10"/>
<path d="M354.746 414.042L302.205 415.849C298.082 415.991 294.854 419.449 294.996 423.572L296.803 476.094C296.944 480.218 300.402 483.445 304.526 483.304L357.066 481.496C361.19 481.354 364.417 477.897 364.276 473.773L362.469 421.251C362.327 417.128 358.869 413.9 354.746 414.042Z" fill="#4C6A92" fill-opacity="0.6"/>
<path d="M349.566 421.087L299.359 422.814C295.42 422.949 292.336 426.252 292.472 430.192L294.199 480.398C294.334 484.337 297.638 487.421 301.577 487.285L351.783 485.558C355.722 485.423 358.806 482.12 358.67 478.181L356.944 427.974C356.808 424.035 353.505 420.951 349.566 421.087Z" fill="#4C6A92" fill-opacity="0.6" stroke="black" stroke-width="2.5" stroke-miterlimit="10"/>
<path d="M459.746 253.042L407.205 254.849C403.082 254.991 399.854 258.449 399.996 262.572L401.803 315.094C401.944 319.218 405.402 322.445 409.526 322.304L462.066 320.496C466.19 320.354 469.417 316.897 469.276 312.773L467.469 260.251C467.327 256.128 463.869 252.9 459.746 253.042Z" fill="#6FB0B7" fill-opacity="0.4"/>
<path d="M454.566 260.087L404.359 261.814C400.42 261.949 397.336 265.252 397.472 269.192L399.199 319.398C399.334 323.337 402.638 326.421 406.577 326.285L456.783 324.558C460.722 324.423 463.806 321.12 463.67 317.181L461.944 266.974C461.808 263.035 458.505 259.951 454.566 260.087Z" fill="#6FB0B7" fill-opacity="0.4" stroke="black" stroke-width="2.5" stroke-miterlimit="10"/>
<path d="M459.746 414.042L407.205 415.849C403.082 415.991 399.854 419.449 399.996 423.572L401.803 476.094C401.944 480.218 405.402 483.445 409.526 483.304L462.066 481.496C466.19 481.354 469.417 477.897 469.276 473.773L467.469 421.251C467.327 417.128 463.869 413.9 459.746 414.042Z" fill="#4C6A92" fill-opacity="0.4"/>
<path d="M454.566 421.087L404.359 422.814C400.42 422.949 397.336 426.252 397.472 430.192L399.199 480.398C399.334 484.337 402.638 487.421 406.577 487.285L456.783 485.558C460.722 485.423 463.806 482.12 463.67 478.181L461.944 427.974C461.808 424.035 458.505 420.951 454.566 421.087Z" fill="#4C6A92" fill-opacity="0.4" stroke="black" stroke-width="2.5" stroke-miterlimit="10"/>
<path d="M564.746 253.042L512.205 254.849C508.082 254.991 504.854 258.449 504.996 262.572L506.803 315.094C506.944 319.218 510.402 322.445 514.526 322.304L567.066 320.496C571.19 320.354 574.417 316.897 574.276 312.773L572.469 260.251C572.327 256.128 568.869 252.9 564.746 253.042Z" fill="#6FB0B7" fill-opacity="0.2"/>
<path d="M559.566 260.087L509.359 261.814C505.42 261.949 502.336 265.252 502.472 269.192L504.199 319.398C504.334 323.337 507.638 326.421 511.577 326.285L561.783 324.558C565.722 324.423 568.806 321.12 568.67 317.181L566.944 266.974C566.808 263.035 563.505 259.951 559.566 260.087Z" fill="#6FB0B7" fill-opacity="0.2" stroke="black" stroke-width="2.5" stroke-miterlimit="10"/>
<path d="M564.746 414.042L512.205 415.849C508.082 415.991 504.854 419.449 504.996 423.572L506.803 476.094C506.944 480.218 510.402 483.445 514.526 483.304L567.066 481.496C571.19 481.354 574.417 477.897 574.276 473.773L572.469 421.251C572.327 417.128 568.869 413.9 564.746 414.042Z" fill="#4C6A92" fill-opacity="0.2"/>
<path d="M559.566 421.087L509.359 422.814C505.42 422.949 502.336 426.252 502.472 430.192L504.199 480.398C504.334 484.337 507.638 487.421 511.577 487.285L561.783 485.558C565.722 485.423 568.806 482.12 568.67 478.181L566.944 427.974C566.808 424.035 563.505 420.951 559.566 421.087Z" fill="#4C6A92" fill-opacity="0.2" stroke="black" stroke-width="2.5" stroke-miterlimit="10"/>
<path d="M669.746 253.042L617.205 254.849C613.082 254.991 609.854 258.449 609.996 262.572L611.803 315.094C611.944 319.218 615.402 322.445 619.526 322.304L672.066 320.496C676.19 320.354 679.417 316.897 679.276 312.773L677.469 260.251C677.327 256.128 673.869 252.9 669.746 253.042Z" fill="#6FB0B7" fill-opacity="0.1"/>
<path d="M664.565 260.087L614.359 261.814C610.419 261.949 607.336 265.252 607.471 269.192L609.198 319.398C609.334 323.337 612.637 326.421 616.576 326.285L666.783 324.558C670.722 324.423 673.805 321.12 673.67 317.181L671.943 266.974C671.808 263.035 668.504 259.951 664.565 260.087Z" fill="#6FB0B7" fill-opacity="0.1" stroke="black" stroke-width="2.5" stroke-miterlimit="10"/>
<path d="M669.746 414.042L617.205 415.849C613.082 415.991 609.854 419.449 609.996 423.572L611.803 476.094C611.944 480.218 615.402 483.445 619.526 483.304L672.066 481.496C676.19 481.354 679.417 477.897 679.276 473.773L677.469 421.251C677.327 417.128 673.869 413.9 669.746 414.042Z" fill="#4C6A92" fill-opacity="0.1"/>
<path d="M664.565 421.087L614.359 422.814C610.419 422.949 607.336 426.252 607.471 430.192L609.198 480.398C609.334 484.337 612.637 487.421 616.576 487.285L666.783 485.558C670.722 485.423 673.805 482.12 673.67 478.181L671.943 427.974C671.808 424.035 668.504 420.951 664.565 421.087Z" fill="#4C6A92" fill-opacity="0.1" stroke="black" stroke-width="2.5" stroke-miterlimit="10"/>
</svg>
