<svg width="755" height="519" viewBox="0 0 755 519" fill="none" xmlns="http://www.w3.org/2000/svg">
<g clip-path="url(#clip0_877_7154)">
<path d="M755.112 0H-0.0595703V519.026H755.112V0Z" fill="#4C6A92"/>
<path d="M702.595 248.402L652.156 264.657C648.125 265.956 645.91 270.276 647.21 274.306L663.472 324.723C664.772 328.753 669.094 330.967 673.126 329.667L723.564 313.412C727.596 312.113 729.81 307.793 728.511 303.763L712.248 253.346C710.949 249.316 706.627 247.102 702.595 248.402Z" fill="white" stroke="#1D1D1B" stroke-width="2.5" stroke-linecap="round" stroke-linejoin="round"/>
<path d="M700.695 282.936C693.316 285.315 685.372 281.251 682.993 273.875C680.613 266.499 684.679 258.559 692.058 256.18C699.436 253.802 707.38 257.866 709.76 265.25C712.14 272.626 708.074 280.566 700.695 282.945V282.936ZM694.857 264.839C692.255 265.678 690.817 268.476 691.655 271.077C692.494 273.678 695.293 275.116 697.896 274.277C700.498 273.439 701.936 270.641 701.097 268.039C700.258 265.438 697.459 264.001 694.857 264.839Z" stroke="black" stroke-width="2.5" stroke-linecap="round" stroke-linejoin="round"/>
<path d="M699.565 293.717C697.091 301.067 701.063 309.051 708.416 311.523L711.318 302.899C708.724 302.026 707.329 299.211 708.194 296.618C709.058 294.025 711.883 292.631 714.477 293.504L717.379 284.879C710.025 282.406 702.039 286.376 699.565 293.726V293.717Z" fill="#FFE2DA" stroke="#1D1D1B" stroke-width="2.5" stroke-miterlimit="10"/>
<path d="M685.112 291.26L662.386 301.56L672.69 324.276L695.416 313.976L685.112 291.26Z" stroke="black" stroke-width="2.5" stroke-linecap="round" stroke-linejoin="round"/>
<path d="M662.371 270.598L658.793 291.595L678.721 282.149L662.371 270.598Z" fill="#FFE2DA" stroke="#1D1D1B" stroke-width="2.5" stroke-miterlimit="10"/>
<path d="M684.388 469.886C696.76 469.886 706.79 459.861 706.79 447.494C706.79 435.127 696.76 425.102 684.388 425.102C672.016 425.102 661.986 435.127 661.986 447.494C661.986 459.861 672.016 469.886 684.388 469.886Z" fill="#FFE2DA"/>
<path d="M679.038 465.608C691.41 465.608 701.439 455.582 701.439 443.215C701.439 430.849 691.41 420.823 679.038 420.823C666.666 420.823 656.636 430.849 656.636 443.215C656.636 455.582 666.666 465.608 679.038 465.608Z" stroke="black" stroke-width="2.5" stroke-miterlimit="10"/>
<path d="M58.3539 201.333C70.7261 201.333 80.7557 191.308 80.7557 178.941C80.7557 166.574 70.7261 156.549 58.3539 156.549C45.9818 156.549 35.9521 166.574 35.9521 178.941C35.9521 191.308 45.9818 201.333 58.3539 201.333Z" fill="#FFE2DA"/>
<path d="M53.0043 197.055C65.3764 197.055 75.4061 187.03 75.4061 174.663C75.4061 162.296 65.3764 152.271 53.0043 152.271C40.6321 152.271 30.6025 162.296 30.6025 174.663C30.6025 187.03 40.6321 197.055 53.0043 197.055Z" stroke="black" stroke-width="2.5" stroke-miterlimit="10"/>
<path d="M287.807 197.945C290.034 197.945 291.839 196.141 291.839 193.915C291.839 191.689 290.034 189.885 287.807 189.885C285.58 189.885 283.775 191.689 283.775 193.915C283.775 196.141 285.58 197.945 287.807 197.945Z" fill="white" stroke="#1D1D1B" stroke-width="2.5" stroke-linecap="round" stroke-linejoin="round"/>
<path d="M299.046 210.412C299.046 210.412 312.974 196.456 327.141 199.254C341.308 202.061 352.359 213.697 349.345 223.768C346.341 233.839 340.118 247.435 328.142 249.575C316.167 251.714 300.056 242.361 295.203 229.167C290.341 215.973 299.038 210.412 299.038 210.412H299.046Z" fill="white" stroke="#1D1D1B" stroke-width="2.5" stroke-miterlimit="10"/>
<path d="M331.506 204.465C331.506 204.465 338.586 195.292 345.853 196.233C353.121 197.175 358.026 208.64 359.686 209.085C361.347 209.53 361.518 211.524 358.745 211.609C355.971 211.695 343.936 214.561 339.519 212.893C335.102 211.224 331.506 204.465 331.506 204.465Z" fill="#FFE2DA" stroke="#1D1D1B" stroke-width="2.5" stroke-miterlimit="10"/>
<path d="M329.101 204.294C329.101 204.294 335.024 187.258 338.157 183.767C341.29 180.276 343.079 182.304 343.396 184.349C343.713 186.394 342.369 191.912 338.594 196.242C334.819 200.572 331.609 204.422 330.744 205.791C329.88 207.16 328.133 206.997 329.101 204.294Z" fill="white" stroke="#1D1D1B" stroke-width="2.5" stroke-miterlimit="10"/>
<path d="M311.167 241.035C311.167 241.035 308.796 248.257 308.308 253.699C307.897 258.294 305.595 265.096 305.595 265.096" stroke="#1D1D1B" stroke-width="2.5" stroke-linecap="round" stroke-linejoin="round"/>
<path d="M316.903 243.722C316.903 243.722 314.532 250.943 314.044 256.385C313.633 260.98 315.251 268.219 315.251 268.219" stroke="#1D1D1B" stroke-width="2.5" stroke-linecap="round" stroke-linejoin="round"/>
<path d="M316.312 276.416C318.539 276.416 320.344 274.612 320.344 272.386C320.344 270.16 318.539 268.356 316.312 268.356C314.085 268.356 312.28 270.16 312.28 272.386C312.28 274.612 314.085 276.416 316.312 276.416Z" fill="white" stroke="#1D1D1B" stroke-width="2.5" stroke-linecap="round" stroke-linejoin="round"/>
<path d="M344.329 225.916C344.329 225.916 343.645 233.488 344.389 238.896C345.023 243.465 348.224 250.156 348.224 250.156" stroke="#1D1D1B" stroke-width="2.5" stroke-linecap="round" stroke-linejoin="round"/>
<path d="M350.185 258.011C352.411 258.011 354.216 256.207 354.216 253.981C354.216 251.755 352.411 249.951 350.185 249.951C347.958 249.951 346.153 251.755 346.153 253.981C346.153 256.207 347.958 258.011 350.185 258.011Z" fill="white" stroke="#1D1D1B" stroke-width="2.5" stroke-linecap="round" stroke-linejoin="round"/>
<path d="M312.443 201.282C312.443 201.282 308.677 199.194 303.686 196.969C299.466 195.087 292.096 194.274 292.096 194.274" stroke="#1D1D1B" stroke-width="2.5" stroke-linecap="round" stroke-linejoin="round"/>
<path d="M304.14 271.718C306.366 271.718 308.172 269.914 308.172 267.688C308.172 265.463 306.366 263.658 304.14 263.658C301.913 263.658 300.108 265.463 300.108 267.688C300.108 269.914 301.913 271.718 304.14 271.718Z" fill="white" stroke="#1D1D1B" stroke-width="2.5" stroke-linecap="round" stroke-linejoin="round"/>
<path d="M598.513 134.174C615.83 127.346 625.854 113.022 621.334 101.582C616.814 90.1338 599.711 86.523 582.394 93.351C565.077 100.179 555.053 114.503 559.573 125.943C564.093 137.391 581.196 141.002 598.513 134.174ZM585.082 100.153C596.373 95.704 606.791 97.3982 608.562 101.89C610.334 106.382 603.88 114.734 592.598 119.191C581.307 123.649 570.89 121.947 569.109 117.455C567.337 112.962 573.791 104.611 585.082 100.153Z" fill="white" stroke="#1D1D1B" stroke-width="2.5" stroke-miterlimit="10"/>
<path d="M593.146 120.577C607.852 114.776 616.301 102.438 612.372 92.4866C608.443 82.5355 593.848 79.2926 579.142 85.0939C564.435 90.8951 555.986 103.234 559.916 113.185C563.845 123.136 578.44 126.379 593.146 120.577ZM581.906 92.1102C591.494 88.3282 600.388 89.8684 601.928 93.7701C603.469 97.6718 598.025 104.868 588.438 108.65C578.85 112.432 569.957 110.892 568.416 106.99C566.875 103.088 572.319 95.8921 581.906 92.1102Z" fill="white" stroke="#1D1D1B" stroke-width="2.5" stroke-miterlimit="10"/>
<path d="M589.302 109.788C602.296 104.663 609.752 93.7702 606.286 84.9828C602.819 76.1953 589.927 73.3289 576.933 78.4542C563.939 83.5795 556.483 94.4719 559.95 103.259C563.417 112.047 576.317 114.913 589.302 109.788ZM578.731 83.0148C587.197 79.6778 595.055 81.0297 596.416 84.4779C597.777 87.9262 592.975 94.2751 584.5 97.6206C576.034 100.958 568.176 99.6057 566.815 96.1575C565.454 92.7092 570.256 86.3603 578.731 83.0148Z" fill="white" stroke="#1D1D1B" stroke-width="2.5" stroke-miterlimit="10"/>
<path d="M584.389 98.3991C595.714 93.9326 602.22 84.4264 599.198 76.7684C596.176 69.1104 584.928 66.6033 573.603 71.0783C562.278 75.5448 555.772 85.051 558.794 92.7091C561.816 100.367 573.064 102.874 584.389 98.3991Z" fill="white" stroke="#1D1D1B" stroke-width="2.5" stroke-miterlimit="10"/>
<path d="M581.792 41.9618C582.764 37.6174 577.069 32.6475 569.074 30.861C561.078 29.0745 553.809 31.148 552.837 35.4924C551.866 39.8367 557.56 44.8066 565.556 46.5931C573.551 48.3796 580.821 46.3061 581.792 41.9618Z" fill="#1D1D1B"/>
<path d="M539.97 54.0854L570.059 40.3609C572.61 39.1972 575.632 40.2667 576.882 42.7823L583.344 55.771C584.731 58.5604 583.738 61.8632 581.222 63.4889L585.844 75.2027C587.847 80.2681 585.262 84.5806 579.783 86.7368C574.305 88.9016 569.477 87.5155 567.474 82.45L562.792 70.5908C550.123 73.5941 542.016 64.5243 538.49 59.2193C537.291 57.4224 538.002 54.9924 539.962 54.094L539.97 54.0854Z" fill="white" stroke="#1D1D1B" stroke-width="2.5" stroke-miterlimit="10"/>
<path d="M588.843 60.7641C590.08 52.6684 587.513 45.561 583.111 44.8892C578.708 44.2174 574.137 50.2356 572.901 58.3312C571.664 66.4269 574.231 73.5344 578.633 74.2062C583.036 74.878 587.607 68.8597 588.843 60.7641Z" fill="black"/>
<path d="M215.517 442.548C204.363 457.633 207.573 478.973 222.665 490.122L235.762 472.41C230.437 468.483 229.307 460.953 233.245 455.631C237.174 450.309 244.707 449.179 250.031 453.115L263.128 435.404C248.037 424.255 226.688 427.455 215.534 442.54L215.517 442.548Z" fill="white"/>
<path d="M167.361 280.171C175.779 274.69 180.187 266.54 177.206 261.966C174.226 257.393 164.986 258.129 156.568 263.61C148.151 269.09 143.743 277.241 146.723 281.815C149.703 286.388 158.943 285.652 167.361 280.171Z" fill="black"/>
<path d="M168.943 306.984L93.5403 326.322C90.028 327.223 87.9112 330.799 88.8124 334.31L93.7074 353.381C94.6086 356.892 98.1864 359.007 101.699 358.107L177.102 338.769C180.614 337.868 182.731 334.292 181.83 330.781L176.935 311.71C176.034 308.199 172.456 306.083 168.943 306.984Z" fill="white" stroke="#1D1D1B" stroke-width="2.5" stroke-miterlimit="10"/>
<path d="M164.028 358.738C171.285 358.738 177.168 352.857 177.168 345.603C177.168 338.35 171.285 332.469 164.028 332.469C156.772 332.469 150.889 338.35 150.889 345.603C150.889 352.857 156.772 358.738 164.028 358.738Z" fill="white" stroke="#1D1D1B" stroke-width="2.5" stroke-miterlimit="10"/>
<path d="M117.624 370.64C124.881 370.64 130.764 364.76 130.764 357.506C130.764 350.252 124.881 344.372 117.624 344.372C110.367 344.372 104.484 350.252 104.484 357.506C104.484 364.76 110.367 370.64 117.624 370.64Z" fill="white" stroke="#1D1D1B" stroke-width="2.5" stroke-miterlimit="10"/>
<path d="M69.8141 338.34C70.0297 334.424 67.0283 331.074 63.1103 330.859C59.1924 330.643 55.8414 333.643 55.6258 337.56C55.4101 341.476 58.4115 344.826 62.3295 345.041C66.2475 345.257 69.5984 342.257 69.8141 338.34Z" fill="white" stroke="#1D1D1B" stroke-width="2.5" stroke-miterlimit="10"/>
<path d="M159.569 271.188L200.024 274.046C202.669 274.234 204.518 276.733 203.91 279.317C201.975 287.608 195.744 303.412 176.346 303.052L158.114 302.719C153.791 302.642 150.461 298.877 150.914 294.581L152.763 276.895C153.123 273.473 156.128 270.949 159.569 271.188Z" fill="white" stroke="#1D1D1B" stroke-width="2.5" stroke-miterlimit="10"/>
<path d="M160.578 314.596C164.508 310.808 162.041 301.877 155.068 294.648C148.094 287.42 139.254 284.631 135.324 288.42C131.393 292.209 133.86 301.14 140.834 308.368C147.807 315.597 156.647 318.385 160.578 314.596Z" fill="#1D1D1B"/>
<path d="M91.1393 343.285C91.1393 343.285 75.0378 350.763 66.8115 342.84" stroke="#1D1D1B" stroke-width="2.5" stroke-miterlimit="10"/>
<path d="M211.563 440.922C200.409 456.007 203.619 477.347 218.71 488.496L231.807 470.784C226.483 466.857 225.353 459.327 229.291 454.005C233.22 448.683 240.752 447.553 246.077 451.489L259.174 433.778C244.082 422.629 222.733 425.829 211.58 440.914L211.563 440.922Z" stroke="black" stroke-width="2.5" stroke-linecap="round" stroke-linejoin="round"/>
<path d="M72.5808 43.5866C64.7312 29.015 46.7293 23.3421 31.9888 30.5808C31.4153 30.8632 31.2013 31.5734 31.5009 32.1381L39.8727 47.6681C40.1466 48.1729 40.7544 48.4039 41.2851 48.1815C46.3783 46.0167 52.3875 48.0531 55.0668 53.0159C57.7376 57.9786 56.1368 64.1221 51.5229 67.1768C51.0436 67.4934 50.9066 68.1351 51.1805 68.6399L59.5523 84.1699C59.8519 84.7346 60.571 84.9485 61.1188 84.6234C75.2686 76.3065 80.4389 58.1497 72.5808 43.5866Z" fill="white"/>
<path d="M74.9265 42.7307C67.0769 28.1591 49.075 22.4861 34.3345 29.7249C33.761 30.0073 33.547 30.7174 33.8466 31.2822L42.2184 46.8121C42.4923 47.3169 43.1001 47.548 43.6308 47.3255C48.724 45.1607 54.7332 47.1972 57.4125 52.1599C60.0833 57.1226 58.4825 63.2662 53.8687 66.3208C53.3893 66.6374 53.2523 67.2791 53.5262 67.784L61.898 83.3139C62.1976 83.8787 62.9167 84.0926 63.4645 83.7674C77.6143 75.4506 82.7846 57.2938 74.9265 42.7307Z" stroke="black" stroke-width="2.5" stroke-miterlimit="10"/>
<path d="M582.251 361.64L552.31 359.993C549.964 359.864 547.958 361.66 547.829 364.005L546.181 393.933C546.052 396.278 547.849 398.284 550.195 398.413L580.136 400.06C582.482 400.189 584.488 398.393 584.618 396.048L586.265 366.12C586.394 363.775 584.597 361.769 582.251 361.64Z" fill="white"/>
<path d="M714.878 130.347L685.865 137.917C683.591 138.51 682.229 140.833 682.823 143.106L690.397 172.107C690.99 174.38 693.314 175.741 695.588 175.148L724.601 167.577C726.875 166.984 728.237 164.661 727.643 162.389L720.069 133.387C719.476 131.115 717.152 129.753 714.878 130.347Z" fill="white"/>
<path d="M710.982 130.348L681.968 137.919C679.695 138.512 678.333 140.835 678.926 143.107L686.5 172.109C687.093 174.381 689.417 175.743 691.691 175.149L720.705 167.579C722.978 166.986 724.34 164.663 723.746 162.39L716.173 133.389C715.579 131.116 713.255 129.755 710.982 130.348Z" stroke="black" stroke-width="2.5" stroke-miterlimit="10"/>
<path d="M577.918 363.974L547.977 362.327C545.631 362.198 543.624 363.994 543.495 366.339L541.847 396.267C541.718 398.612 543.516 400.618 545.862 400.747L575.802 402.394C578.148 402.523 580.155 400.727 580.284 398.382L581.932 368.454C582.061 366.109 580.264 364.103 577.918 363.974Z" stroke="black" stroke-width="2.5" stroke-miterlimit="10"/>
<path d="M59.462 415.983L36.3698 423.47C34.5575 424.057 33.5649 426.002 34.1527 427.814L41.6398 450.888C42.2276 452.699 44.1732 453.692 45.9855 453.104L69.0777 445.618C70.89 445.03 71.8826 443.085 71.2948 441.274L63.8077 418.199C63.2199 416.388 61.2743 415.396 59.462 415.983Z" fill="white"/>
<path d="M58.059 419.769L35.9928 426.923C34.2614 427.484 33.3131 429.342 33.8747 431.073L41.0317 453.129C41.5932 454.86 43.4519 455.808 45.1833 455.247L67.2495 448.093C68.9808 447.531 69.9291 445.673 69.3676 443.943L62.2106 421.886C61.6491 420.155 59.7903 419.207 58.059 419.769Z" stroke="black" stroke-width="2.5" stroke-miterlimit="10"/>
<path d="M306.734 32.5402L280.052 40.7116C278.785 41.0966 278.477 42.7566 279.521 43.5694L302.3 61.3155C303.293 62.0856 304.739 61.5038 304.928 60.2631L308.831 34.3542C309.011 33.1648 307.881 32.1894 306.725 32.5402H306.734Z" fill="white"/>
<path d="M506.92 220.072L509.899 256.343C510.044 258.071 512.065 258.918 513.4 257.814L542.376 233.736C543.634 232.693 543.3 230.673 541.768 230.091L509.813 217.898C508.341 217.334 506.792 218.506 506.92 220.072Z" fill="white"/>
<path d="M506.92 223.075L509.899 259.346C510.044 261.074 512.065 261.922 513.4 260.818L542.376 236.74C543.634 235.696 543.3 233.677 541.768 233.095L509.813 220.902C508.341 220.337 506.792 221.509 506.92 223.075Z" stroke="black" stroke-width="2.5" stroke-miterlimit="10"/>
<path d="M302.925 32.5315L277.69 40.2579C276.491 40.6259 276.2 42.1917 277.193 42.9618L298.739 59.741C299.672 60.4683 301.05 59.9207 301.23 58.7484L304.919 34.2428C305.09 33.1133 304.02 32.1978 302.933 32.5315H302.925Z" stroke="black" stroke-width="2.5" stroke-miterlimit="10"/>
<path d="M426.087 119.397C412.802 105.475 406.202 90.1422 411.372 85.2137C416.543 80.2766 431.557 87.5924 444.851 101.505C458.136 115.426 464.736 130.76 459.566 135.688C454.395 140.617 439.381 133.309 426.087 119.397ZM438.773 107.298C434.091 102.386 428.792 99.811 426.969 101.548C425.146 103.285 427.474 108.693 432.156 113.604C436.839 118.515 442.137 121.091 443.961 119.354C445.784 117.617 443.456 112.209 438.773 107.298Z" fill="white"/>
<path d="M724.603 23.2649L699.368 30.9913C698.17 31.3593 697.879 32.9251 698.872 33.6952L720.417 50.4744C721.35 51.2017 722.729 50.6541 722.908 49.4818L726.598 24.9762C726.769 23.8467 725.699 22.9312 724.612 23.2649H724.603Z" fill="white"/>
<path d="M721.205 24.0349L695.97 31.7614C694.771 32.1293 694.48 33.6951 695.473 34.4652L717.019 51.2444C717.952 51.9717 719.33 51.4241 719.51 50.2518L723.199 25.7462C723.37 24.6167 722.3 23.7012 721.213 24.0349H721.205Z" stroke="black" stroke-width="2.5" stroke-miterlimit="10"/>
<path d="M409.215 89.9368C397.094 101.505 398.018 122.135 411.278 136.03C424.538 149.917 445.116 151.808 457.246 140.24L456.963 140.137C433.928 132.009 416.174 113.347 409.224 89.9282L409.215 89.9368Z" fill="#FFE2DA"/>
<path d="M424.752 121.056C411.466 107.135 404.867 91.8019 410.037 86.8733C415.207 81.9363 430.222 89.252 443.515 103.165C456.801 117.086 463.4 132.419 458.23 137.348C453.06 142.276 438.046 134.969 424.752 121.056ZM437.438 108.958C432.755 104.046 427.457 101.471 425.633 103.208C423.81 104.945 426.138 110.352 430.821 115.264C435.503 120.175 440.802 122.751 442.625 121.014C444.448 119.277 442.12 113.869 437.438 108.958Z" stroke="black" stroke-width="2.5" stroke-miterlimit="10"/>
<path d="M458.136 137.262C446.015 148.831 425.436 146.94 412.168 133.053C398.909 119.165 397.984 98.5273 410.105 86.959" stroke="black" stroke-width="2.5" stroke-linecap="round" stroke-linejoin="round"/>
<path d="M437.387 447.734C441.368 440.211 438.495 430.886 430.969 426.907C423.442 422.927 414.114 425.799 410.132 433.322C406.151 440.845 409.024 450.17 416.55 454.149C424.076 458.129 433.405 455.257 437.387 447.734Z" fill="#FFE2DA"/>
<path d="M379.306 408.836L361.912 423.963L355.937 401.708L373.331 386.589L379.306 408.836Z" fill="#FFE2DA"/>
<path d="M376.225 405.345L360.234 419.249L354.739 398.79L370.729 384.886L376.225 405.345Z" stroke="black" stroke-width="2.5" stroke-linecap="round" stroke-linejoin="round"/>
<path d="M370.729 384.886L384.194 340.829" stroke="black" stroke-width="2.5" stroke-linecap="round" stroke-linejoin="round"/>
<path d="M426.079 334.643L412.203 380.043" stroke="black" stroke-width="2.5" stroke-linecap="round" stroke-linejoin="round"/>
<path d="M441.53 360.954L422.141 424.391" stroke="black" stroke-width="2.5" stroke-linecap="round" stroke-linejoin="round"/>
<path d="M413.093 362.143C382.542 352.816 374.487 340.23 377.132 331.562C379.777 322.895 393.49 316.956 424.05 326.291C454.601 335.618 462.656 348.205 460.011 356.864C457.365 365.523 443.644 371.47 413.093 362.143ZM421.285 335.336C396.572 327.789 386.899 331.956 386.18 334.335C385.452 336.705 391.145 345.561 415.858 353.107C440.571 360.654 450.243 356.487 450.963 354.109C451.69 351.738 445.998 342.882 421.285 335.336Z" fill="white" stroke="black" stroke-width="2.5" stroke-miterlimit="10"/>
<path d="M430.343 444.137C433.92 437.379 431.339 429.001 424.577 425.426C417.816 421.85 409.435 424.431 405.858 431.189C402.281 437.948 404.863 446.325 411.624 449.901C418.385 453.476 426.766 450.896 430.343 444.137Z" stroke="black" stroke-width="2.5" stroke-linecap="round" stroke-linejoin="round"/>
<path d="M417.49 381.697L406.832 378.442C406.063 378.207 405.25 378.639 405.015 379.408L397.338 404.521C397.103 405.29 397.536 406.103 398.305 406.338L408.964 409.593C409.732 409.828 410.546 409.395 410.78 408.627L418.457 383.513C418.692 382.745 418.259 381.932 417.49 381.697Z" fill="black"/>
<path d="M170.874 91.5789L216.163 90.2591C223.094 90.0571 228.888 95.5208 229.09 102.449L230.075 136.232C230.277 143.16 224.811 148.952 217.881 149.154L171.522 150.505L169.835 92.6707C169.818 92.0805 170.283 91.5876 170.873 91.5704L170.874 91.5789Z" fill="white" stroke="black" stroke-width="2.5" stroke-miterlimit="10"/>
<path d="M170.789 92.0052L215.619 98.5665C222.48 99.5705 227.237 105.957 226.233 112.815L221.334 146.256C220.33 153.114 213.94 157.869 207.08 156.865L161.191 150.148L169.576 92.9001C169.662 92.3159 170.206 91.9112 170.79 91.9967L170.789 92.0052Z" fill="white" stroke="black" stroke-width="2.5" stroke-miterlimit="10"/>
<path d="M170.802 92.0501L213.812 106.293C220.394 108.473 223.969 115.588 221.788 122.167L211.155 154.25C208.974 160.829 201.856 164.403 195.274 162.223L152.265 147.98C151.704 147.795 151.4 147.189 151.585 146.629L169.453 92.7209C169.638 92.1604 170.244 91.8563 170.805 92.0419L170.802 92.0501Z" fill="white" stroke="black" stroke-width="2.5" stroke-miterlimit="10"/>
<path d="M192.867 143.269L180.746 139.256L177.057 144.219L167.067 140.907L190.856 110.866L201.813 114.494L202.9 152.784L192.867 149.455V143.269ZM192.902 135.209L192.885 122.939L185.583 132.787L192.902 135.209Z" fill="#FFE2DA"/>
<path d="M189.461 139.564L178.752 136.022L175.49 140.403L166.665 137.476L187.672 110.943L197.353 114.152L198.312 147.958L189.452 145.023V139.564H189.461ZM189.486 132.445L189.469 121.613L183.023 130.306L189.486 132.445Z" stroke="black" stroke-width="2.5" stroke-linecap="round" stroke-linejoin="round"/>
</g>
<defs>
<clipPath id="clip0_877_7154">
<rect width="755" height="519" fill="white"/>
</clipPath>
</defs>
</svg>
