<svg width="761" height="532" viewBox="0 0 761 532" fill="none" xmlns="http://www.w3.org/2000/svg">
<g clip-path="url(#clip0_2108_1494)">
<path d="M76.6874 92.4002C94.4033 92.4002 108.765 78.1405 108.765 60.5502C108.765 42.9599 94.4033 28.7002 76.6874 28.7002C58.9715 28.7002 44.6099 42.9599 44.6099 60.5502C44.6099 78.1405 58.9715 92.4002 76.6874 92.4002Z" fill="white"/>
<path fill-rule="evenodd" clip-rule="evenodd" d="M62.9835 49.1557C62.68 51.0651 63.9939 52.8575 65.9168 53.1569C67.8397 53.4582 69.6428 52.1556 69.9464 50.2462C70.2499 48.3368 68.936 46.5444 67.0131 46.243C65.0901 45.9436 63.287 47.2463 62.9835 49.1557Z" fill="black"/>
<path fill-rule="evenodd" clip-rule="evenodd" d="M86.9537 53.3554C86.6502 55.2648 87.9641 57.0572 89.887 57.3566C91.8099 57.6579 93.6131 56.3553 93.9166 54.4459C94.2201 52.5365 92.9062 50.7441 90.9833 50.4427C89.0604 50.1433 87.2573 51.446 86.9537 53.3554Z" fill="black"/>
<path d="M48.8399 48.3001C55.8484 48.3001 61.5299 42.6589 61.5299 35.7001C61.5299 28.7413 55.8484 23.1001 48.8399 23.1001C41.8314 23.1001 36.1499 28.7413 36.1499 35.7001C36.1499 42.6589 41.8314 48.3001 48.8399 48.3001Z" fill="white"/>
<path fill-rule="evenodd" clip-rule="evenodd" d="M70.7111 61.5221C70.9156 60.2202 73.1733 59.189 75.6956 59.5863C78.2179 59.9835 80.0505 61.6606 79.844 62.9625C79.6816 63.9957 78.1557 65.2495 76.275 65.5303C76.1467 65.5484 76.0525 65.6607 76.0525 65.7891C76.0425 68.4673 75.459 69.5205 74.7171 69.8796C73.9552 70.2487 72.9287 69.7632 72.9828 68.5074C73.0109 67.8594 73.3938 65.9737 73.46 65.3237C73.47 65.2274 73.4039 65.107 73.3156 65.0629C71.6134 64.2163 70.5487 62.5553 70.7111 61.5221Z" fill="black"/>
<path fill-rule="evenodd" clip-rule="evenodd" d="M60.1201 29.5568C58.7327 26.7057 56.1649 24.4383 52.8512 23.5212C46.7339 21.8312 40.3933 25.3798 38.6903 31.4481C36.9853 37.5183 40.5614 43.8102 46.6766 45.5001" fill="white"/>
<path d="M60.1201 29.5568C58.7327 26.7057 56.1649 24.4383 52.8512 23.5212C46.7339 21.8312 40.3933 25.3798 38.6903 31.4481C36.9853 37.5183 40.5614 43.8102 46.6766 45.5001" stroke="black" stroke-width="2.06075" stroke-linecap="round" stroke-linejoin="round"/>
<path d="M111.585 62.3001C118.594 62.3001 124.275 56.6589 124.275 49.7001C124.275 42.7413 118.594 37.1001 111.585 37.1001C104.577 37.1001 98.895 42.7413 98.895 49.7001C98.895 56.6589 104.577 62.3001 111.585 62.3001Z" fill="white"/>
<path fill-rule="evenodd" clip-rule="evenodd" d="M88.113 71.5982C86.8251 77.8052 79.8781 81.6527 72.5934 80.1893C65.3108 78.7278 60.4487 72.5085 61.7366 66.3016C63.0223 60.0947 69.9715 56.2471 77.2541 57.7106C84.5388 59.172 89.4009 65.3913 88.113 71.5982Z" stroke="black" stroke-width="2.06075" stroke-linecap="round" stroke-linejoin="round"/>
<path d="M105.131 74.9002C113.266 59.838 107.283 40.8897 91.768 32.5811C76.2531 24.2705 57.0834 29.7467 48.9486 44.8089C44.4208 53.192 44.2669 62.778 47.6951 71.0637" stroke="black" stroke-width="2.06075" stroke-linecap="round" stroke-linejoin="round"/>
<path d="M112.574 60.8713C115.783 61.0957 119.069 59.9942 121.536 57.5648C126.09 53.0806 126.134 45.7675 121.633 41.2298C117.132 36.6941 109.793 36.6509 105.24 41.1351" stroke="black" stroke-width="2.06075" stroke-linecap="round" stroke-linejoin="round"/>
<path fill-rule="evenodd" clip-rule="evenodd" d="M29.1001 77.0851C29.1001 77.0851 46.2042 75.1078 50.2501 90.2167C33.4633 94.8955 29.1001 77.0851 29.1001 77.0851Z" fill="#D0EEE9"/>
<path fill-rule="evenodd" clip-rule="evenodd" d="M31.9199 75.6852C31.9199 75.6852 49.024 73.7079 53.0699 88.8168C36.2832 93.4956 31.9199 75.6852 31.9199 75.6852Z" stroke="black" stroke-width="2.06075" stroke-linecap="round" stroke-linejoin="round"/>
<path fill-rule="evenodd" clip-rule="evenodd" d="M66.1377 70.7002C66.1377 70.7002 53.5072 71.9431 53.7792 86.1002C68.8686 85.0591 66.1377 70.7002 66.1377 70.7002Z" fill="#D0EEE9"/>
<path fill-rule="evenodd" clip-rule="evenodd" d="M64.8707 73.5C64.8707 73.5 52.8143 74.6864 53.074 88.2C67.4774 87.2062 64.8707 73.5 64.8707 73.5Z" stroke="black" stroke-width="2.06075" stroke-linecap="round" stroke-linejoin="round"/>
<path d="M53.0698 88.8999C53.0698 88.8999 53.1984 100.458 55.8898 105.7" stroke="black" stroke-width="2.06075" stroke-linecap="round" stroke-linejoin="round"/>
<path fill-rule="evenodd" clip-rule="evenodd" d="M91.5691 76.937C91.5691 76.937 105.239 88.3533 96.9066 102.324C81.4565 93.0977 91.5691 76.937 91.5691 76.937Z" fill="#D0EEE9"/>
<path fill-rule="evenodd" clip-rule="evenodd" d="M89.2522 77C89.2522 77 102.068 87.7028 94.2561 100.8C79.7716 92.1507 89.2522 77 89.2522 77Z" stroke="black" stroke-width="2.06075" stroke-linecap="round" stroke-linejoin="round"/>
<path fill-rule="evenodd" clip-rule="evenodd" d="M78.8027 89.2142C78.8027 89.2142 93.143 85.8534 94.6652 101.113C81.0089 104.061 78.8027 89.2142 78.8027 89.2142Z" fill="#D0EEE9"/>
<path fill-rule="evenodd" clip-rule="evenodd" d="M76.335 89.2142C76.335 89.2142 92.906 85.8534 94.665 101.113C78.8843 104.061 76.335 89.2142 76.335 89.2142Z" stroke="black" stroke-width="2.06075" stroke-linecap="round" stroke-linejoin="round"/>
<path fill-rule="evenodd" clip-rule="evenodd" d="M121.454 80.5067C121.454 80.5067 109.231 79.7942 107.355 93.0179C121.89 94.283 121.454 80.5067 121.454 80.5067Z" fill="#D0EEE9"/>
<path fill-rule="evenodd" clip-rule="evenodd" d="M141.194 59.5067C141.194 59.5067 128.971 58.7942 127.095 72.0179C141.63 73.283 141.194 59.5067 141.194 59.5067Z" fill="#D0EEE9"/>
<path fill-rule="evenodd" clip-rule="evenodd" d="M118.634 79.8065C118.634 79.8065 106.411 79.0941 104.535 92.3177C119.07 93.5828 118.634 79.8065 118.634 79.8065Z" stroke="black" stroke-width="2.06075" stroke-linecap="round" stroke-linejoin="round"/>
<path fill-rule="evenodd" clip-rule="evenodd" d="M137.336 58.1001C137.336 58.1001 127.551 59.7857 128.581 70.7001C140.297 69.0309 137.336 58.1001 137.336 58.1001Z" stroke="black" stroke-width="2.06075" stroke-linecap="round" stroke-linejoin="round"/>
<path fill-rule="evenodd" clip-rule="evenodd" d="M116.519 10.1068C116.519 10.1068 104.296 9.39435 102.42 22.618C116.955 23.8831 116.519 10.1068 116.519 10.1068Z" fill="#D0EEE9"/>
<path fill-rule="evenodd" clip-rule="evenodd" d="M117.929 8.00674C117.929 8.00674 105.706 7.29425 103.83 20.5179C118.365 21.783 117.929 8.00674 117.929 8.00674Z" stroke="black" stroke-width="2.06075" stroke-linecap="round" stroke-linejoin="round"/>
<path fill-rule="evenodd" clip-rule="evenodd" d="M84.0902 8.57772C84.0902 8.57772 76.9119 3.1375 69.9902 10.3031C78.3451 17.0236 84.0902 8.57772 84.0902 8.57772Z" fill="#D0EEE9"/>
<path fill-rule="evenodd" clip-rule="evenodd" d="M85.4999 6.47762C85.4999 6.47762 78.3216 1.03741 71.3999 8.20304C79.7548 14.9235 85.4999 6.47762 85.4999 6.47762Z" stroke="black" stroke-width="2.06075" stroke-linecap="round" stroke-linejoin="round"/>
<path fill-rule="evenodd" clip-rule="evenodd" d="M141.473 26.6001C141.473 26.6001 131.226 29.3857 134.966 42.7001C148.536 37.8583 141.473 26.6001 141.473 26.6001Z" fill="#D0EEE9"/>
<path fill-rule="evenodd" clip-rule="evenodd" d="M139.357 26.6001C139.357 26.6001 129.111 29.3857 132.851 42.7001C146.42 37.8583 139.357 26.6001 139.357 26.6001Z" stroke="black" stroke-width="2.06075" stroke-linecap="round" stroke-linejoin="round"/>
<path d="M110.88 110.568C101.823 130.672 82.9205 135.756 69.0486 133.014C55.9171 130.421 43.5455 116.285 54.4126 107.349C63.0623 100.234 70.3205 111.958 82.7925 107.723" stroke="black" stroke-width="2.06075" stroke-linecap="round" stroke-linejoin="round"/>
<path d="M43.9718 93.7998C43.9718 93.7998 34.7958 100.246 33.4342 110.805C32.1487 120.765 43.0331 129.003 51.596 121.128" stroke="black" stroke-width="2.06075" stroke-linecap="round" stroke-linejoin="round"/>
</g>
<path d="M272.623 86.8C289.95 86.8 303.996 72.8537 303.996 55.65C303.996 38.4463 289.95 24.5 272.623 24.5C255.297 24.5 241.251 38.4463 241.251 55.65C241.251 72.8537 255.297 86.8 272.623 86.8Z" fill="white"/>
<path fill-rule="evenodd" clip-rule="evenodd" d="M274.644 3.29883L219.396 47.4558L273.895 69.2998L329.892 35.6618L274.644 3.29883Z" fill="white"/>
<path d="M306.816 54.5997C313.046 54.5997 318.096 49.5853 318.096 43.3997C318.096 37.2141 313.046 32.1997 306.816 32.1997C300.586 32.1997 295.536 37.2141 295.536 43.3997C295.536 49.5853 300.586 54.5997 306.816 54.5997Z" fill="white"/>
<path d="M320.957 41.2997L326.556 36.7597L271.114 4.19971L244.071 26.5717" stroke="black" stroke-width="2.017" stroke-linecap="round" stroke-linejoin="round"/>
<path d="M239.488 52.4999C245.913 52.4999 251.121 47.3288 251.121 40.9499C251.121 34.571 245.913 29.3999 239.488 29.3999C233.064 29.3999 227.856 34.571 227.856 40.9499C227.856 47.3288 233.064 52.4999 239.488 52.4999Z" fill="white"/>
<path d="M249.743 76.3C243.09 69.332 239.827 59.453 241.842 49.444C245.155 32.999 261.46 22.431 278.266 25.839C295.073 29.247 306.01 45.343 302.701 61.788C302.701 61.788 301.209 69.618 296.274 74.582M306.549 53.173C309.531 53.381 312.585 52.386 314.881 50.181C319.12 46.112 319.173 39.464 314.999 35.331C312.975 33.345 310.251 32.222 307.405 32.2011C304.56 32.1802 301.819 33.263 299.766 35.219M238.351 50.4C236.859 50.4031 235.384 50.0874 234.025 49.4744C232.666 48.8613 231.457 47.9653 230.478 46.847C226.649 42.499 227.063 35.863 231.4 32.028C235.737 28.193 242.358 28.605 246.186 32.953" stroke="black" stroke-width="2.017" stroke-linecap="round" stroke-linejoin="round"/>
<path fill-rule="evenodd" clip-rule="evenodd" d="M255.36 52.9536C255.224 54.8806 256.686 56.5536 258.629 56.6906C259.324 56.7391 260.019 56.5818 260.624 56.2386C261.229 55.8953 261.719 55.3816 262.03 54.7622C262.341 54.1429 262.461 53.4458 262.373 52.7592C262.285 52.0725 261.995 51.427 261.538 50.9044C261.081 50.3817 260.478 50.0054 259.805 49.823C259.133 49.6405 258.421 49.6602 257.76 49.8794C257.098 50.0986 256.517 50.5076 256.09 51.0546C255.663 51.6017 255.409 52.2632 255.36 52.9536ZM278.625 55.0536C278.489 56.9806 279.951 58.6536 281.894 58.7906C282.589 58.8391 283.284 58.6818 283.889 58.3386C284.494 57.9953 284.984 57.4816 285.295 56.8622C285.606 56.2429 285.726 55.5458 285.638 54.8592C285.55 54.1725 285.26 53.527 284.803 53.0044C284.346 52.4818 283.743 52.1054 283.07 51.923C282.398 51.7405 281.686 51.7602 281.025 51.9794C280.363 52.1986 279.782 52.6076 279.355 53.1546C278.928 53.7017 278.674 54.3632 278.625 55.0536ZM263.814 64.6686C263.905 63.3556 266.052 62.1376 268.581 62.3176C271.11 62.4976 273.064 64.0046 272.973 65.3176C272.899 66.3586 271.497 67.7346 269.659 68.1756C269.535 68.2056 269.452 68.3236 269.462 68.4516C269.68 71.1146 269.193 72.2116 268.49 72.6316C267.767 73.0636 266.712 72.6676 266.658 71.4146C266.63 70.7706 266.847 68.8636 266.857 68.2126C266.859 68.1146 266.782 67.9986 266.692 67.9646C264.936 67.2686 263.74 65.7096 263.814 64.6686Z" fill="black"/>
<path fill-rule="evenodd" clip-rule="evenodd" d="M281.313 72.6367C280.348 78.0967 273.94 81.4987 266.997 80.2367C260.055 78.9747 255.213 73.5227 256.178 68.0637C257.142 62.6047 263.551 59.1997 270.493 60.4637C277.435 61.7277 282.278 67.1777 281.313 72.6367Z" stroke="black" stroke-width="2.017" stroke-linejoin="round"/>
<path d="M225.199 42.6997L219.396 47.4557L232.086 53.1997M241.956 126.204C238.267 128.941 233.091 128.735 229.61 125.45C225.63 121.695 225.369 115.339 229.026 111.252C229.484 110.742 229.981 110.29 230.508 109.9" stroke="black" stroke-width="2.017" stroke-linecap="round" stroke-linejoin="round"/>
<path fill-rule="evenodd" clip-rule="evenodd" d="M229.627 77.6647C230.384 73.4557 233.999 73.9527 240.603 75.6597C247.206 77.3667 259.424 85.5247 263.204 89.6267C279.135 78.5787 293.469 76.5367 300.471 78.3767C307.474 80.2167 300.471 99.4207 300.471 99.4207C300.471 99.4207 297.843 113.964 285.057 118.482C276.533 121.494 273.062 126.068 274.644 132.205L263.811 137.407L232.266 121.955C232.266 121.955 228.869 81.8737 229.627 77.6647Z" fill="#FFE2DA"/>
<path d="M270.848 132.617L263.371 135.1L234.809 120.54L231.381 79.0997L262.699 92.8737L300.471 82.5597L299.852 92.5797M236.316 75.6007C236.316 75.6007 240.584 75.4117 249.949 79.9677C259.313 84.5237 263.328 88.8997 263.328 88.8997C263.328 88.8997 272.474 83.0467 282.494 80.2817C293.106 77.3537 297.651 78.0037 297.651 78.0037M324.951 39.1997C324.951 39.1997 323.061 50.8317 326.556 60.1997M316.686 107.1C316.686 107.1 332.687 98.2587 324.007 64.5027L329.09 62.2997C329.09 62.2997 344.408 86.6697 330.776 104.798M330.726 88.1997C330.726 88.1997 331.841 98.4457 324.441 106.4M309.089 89.5997C316.672 108.115 310.54 123.685 299.71 130.445C289.546 136.785 272.827 136.193 273.715 123.581C274.422 113.543 291.617 121.028 299.854 98.4227" stroke="black" stroke-width="2.017" stroke-linecap="round" stroke-linejoin="round"/>
<path d="M262.303 97.2998L263.205 128.8" stroke="black" stroke-width="2.017" stroke-linecap="round" stroke-linejoin="round"/>
<path d="M513.729 39.999C520.404 39.999 525.815 34.6264 525.815 27.999C525.815 21.3716 520.404 15.999 513.729 15.999C507.055 15.999 501.644 21.3716 501.644 27.999C501.644 34.6264 507.055 39.999 513.729 39.999Z" fill="white"/>
<path d="M447.762 51.999C454.715 51.999 460.351 46.4026 460.351 39.499C460.351 32.5955 454.715 26.999 447.762 26.999C440.809 26.999 435.172 32.5955 435.172 39.499C435.172 46.4026 440.809 51.999 447.762 51.999Z" fill="white"/>
<path d="M483.264 79.9989C500.979 79.9989 515.341 66.2093 515.341 49.1989C515.341 32.1886 500.979 18.3989 483.264 18.3989C465.548 18.3989 451.186 32.1886 451.186 49.1989C451.186 66.2093 465.548 79.9989 483.264 79.9989Z" fill="white"/>
<path d="M512.656 60.2885C515.555 52.2535 515.142 43.1645 510.745 35.2035C502.465 20.2115 483.194 14.8915 467.702 23.3245C452.21 31.7575 446.363 50.7445 454.643 65.7385" stroke="black" stroke-width="2.1" stroke-linecap="round" stroke-linejoin="round"/>
<path d="M441.826 89.058C452.508 79.267 455.992 60.988 464.745 65.486C474.25 70.371 477.18 81.753 463.35 99.229C458.879 104.878 448.542 111.652 445.341 113.246" fill="white"/>
<path d="M441.826 89.058C452.508 79.267 455.992 60.988 464.745 65.486C474.25 70.371 477.18 81.753 463.35 99.229C458.879 104.878 448.542 111.652 445.341 113.246" stroke="black" stroke-width="2.07" stroke-linecap="round" stroke-linejoin="round"/>
<path d="M497.796 40.8672C498.026 42.8732 496.575 44.6822 494.556 44.9092C492.538 45.1362 490.714 43.6963 490.484 41.6923C490.255 39.6883 491.704 37.8773 493.724 37.6503C494.205 37.5956 494.691 37.6354 495.156 37.7675C495.62 37.8997 496.054 38.1215 496.432 38.4203C496.81 38.7191 497.126 39.089 497.36 39.5089C497.594 39.9288 497.742 40.3904 497.796 40.8672Z" fill="black"/>
<path d="M473.159 43.6783C473.388 45.6843 471.937 47.4933 469.919 47.7203C467.9 47.9473 466.076 46.5073 465.847 44.5033C465.617 42.4993 467.066 40.6883 469.087 40.4613C469.567 40.4066 470.053 40.4464 470.518 40.5786C470.982 40.7107 471.416 40.9325 471.795 41.2313C472.173 41.5301 472.488 41.9001 472.722 42.32C472.956 42.7398 473.104 43.2014 473.159 43.6783Z" fill="black"/>
<path fill-rule="evenodd" clip-rule="evenodd" d="M488.368 53.0101C488.214 51.6581 485.914 50.4951 483.276 50.7931C480.639 51.0911 478.66 52.7371 478.815 54.0881C478.938 55.1601 480.466 56.5201 482.409 56.8931C482.54 56.9201 482.633 57.0381 482.628 57.1701C482.517 59.9311 483.076 61.0431 483.831 61.4461C484.607 61.8601 485.693 61.4051 485.693 60.1091C485.693 59.4381 485.38 57.4781 485.341 56.8051C485.335 56.7061 485.409 56.5841 485.503 56.5421C487.309 55.7451 488.491 54.0811 488.368 53.0091" fill="black"/>
<path fill-rule="evenodd" clip-rule="evenodd" d="M470.979 62.2704C471.987 68.5444 478.719 72.6944 486.017 71.5394C493.315 70.3844 498.415 64.3614 497.406 58.0874C496.397 51.8134 489.666 47.6634 482.368 48.8184C475.07 49.9734 469.972 55.9964 470.979 62.2704Z" stroke="black" stroke-width="2.07" stroke-linejoin="round"/>
<path d="M447.04 49.8844C443.796 49.9714 440.53 48.7234 438.148 46.1754C437.104 45.0578 436.291 43.7467 435.756 42.3171C435.222 40.8875 434.976 39.3673 435.034 37.8434C435.091 36.3196 435.45 34.8218 436.09 33.4358C436.731 32.0497 437.64 30.8025 438.766 29.7654C443.501 25.4024 450.901 25.6774 455.296 30.3784M503.856 21.8964C505.298 19.2344 507.839 17.1774 511.037 16.4384C516.938 15.0744 522.834 18.7194 524.209 24.5774C525.584 30.4354 521.912 36.2884 516.011 37.6524" stroke="black" stroke-width="2.07" stroke-linecap="round" stroke-linejoin="round"/>
<path fill-rule="evenodd" clip-rule="evenodd" d="M506.766 94.9992C495.08 80.5152 493.379 68.8182 502.168 62.4662C512.473 55.0152 514.828 78.0102 529.844 85.3042" fill="white"/>
<path d="M506.787 94.9994C495.077 80.5854 493.373 68.9454 502.18 62.6234C512.506 55.2084 513.797 75.1134 528.837 83.4034" stroke="black" stroke-width="2.07" stroke-linecap="round" stroke-linejoin="round"/>
<path fill-rule="evenodd" clip-rule="evenodd" d="M424.409 78.1871C425.424 75.7988 426.913 73.6376 428.787 71.8322C430.66 70.0269 432.88 68.6141 435.315 67.6781C430.453 65.6411 426.634 61.7331 424.727 56.8501C422.678 61.6751 418.741 65.4671 413.823 67.3591C418.683 69.3961 422.502 73.3041 424.409 78.1871Z" fill="#D0EEE9"/>
<path fill-rule="evenodd" clip-rule="evenodd" d="M425.114 80.2877C426.129 77.8994 427.618 75.7382 429.492 73.9328C431.365 72.1275 433.586 70.7147 436.02 69.7787C431.158 67.7417 427.339 63.8337 425.432 58.9507C423.383 63.7757 419.446 67.5677 414.528 69.4597H414.526C419.388 71.4967 423.207 75.4047 425.114 80.2877Z" stroke="black" stroke-width="2.072" stroke-linejoin="round"/>
<path fill-rule="evenodd" clip-rule="evenodd" d="M537.589 65.8204C535.602 64.8208 533.838 63.4346 532.402 61.7443C530.966 60.054 529.887 58.0942 529.229 55.9814C527.197 59.9664 523.621 62.9604 519.322 64.2794C523.334 66.2994 526.351 69.8505 527.679 74.1185C528.686 72.1463 530.083 70.3954 531.785 68.9699C533.487 67.5443 535.461 66.4733 537.589 65.8204Z" fill="#D0EEE9" stroke="black" stroke-width="2.072" stroke-linejoin="round"/>
<path d="M445.877 18.1492C449.715 17.4022 453.695 18.2362 456.907 20.4552C456.535 18.5687 456.548 16.627 456.947 14.7458C457.346 12.8646 458.123 11.0824 459.23 9.50522V9.50522C455.391 10.2522 451.411 9.42022 448.199 7.19922C448.572 9.08577 448.558 11.0274 448.159 12.9086C447.76 14.7898 446.984 16.572 445.877 18.1492Z" fill="#D0EEE9"/>
<path d="M447.992 18.8494C451.83 18.1024 455.811 18.9364 459.022 21.1554C458.65 19.2689 458.664 17.3272 459.063 15.446C459.462 13.5648 460.238 11.7826 461.345 10.2054V10.2054C457.507 10.9524 453.526 10.1204 450.315 7.89941C450.687 9.78596 450.673 11.7276 450.274 13.6088C449.875 15.49 449.099 17.2722 447.992 18.8494Z" stroke="black" stroke-width="2.072" stroke-linejoin="round"/>
<path fill-rule="evenodd" clip-rule="evenodd" d="M527.623 95.4621C527.26 94.3421 527.122 93.1351 527.329 91.8961C527.663 89.9006 528.782 88.1186 530.44 86.9421C532.097 85.7656 534.157 85.2908 536.167 85.6221C540.352 86.3111 543.181 90.2401 542.485 94.3941C542.033 97.0971 540.194 99.2091 537.817 100.179C539.231 102.323 539.877 104.973 539.42 107.699C538.458 113.466 532.966 117.363 527.156 116.405C521.347 115.447 517.421 109.997 518.387 104.23C519.182 99.4841 523.042 96.0111 527.623 95.4621Z" fill="#D0EEE9"/>
<path fill-rule="evenodd" clip-rule="evenodd" d="M524.803 93.362C524.44 92.242 524.302 91.035 524.509 89.796C524.843 87.8005 525.963 86.0185 527.62 84.842C529.277 83.6655 531.338 83.1907 533.348 83.522C537.532 84.211 540.361 88.14 539.665 92.294C539.213 94.997 537.374 97.109 534.997 98.079C536.411 100.223 537.057 102.873 536.601 105.599C535.638 111.366 530.146 115.263 524.337 114.305C518.527 113.347 514.602 107.897 515.567 102.13C516.362 97.384 520.222 93.911 524.803 93.362Z" stroke="black" stroke-width="2.07" stroke-linejoin="round"/>
<path fill-rule="evenodd" clip-rule="evenodd" d="M434.487 101.18C437.109 95.1614 443.435 90.9574 450.771 91.0574C459.245 91.1754 466.196 96.9954 467.579 104.568C474.133 105.644 479.073 111.047 478.971 117.498C478.859 124.648 472.598 130.358 464.99 130.253C459.811 130.181 455.349 127.43 453.059 123.427C452.142 123.554 451.212 123.633 450.255 123.62C444.96 123.545 440.262 121.242 437.139 117.678C435.422 118.804 433.402 119.39 431.345 119.359C425.863 119.282 421.485 115.043 421.567 109.89C421.648 104.737 426.159 100.625 431.641 100.701C432.639 100.714 433.582 100.91 434.487 101.18Z" fill="#D0EEE9"/>
<path fill-rule="evenodd" clip-rule="evenodd" d="M435.009 100.865C435.901 100.877 436.743 101.062 437.553 101.316C439.896 95.632 445.551 91.662 452.108 91.757C459.683 91.869 465.896 97.364 467.133 104.516C472.991 105.532 477.407 110.635 477.316 116.726C477.267 119.969 475.923 123.059 473.579 125.318C471.235 127.577 468.084 128.819 464.818 128.771C460.189 128.703 456.201 126.105 454.154 122.325C453.334 122.445 452.502 122.52 451.648 122.507C446.915 122.437 442.715 120.261 439.924 116.896C438.453 117.912 436.673 118.511 434.745 118.484C429.845 118.412 425.931 114.408 426.005 109.542C426.078 104.676 430.11 100.793 435.01 100.865H435.009Z" stroke="black" stroke-width="2.07" stroke-linejoin="round"/>
<path fill-rule="evenodd" clip-rule="evenodd" d="M510.55 112.119C509.957 112.706 509.282 113.147 508.58 113.521C510.894 118.806 509.885 125.178 505.526 129.493C500.492 134.476 492.706 135.027 487.052 131.173C482.53 134.418 476.183 134.028 472.118 129.981C467.611 125.494 467.619 118.229 472.139 113.756C475.216 110.71 479.585 109.748 483.485 110.853C483.938 110.229 484.434 109.623 485.002 109.062C488.147 105.948 492.368 104.569 496.475 104.909C496.751 103.263 497.509 101.683 498.789 100.414C502.045 97.1903 507.32 97.1983 510.567 100.431C512.125 101.984 512.998 104.088 512.995 106.28C512.992 108.472 512.112 110.573 510.55 112.121" fill="#D0EEE9"/>
<path fill-rule="evenodd" clip-rule="evenodd" d="M510.398 115.827C509.828 116.391 509.18 116.815 508.505 117.174C510.729 122.252 509.759 128.374 505.572 132.52C500.735 137.307 493.254 137.837 487.822 134.134C483.477 137.252 477.379 136.877 473.474 132.989C469.143 128.678 469.151 121.697 473.494 117.4C476.45 114.474 480.648 113.549 484.394 114.611C484.829 114.011 485.306 113.43 485.852 112.89C487.286 111.468 489.015 110.375 490.919 109.686C492.823 108.996 494.856 108.728 496.875 108.9C497.141 107.264 497.919 105.753 499.099 104.581C500.602 103.095 502.638 102.261 504.76 102.264C506.882 102.267 508.916 103.106 510.415 104.597C513.533 107.703 513.527 112.731 510.399 115.829L510.398 115.827Z" stroke="black" stroke-width="2.07" stroke-linejoin="round"/>
<path fill-rule="evenodd" clip-rule="evenodd" d="M496.841 111.115C496.8 113.999 497.913 116.781 499.936 118.85C501.959 120.919 504.727 122.106 507.631 122.15C513.68 122.239 518.654 117.443 518.744 111.438C518.833 105.433 514.004 100.495 507.956 100.403C505.052 100.361 502.25 101.466 500.166 103.475C498.082 105.483 496.886 108.231 496.841 111.115Z" fill="#D0EEE9"/>
<path fill-rule="evenodd" clip-rule="evenodd" d="M496.841 110.805C496.761 116.217 501.115 120.669 506.565 120.749C509.183 120.788 511.708 119.792 513.586 117.982C515.464 116.172 516.541 113.695 516.58 111.096C516.663 105.684 512.309 101.234 506.858 101.152C501.408 101.07 496.922 105.394 496.841 110.805Z" stroke="black" stroke-width="2.07" stroke-linejoin="round"/>
<path fill-rule="evenodd" clip-rule="evenodd" d="M480.839 99.525C480.777 103.777 484.196 107.274 488.479 107.339C490.536 107.369 492.52 106.587 493.996 105.165C495.472 103.742 496.318 101.796 496.348 99.754C496.412 95.502 492.991 92.005 488.71 91.94C484.429 91.875 480.902 95.273 480.839 99.525ZM463.214 84.136C463.157 88.001 466.266 91.181 470.159 91.239C471.554 91.2594 472.923 90.8689 474.093 90.1168C475.264 89.3647 476.184 88.2848 476.736 87.0137C477.289 85.7426 477.449 84.3374 477.197 82.9757C476.946 81.614 476.293 80.357 475.322 79.3637C474.35 78.3704 473.104 77.6854 471.741 77.3952C470.378 77.1051 468.958 77.2228 467.662 77.7336C466.366 78.2445 465.252 79.1254 464.46 80.265C463.668 81.4046 463.235 82.7517 463.214 84.136Z" fill="#D0EEE9"/>
<path fill-rule="evenodd" clip-rule="evenodd" d="M479.775 97.9552C479.747 99.8589 480.482 101.696 481.818 103.062C483.153 104.427 484.981 105.211 486.898 105.239C488.815 105.267 490.664 104.537 492.04 103.211C493.415 101.885 494.204 100.072 494.233 98.1682C494.261 96.2649 493.527 94.4285 492.191 93.0626C490.856 91.6967 489.029 90.9132 487.112 90.8842C485.195 90.8562 483.345 91.5853 481.969 92.9113C480.594 94.2373 479.804 96.0516 479.775 97.9552ZM467.028 83.3722C467.009 84.6181 467.363 85.8414 468.045 86.8875C468.727 87.9337 469.705 88.7556 470.857 89.2495C472.009 89.7434 473.283 89.8869 474.517 89.6621C475.752 89.4372 476.891 88.854 477.791 87.9863C478.692 87.1185 479.313 86.0051 479.576 84.7868C479.839 83.5686 479.733 82.3002 479.27 81.1421C478.807 79.9839 478.009 78.9881 476.976 78.2804C475.943 77.5727 474.722 77.185 473.468 77.1662C472.635 77.1538 471.807 77.3044 471.032 77.6095C470.258 77.9146 469.552 78.3682 468.954 78.9444C468.356 79.5206 467.878 80.2081 467.547 80.9677C467.217 81.7272 467.041 82.545 467.028 83.3722Z" stroke="black" stroke-width="2.07" stroke-linejoin="round"/>
<path d="M682.989 88.9995C700.51 88.9995 714.714 74.8965 714.714 57.4995C714.714 40.1025 700.51 25.9995 682.989 25.9995C665.467 25.9995 651.264 40.1025 651.264 57.4995C651.264 74.8965 665.467 88.9995 682.989 88.9995Z" fill="white"/>
<path d="M671.355 116.608C674.398 123.851 673.097 134.08 665.007 135.016C654.759 136.204 646.172 125.022 646.89 110.887C647.575 97.3978 654.893 87.7248 658.637 83.7168" stroke="black" stroke-width="2.084" stroke-linecap="round" stroke-linejoin="round"/>
<path d="M654.789 47.9995C661.741 47.9995 667.378 42.4031 667.378 35.4995C667.378 28.596 661.741 22.9995 654.789 22.9995C647.836 22.9995 642.199 28.596 642.199 35.4995C642.199 42.4031 647.836 47.9995 654.789 47.9995Z" fill="white"/>
<path d="M689.23 106.057C685.501 115.99 667.489 125.859 678.715 132.405C688.001 137.818 705.735 131.93 711.091 117.413C716.447 102.896 711.414 90.3156 705.897 82.0896M651.213 46.5296C649.574 46.1962 648.026 45.5185 646.672 44.5422C645.318 43.5658 644.191 42.3132 643.365 40.8686C641.819 38.1746 641.414 34.9816 642.237 31.991C643.061 29.0004 645.046 26.4567 647.758 24.9186C649.1 24.159 650.58 23.6694 652.113 23.4778C653.646 23.2861 655.201 23.3961 656.691 23.8016C658.181 24.207 659.576 24.8999 660.797 25.8407C662.017 26.7814 663.039 27.9517 663.804 29.2846" stroke="black" stroke-width="2.084" stroke-linecap="round" stroke-linejoin="round"/>
<path d="M713.203 48.9995C720.156 48.9995 725.792 43.4031 725.792 36.4995C725.792 29.596 720.156 23.9995 713.203 23.9995C706.25 23.9995 700.614 29.596 700.614 36.4995C700.614 43.4031 706.25 48.9995 713.203 48.9995Z" fill="white"/>
<path d="M716.169 48.9365C719.396 48.4465 722.403 46.6335 724.303 43.6885C725.987 41.0779 726.559 37.9102 725.893 34.8812C725.227 31.8521 723.378 29.2094 720.751 27.5335C715.28 24.0485 708.003 25.6285 704.497 31.0665M665.693 82.6525C657.494 77.1525 652.044 67.8855 651.888 57.3105C651.636 40.1365 665.439 26.0125 682.718 25.7615C699.996 25.5105 714.208 39.2295 714.46 56.4035C714.615 66.9995 709.421 76.4325 701.36 82.1665" stroke="black" stroke-width="2.084" stroke-linecap="round" stroke-linejoin="round"/>
<path d="M699.522 50.1495C699.479 50.6101 699.346 51.0579 699.129 51.4672C698.912 51.8766 698.616 52.2394 698.257 52.535C697.899 52.8306 697.485 53.0532 697.04 53.1901C696.595 53.3269 696.127 53.3753 695.664 53.3325C695.2 53.2895 694.749 53.1561 694.337 52.9401C693.925 52.724 693.561 52.4295 693.263 52.0733C692.966 51.7172 692.743 51.3064 692.605 50.8644C692.468 50.4224 692.42 49.9579 692.464 49.4975C692.644 47.5615 694.372 46.1355 696.32 46.3145C698.268 46.4935 699.702 48.2115 699.522 50.1495" fill="black"/>
<path d="M675.058 48.2247C675.016 48.6853 674.882 49.1331 674.665 49.5424C674.448 49.9518 674.152 50.3146 673.794 50.6102C673.435 50.9058 673.022 51.1284 672.577 51.2653C672.132 51.4021 671.664 51.4505 671.2 51.4077C670.736 51.3647 670.285 51.2313 669.874 51.0153C669.462 50.7992 669.097 50.5047 668.8 50.1485C668.503 49.7924 668.279 49.3816 668.142 48.9396C668.005 48.4976 667.957 48.0331 668 47.5727C668.181 45.6367 669.909 44.2107 671.857 44.3897C673.804 44.5687 675.239 46.2867 675.058 48.2247" fill="black"/>
<path fill-rule="evenodd" clip-rule="evenodd" d="M687.675 59.6436C687.803 58.2786 685.779 56.6636 683.121 56.4176C680.462 56.1716 678.173 57.3906 678.046 58.7556C677.945 59.8376 679.17 61.4896 681.005 62.2546C681.128 62.3066 681.195 62.4426 681.162 62.5716C680.482 65.2706 680.803 66.4816 681.462 67.0316C682.14 67.5986 683.305 67.3736 683.574 66.0936C683.712 65.4346 683.808 63.4386 683.909 62.7676C683.924 62.6676 684.022 62.5636 684.123 62.5406C686.066 62.1236 687.574 60.7256 687.675 59.6436Z" fill="black"/>
<path fill-rule="evenodd" clip-rule="evenodd" d="M667.997 65.4588C667.548 72.2388 673.627 77.2778 681.504 77.7948C689.381 78.3118 696.073 74.1078 696.523 67.3278C696.972 60.5478 690.951 54.6328 683.074 54.1158C675.197 53.5988 668.445 58.6788 667.997 65.4588Z" stroke="black" stroke-width="2.084" stroke-linejoin="round"/>
<path d="M676.602 119.244C676.602 119.244 661.137 107.081 660.041 99.3614C658.898 91.3084 664.132 84.8974 671.12 85.5204C677.456 86.0854 678.923 91.7984 678.923 91.7984L679.022 91.8064C679.022 91.8064 681.423 86.4434 687.758 87.0314C694.742 87.6794 698.823 94.9364 696.346 102.66C693.971 110.065 676.702 119.252 676.702 119.252L676.603 119.244H676.602Z" fill="white"/>
<path d="M676.602 119.244C676.602 119.244 661.137 107.081 660.041 99.3614C658.898 91.3084 664.132 84.8974 671.12 85.5204C677.456 86.0854 678.923 91.7984 678.923 91.7984L679.022 91.8064C679.022 91.8064 681.423 86.4434 687.758 87.0314C694.742 87.6794 698.823 94.9364 696.346 102.66C693.971 110.065 676.702 119.252 676.702 119.252L676.603 119.244H676.602Z" fill="#FFE2DA" stroke="black" stroke-width="2.084" stroke-linejoin="round"/>
<path d="M732.586 88.6044C732.586 88.6044 724.648 79.6444 724.837 74.8994C725.034 69.9514 728.873 66.6754 732.991 67.8004C736.729 68.8254 736.981 72.4064 736.981 72.4064L737.037 72.4224C737.037 72.4224 739.065 69.4684 742.798 70.5034C746.91 71.6464 748.561 76.4354 746.232 80.7984C743.997 84.9784 732.644 88.6204 732.644 88.6204L732.586 88.6034V88.6044Z" fill="#FFE2DA"/>
<path d="M730.291 91.3627C730.291 91.3627 722.354 82.4027 722.542 77.6577C722.74 72.7097 726.579 69.4337 730.697 70.5587C734.434 71.5837 734.686 75.1647 734.686 75.1647L734.743 75.1807C734.743 75.1807 736.771 72.2267 740.504 73.2617C744.616 74.4047 746.266 79.1937 743.938 83.5567C741.703 87.7367 730.349 91.3787 730.349 91.3787L730.291 91.3617V91.3627Z" stroke="black" stroke-width="2.084" stroke-linejoin="round"/>
<path d="M736.907 24.4996C736.907 24.4996 727.164 20.6476 725.421 16.8816C723.603 12.9546 725.289 8.89659 728.942 8.15459C732.258 7.48259 733.879 10.1716 733.879 10.1716L733.931 10.1606C733.931 10.1606 734.333 7.06759 737.649 6.40759C741.307 5.67959 744.499 8.75759 744.422 13.0646C744.348 17.1966 736.958 24.4906 736.958 24.4906L736.907 24.4996V24.4996Z" fill="#FFE2DA"/>
<path d="M733.382 24.4996C733.382 24.4996 723.639 20.6476 721.897 16.8816C720.078 12.9546 721.764 8.89659 725.418 8.15459C728.733 7.48259 730.355 10.1716 730.355 10.1716L730.406 10.1606C730.406 10.1606 730.808 7.06759 734.124 6.40759C737.782 5.67959 740.974 8.75759 740.897 13.0646C740.823 17.1966 733.433 24.4906 733.433 24.4906L733.382 24.4996V24.4996Z" stroke="black" stroke-width="2.086" stroke-linejoin="round"/>
<path d="M631.295 67.8336C631.295 67.8336 621.191 66.7536 618.581 63.6886C615.857 60.4896 616.368 56.2666 619.585 54.6306C622.504 53.1466 624.72 55.2376 624.72 55.2376L624.767 55.2146C624.767 55.2146 624.331 52.2216 627.255 50.7486C630.478 49.1246 634.263 51.1736 635.319 55.2176C636.33 59.0946 631.338 67.8126 631.338 67.8126L631.294 67.8356L631.295 67.8336Z" fill="#FFE2DA"/>
<path d="M634.115 69.9337C634.115 69.9337 624.011 68.8537 621.401 65.7887C618.677 62.5897 619.188 58.3667 622.405 56.7307C625.324 55.2467 627.54 57.3377 627.54 57.3377L627.587 57.3147C627.587 57.3147 627.151 54.3217 630.075 52.8487C633.298 51.2247 637.083 53.2737 638.139 57.3177C639.15 61.1947 634.158 69.9127 634.158 69.9127L634.114 69.9357L634.115 69.9337Z" stroke="black" stroke-width="2.084" stroke-linejoin="round"/>
<path d="M382.249 276.699C399.646 276.699 413.749 262.596 413.749 245.199C413.749 227.802 399.646 213.699 382.249 213.699C364.852 213.699 350.749 227.802 350.749 245.199C350.749 262.596 364.852 276.699 382.249 276.699Z" fill="white"/>
<path d="M363.732 296.453C365.684 304.054 362.941 313.993 354.857 313.768C344.617 313.486 337.781 301.198 340.511 287.311C343.117 274.058 351.694 265.526 355.947 262.092" stroke="black" stroke-width="2.084" stroke-linecap="round" stroke-linejoin="round"/>
<path d="M398.74 299.038C396.788 306.639 399.532 316.578 407.616 316.353C417.856 316.071 424.692 303.783 421.962 289.896C419.355 276.643 410.778 268.111 406.526 264.677" stroke="black" stroke-width="2.084" stroke-linecap="round" stroke-linejoin="round"/>
<path d="M354.249 235.699C361.153 235.699 366.749 230.103 366.749 223.199C366.749 216.296 361.153 210.699 354.249 210.699C347.345 210.699 341.749 216.296 341.749 223.199C341.749 230.103 347.345 235.699 354.249 235.699Z" fill="white"/>
<path d="M350.875 233.143C349.247 232.81 347.71 232.132 346.366 231.156C345.022 230.18 343.902 228.927 343.082 227.482C341.547 224.788 341.144 221.595 341.962 218.605C342.78 215.614 344.752 213.07 347.444 211.532C348.776 210.773 350.246 210.283 351.768 210.092C353.29 209.9 354.835 210.01 356.314 210.415C357.793 210.821 359.179 211.514 360.39 212.454C361.602 213.395 362.616 214.565 363.376 215.898" stroke="black" stroke-width="2.084" stroke-linecap="round" stroke-linejoin="round"/>
<path d="M412.249 236.699C419.153 236.699 424.749 231.103 424.749 224.199C424.749 217.296 419.153 211.699 412.249 211.699C405.345 211.699 399.749 217.296 399.749 224.199C399.749 231.103 405.345 236.699 412.249 236.699Z" fill="white"/>
<path d="M415.193 236.636C418.397 236.146 421.383 234.333 423.269 231.388C424.941 228.777 425.509 225.609 424.848 222.58C424.187 219.551 422.35 216.909 419.742 215.233C414.31 211.748 407.085 213.328 403.604 218.766M365.075 270.352C356.934 264.852 351.523 255.585 351.368 245.01C351.118 227.836 364.823 213.712 381.979 213.461C399.135 213.21 413.246 226.929 413.496 244.103C413.65 254.699 408.493 264.132 400.489 269.866" stroke="black" stroke-width="2.084" stroke-linecap="round" stroke-linejoin="round"/>
<path d="M398.664 237.848C398.622 238.309 398.489 238.757 398.274 239.166C398.058 239.575 397.764 239.938 397.408 240.234C397.053 240.529 396.642 240.752 396.2 240.889C395.758 241.026 395.294 241.074 394.833 241.031C394.373 240.988 393.925 240.855 393.516 240.639C393.107 240.423 392.745 240.128 392.45 239.772C392.155 239.416 391.933 239.005 391.797 238.563C391.661 238.121 391.613 237.657 391.656 237.196C391.835 235.26 393.551 233.834 395.485 234.013C397.419 234.192 398.843 235.91 398.664 237.848Z" fill="black"/>
<path d="M374.374 235.923C374.332 236.384 374.199 236.832 373.984 237.241C373.768 237.65 373.474 238.013 373.118 238.309C372.763 238.605 372.352 238.827 371.91 238.964C371.468 239.101 371.004 239.149 370.543 239.106C370.083 239.063 369.635 238.93 369.226 238.714C368.817 238.498 368.455 238.203 368.16 237.847C367.865 237.491 367.643 237.08 367.507 236.638C367.37 236.196 367.323 235.732 367.366 235.271C367.545 233.335 369.261 231.909 371.195 232.088C373.129 232.267 374.553 233.985 374.374 235.923Z" fill="black"/>
<path fill-rule="evenodd" clip-rule="evenodd" d="M386.901 247.342C387.028 245.977 385.019 244.362 382.379 244.116C379.739 243.87 377.467 245.089 377.34 246.454C377.24 247.536 378.456 249.188 380.278 249.953C380.401 250.005 380.467 250.141 380.434 250.27C379.759 252.969 380.078 254.18 380.732 254.73C381.405 255.297 382.562 255.072 382.829 253.792C382.966 253.133 383.062 251.137 383.162 250.466C383.177 250.366 383.274 250.262 383.374 250.239C385.304 249.822 386.801 248.424 386.901 247.342Z" fill="black"/>
<path fill-rule="evenodd" clip-rule="evenodd" d="M367.364 253.158C366.918 259.938 372.954 264.977 380.775 265.494C388.596 266.011 395.241 261.807 395.687 255.027C396.133 248.247 390.155 242.332 382.334 241.815C374.513 241.298 367.809 246.378 367.364 253.158Z" stroke="black" stroke-width="2.084" stroke-linejoin="round"/>
<path d="M389.18 273H366.688C359.43 273 353.548 278.883 353.548 286.14V308.632C353.548 315.89 359.431 321.772 366.689 321.772H389.179C396.437 321.772 402.32 315.889 402.32 308.631V286.14C402.32 278.882 396.438 273 389.18 273Z" fill="#FFE2DA"/>
<path d="M389.18 273H366.688C359.43 273 353.548 278.883 353.548 286.14V308.632C353.548 315.89 359.431 321.772 366.689 321.772H389.179C396.437 321.772 402.32 315.889 402.32 308.631V286.14C402.32 278.882 396.438 273 389.18 273Z" stroke="black" stroke-width="2" stroke-miterlimit="10"/>
<path d="M377.936 309.161C384.438 309.161 389.709 303.89 389.709 297.388C389.709 290.886 384.438 285.615 377.936 285.615C371.434 285.615 366.163 290.886 366.163 297.388C366.163 303.89 371.434 309.161 377.936 309.161Z" stroke="black" stroke-width="2" stroke-miterlimit="10"/>
<path d="M392.228 285.614C393.622 285.614 394.751 284.484 394.751 283.091C394.751 281.698 393.622 280.569 392.228 280.569C390.835 280.569 389.706 281.698 389.706 283.091C389.706 284.484 390.835 285.614 392.228 285.614Z" fill="black"/>
<path d="M197.862 228.413C197.862 228.413 190.333 219.854 190.512 215.322C190.699 210.595 194.341 207.466 198.247 208.54C201.791 209.52 202.03 212.94 202.03 212.94L202.084 212.956C202.084 212.956 204.008 210.134 207.548 211.122C211.448 212.214 213.014 216.789 210.805 220.957C208.685 224.95 197.917 228.429 197.917 228.429L197.862 228.412V228.413Z" fill="#FFE2DA"/>
<path d="M177.729 287.995C194.532 287.995 208.154 274.374 208.154 257.571C208.154 240.768 194.532 227.146 177.729 227.146C160.926 227.146 147.305 240.768 147.305 257.571C147.305 274.374 160.926 287.995 177.729 287.995Z" fill="white"/>
<path fill-rule="evenodd" clip-rule="evenodd" d="M164.731 246.686C164.443 248.51 165.689 250.222 167.513 250.508C169.337 250.796 171.047 249.552 171.335 247.728C171.623 245.904 170.377 244.192 168.553 243.904C166.729 243.618 165.019 244.862 164.731 246.686Z" fill="black"/>
<path fill-rule="evenodd" clip-rule="evenodd" d="M187.466 250.699C187.178 252.523 188.424 254.235 190.248 254.521C192.072 254.809 193.782 253.565 194.07 251.741C194.358 249.917 193.112 248.205 191.288 247.917C189.464 247.631 187.754 248.875 187.466 250.699Z" fill="black"/>
<path d="M151.316 245.87C157.964 245.87 163.352 240.481 163.352 233.833C163.352 227.186 157.964 221.797 151.316 221.797C144.669 221.797 139.28 227.186 139.28 233.833C139.28 240.481 144.669 245.87 151.316 245.87Z" fill="white"/>
<path fill-rule="evenodd" clip-rule="evenodd" d="M172.061 258.5C172.255 257.256 174.397 256.271 176.789 256.651C179.181 257.03 180.919 258.632 180.724 259.876C180.57 260.863 179.122 262.061 177.339 262.329C177.217 262.346 177.127 262.453 177.127 262.576C177.118 265.134 176.565 266.14 175.861 266.483C175.138 266.836 174.165 266.372 174.216 265.173C174.243 264.554 174.606 262.752 174.669 262.131C174.678 262.039 174.615 261.924 174.532 261.882C172.917 261.074 171.907 259.487 172.061 258.5Z" fill="black"/>
<path fill-rule="evenodd" clip-rule="evenodd" d="M162.015 227.965C160.699 225.242 158.264 223.076 155.121 222.2C149.319 220.585 143.305 223.975 141.689 229.772C140.072 235.57 143.464 241.581 149.264 243.195" fill="white"/>
<path d="M162.015 227.965C160.699 225.242 158.264 223.076 155.121 222.2C149.319 220.585 143.305 223.975 141.689 229.772C140.072 235.57 143.464 241.581 149.264 243.195" stroke="black" stroke-width="2.06075" stroke-linecap="round" stroke-linejoin="round"/>
<path d="M210.829 259.243C217.476 259.243 222.865 253.854 222.865 247.206C222.865 240.559 217.476 235.17 210.829 235.17C204.182 235.17 198.793 240.559 198.793 247.206C198.793 253.854 204.182 259.243 210.829 259.243Z" fill="white"/>
<path fill-rule="evenodd" clip-rule="evenodd" d="M188.565 268.126C187.343 274.055 180.754 277.73 173.845 276.332C166.938 274.936 162.326 268.995 163.548 263.066C164.767 257.137 171.358 253.462 178.266 254.86C185.175 256.256 189.786 262.197 188.565 268.126Z" stroke="black" stroke-width="2.06075" stroke-linecap="round" stroke-linejoin="round"/>
<path d="M204.707 271.278C212.422 256.89 206.747 238.79 192.032 230.853C177.317 222.915 159.135 228.146 151.419 242.534C147.125 250.542 146.979 259.699 150.23 267.614" stroke="black" stroke-width="2.06075" stroke-linecap="round" stroke-linejoin="round"/>
<path d="M211.765 257.879C214.809 258.094 217.925 257.041 220.265 254.721C224.585 250.437 224.626 243.451 220.358 239.117C216.089 234.784 209.127 234.743 204.81 239.026" stroke="black" stroke-width="2.06075" stroke-linecap="round" stroke-linejoin="round"/>
<path fill-rule="evenodd" clip-rule="evenodd" d="M142.687 282.838C142.687 282.838 133.984 288.996 132.692 299.082C131.473 308.596 141.797 316.465 149.918 308.943" fill="white"/>
<path d="M142.687 282.838C142.687 282.838 133.984 288.996 132.692 299.082C131.473 308.596 141.797 316.465 149.918 308.943" stroke="black" stroke-width="2.06075" stroke-linecap="round" stroke-linejoin="round"/>
<path d="M198.216 226.503C198.216 226.503 190.688 217.944 190.866 213.411C191.054 208.685 194.695 205.555 198.601 206.63C202.146 207.609 202.385 211.03 202.385 211.03L202.438 211.045C202.438 211.045 204.362 208.223 207.902 209.212C211.802 210.304 213.368 214.878 211.16 219.046C209.04 223.039 198.271 226.518 198.271 226.518L198.216 226.502V226.503Z" stroke="black" stroke-width="2.084" stroke-linejoin="round"/>
<path d="M172.366 211.384C172.366 211.384 163.125 207.705 161.473 204.107C159.748 200.356 161.347 196.48 164.812 195.771C167.957 195.129 169.495 197.698 169.495 197.698L169.544 197.687C169.544 197.687 169.925 194.732 173.07 194.102C176.54 193.407 179.567 196.347 179.494 200.461C179.424 204.408 172.415 211.376 172.415 211.376L172.366 211.384Z" fill="#FFE2DA"/>
<path d="M169.023 211.384C169.023 211.384 159.782 207.705 158.13 204.107C156.404 200.356 158.003 196.48 161.469 195.771C164.614 195.129 166.152 197.698 166.152 197.698L166.2 197.687C166.2 197.687 166.582 194.732 169.727 194.102C173.197 193.407 176.224 196.347 176.151 200.461C176.081 204.408 169.072 211.376 169.072 211.376L169.023 211.384V211.384Z" stroke="black" stroke-width="2.086" stroke-linejoin="round"/>
<path d="M135.996 268.527C135.996 268.527 127.034 272.074 123.48 270.635C119.771 269.132 118.323 265.336 120.296 262.533C122.087 259.99 124.877 260.779 124.877 260.779L124.906 260.739C124.906 260.739 123.209 258.401 125.01 255.865C126.993 253.069 131.082 253.131 133.765 256.084C136.338 258.916 136.023 268.49 136.023 268.49L135.996 268.529L135.996 268.527Z" fill="#FFE2DA"/>
<path d="M139.298 269.059C139.298 269.059 130.336 272.605 126.782 271.166C123.073 269.664 121.625 265.868 123.598 263.064C125.389 260.521 128.179 261.311 128.179 261.311L128.208 261.271C128.208 261.271 126.511 258.933 128.312 256.397C130.296 253.601 134.384 253.663 137.068 256.616C139.64 259.448 139.325 269.022 139.325 269.022L139.298 269.061L139.298 269.059Z" stroke="black" stroke-width="2.084" stroke-linejoin="round"/>
<ellipse cx="167.897" cy="299.586" rx="19.6799" ry="29.325" transform="rotate(-56.0227 167.897 299.586)" fill="#83C5BE"/>
<path d="M175.484 283.816C182.057 288.246 186.765 294.021 189.091 299.732C191.42 305.451 191.327 310.991 188.533 315.136C185.739 319.282 180.64 321.447 174.465 321.435C168.298 321.423 161.178 319.227 154.605 314.797C148.032 310.367 143.324 304.592 140.998 298.88C138.669 293.162 138.762 287.622 141.556 283.476C144.35 279.331 149.449 277.166 155.624 277.178C161.791 277.19 168.911 279.386 175.484 283.816Z" stroke="black" stroke-width="2"/>
<path d="M182.314 304.777C178.778 314.265 161.693 323.692 172.342 329.945C181.149 335.116 197.969 329.492 203.049 315.624C208.129 301.757 203.355 289.74 198.123 281.882" stroke="black" stroke-width="2.084" stroke-linecap="round" stroke-linejoin="round"/>
<circle cx="156.598" cy="293.823" r="10.0301" fill="#FFE2DA"/>
<path d="M150.146 287.336C150.138 287.344 150.128 287.346 150.121 287.353C150.114 287.361 150.11 287.369 150.102 287.376C150.088 287.391 150.073 287.402 150.059 287.417C146.028 291.52 146.086 298.14 150.191 302.172C154.295 306.204 160.915 306.144 164.946 302.04C168.978 297.935 168.919 291.315 164.815 287.284C160.739 283.28 154.186 283.316 150.146 287.336ZM163.584 300.7C160.291 304.053 154.883 304.102 151.53 300.808C149.026 298.348 148.367 294.71 149.565 291.629C149.728 291.92 149.917 292.198 150.167 292.443C151.583 293.834 153.866 293.814 155.258 292.398C156.132 291.508 156.481 290.251 156.191 289.038C156.068 288.525 155.553 288.208 155.041 288.33C154.528 288.453 154.211 288.967 154.333 289.482C154.47 290.051 154.305 290.641 153.895 291.059C153.242 291.724 152.17 291.734 151.505 291.08C150.848 290.435 150.834 289.381 151.466 288.714C154.764 285.403 160.138 285.367 163.477 288.646C166.829 291.94 166.877 297.348 163.584 300.7Z" fill="black"/>
<path d="M162.06 293.184C161.549 293.326 161.254 293.851 161.395 294.359C161.722 295.546 161.39 296.827 160.529 297.703C159.669 298.579 158.394 298.933 157.202 298.627C156.692 298.496 156.171 298.805 156.04 299.314C155.908 299.826 156.216 300.347 156.728 300.477C158.577 300.951 160.556 300.402 161.892 299.042C163.23 297.68 163.744 295.691 163.235 293.851C163.095 293.342 162.568 293.044 162.06 293.184Z" fill="black"/>
<path d="M577.91 284.007L583.814 274.883L589.717 284.007L583.814 290.447L590.254 321.037C590.254 321.037 588.715 330.392 583.814 330.697C578.635 331.019 576.3 321.037 576.3 321.037L583.814 290.447L577.91 284.007Z" fill="#83C5BE"/>
<path d="M583.42 277.978C601.959 275.743 615.176 258.903 612.941 240.364C610.707 221.826 593.866 208.609 575.328 210.844C556.789 213.079 543.572 229.919 545.807 248.457C548.042 266.996 564.882 280.213 583.42 277.978Z" fill="white"/>
<path d="M608.515 273.24C611.217 265.668 618.398 257.415 623.847 260.137C630.751 263.582 628.917 276.969 619.643 288.843C610.792 300.175 600.341 305.324 595.584 307.147" stroke="black" stroke-width="2.14666" stroke-linecap="round" stroke-linejoin="round"/>
<path d="M549.146 234.097C556.556 234.097 562.563 228.09 562.563 220.68C562.563 213.27 556.556 207.263 549.146 207.263C541.736 207.263 535.729 213.27 535.729 220.68C535.729 228.09 541.736 234.097 549.146 234.097Z" fill="white"/>
<path d="M544.346 236.774C542.568 236.628 540.843 236.103 539.285 235.235C537.728 234.368 536.374 233.177 535.314 231.743C533.333 229.069 532.493 225.718 532.981 222.426C533.468 219.134 535.242 216.17 537.913 214.186C539.236 213.205 540.739 212.495 542.336 212.095C543.933 211.695 545.594 211.614 547.222 211.856C548.851 212.098 550.416 212.658 551.828 213.505C553.24 214.352 554.471 215.469 555.452 216.792" stroke="black" stroke-width="2.14666" stroke-linecap="round" stroke-linejoin="round"/>
<path d="M611.4 235.17C618.81 235.17 624.817 229.163 624.817 221.754C624.817 214.344 618.81 208.337 611.4 208.337C603.99 208.337 597.983 214.344 597.983 221.754C597.983 229.163 603.99 235.17 611.4 235.17Z" fill="white"/>
<path d="M613.381 231.054C616.732 230.121 619.682 227.805 621.313 224.425C622.76 221.428 622.958 217.979 621.865 214.836C620.771 211.694 618.474 209.113 615.479 207.663C609.243 204.647 601.747 207.258 598.736 213.5M564.305 273.421C554.923 268.605 547.967 259.425 546.443 248.176C543.971 229.908 556.761 213.096 575.011 210.625C593.26 208.154 610.059 220.96 612.532 239.229C614.057 250.501 609.774 261.215 601.981 268.354" stroke="black" stroke-width="2.14666" stroke-linecap="round" stroke-linejoin="round"/>
<path d="M595.923 234.47C595.937 234.966 595.853 235.461 595.676 235.925C595.499 236.388 595.232 236.813 594.891 237.174C594.55 237.534 594.141 237.824 593.687 238.027C593.234 238.229 592.745 238.341 592.249 238.354C591.753 238.367 591.259 238.283 590.795 238.105C590.332 237.927 589.908 237.66 589.548 237.318C589.188 236.977 588.898 236.568 588.696 236.114C588.494 235.661 588.384 235.172 588.371 234.676C588.313 232.59 589.958 230.85 592.042 230.792C594.126 230.734 595.864 232.382 595.923 234.47Z" fill="black"/>
<path d="M569.791 235.539C569.805 236.036 569.722 236.53 569.544 236.994C569.367 237.458 569.101 237.882 568.76 238.243C568.418 238.604 568.009 238.894 567.556 239.096C567.103 239.299 566.614 239.41 566.118 239.423C565.622 239.437 565.128 239.352 564.664 239.174C564.201 238.997 563.777 238.729 563.416 238.388C563.056 238.046 562.767 237.637 562.565 237.183C562.363 236.73 562.253 236.241 562.24 235.745C562.182 233.659 563.827 231.919 565.911 231.861C567.995 231.803 569.733 233.451 569.791 235.539Z" fill="black"/>
<path fill-rule="evenodd" clip-rule="evenodd" d="M584.607 246.099C584.567 244.628 582.219 243.165 579.374 243.242C576.529 243.319 574.265 244.91 574.305 246.381C574.337 247.547 575.845 249.151 577.885 249.732C578.023 249.772 578.11 249.908 578.092 250.05C577.719 253.013 578.215 254.262 578.982 254.764C579.772 255.282 580.976 254.894 581.097 253.495C581.158 252.776 581.004 250.636 581.024 249.908C581.027 249.8 581.117 249.677 581.221 249.639C583.224 248.947 584.64 247.265 584.607 246.099Z" fill="black"/>
<path fill-rule="evenodd" clip-rule="evenodd" d="M564.536 254.805C564.931 262.087 572.011 266.682 580.412 266.228C588.812 265.774 595.353 260.441 594.958 253.158C594.562 245.876 587.432 240.341 579.031 240.795C570.63 241.248 564.139 247.523 564.536 254.805Z" stroke="black" stroke-width="2.14666" stroke-linejoin="round"/>
<path d="M583.814 290.447L577.91 284.007L583.814 274.883L589.717 284.007L583.814 290.447ZM583.814 290.447L576.3 321.037C576.3 321.037 578.635 331.019 583.814 330.697C588.715 330.392 590.254 321.037 590.254 321.037L583.814 290.447Z" stroke="black" stroke-width="2.14666"/>
<path d="M547.411 264.272C533.168 280.315 533.758 298.249 542.222 308.937C550.166 318.963 567.177 324.303 570.797 311.225C573.678 300.816 553.723 302.282 553.533 276.481" stroke="black" stroke-width="2.14666" stroke-linecap="round" stroke-linejoin="round"/>
<path d="M656.665 212.166L657.804 209.154C657.88 208.955 657.873 208.733 657.785 208.539C657.697 208.344 657.535 208.192 657.336 208.117C657.136 208.041 656.915 208.048 656.72 208.136C656.525 208.224 656.374 208.385 656.298 208.585L655.159 211.597C655.084 211.797 655.091 212.018 655.179 212.213C655.266 212.407 655.428 212.559 655.628 212.635C655.827 212.71 656.049 212.703 656.244 212.615C656.438 212.528 656.59 212.366 656.665 212.166Z" fill="black"/>
<path d="M643.005 209.001C642.963 208.903 642.901 208.814 642.824 208.74C642.747 208.666 642.657 208.608 642.557 208.569C642.457 208.53 642.351 208.512 642.244 208.515C642.137 208.518 642.032 208.542 641.935 208.586C641.837 208.63 641.749 208.693 641.677 208.771C641.604 208.849 641.547 208.941 641.51 209.041C641.473 209.142 641.457 209.248 641.461 209.355C641.466 209.462 641.492 209.567 641.538 209.663L642.863 212.598C642.952 212.789 643.114 212.938 643.312 213.011C643.511 213.084 643.73 213.076 643.922 212.989C644.115 212.903 644.266 212.743 644.342 212.546C644.418 212.349 644.414 212.13 644.33 211.936L643.005 209.001Z" fill="black"/>
<path d="M631.394 219.825C631.319 220.024 631.326 220.246 631.414 220.441C631.501 220.635 631.663 220.787 631.863 220.862L634.875 222.001C635.074 222.077 635.296 222.07 635.49 221.982C635.685 221.894 635.837 221.733 635.912 221.533C635.988 221.333 635.981 221.112 635.893 220.917C635.805 220.722 635.644 220.571 635.444 220.495L632.432 219.356C632.232 219.281 632.011 219.288 631.816 219.376C631.622 219.464 631.47 219.625 631.394 219.825Z" fill="black"/>
<path d="M669.044 234.058C669.119 233.858 669.112 233.637 669.024 233.442C668.936 233.248 668.775 233.096 668.575 233.021L665.563 231.882C665.364 231.806 665.142 231.813 664.947 231.901C664.753 231.989 664.601 232.15 664.526 232.35C664.45 232.55 664.457 232.771 664.545 232.966C664.633 233.161 664.794 233.312 664.994 233.388L668.006 234.527C668.206 234.602 668.427 234.595 668.622 234.507C668.816 234.419 668.968 234.258 669.044 234.058Z" fill="black"/>
<path d="M668.562 218.663C668.519 218.566 668.457 218.48 668.38 218.407C668.303 218.335 668.212 218.278 668.113 218.241C668.014 218.204 667.909 218.186 667.803 218.189C667.698 218.193 667.594 218.217 667.497 218.26L664.563 219.584C664.465 219.627 664.376 219.688 664.302 219.765C664.228 219.842 664.17 219.933 664.132 220.033C664.093 220.132 664.075 220.238 664.078 220.345C664.081 220.452 664.105 220.557 664.149 220.654C664.193 220.751 664.255 220.839 664.333 220.912C664.412 220.985 664.503 221.041 664.603 221.078C664.704 221.115 664.81 221.132 664.917 221.127C665.023 221.123 665.128 221.097 665.225 221.052L668.16 219.727C668.256 219.684 668.343 219.622 668.415 219.545C668.488 219.468 668.544 219.377 668.581 219.278C668.619 219.18 668.636 219.074 668.633 218.969C668.63 218.863 668.606 218.759 668.562 218.663Z" fill="black"/>
<path d="M631.875 235.221C631.918 235.317 631.98 235.404 632.058 235.476C632.135 235.549 632.225 235.605 632.324 235.643C632.423 235.68 632.528 235.698 632.634 235.694C632.739 235.691 632.843 235.667 632.94 235.623L635.875 234.299C636.066 234.209 636.214 234.048 636.288 233.85C636.361 233.651 636.353 233.432 636.266 233.24C636.179 233.047 636.02 232.896 635.823 232.82C635.626 232.744 635.406 232.748 635.212 232.832L632.277 234.156C632.181 234.2 632.094 234.262 632.022 234.339C631.95 234.416 631.893 234.506 631.856 234.605C631.818 234.704 631.801 234.809 631.804 234.915C631.807 235.021 631.832 235.125 631.875 235.221Z" fill="black"/>
<path d="M658.9 244.219L657.575 241.284C657.485 241.093 657.324 240.945 657.126 240.871C656.927 240.798 656.708 240.806 656.516 240.893C656.323 240.98 656.172 241.139 656.096 241.336C656.02 241.533 656.024 241.753 656.108 241.947L657.433 244.881C657.523 245.072 657.685 245.22 657.883 245.293C658.081 245.366 658.3 245.358 658.492 245.271C658.684 245.184 658.835 245.025 658.911 244.829C658.988 244.632 658.984 244.413 658.9 244.219Z" fill="black"/>
<path d="M638.967 222.56C638.182 224.573 637.952 226.76 638.3 228.892L638.307 228.928L639.842 236.18L636.224 245.748C635.848 246.747 635.883 247.854 636.322 248.827C636.761 249.799 637.568 250.558 638.566 250.937L643.084 252.645C644.082 253.021 645.189 252.986 646.162 252.547C647.135 252.108 647.894 251.301 648.272 250.303L651.889 240.735L657.867 236.289C659.286 235.117 660.418 233.636 661.176 231.959C661.934 230.282 662.298 228.454 662.241 226.615C662.184 224.775 661.706 222.974 660.845 221.347C659.984 219.721 658.763 218.313 657.274 217.231C655.785 216.15 654.068 215.423 652.255 215.108C650.442 214.792 648.581 214.895 646.814 215.409C645.047 215.924 643.422 216.835 642.061 218.075C640.701 219.314 639.643 220.849 638.967 222.56ZM646.766 249.734C646.539 250.332 646.084 250.817 645.5 251.08C644.916 251.343 644.252 251.364 643.653 251.139L639.135 249.431C638.536 249.204 638.052 248.748 637.789 248.165C637.526 247.581 637.504 246.917 637.73 246.318L638.015 245.565L647.051 248.981L646.766 249.734ZM647.62 247.475L638.584 244.059L639.723 241.047L648.759 244.463L647.62 247.475ZM654.101 217.224C655.788 217.898 657.271 219.001 658.403 220.422C659.535 221.843 660.277 223.535 660.558 225.33C660.838 227.126 660.646 228.963 660.001 230.662C659.355 232.361 658.279 233.862 656.878 235.019L650.74 239.583C650.616 239.675 650.521 239.801 650.467 239.945L649.328 242.957L645.563 241.534L647.458 236.521C647.996 236.61 648.547 236.589 649.076 236.457C649.605 236.326 650.102 236.087 650.536 235.757L652.479 234.277C652.649 234.148 652.76 233.956 652.789 233.744C652.818 233.533 652.761 233.319 652.632 233.149C652.502 232.979 652.311 232.867 652.099 232.839C651.888 232.81 651.673 232.867 651.503 232.996L649.561 234.476C649.235 234.724 648.851 234.885 648.446 234.944C648.04 235.002 647.627 234.957 647.244 234.813C646.861 234.668 646.521 234.428 646.256 234.116C645.991 233.803 645.81 233.429 645.729 233.027L645.251 230.632C645.209 230.423 645.086 230.238 644.908 230.12C644.73 230.001 644.513 229.958 644.304 230C644.094 230.042 643.91 230.165 643.792 230.343C643.673 230.521 643.63 230.738 643.672 230.947L644.15 233.343C644.256 233.878 644.471 234.385 644.781 234.834C645.091 235.283 645.49 235.663 645.952 235.952L644.057 240.964L640.292 239.541L641.431 236.529C641.486 236.385 641.498 236.228 641.466 236.077L639.886 228.613C639.606 226.788 639.811 224.921 640.482 223.201C641.152 221.48 642.263 219.967 643.704 218.813C645.145 217.658 646.864 216.903 648.689 216.625C650.515 216.346 652.381 216.552 654.101 217.224Z" fill="black"/>
<path d="M654.101 217.224C655.788 217.898 657.271 219.001 658.403 220.422C659.535 221.843 660.277 223.535 660.558 225.33C660.838 227.126 660.646 228.963 660.001 230.662C659.355 232.361 658.279 233.862 656.878 235.019L650.74 239.583C650.616 239.675 650.521 239.801 650.467 239.945L649.328 242.957L645.563 241.534L647.458 236.521C647.996 236.61 648.547 236.589 649.076 236.457C649.605 236.326 650.102 236.087 650.536 235.757L652.479 234.277C652.649 234.148 652.76 233.956 652.789 233.744C652.818 233.533 652.761 233.319 652.632 233.149C652.502 232.979 652.311 232.867 652.099 232.839C651.888 232.81 651.673 232.867 651.503 232.996L649.561 234.476C649.235 234.724 648.851 234.885 648.446 234.944C648.04 235.002 647.627 234.957 647.244 234.813C646.861 234.668 646.521 234.428 646.256 234.116C645.991 233.803 645.81 233.429 645.729 233.027L645.251 230.632C645.209 230.423 645.086 230.238 644.908 230.12C644.73 230.001 644.513 229.958 644.304 230C644.094 230.042 643.91 230.165 643.792 230.343C643.673 230.521 643.63 230.738 643.672 230.947L644.15 233.343C644.256 233.878 644.471 234.385 644.781 234.834C645.091 235.283 645.49 235.663 645.952 235.952L644.057 240.964L640.292 239.541L641.431 236.529C641.486 236.385 641.498 236.228 641.466 236.077L639.886 228.613C639.606 226.788 639.811 224.921 640.482 223.201C641.152 221.48 642.263 219.967 643.704 218.813C645.145 217.658 646.864 216.903 648.689 216.625C650.515 216.346 652.381 216.552 654.101 217.224Z" fill="#FFF4E8"/>
<path d="M738.566 440.06L681.764 451.918L708.982 494.61L738.566 485.192L759.276 478.6L738.566 440.06Z" fill="#EDBE7E"/>
<path d="M681.764 451.918V529L738.566 510.026V485.192L708.982 494.61L681.764 451.918Z" fill="#EDBE7E"/>
<path d="M569.342 440.06L551 465.556L569.342 475.043V440.06Z" fill="#EDBE7E"/>
<path d="M569.342 510.026L681.764 529V451.918L569.342 440.06V475.043V510.026Z" fill="#EDBE7E"/>
<path d="M569.342 440.06L681.764 451.918L738.566 440.06L627.328 425.829L569.342 440.06Z" fill="#A5825F"/>
<path d="M569.342 440.06L681.764 451.918M569.342 440.06L627.328 425.829L738.566 440.06M569.342 440.06L551 465.556L569.342 475.043M569.342 440.06V475.043M681.764 529L569.342 510.026V475.043M681.764 529V451.918M681.764 529L738.566 510.026V485.192M681.764 451.918L738.566 440.06M681.764 451.918L708.982 494.61L738.566 485.192M738.566 440.06L759.276 478.6L738.566 485.192" stroke="black" stroke-width="1.04444"/>
<path d="M667.3 458.944C666.134 448.086 656.401 437.51 639.256 436.343L642.614 446.755C656.994 461.6 644.771 471.967 652.261 476.296C661.672 481.735 668.392 469.132 667.3 458.944Z" fill="white"/>
<path d="M639.694 435.6C656.838 436.767 666.571 447.344 667.738 458.201C668.829 468.39 662.11 480.992 652.698 475.553C645.208 471.225 657.431 460.858 643.052 446.012" stroke="black" stroke-width="1.04444" stroke-linecap="round" stroke-linejoin="round"/>
<path d="M632.59 456.312C618.841 462.202 602.921 455.83 597.032 442.082C591.142 428.333 597.514 412.413 611.262 406.523C625.011 400.634 640.931 407.005 646.821 420.754C652.71 434.503 646.339 450.423 632.59 456.312Z" fill="white"/>
<path d="M642.543 411.986C637.406 414.959 630.831 413.205 627.858 408.068C624.885 402.931 626.639 396.357 631.776 393.384C636.913 390.41 643.487 392.164 646.46 397.301C649.434 402.438 647.68 409.013 642.543 411.986Z" fill="white"/>
<path d="M643.498 411.913C644.671 411.099 645.657 410.043 646.388 408.816C647.12 407.59 647.581 406.221 647.74 404.801C648.041 402.153 647.278 399.493 645.619 397.406C643.96 395.32 641.541 393.977 638.893 393.673C637.583 393.524 636.256 393.634 634.988 393.998C633.72 394.362 632.537 394.972 631.505 395.793C630.473 396.614 629.613 397.631 628.974 398.784C628.334 399.938 627.929 401.206 627.78 402.517" stroke="black" stroke-width="1.04444" stroke-linecap="round" stroke-linejoin="round"/>
<path d="M600.095 434.166C595.862 438.327 589.057 438.268 584.897 434.035C580.736 429.802 580.795 422.998 585.028 418.837C589.26 414.677 596.065 414.735 600.225 418.968C604.386 423.201 604.328 430.005 600.095 434.166Z" fill="white"/>
<path d="M593.34 435.651C590.642 436.348 587.668 435.926 585.18 434.237C582.975 432.741 581.454 430.429 580.951 427.812C580.448 425.194 581.005 422.484 582.499 420.276C585.612 415.683 591.857 414.486 596.449 417.605" stroke="black" stroke-width="1.04444" stroke-linecap="round" stroke-linejoin="round"/>
<path d="M606.819 431.015C607.008 431.365 607.265 431.674 607.574 431.924C607.882 432.175 608.238 432.362 608.619 432.475C609 432.589 609.4 432.625 609.796 432.584C610.191 432.543 610.575 432.424 610.924 432.234C611.273 432.044 611.582 431.787 611.832 431.478C612.082 431.169 612.269 430.813 612.381 430.432C612.494 430.051 612.53 429.651 612.488 429.255C612.446 428.86 612.327 428.477 612.137 428.127C611.34 426.658 609.501 426.112 608.033 426.908C606.565 427.704 606.021 429.544 606.819 431.015Z" fill="black"/>
<path d="M625.362 421.271C625.552 421.62 625.808 421.929 626.117 422.18C626.426 422.43 626.781 422.618 627.162 422.731C627.544 422.844 627.943 422.881 628.339 422.839C628.735 422.798 629.118 422.679 629.468 422.489C629.817 422.299 630.125 422.042 630.375 421.733C630.625 421.424 630.812 421.069 630.925 420.687C631.037 420.306 631.074 419.906 631.032 419.511C630.99 419.115 630.87 418.732 630.68 418.383C629.883 416.913 628.044 416.367 626.576 417.164C625.109 417.96 624.565 419.8 625.362 421.271Z" fill="black"/>
<path fill-rule="evenodd" clip-rule="evenodd" d="M619.327 434.536C618.765 433.5 619.806 431.543 621.809 430.455C623.812 429.367 626.02 429.561 626.583 430.597C627.028 431.418 626.626 433.135 625.445 434.357C625.366 434.44 625.36 434.569 625.429 434.66C626.876 436.565 627.034 437.63 626.704 438.286C626.364 438.962 625.373 439.176 624.729 438.254C624.398 437.78 623.646 436.235 623.34 435.739C623.294 435.665 623.182 435.615 623.095 435.631C621.429 435.955 619.773 435.357 619.327 434.536Z" fill="black"/>
<path fill-rule="evenodd" clip-rule="evenodd" d="M636.744 432.517C639.392 437.724 636.328 443.75 630.322 446.806C624.316 449.862 617.641 448.79 614.993 443.582C612.345 438.375 615.067 431.677 621.073 428.62C627.079 425.564 634.097 427.309 636.744 432.517Z" stroke="black" stroke-width="1.04444" stroke-linejoin="round"/>
<path d="M597.515 441.882C603.292 455.367 618.907 461.616 632.392 455.84C645.877 450.063 652.126 434.448 646.35 420.963C640.573 407.477 624.958 401.228 611.473 407.005C597.987 412.781 591.738 428.396 597.515 441.882Z" stroke="black" stroke-width="1.04444"/>
<path d="M459.875 459.742C457.241 463.101 457.827 467.959 461.185 470.594C464.544 473.229 469.402 472.643 472.037 469.284C474.672 465.926 474.086 461.067 470.727 458.433C467.369 455.798 462.51 456.384 459.875 459.742Z" fill="white" stroke="black" stroke-width="1.0365"/>
<path d="M324.862 449.65L341.235 455.133V432.807L324.862 427.324V449.65Z" fill="#6FB0B7"/>
<path d="M324.862 514.25L341.235 519.733V455.133L324.862 449.65V514.25Z" fill="#6FB0B7"/>
<path d="M324.862 427.324L341.235 432.807L366.346 422.589L352.077 417.166L324.862 427.324Z" fill="#6FB0B7"/>
<path d="M352.324 406.606L337.216 411.518L352.077 417.166L365.82 412.036L352.324 406.606Z" fill="#6FB0B7"/>
<path d="M368.771 421.602L379.125 417.389L365.82 412.036L352.077 417.166L366.346 422.589L368.771 421.602Z" fill="#6FB0B7"/>
<path d="M396.308 410.397L381.87 406.046L365.82 412.036L379.125 417.389L396.308 410.397Z" fill="#6FB0B7"/>
<path d="M396.308 433.975L409.202 429.49L379.125 417.389L368.771 421.602L366.346 422.589L396.308 433.975Z" fill="#6FB0B7"/>
<path d="M396.308 456.665L409.202 452.052V429.49L396.308 433.975V456.665Z" fill="#6FB0B7"/>
<path d="M396.308 520.906L409.202 516.102V452.052L396.308 456.665V520.906Z" fill="#6FB0B7"/>
<path d="M371.897 530V465.401L341.235 455.133V519.733L371.897 530Z" fill="#FFE2DA"/>
<path d="M371.897 465.401V443.074L341.235 432.807V455.133L371.897 465.401Z" fill="#FFE2DA"/>
<path d="M371.897 443.074V465.401L396.308 456.665V433.975L371.897 443.074Z" fill="#FFE2DA"/>
<path d="M307 443.669V508.269L324.862 514.25V449.65L307 443.669Z" fill="#FFE2DA"/>
<path d="M307 421.342V443.669L324.862 449.65V427.324L307 421.342Z" fill="#FFE2DA"/>
<path d="M432.627 443.669V421.342L409.202 429.49V452.052L432.627 443.669Z" fill="#FFE2DA"/>
<path d="M371.897 465.401V530L396.308 520.906V456.665L371.897 465.401Z" fill="#FFE2DA"/>
<path d="M432.627 507.376V443.669L409.202 452.052V516.102L432.627 507.376Z" fill="#FFE2DA"/>
<path d="M341.235 432.807L371.897 443.074L396.308 433.975L366.346 422.589L341.235 432.807Z" fill="#FFE2DA"/>
<path d="M409.202 429.49L432.627 421.342L396.308 410.397L379.125 417.389L409.202 429.49Z" fill="#FFE2DA"/>
<path d="M307 421.342L324.862 427.324L352.077 417.166L337.216 411.518L307 421.342Z" fill="#FFE2DA"/>
<path d="M371.897 443.074V465.401M371.897 443.074L341.235 432.807M371.897 443.074L396.308 433.975M432.627 421.342V443.669M432.627 421.342L409.202 429.49M432.627 421.342L396.308 410.397M432.627 507.376V443.669M432.627 507.376L371.897 530M432.627 507.376L409.202 516.102M371.897 530V465.401M371.897 530L307 508.269M371.897 530L341.235 519.733M371.897 530L396.308 520.906M307 421.342V443.669M307 421.342L324.862 427.324M307 421.342L337.216 411.518M307 508.269V443.669M307 508.269L324.862 514.25M371.897 465.401L341.235 455.133M371.897 465.401L396.308 456.665M432.627 443.669L409.202 452.052M307 443.669L324.862 449.65M324.862 427.324L341.235 432.807M324.862 427.324V449.65M324.862 427.324L352.077 417.166M324.862 514.25V449.65M324.862 514.25L341.235 519.733M341.235 432.807V455.133M341.235 432.807L366.346 422.589M341.235 519.733V455.133M396.308 433.975L409.202 429.49M396.308 433.975L366.346 422.589M396.308 433.975V456.665M396.308 520.906V456.665M396.308 520.906L409.202 516.102M409.202 516.102V452.052M409.202 429.49L379.125 417.389M409.202 429.49V452.052M396.308 410.397L381.87 406.046M396.308 410.397L379.125 417.389M381.87 406.046L367.432 401.694L352.324 406.606M381.87 406.046L365.82 412.036M337.216 411.518L352.324 406.606M337.216 411.518L352.077 417.166M352.324 406.606L365.82 412.036M324.862 449.65L341.235 455.133M366.346 422.589L352.077 417.166M366.346 422.589L368.771 421.602L379.125 417.389M352.077 417.166L365.82 412.036M365.82 412.036L379.125 417.389M396.308 456.665L409.202 452.052" stroke="black" stroke-width="1.0365"/>
<path d="M370.873 405.896C370.873 409.398 370.281 412.623 369.333 414.962C368.859 416.133 368.301 417.069 367.695 417.708C367.089 418.347 366.454 418.671 365.816 418.671H351.343C353.555 417.055 355.171 411.948 355.171 405.896C355.171 399.845 353.555 394.737 351.343 393.122H365.55C366.189 393.122 366.842 393.447 367.474 394.088C368.105 394.729 368.696 395.666 369.202 396.836C370.215 399.176 370.873 402.399 370.873 405.896Z" fill="#6FB0B7"/>
<path fill-rule="evenodd" clip-rule="evenodd" d="M365.816 418.671H349.848V419.345H365.816V419.273C366.674 419.273 367.456 418.835 368.132 418.122C368.808 417.41 369.401 416.4 369.892 415.188C370.875 412.761 371.476 409.456 371.476 405.895C371.476 402.33 370.807 399.023 369.756 396.596C369.231 395.383 368.603 394.374 367.903 393.664C367.203 392.954 366.406 392.518 365.55 392.518V392.589H349.848V393.263H365.816V393.211C366.346 393.288 366.889 393.595 367.423 394.137C368.046 394.769 368.633 395.698 369.137 396.863C370.146 399.193 370.802 402.406 370.802 405.895C370.802 409.39 370.211 412.605 369.267 414.935C368.795 416.101 368.241 417.028 367.643 417.659C367.046 418.289 366.428 418.599 365.816 418.599V418.671Z" fill="black"/>
<path d="M345.31 405.896C345.31 402.271 345.899 399.013 346.832 396.68C347.299 395.512 347.843 394.601 348.42 393.992C348.995 393.383 349.568 393.108 350.115 393.108C350.661 393.108 351.234 393.383 351.81 393.992C352.387 394.601 352.93 395.512 353.397 396.68C354.331 399.013 354.919 402.271 354.919 405.896C354.919 409.522 354.331 412.78 353.397 415.113C352.93 416.281 352.387 417.191 351.81 417.801C351.234 418.41 350.661 418.685 350.115 418.685C349.568 418.685 348.995 418.41 348.42 417.801C347.843 417.191 347.299 416.281 346.832 415.113C345.899 412.78 345.31 409.522 345.31 405.896Z" fill="#D0EEE9" stroke="black" stroke-width="1.0365"/>
<path d="M370.074 405.896C370.074 409.397 370.666 412.622 371.613 414.962C372.087 416.133 372.645 417.069 373.252 417.708C373.857 418.347 374.492 418.67 375.13 418.67H389.603C387.391 417.055 385.776 411.947 385.776 405.896C385.776 399.845 387.391 394.737 389.603 393.122H375.396C374.757 393.122 374.104 393.447 373.473 394.088C372.841 394.728 372.251 395.665 371.744 396.836C370.731 399.175 370.074 402.398 370.074 405.896Z" fill="#6FB0B7"/>
<path fill-rule="evenodd" clip-rule="evenodd" d="M375.13 418.671H391.098V419.345H375.13V419.274C374.273 419.274 373.49 418.836 372.814 418.123C372.138 417.411 371.545 416.401 371.054 415.188C370.071 412.762 369.471 409.457 369.471 405.896C369.471 402.331 370.139 399.024 371.19 396.596C371.716 395.383 372.343 394.375 373.043 393.664C373.743 392.954 374.541 392.518 375.397 392.518V392.589H391.098V393.263H375.13V393.212C374.6 393.289 374.057 393.596 373.523 394.138C372.9 394.77 372.314 395.699 371.809 396.864C370.801 399.193 370.145 402.406 370.145 405.896C370.145 409.39 370.736 412.606 371.679 414.935C372.151 416.101 372.705 417.029 373.303 417.659C373.901 418.289 374.518 418.6 375.13 418.6V418.671Z" fill="black"/>
<path d="M395.637 405.896C395.637 402.27 395.049 399.012 394.115 396.679C393.648 395.511 393.105 394.601 392.528 393.991C391.952 393.382 391.379 393.108 390.833 393.108C390.286 393.108 389.713 393.382 389.138 393.991C388.561 394.601 388.018 395.511 387.55 396.679C386.617 399.012 386.029 402.27 386.029 405.896C386.029 409.521 386.617 412.78 387.55 415.113C388.018 416.281 388.561 417.191 389.138 417.801C389.713 418.41 390.286 418.684 390.833 418.684C391.379 418.684 391.952 418.41 392.528 417.801C393.105 417.191 393.648 416.281 394.115 415.113C395.049 412.78 395.637 409.521 395.637 405.896Z" fill="#D0EEE9" stroke="black" stroke-width="1.0365"/>
<path d="M339.791 426.635L375.198 424.873L349.806 402.5C342.241 395.834 330.36 398.624 326.553 407.96C322.803 417.154 329.874 427.129 339.791 426.635Z" fill="#6FB0B7" stroke="black" stroke-width="1.0365"/>
<path d="M339.586 426.389L367.349 425.284L344.934 410.522C339.892 407.203 333.075 409.594 331.211 415.335C329.395 420.93 333.708 426.623 339.586 426.389Z" fill="#D0EEE9" stroke="black" stroke-width="1.0365"/>
<path d="M400.485 428.031L365.077 426.269L390.469 403.896C398.035 397.23 409.915 400.02 413.723 409.356C417.472 418.55 410.401 428.525 400.485 428.031Z" fill="#6FB0B7" stroke="black" stroke-width="1.0365"/>
<path d="M400.69 427.784L372.926 426.679L395.342 411.917C400.383 408.598 407.201 410.989 409.064 416.73C410.88 422.325 406.567 428.018 400.69 427.784Z" fill="#D0EEE9" stroke="black" stroke-width="1.0365"/>
<path d="M356.235 418.138C356.235 414.637 356.827 411.412 357.775 409.072C358.249 407.901 358.807 406.965 359.413 406.326C360.019 405.687 360.654 405.363 361.292 405.363H375.765C373.553 406.979 371.937 412.087 371.937 418.138C371.937 424.189 373.553 429.297 375.765 430.912H361.558C360.919 430.912 360.266 430.587 359.634 429.946C359.003 429.305 358.412 428.368 357.906 427.198C356.893 424.858 356.235 421.635 356.235 418.138Z" fill="#6FB0B7"/>
<path fill-rule="evenodd" clip-rule="evenodd" d="M361.292 405.364H377.259V404.69H361.291V404.761C360.434 404.761 359.651 405.199 358.976 405.912C358.3 406.624 357.707 407.634 357.216 408.846C356.233 411.273 355.632 414.578 355.632 418.139C355.632 421.704 356.301 425.011 357.352 427.439C357.877 428.651 358.504 429.66 359.205 430.37C359.904 431.08 360.702 431.516 361.558 431.516V431.445H377.259V430.771H361.291V430.823C360.761 430.745 360.219 430.439 359.685 429.897C359.062 429.265 358.475 428.336 357.971 427.171C356.962 424.842 356.306 421.628 356.306 418.139C356.306 414.644 356.897 411.429 357.841 409.099C358.313 407.933 358.867 407.006 359.465 406.376C360.062 405.745 360.68 405.435 361.292 405.435V405.364Z" fill="black"/>
<path d="M381.798 418.138C381.798 421.763 381.209 425.022 380.276 427.354C379.809 428.522 379.266 429.433 378.689 430.043C378.113 430.651 377.54 430.926 376.994 430.926C376.447 430.926 375.874 430.651 375.298 430.043C374.722 429.433 374.178 428.522 373.711 427.354C372.778 425.022 372.189 421.763 372.189 418.138C372.189 414.512 372.778 411.254 373.711 408.921C374.178 407.753 374.722 406.843 375.298 406.233C375.874 405.624 376.447 405.349 376.994 405.349C377.54 405.349 378.113 405.624 378.689 406.233C379.266 406.843 379.809 407.753 380.276 408.921C381.209 411.254 381.798 414.512 381.798 418.138Z" fill="#D0EEE9" stroke="black" stroke-width="1.0365"/>
<path d="M429.813 438.199C428.099 442.108 429.879 446.667 433.788 448.381C437.698 450.095 442.256 448.315 443.97 444.405C445.684 440.496 443.904 435.937 439.995 434.223C436.086 432.509 431.527 434.289 429.813 438.199Z" fill="white" stroke="black" stroke-width="1.0365"/>
<path d="M431.114 503.153C438.517 499.225 443.276 489.274 439.217 476.727L432.757 482.089C426.282 496.568 415.41 490.817 414.462 497.388C413.272 505.644 424.167 506.837 431.114 503.153Z" fill="white"/>
<path d="M439.274 476.824C443.333 489.371 438.574 499.322 431.172 503.25C424.224 506.934 413.329 505.741 414.52 497.485C415.467 490.914 426.339 496.665 432.814 482.186" stroke="black" stroke-width="1.0365" stroke-linecap="round" stroke-linejoin="round"/>
<path d="M428.003 450.194C420.09 458.109 420.092 470.94 428.007 478.853C435.922 486.765 448.753 486.763 456.666 478.848C464.579 470.933 464.577 458.102 456.662 450.189C448.746 442.277 435.915 442.279 428.003 450.194Z" fill="white" stroke="black" stroke-width="1.0365"/>
<path d="M438.101 453.433C437.906 453.668 437.759 453.939 437.669 454.23C437.578 454.522 437.546 454.828 437.574 455.132C437.602 455.436 437.69 455.732 437.832 456.001C437.975 456.271 438.169 456.511 438.404 456.706C438.639 456.9 438.91 457.047 439.201 457.137C439.493 457.227 439.799 457.258 440.103 457.23C440.407 457.201 440.702 457.113 440.972 456.97C441.242 456.828 441.481 456.633 441.675 456.398C442.495 455.411 442.359 453.945 441.373 453.127C440.387 452.308 438.922 452.446 438.101 453.433Z" fill="black"/>
<path d="M450.333 463.866C450.138 464.101 449.991 464.372 449.901 464.663C449.81 464.955 449.778 465.261 449.806 465.565C449.834 465.869 449.922 466.165 450.064 466.435C450.207 466.705 450.401 466.944 450.636 467.139C450.871 467.333 451.142 467.48 451.433 467.57C451.725 467.66 452.031 467.691 452.335 467.663C452.639 467.634 452.934 467.546 453.204 467.403C453.474 467.261 453.713 467.066 453.907 466.831C454.727 465.844 454.591 464.379 453.605 463.56C452.619 462.741 451.154 462.879 450.333 463.866Z" fill="black"/>
<path fill-rule="evenodd" clip-rule="evenodd" d="M439.161 463.351C439.739 462.654 441.43 462.838 442.776 463.955C444.123 465.071 444.614 466.7 444.037 467.396C443.579 467.948 442.241 468.151 441.034 467.658C440.952 467.625 440.858 467.658 440.813 467.733C439.869 469.308 439.155 469.724 438.594 469.675C438.015 469.626 437.58 468.981 438.053 468.26C438.296 467.888 439.183 466.912 439.449 466.552C439.488 466.499 439.492 466.405 439.456 466.348C438.75 465.253 438.703 463.902 439.161 463.351Z" fill="black"/>
<path fill-rule="evenodd" clip-rule="evenodd" d="M445.566 475.178C442.611 478.55 437.444 478.085 433.554 474.678C429.663 471.271 428.524 466.21 431.478 462.839C434.433 459.467 439.981 459.495 443.872 462.902C447.762 466.309 448.521 471.807 445.566 475.178Z" stroke="black" stroke-width="1.0365" stroke-linejoin="round"/>
<path d="M224 433.578L139.333 446.776L138.705 446.71L156.815 412.904L224 433.578Z" fill="#EDBE7E"/>
<path d="M224 433.578L222.331 496.166L171.308 509.477L172.821 450.287L139.333 446.776L224 433.578Z" fill="#EDBE7E"/>
<path d="M170.874 526.469L138.609 517.689L138.705 446.874L139.333 446.776L172.821 450.287L171.308 509.477L170.874 526.469Z" fill="#EDBE7E"/>
<path d="M68.5165 479.174L138.609 517.689L90.2119 531L22.0662 479.174H68.5165Z" fill="#EDBE7E"/>
<path d="M68.5165 420.834V479.174L47.9337 465.58L45.9867 411.488L68.5165 420.834Z" fill="#EDBE7E"/>
<path d="M138.705 446.71L68.5165 420.834L90.2119 386L158.636 409.506L156.815 412.904L138.705 446.71Z" fill="#EDBE7E"/>
<path d="M138.705 446.71L138.609 446.889L138.705 446.874L138.609 517.689L68.5165 479.174V420.834L138.705 446.71Z" fill="#A5825F"/>
<path d="M224 433.578L222.331 496.166L171.308 509.477M224 433.578L156.815 412.904M224 433.578L139.333 446.776M68.5165 420.834L138.705 446.71M68.5165 420.834V479.174M68.5165 420.834L90.2119 386L158.636 409.506L156.815 412.904M68.5165 420.834L45.9867 411.488L47.9337 465.58L68.5165 479.174M138.705 446.71L138.609 446.889L138.705 446.874M138.705 446.71L156.815 412.904M138.705 446.71L139.333 446.776M138.705 446.71L138.705 446.874M138.609 517.689L68.5165 479.174M138.609 517.689L170.874 526.469L171.308 509.477M138.609 517.689L90.2119 531L22.0662 479.174H68.5165M138.609 517.689L138.705 446.874M171.308 509.477L172.821 450.287L139.333 446.776M139.333 446.776L138.705 446.874" stroke="black" stroke-width="1.13794"/>
<path d="M88.5747 501.306C119.727 494.226 137.667 480.349 137.667 480.349L97.1973 483.464C97.1973 483.464 33.5019 480.349 32.1111 494.226C31.3913 501.409 58.1706 508.216 88.5747 501.306Z" fill="white"/>
<path d="M137.945 481.482C137.945 481.482 119.726 494.227 88.5739 501.307C58.1698 508.217 31.3905 501.41 32.1103 494.227C33.5011 480.35 97.1965 483.465 97.1965 483.465" stroke="black" stroke-width="1.13794" stroke-linecap="round"/>
<path d="M117.779 455.145C126.904 451.326 134.746 446.083 134.746 446.083L138.918 447.074V500.458C116.389 512.918 115.589 502.813 90.6602 507.679L94.137 490.97L102.203 459.959C102.203 459.959 107.901 459.279 117.779 455.145Z" fill="white"/>
<path d="M134.885 445.516C134.885 445.516 126.626 451.609 117.501 455.428C107.623 459.562 100.534 463.924 100.534 463.924" stroke="black" stroke-width="1.13794"/>
<path d="M81.243 508.023C97.7686 505.305 109.001 489.461 106.33 472.635C103.66 455.809 88.0991 444.372 71.5735 447.091C55.048 449.81 43.816 465.654 46.4861 482.48C49.1563 499.306 64.7175 510.742 81.243 508.023Z" fill="white"/>
<path fill-rule="evenodd" clip-rule="evenodd" d="M62.9875 466.805C62.7007 468.655 63.9422 470.392 65.7592 470.682C67.5761 470.974 69.2799 469.711 69.5667 467.861C69.8535 466.011 68.612 464.274 66.795 463.982C64.978 463.692 63.2743 464.955 62.9875 466.805Z" fill="black"/>
<path fill-rule="evenodd" clip-rule="evenodd" d="M85.6374 470.875C85.3506 472.725 86.5921 474.462 88.4091 474.752C90.226 475.044 91.9298 473.782 92.2166 471.932C92.5034 470.082 91.2619 468.345 89.4449 468.053C87.6279 467.763 85.9242 469.025 85.6374 470.875Z" fill="black"/>
<path d="M48.5728 470.966C55.1104 469.89 59.5538 463.622 58.4975 456.966C57.4412 450.309 51.2851 445.785 44.7475 446.861C38.2099 447.936 33.7665 454.204 34.8228 460.861C35.8791 467.517 42.0352 472.041 48.5728 470.966Z" fill="white"/>
<path fill-rule="evenodd" clip-rule="evenodd" d="M70.2898 478.79C70.4831 477.529 72.6163 476.53 74.9997 476.915C77.383 477.3 79.1146 478.925 78.9195 480.186C78.766 481.187 77.3243 482.402 75.5472 482.674C75.4259 482.692 75.3369 482.801 75.3369 482.925C75.3274 485.52 74.7761 486.54 74.0751 486.888C73.3552 487.246 72.3852 486.776 72.4363 485.559C72.4629 484.931 72.8247 483.104 72.8872 482.474C72.8967 482.381 72.8342 482.264 72.7508 482.221C71.1424 481.401 70.1364 479.791 70.2898 478.79Z" fill="black"/>
<path fill-rule="evenodd" clip-rule="evenodd" d="M86.7334 488.552C85.5165 494.566 78.9522 498.294 72.0688 496.876C65.1874 495.46 60.5932 489.434 61.8101 483.42C63.0251 477.406 69.5913 473.677 76.4727 475.095C83.3561 476.512 87.9503 482.538 86.7334 488.552Z" stroke="black" stroke-width="1.13794" stroke-linecap="round" stroke-linejoin="round"/>
<path fill-rule="evenodd" clip-rule="evenodd" d="M56.8452 452.687C55.2549 450.081 52.6142 448.157 49.4083 447.61C43.4905 446.604 37.8895 450.667 36.8996 456.687C35.9078 462.71 39.9006 468.409 45.8165 469.415" fill="white"/>
<path d="M56.8452 452.687C55.2549 450.081 52.6142 448.157 49.4083 447.61C43.4905 446.604 37.8895 450.667 36.8996 456.687C35.9078 462.71 39.9006 468.409 45.8165 469.415" stroke="black" stroke-width="1.13794" stroke-linecap="round" stroke-linejoin="round"/>
<path d="M126.793 474.596C132.934 486.413 128.148 508.801 128.148 508.801L133.295 506.18L139.12 502.318V447.15L135.327 445.908L118.53 455.563V463.838C118.53 463.838 124.636 470.445 126.793 474.596Z" fill="#D0D0D0"/>
<path d="M109.783 474.727C116.32 473.652 120.764 467.384 119.707 460.727C118.651 454.071 112.495 449.546 105.957 450.622C99.4199 451.697 94.9764 457.965 96.0328 464.622C97.0891 471.278 103.245 475.803 109.783 474.727Z" fill="white"/>
<path d="M109.932 473.208C112.96 472.931 115.858 471.373 117.79 468.67C121.358 463.682 120.288 456.68 115.401 453.03C110.515 449.382 103.661 450.467 100.096 455.455" stroke="black" stroke-width="1.13794" stroke-linecap="round" stroke-linejoin="round"/>
<path d="M76.0646 508.373C59.3243 508.373 45.7536 494.555 45.7536 477.51C45.7536 460.466 59.3243 446.648 76.0646 446.648C92.8048 446.648 106.375 460.466 106.375 477.51" stroke="black" stroke-width="1.13794"/>
<path d="M92.9529 521.095C124.058 514.035 128.688 508.663 128.688 508.663L129.366 498.457L101.562 503.304C101.562 503.304 37.9628 500.198 36.5742 514.035C35.8554 521.197 62.5945 527.985 92.9529 521.095Z" fill="white"/>
<path d="M139.058 503.006C139.058 503.006 124.177 513.768 93.0245 520.848C62.6204 527.758 35.841 520.951 36.5609 513.768C37.9516 499.891 101.647 503.006 101.647 503.006" stroke="black" stroke-width="1.13794" stroke-linecap="round"/>
<path d="M23.2208 445.177C23.2208 445.177 32.6188 432.097 31.802 425.701C30.95 419.029 25.4934 415.06 20.1939 417.084C15.3878 418.919 15.4825 423.796 15.4825 423.796L15.4075 423.824C15.4075 423.824 12.3808 420.072 7.58126 421.925C2.28951 423.969 0.684691 430.648 4.28058 436.267C7.72919 441.653 23.145 445.205 23.145 445.205L23.2208 445.177Z" fill="#FFE2DA" stroke="black" stroke-width="1.13794" stroke-linejoin="round"/>
<defs>
<clipPath id="clip0_2108_1494">
<rect width="141" height="140" fill="white" transform="translate(15)"/>
</clipPath>
</defs>
</svg>
