<svg width="353" height="288" viewBox="0 0 353 288" fill="none" xmlns="http://www.w3.org/2000/svg">
<path d="M104.631 199.434C102.21 198.231 99.8295 197.63 97.5925 197.63C89.3638 197.63 83.8301 205.856 83.8301 218.097C83.8301 234.379 93.3931 252.362 105.141 258.182C107.561 259.385 109.942 259.987 112.179 259.987C120.408 259.987 125.941 251.76 125.941 239.519C125.941 223.237 116.378 205.254 104.631 199.434ZM107.914 246.045C106.737 246.045 105.507 245.705 104.264 245.025C98.5736 241.926 93.9425 232.418 93.9425 223.838C93.9425 217.09 96.8337 212.539 101.151 212.539C102.328 212.539 103.558 212.879 104.801 213.559C110.491 216.658 115.122 226.166 115.122 234.746C115.122 241.507 112.231 246.045 107.914 246.045Z" fill="black"/>
<path d="M299.816 178.418C297.697 178.418 295.447 179.019 293.157 180.209C282.024 185.964 272.958 203.75 272.958 219.863C272.958 231.973 278.191 240.121 285.988 240.121C288.108 240.121 290.358 239.519 292.647 238.329C303.78 232.575 312.846 214.788 312.846 198.676C312.846 186.565 307.613 178.418 299.816 178.418ZM293.471 226.297C292.202 227.016 290.959 227.383 289.756 227.383C285.373 227.383 282.443 222.583 282.443 215.429C282.443 206.327 287.153 196.243 292.935 192.961C294.204 192.241 295.447 191.875 296.65 191.875C298.783 191.875 300.679 193.052 301.988 195.21C303.283 197.342 303.976 200.324 303.976 203.829C303.976 212.931 299.267 223.014 293.484 226.297H293.471Z" fill="black"/>
<path d="M75.4053 200.782V187.298C75.4053 187.167 75.3268 187.049 75.2091 186.997L40.1752 171.499C39.9528 171.408 39.7173 171.565 39.7173 171.8V184.918C39.7173 185.179 39.8743 185.415 40.1098 185.519L50.9548 190.371V234.523C50.9548 234.654 51.0333 234.772 51.1511 234.824L61.656 239.532C61.8784 239.624 62.1269 239.467 62.1269 239.231V195.302L74.9605 201.082C75.1829 201.187 75.4315 201.017 75.4315 200.782H75.4053Z" fill="black"/>
<path d="M163.997 226.703C163.827 226.624 163.644 226.703 163.566 226.86L154.526 246.137L145.787 218.647C145.761 218.555 145.696 218.49 145.604 218.45L133.791 213.075C133.529 212.958 133.254 213.206 133.333 213.468L147.017 257.829L147.043 257.907V277.145C147.043 277.276 147.122 277.394 147.239 277.446L158.254 282.429C158.477 282.534 158.725 282.364 158.725 282.128V263.779L158.791 263.662L175.026 232.012C175.117 231.842 175.039 231.633 174.869 231.555L164.011 226.69L163.997 226.703Z" fill="black"/>
<path d="M193.524 273.575L208.62 266.866L210.321 273.98C210.373 274.176 210.583 274.294 210.779 274.203L219.4 270.384C219.544 270.318 219.623 270.161 219.583 270.004L207.456 219.444C207.404 219.248 207.195 219.13 206.998 219.222L191.954 225.892C191.849 225.931 191.784 226.022 191.758 226.127L179.853 287.346C179.801 287.608 180.062 287.817 180.311 287.712L191.418 282.926C191.522 282.887 191.588 282.795 191.614 282.69L193.511 273.575H193.524ZM195.591 261.556L200.954 233.66L206.266 256.822L195.591 261.543V261.556Z" fill="black"/>
<path d="M259.732 248.465C262.087 244.738 263.278 240.317 263.278 235.334C263.278 232.117 262.611 229.554 261.289 227.71C260.177 226.166 258.712 225.408 256.815 225.408C256.54 225.408 254.042 225.669 254.042 225.669L255.52 224.479C257.561 222.845 259.222 220.582 260.465 217.783C261.708 214.971 262.336 211.859 262.336 208.55C262.336 203.829 261.198 200.729 258.934 199.33C257.94 198.715 256.763 198.401 255.428 198.401C253.728 198.401 251.713 198.911 249.437 199.905L230.599 208.38C230.481 208.432 230.402 208.55 230.402 208.681V265.087C230.402 265.323 230.651 265.493 230.873 265.388L249.568 256.992C253.963 255.056 257.391 252.192 259.732 248.465ZM240.135 213.572L247.121 210.59C248.037 210.198 248.822 210.002 249.515 210.002C250.143 210.002 250.68 210.172 251.111 210.486C252.014 211.153 252.446 212.447 252.446 214.461C252.446 216.305 252.04 217.875 251.242 219.104C250.444 220.347 249.201 221.341 247.553 222.034L240.135 225.199V213.546V213.572ZM252.485 243.103C251.674 244.332 249.895 245.535 248.22 246.255L240.868 249.524L240.083 249.851V238.198L248.351 234.51C249.254 234.118 250.026 233.896 250.719 233.896C252.106 233.896 253.767 234.68 253.767 238.421C253.767 240.369 253.283 241.86 252.472 243.077L252.485 243.103Z" fill="black"/>
<path d="M213.722 120.847C219.17 120.847 223.586 116.432 223.586 110.986C223.586 105.54 219.17 101.125 213.722 101.125C208.275 101.125 203.858 105.54 203.858 110.986C203.858 116.432 208.275 120.847 213.722 120.847Z" fill="black"/>
<path d="M139.874 120.991C145.321 120.991 149.738 116.576 149.738 111.13C149.738 105.684 145.321 101.269 139.874 101.269C134.426 101.269 130.01 105.684 130.01 111.13C130.01 116.576 134.426 120.991 139.874 120.991Z" fill="black"/>
<path d="M188.618 133.965C188.618 130.486 183.149 126.863 176.399 126.863C169.649 126.863 164.18 130.486 164.18 133.965C164.18 136.724 167.647 140.622 172.448 142.126C172.775 142.23 172.971 142.557 172.919 142.897C171.846 149.881 172.932 152.876 174.724 154.118C176.556 155.4 179.434 154.55 179.813 151.254C180.01 149.554 179.787 144.48 179.879 142.753C179.892 142.492 180.114 142.204 180.363 142.126C185.151 140.622 188.618 136.724 188.618 133.965Z" fill="black"/>
<path d="M352.327 33.4847C351.778 32.4515 350.81 31.7191 349.672 31.4706L206.593 0.0960024C204.683 -0.335579 202.746 0.723758 202.04 2.55471L185.543 45.8829C182.535 45.5559 179.486 45.3466 176.386 45.3466C173.285 45.3466 170.263 45.569 167.255 45.8829L150.758 2.55471C150.065 0.723758 148.129 -0.335579 146.205 0.0960024L3.11337 31.4706C1.97522 31.7191 1.00715 32.4515 0.457696 33.4847C-0.0917522 34.5179 -0.144081 35.7342 0.287629 36.8066L36.355 126.497C36.4204 126.654 36.4989 126.785 36.5774 126.929C36.6167 126.994 36.6297 127.046 36.669 127.112C36.8521 127.412 37.0876 127.687 37.3362 127.923C37.3885 127.975 37.4408 128.014 37.4932 128.053C37.7548 128.276 38.0426 128.472 38.3566 128.616C38.3697 128.616 38.3827 128.642 38.4089 128.642L38.4612 128.668L174.738 189.325C175.248 189.547 175.797 189.665 176.347 189.665C176.896 189.665 177.446 189.547 177.956 189.325L314.298 128.642C314.298 128.642 314.402 128.563 314.468 128.537C314.729 128.406 314.978 128.249 315.2 128.066C315.279 128.001 315.344 127.949 315.41 127.883C315.632 127.674 315.828 127.439 315.998 127.177C316.051 127.099 316.09 127.033 316.129 126.955C316.208 126.811 316.325 126.68 316.391 126.51L352.458 36.8196C352.89 35.7342 352.824 34.5179 352.288 33.4978L352.327 33.4847ZM9.40586 38.1929L144.583 8.55761L159.248 47.0991C149.45 49.1132 140.24 52.7881 131.972 57.8625C125.418 47.2561 113.723 40.1546 100.366 40.1546C79.8661 40.1546 63.1995 56.8293 63.1995 77.3098C63.1995 90.6627 70.2769 102.381 80.8865 108.933L42.3859 120.219L9.40586 38.1929ZM92.2549 143.93L51.5041 125.791L92.7912 113.68C92.7912 113.68 92.8174 113.68 92.8305 113.68C91.7316 119.134 91.1429 124.771 91.1429 130.538C91.1429 134.998 91.5354 139.471 92.2418 143.917L92.2549 143.93ZM94.832 105.807C94.2172 105.69 93.6154 105.533 93.0136 105.376C80.5464 102.106 71.3235 90.7804 71.3235 77.3098C71.3235 61.289 84.3533 48.2631 100.379 48.2631C110.949 48.2631 120.198 53.9521 125.274 62.4137C111.276 72.9417 100.627 87.6808 95.1853 104.722C95.0675 105.075 94.9498 105.441 94.832 105.794V105.807ZM176.386 181.373L139.952 165.156C139.128 162.266 138.696 159.297 138.696 156.328C138.696 137.117 155.598 121.488 176.386 121.488C197.173 121.488 214.075 137.117 214.075 156.328C214.075 159.31 213.644 162.266 212.82 165.156L176.373 181.373H176.386ZM251.49 147.945L221.872 161.128C222.069 159.533 222.186 157.937 222.186 156.328C222.186 132.644 201.634 113.366 176.373 113.366C151.111 113.366 130.572 132.644 130.572 156.328C130.572 157.937 130.69 159.533 130.886 161.128L101.268 147.945C99.9471 142.217 99.2538 136.371 99.2538 130.551C99.2538 124.731 99.8556 119.631 100.968 114.426C101.216 113.288 101.504 112.15 101.792 111.025C102.223 109.391 102.681 107.782 103.218 106.187C103.702 104.722 104.264 103.296 104.84 101.871C109.876 89.3549 118.079 78.4345 128.492 70.1691C130.729 68.3905 133.058 66.7426 135.478 65.2255C143.511 60.1773 152.537 56.6201 162.179 54.8022C164.821 54.3052 167.503 53.9129 170.237 53.7036C172.265 53.5467 174.306 53.4421 176.386 53.4421C178.466 53.4421 180.52 53.5467 182.561 53.7036C185.295 53.926 187.977 54.3052 190.619 54.8022C200.248 56.607 209.274 60.1773 217.294 65.2125C219.714 66.7295 222.042 68.3905 224.28 70.156C234.68 78.4215 242.869 89.3025 247.906 101.805C248.481 103.244 249.057 104.696 249.541 106.173C250.064 107.743 250.522 109.351 250.954 110.96C251.255 112.098 251.543 113.249 251.791 114.4C252.903 119.605 253.505 124.993 253.505 130.525C253.505 136.345 252.825 142.191 251.503 147.919L251.49 147.945ZM257.94 105.807C257.822 105.428 257.691 105.062 257.574 104.683C252.131 87.6547 241.496 72.9286 227.511 62.4137C232.587 53.9521 241.836 48.2631 252.406 48.2631C268.432 48.2631 281.461 61.289 281.461 77.3098C281.461 90.7542 272.265 102.054 259.85 105.35C259.222 105.52 258.594 105.676 257.953 105.807H257.94ZM260.517 143.93C261.223 139.497 261.616 135.024 261.616 130.564C261.616 124.797 261.027 119.16 259.928 113.707C259.968 113.707 260.007 113.68 260.046 113.68L301.268 125.804L260.517 143.943V143.93ZM310.412 120.219L271.925 108.907C282.508 102.355 289.572 90.6496 289.572 77.3098C289.572 56.8162 272.893 40.1546 252.406 40.1546C239.049 40.1546 227.354 47.2561 220.8 57.8625C212.532 52.8012 203.348 49.1262 193.55 47.1122L208.215 8.57069L343.392 38.2059L310.412 120.233V120.219Z" fill="black"/>
</svg>
